<svg width="103" height="47" viewBox="0 0 103 47" fill="none" xmlns="http://www.w3.org/2000/svg">
<path d="M96.72 33.5879C95.57 33.5879 94.63 32.6479 94.63 31.4979V0.147949H90.45V31.4979C90.45 34.958 93.26 37.7679 96.72 37.7679H102.94V33.5879H96.72ZM86.27 31.4979V0.147949H82.09V31.4979C82.09 39.5679 88.65 46.1279 96.72 46.1279H102.94V41.9479H96.72C90.96 41.9479 86.27 37.2579 86.27 31.4979Z" fill="white"/>
<path d="M26.92 0.147949L0.540039 46.118H5.36004L31.74 0.147949H26.92Z" fill="white"/>
<path d="M28.96 25.2279H25.32C23.09 25.2279 21.01 26.4279 19.89 28.3679L9.71004 46.1279H14.53L23.52 30.4579C23.89 29.8079 24.59 29.4079 25.33 29.4079H28.97C30.12 29.4079 31.06 30.3479 31.06 31.4979V46.1279H35.24V31.4979C35.24 28.0379 32.43 25.2279 28.97 25.2279" fill="white"/>
<path d="M30.41 10.0779L26.79 16.3479C26.51 16.8279 26.37 17.368 26.37 17.9179C26.37 18.7579 26.7 19.5379 27.29 20.1379C27.88 20.7279 28.67 21.0579 29.5 21.0579H34.97V16.8779H31.31L33.72 12.6979H34.97V8.51795H33.12C32 8.51795 30.97 9.11795 30.41 10.0879" fill="white"/>
<path d="M43.41 0.147949H36.08L33.68 4.32795H43.4C49.16 4.32795 53.85 9.01795 53.85 14.7779C53.85 17.3479 52.9 19.8279 51.19 21.7379L49.94 23.1279L51.19 24.518C52.91 26.438 53.85 28.9079 53.85 31.4879C53.85 37.2479 49.16 41.938 43.4 41.938H37.13V46.118H43.4C51.47 46.118 58.03 39.5579 58.03 31.4879C58.03 28.4779 57.11 25.5679 55.41 23.1279C57.11 20.6879 58.03 17.7779 58.03 14.7679C58.04 6.70795 51.48 0.147949 43.41 0.147949Z" fill="white"/>
<path d="M43.41 16.8679H37.14V21.0479H43.41C46.87 21.0479 49.68 18.2379 49.68 14.7779C49.68 11.3179 46.87 8.50795 43.41 8.50795H37.14V12.6879H43.41C44.56 12.6879 45.5 13.6279 45.5 14.7779C45.5 15.9279 44.56 16.8679 43.41 16.8679Z" fill="white"/>
<path d="M43.41 33.5779H37.14V37.7579H43.41C46.87 37.7579 49.68 34.9479 49.68 31.4879C49.68 28.028 46.87 25.2179 43.41 25.2179H37.14V29.3979H43.41C44.56 29.3979 45.5 30.3379 45.5 31.4879C45.5 32.638 44.56 33.5779 43.41 33.5779Z" fill="white"/>
<path d="M66.23 0.147949H58.9L56.5 4.32795H66.22C71.98 4.32795 76.67 9.01795 76.67 14.7779C76.67 17.3479 75.72 19.8279 74.01 21.7379L72.76 23.1279L74.01 24.518C75.73 26.438 76.67 28.9079 76.67 31.4879C76.67 37.2479 71.98 41.938 66.22 41.938H59.95V46.118H66.22C74.29 46.118 80.85 39.5579 80.85 31.4879C80.85 28.4779 79.93 25.5679 78.23 23.1279C79.93 20.6879 80.85 17.7779 80.85 14.7679C80.85 6.70795 74.29 0.147949 66.23 0.147949Z" fill="white"/>
<path d="M66.22 16.8679H59.95V21.0479H66.22C69.68 21.0479 72.49 18.2379 72.49 14.7779C72.49 11.3179 69.68 8.50795 66.22 8.50795H59.95V12.6879H66.22C67.37 12.6879 68.31 13.6279 68.31 14.7779C68.31 15.9279 67.37 16.8679 66.22 16.8679Z" fill="white"/>
<path d="M66.22 33.5779H59.95V37.7579H66.22C69.68 37.7579 72.49 34.9479 72.49 31.4879C72.49 28.028 69.68 25.2179 66.22 25.2179H59.95V29.3979H66.22C67.37 29.3979 68.31 30.3379 68.31 31.4879C68.31 32.638 67.37 33.5779 66.22 33.5779Z" fill="white"/>
</svg>
