<svg width="179" height="81" viewBox="0 0 179 81" fill="none" xmlns="http://www.w3.org/2000/svg">
<path d="M149.176 55.1354V0.594727H141.911V55.1354C141.911 69.1601 153.325 80.5947 167.37 80.5947H178.194V73.3297H167.37C157.347 73.3297 149.197 65.1801 149.197 55.1565L149.176 55.1354ZM167.349 58.7785C165.349 58.7785 163.706 57.157 163.706 55.1354V0.594727H156.441V55.1354C156.441 61.158 161.327 66.0435 167.349 66.0435H178.173V58.7785H167.349Z" fill="#001E6F"/>
<path d="M45.9068 0.594727L0 80.5947H8.38115L54.288 0.594727H45.9068Z" fill="#001E6F"/>
<path d="M43.1271 44.2273C39.2524 44.2273 35.6304 46.312 33.672 49.6813L15.9621 80.5737H24.3432L39.9895 53.3033C40.6423 52.1873 41.8426 51.4923 43.1482 51.4923H49.4656C51.4662 51.4923 53.1087 53.1138 53.1087 55.1354V80.5947H60.3738V55.1354C60.3738 49.1128 55.4883 44.2273 49.4656 44.2273H43.1271Z" fill="#001E6F"/>
<path d="M51.9716 17.8624L45.6752 28.7706C45.1908 29.5918 44.9381 30.5394 44.9381 31.4871C44.9381 32.9401 45.5067 34.3089 46.5386 35.3407C47.5704 36.3726 48.9392 36.9411 50.3922 36.9411H59.9105V29.6761H53.5509L57.7415 22.411H59.9105V15.1459H56.6886C54.7513 15.1459 52.9402 16.1988 51.9716 17.8624Z" fill="#001E6F"/>
<path d="M74.588 0.594727H61.8268L57.6573 7.8598H74.567C84.5907 7.8598 92.7402 16.0093 92.7402 26.033C92.7402 30.5184 91.0977 34.8143 88.1074 38.1414L85.9384 40.5631L88.1074 42.9848C91.0977 46.312 92.7402 50.6289 92.7402 55.0933C92.7402 65.117 84.5907 73.2665 74.567 73.2665H63.6589V80.5315H74.567C88.5917 80.5315 100.026 69.118 100.026 55.0722C100.026 49.8498 98.4259 44.7748 95.4567 40.521C98.4259 36.2673 100.026 31.2133 100.026 25.9698C100.047 12.0083 88.6339 0.594727 74.588 0.594727Z" fill="#001E6F"/>
<path d="M74.588 29.6761H63.6799V36.9411H74.588C80.6107 36.9411 85.4962 32.0556 85.4962 26.033C85.4962 20.0104 80.6107 15.1249 74.588 15.1249H63.6799V22.3899H74.588C76.5886 22.3899 78.2311 24.0114 78.2311 26.033C78.2311 28.0546 76.6096 29.6761 74.588 29.6761Z" fill="#001E6F"/>
<path d="M74.588 58.7785H63.6799V66.0435H74.588C80.6107 66.0435 85.4962 61.158 85.4962 55.1354C85.4962 49.1128 80.6107 44.2273 74.588 44.2273H63.6799V51.4923H74.588C76.5886 51.4923 78.2311 53.1138 78.2311 55.1354C78.2311 57.157 76.6096 58.7785 74.588 58.7785Z" fill="#001E6F"/>
<path d="M114.283 0.594727H101.521L97.3519 7.8598H114.262C124.285 7.8598 132.435 16.0093 132.435 26.033C132.435 30.5184 130.792 34.8143 127.802 38.1414L125.633 40.5631L127.802 42.9848C130.792 46.312 132.435 50.6289 132.435 55.0933C132.435 65.117 124.285 73.2665 114.262 73.2665H103.354V80.5315H114.262C128.286 80.5315 139.721 69.118 139.721 55.0722C139.721 49.8498 138.121 44.7748 135.151 40.521C138.121 36.2673 139.721 31.2133 139.721 25.9698C139.742 12.0083 128.329 0.594727 114.283 0.594727Z" fill="#001E6F"/>
<path d="M114.283 29.6761H103.375V36.9411H114.283C120.305 36.9411 125.191 32.0556 125.191 26.033C125.191 20.0104 120.305 15.1249 114.283 15.1249H103.375V22.3899H114.283C116.283 22.3899 117.926 24.0114 117.926 26.033C117.926 28.0546 116.304 29.6761 114.283 29.6761Z" fill="#001E6F"/>
<path d="M114.283 58.7785H103.375V66.0435H114.283C120.305 66.0435 125.191 61.158 125.191 55.1354C125.191 49.1128 120.305 44.2273 114.283 44.2273H103.375V51.4923H114.283C116.283 51.4923 117.926 53.1138 117.926 55.1354C117.926 57.157 116.304 58.7785 114.283 58.7785Z" fill="#001E6F"/>
</svg>
