<svg width="161" height="88" viewBox="0 0 161 88" fill="none" xmlns="http://www.w3.org/2000/svg">
<path d="M93.8375 10.0661L97.5477 6.35583C93.452 2.45681 87.9186 0.0595767 81.8312 0.0595767C70.1623 0.0595767 60.5131 8.8655 59.1719 20.1851H64.4643C65.7693 11.7727 73.0614 5.30779 81.8312 5.30779C86.4731 5.30779 90.6933 7.11877 93.8375 10.0661Z" fill="#52383E"/>
<path d="M59.1719 25.5819C60.5131 36.8975 70.1623 45.7074 81.8312 45.7074C88.1234 45.7074 93.8294 43.1455 97.9613 39.0136L94.251 35.3033C91.0668 38.4876 86.6739 40.4592 81.8272 40.4592C73.0534 40.4592 65.7613 33.9983 64.4603 25.5859H59.1679L59.1719 25.5819Z" fill="#D8356E"/>
<path d="M50.7113 25.5819H25.7472L15.9494 45.7315H21.5992L28.8311 30.8662H47.6275L54.8553 45.7315H60.5091L50.7113 25.5819Z" fill="#52383E"/>
<path d="M38.2272 0.0234375L35.4124 5.78563L42.4114 20.1731H48.0611L38.2634 0.0234375H38.2272Z" fill="#52383E"/>
<path d="M134.876 25.5819H109.915L100.118 45.7315H105.767L112.995 30.8662H131.796L139.023 45.7315H144.677L134.876 25.5819Z" fill="#D8356E"/>
<path d="M122.395 0.0234375L119.581 5.78563L126.576 20.1731H132.229L122.432 0.0234375H122.395Z" fill="#D8356E"/>
<path d="M151.134 58.7095C150.652 58.2517 150.002 58.067 149.351 58.067C148.199 58.067 147.058 58.6653 147.058 59.9463C147.058 62.1708 150.01 61.3878 150.01 62.7491C150.01 63.3193 149.428 63.6003 148.922 63.6003C148.416 63.6003 147.966 63.3634 147.693 62.9498L146.858 63.7569C147.368 64.3633 148.123 64.6002 148.894 64.6002C150.114 64.6002 151.17 63.9497 151.17 62.6125C151.17 60.4 148.219 61.1107 148.219 59.8619C148.219 59.2917 148.729 59.0629 149.239 59.0629C149.669 59.0629 150.094 59.2195 150.327 59.5527L151.138 58.7015L151.134 58.7095ZM141.822 64.4476H146.103V63.4477H142.931V61.7612H145.786V60.7574H142.931V59.2275H145.946V58.2276H141.822V64.4476ZM139.268 64.4476H140.377V58.2276H139.268V64.4476ZM132.217 64.4476H133.326V59.6772H133.342L136.417 64.4476H137.823V58.2276H136.715V62.8494L136.699 62.8655H136.715L136.699 62.8494L133.683 58.2276H132.217V64.4476ZM130.828 60.8096H128.447V61.8094H129.72V63.2751C129.334 63.4959 128.824 63.6003 128.262 63.6003C126.981 63.6003 126.126 62.6165 126.126 61.2914C126.126 60.0507 126.977 59.0669 128.262 59.0669C128.884 59.0669 129.495 59.2877 129.888 59.6732L130.703 58.846C130.053 58.2678 129.202 58.063 128.254 58.063C126.339 58.063 124.965 59.364 124.965 61.3597C124.965 63.3554 126.335 64.6002 128.254 64.6002C129.21 64.6002 130.073 64.3874 130.828 63.9858V60.8056V60.8096ZM120.356 62.0745L121.331 59.5447L122.287 62.0745H120.352H120.356ZM118.179 64.4476H119.42L119.982 63.0261H122.681L123.263 64.4476H124.528L121.849 58.2276H120.894L118.187 64.4476H118.179ZM115.176 60.926V59.1753H115.967C116.565 59.1753 117.296 59.2797 117.296 60.0466C117.296 60.8899 116.481 60.926 115.846 60.926H115.176ZM114.067 64.4476H115.176V61.8737H115.967C117.288 61.8737 118.456 61.5926 118.456 60.0266C118.456 58.6452 117.368 58.2276 116.163 58.2276H114.071V64.4476H114.067ZM106.928 64.4476V59.2797H106.944L108.835 64.4476H109.606L111.497 59.2797H111.514V64.4476H112.566V58.2276H110.895L109.217 62.5844L107.554 58.2276H105.868V64.4476H106.928ZM99.2744 61.2955C99.2744 60.0547 100.126 59.0709 101.411 59.0709C102.696 59.0709 103.555 60.0547 103.555 61.2955C103.555 62.6206 102.704 63.6043 101.411 63.6043C100.118 63.6043 99.2744 62.6206 99.2744 61.2955ZM98.1139 61.3637C98.1139 63.3032 99.4832 64.6042 101.403 64.6042C103.342 64.5681 104.715 63.267 104.715 61.3276C104.715 59.3881 103.346 58.0309 101.403 58.067C99.4872 58.067 98.1139 59.368 98.1139 61.3637ZM97.4755 59.0548C96.8611 58.3441 96.1383 58.071 95.2951 58.071C93.3797 58.071 92.0104 59.372 92.0104 61.3677C92.0104 63.3634 93.3797 64.6082 95.2951 64.6082C96.2106 64.6082 97.0498 64.2749 97.616 63.4999L96.7005 62.8494C96.2869 63.3755 95.805 63.6043 95.3031 63.6043C94.0222 63.6043 93.1669 62.6206 93.1669 61.2955C93.1669 60.0547 94.0182 59.0709 95.3031 59.0709C95.7327 59.0709 96.1544 59.2034 96.6121 59.6853L97.4715 59.0548H97.4755ZM88.8783 58.7095C88.3965 58.2517 87.746 58.067 87.0955 58.067C85.943 58.067 84.8027 58.6653 84.8027 59.9463C84.8027 62.1708 87.754 61.3878 87.754 62.7491C87.754 63.3193 87.1758 63.6003 86.6658 63.6003C86.1559 63.6003 85.7061 63.3634 85.4331 62.9498L84.5979 63.7569C85.1078 64.3633 85.8627 64.6002 86.6377 64.6002C87.8584 64.6002 88.9145 63.9497 88.9145 62.6125C88.9145 60.4 85.9631 61.1107 85.9631 59.8619C85.9631 59.2917 86.4731 59.0629 86.983 59.0629C87.4127 59.0629 87.8343 59.2195 88.0712 59.5527L88.8783 58.7015V58.7095ZM79.5665 64.4476H83.847V63.4477H80.6748V61.7612H83.5297V60.7574H80.6748V59.2275H83.6864V58.2276H79.5665V64.4476ZM73.9207 63.4477V59.2315H74.9326C76.2858 59.2315 77.2696 59.8298 77.2696 61.3396C77.2696 62.8494 76.1373 63.4477 74.7479 63.4477H73.9207ZM72.8165 64.4476H75.1374C76.6312 64.4476 78.4341 63.4638 78.4341 61.3356C78.4341 59.2074 76.9042 58.2276 75.2699 58.2276H72.8205V64.4476H72.8165ZM64.645 64.4476V59.6772H64.6611L67.7369 64.4476H69.1423V58.2276H68.0341V62.8494L68.018 62.8655H68.0341L68.018 62.8494L65.0024 58.2276H63.5367V64.4476H64.645ZM56.9634 61.2955C56.9634 60.0547 57.8147 59.0709 59.0996 59.0709C60.3846 59.0709 61.2439 60.0547 61.2439 61.2955C61.2439 62.6206 60.3926 63.6043 59.0996 63.6043C57.8067 63.6043 56.9634 62.6206 56.9634 61.2955ZM55.8029 61.3637C55.8029 63.3032 57.1722 64.6042 59.0876 64.6042C61.0271 64.5681 62.4004 63.267 62.4004 61.3276C62.4004 59.3881 61.0311 58.0309 59.0876 58.067C57.1722 58.067 55.8029 59.368 55.8029 61.3637ZM53.5864 64.4476H54.6947V58.2276H53.5864V64.4476ZM49.7597 64.4476H50.8679V59.2275H52.7753V58.2276H47.8523V59.2275H49.7597V64.4476ZM44.3508 62.0745L45.3266 59.5447L46.2823 62.0745H44.3508ZM42.1704 64.4476H43.4112L43.9734 63.0261H46.6718L47.254 64.4476H48.5189L45.8366 58.2276H44.8769L42.1704 64.4476ZM40.3113 64.4476H41.4195V58.2276H40.3113V64.4476ZM39.3676 59.0548C38.7533 58.3441 38.0305 58.071 37.1872 58.071C35.2719 58.071 33.8986 59.372 33.8986 61.3677C33.8986 63.3634 35.2719 64.6082 37.1872 64.6082C38.0988 64.6082 38.942 64.2749 39.5082 63.4999L38.5927 62.8494C38.1791 63.3755 37.6972 63.6043 37.1953 63.6043C35.9103 63.6043 35.059 62.6206 35.059 61.2955C35.059 60.0547 35.9103 59.0709 37.1953 59.0709C37.6249 59.0709 38.0466 59.2034 38.5043 59.6853L39.3636 59.0548H39.3676ZM27.6585 61.2955C27.6585 60.0547 28.5098 59.0709 29.7948 59.0709C31.0797 59.0709 31.939 60.0547 31.939 61.2955C31.939 62.6206 31.0877 63.6043 29.7948 63.6043C28.5018 63.6043 27.6585 62.6206 27.6585 61.2955ZM26.4981 61.3637C26.4981 63.3032 27.8673 64.6042 29.7827 64.6042C31.7262 64.5681 33.0955 63.267 33.0955 61.3276C33.0955 59.3881 31.7262 58.0309 29.7827 58.067C27.8673 58.067 26.4981 59.368 26.4981 61.3637ZM25.5625 58.7095C25.0806 58.2517 24.4301 58.067 23.7796 58.067C22.6272 58.067 21.4868 58.6653 21.4868 59.9463C21.4868 62.1708 24.4381 61.3878 24.4381 62.7491C24.4381 63.3193 23.8559 63.6003 23.3499 63.6003C22.844 63.6003 22.3943 63.3634 22.1212 62.9498L21.286 63.7569C21.796 64.3633 22.5509 64.6002 23.3258 64.6002C24.5466 64.6002 25.6026 63.9497 25.6026 62.6125C25.6026 60.4 22.6513 61.1107 22.6513 59.8619C22.6513 59.2917 23.1612 59.0629 23.6712 59.0629C24.1008 59.0629 24.5225 59.2195 24.7594 59.5527L25.5665 58.7015L25.5625 58.7095ZM20.4347 58.7095C19.9488 58.2517 19.3024 58.067 18.6478 58.067C17.4954 58.067 16.355 58.6653 16.355 59.9463C16.355 62.1708 19.3064 61.3878 19.3064 62.7491C19.3064 63.3193 18.7281 63.6003 18.2182 63.6003C17.7082 63.6003 17.2585 63.3634 16.9894 62.9498L16.1542 63.7569C16.6642 64.3633 17.4191 64.6002 18.1941 64.6002C19.4148 64.6002 20.4709 63.9497 20.4709 62.6125C20.4709 60.4 17.5195 61.1107 17.5195 59.8619C17.5195 59.2917 18.0294 59.0629 18.5394 59.0629C18.9691 59.0629 19.3907 59.2195 19.6276 59.5527L20.4347 58.7015V58.7095ZM11.6368 62.0745L12.6126 59.5447L13.5683 62.0745H11.6368ZM9.45642 64.4476H10.6972L11.2594 63.0261H13.9578L14.536 64.4476H15.8009L13.1185 58.2276H12.1629L9.45642 64.4476Z" fill="#1D1D1B"/>
<path d="M138.779 84.4205H137.152V84.9345H138.228V86.364C137.883 86.5367 137.445 86.6331 137.068 86.6331C135.924 86.6331 135.137 85.8099 135.137 84.6976C135.137 83.5853 135.948 82.7621 137.016 82.7621C137.49 82.7621 137.971 82.9549 138.285 83.2962L138.702 82.8625C138.261 82.4168 137.666 82.2522 137.056 82.2522C135.659 82.2522 134.546 83.232 134.546 84.7016C134.546 86.1713 135.586 87.151 137.036 87.151C137.642 87.151 138.249 87.0105 138.783 86.7174V84.4246L138.779 84.4205ZM131.342 82.8786H132.121C132.663 82.8786 133.249 82.975 133.249 83.6496C133.249 84.4205 132.45 84.4205 131.84 84.4205H131.346V82.8786H131.342ZM130.788 87.0306H131.342V84.9345H132.053L133.318 87.0306H133.996L132.671 84.8823C133.394 84.7699 133.836 84.3282 133.836 83.6496C133.836 82.4971 132.88 82.3646 131.98 82.3646H130.788V87.0306ZM129.647 82.3646H129.093V85.1714C129.093 85.9223 128.816 86.6331 127.889 86.6331C126.961 86.6331 126.684 85.9223 126.684 85.1714V82.3646H126.13V85.2517C126.13 86.2676 126.604 87.147 127.889 87.147C129.174 87.147 129.647 86.2636 129.647 85.2517V82.3646ZM122.825 86.6331C121.733 86.6331 120.982 85.7697 120.982 84.6976C120.982 83.6255 121.733 82.7621 122.825 82.7621C123.917 82.7621 124.668 83.6255 124.668 84.6976C124.668 85.7697 123.917 86.6331 122.825 86.6331ZM122.825 87.147C124.243 87.147 125.263 86.107 125.263 84.6976C125.263 83.2882 124.243 82.2482 122.825 82.2482C121.408 82.2482 120.388 83.2882 120.388 84.6976C120.388 86.107 121.408 87.147 122.825 87.147ZM117.059 84.8542H118.007C118.565 84.8542 119.119 85.051 119.119 85.7055C119.119 86.2998 118.533 86.5166 117.99 86.5166H117.055V84.8582L117.059 84.8542ZM117.059 82.8786H117.882C118.384 82.8786 118.882 83.0111 118.882 83.5853C118.882 84.2318 118.344 84.3442 117.822 84.3442H117.059V82.8786ZM116.505 87.0306H117.894C118.757 87.0306 119.713 86.7535 119.713 85.7256C119.713 85.1112 119.259 84.6334 118.661 84.5771V84.5651C119.163 84.4125 119.476 84.0511 119.476 83.513C119.476 82.6577 118.701 82.3686 117.93 82.3686H116.505V87.0346V87.0306ZM110.53 87.0306H111.084V83.1195H111.096L112.77 87.0306H113.108L114.778 83.1195H114.794V87.0306H115.348V82.3646H114.545L112.951 86.0187H112.935L111.353 82.3646H110.53V87.0306ZM106.623 87.0306H109.674V86.5166H107.177V84.8582H109.397V84.3442H107.177V82.8826H109.554V82.3686H106.623V87.0346V87.0306ZM101.876 87.0306H102.559L103.948 84.9626L105.334 87.0306H106.065L104.346 84.5731L105.912 82.3686H105.221L103.977 84.1957L102.72 82.3686H102.009L103.575 84.5731L101.876 87.0306ZM101.334 82.3646H100.78V85.1714C100.78 85.9223 100.503 86.6331 99.5755 86.6331C98.648 86.6331 98.3709 85.9223 98.3709 85.1714V82.3646H97.8168V85.2517C97.8168 86.2676 98.2906 87.147 99.5755 87.147C100.86 87.147 101.334 86.2636 101.334 85.2517V82.3646ZM94.5442 87.0306H97.2305V86.5166H95.0943V82.3686H94.5442V87.0346V87.0306ZM88.8021 87.0306H91.8538V86.5166H89.3602V84.8582H91.5808V84.3442H89.3602V82.8826H91.7374V82.3686H88.8061V87.0346L88.8021 87.0306ZM84.3891 82.8786H85.4451C86.5132 82.8786 87.3203 83.4207 87.3203 84.6976C87.3203 85.9745 86.5092 86.5166 85.4451 86.5166H84.3891V82.8786ZM83.8389 87.0306H85.6298C86.5454 87.0306 87.9186 86.4162 87.9186 84.6976C87.9186 82.979 86.5494 82.3646 85.6298 82.3646H83.8389V87.0306ZM78.1852 87.0306H81.2369V86.5166H78.7393V84.8582H80.9598V84.3442H78.7393V82.8826H81.1164V82.3686H78.1852V87.0346V87.0306ZM79.1047 82.0353H79.5705L80.5141 81.0877H79.7913L79.1047 82.0353ZM73.4268 87.0306H73.981V84.8542H76.4706V87.0306H77.0247V82.3646H76.4706V84.3402H73.981V82.3646H73.4268V87.0306ZM72.5394 82.975C72.1459 82.461 71.5275 82.2441 70.8931 82.2441C69.5077 82.2441 68.5199 83.3243 68.5199 84.6936C68.5199 86.0629 69.5519 87.143 70.8931 87.143C71.6359 87.143 72.2423 86.886 72.6559 86.3239L72.2423 85.9745C71.913 86.3961 71.4593 86.625 70.8931 86.625C69.845 86.625 69.1142 85.7697 69.1142 84.6896C69.1142 83.6696 69.8531 82.7541 70.8931 82.7541C71.3388 82.7541 71.7805 82.9469 72.0576 83.3203L72.5394 82.971V82.975ZM67.0985 82.3646V85.1714C67.0985 85.9223 66.8214 86.6331 65.8938 86.6331C64.9662 86.6331 64.6892 85.9223 64.6892 85.1714V82.3646H64.135V85.2517C64.135 86.2676 64.6089 87.147 65.8978 87.147C67.1868 87.147 67.6566 86.2636 67.6566 85.2517V82.3646H67.0985ZM59.7381 82.8786H60.7942C61.8623 82.8786 62.6734 83.4207 62.6734 84.6976C62.6734 85.9745 61.8623 86.5166 60.7942 86.5166H59.7381V82.8786ZM59.184 87.0306H60.9749C61.8904 87.0306 63.2597 86.4162 63.2597 84.6976C63.2597 82.979 61.8904 82.3646 60.9749 82.3646H59.184V87.0306ZM56.9233 84.8863H58.401V84.4125H56.9233V84.8863ZM52.6628 82.8786H53.7149C54.783 82.8786 55.5941 83.4207 55.5941 84.6976C55.5941 85.9745 54.783 86.5166 53.7149 86.5166H52.6628V82.8786ZM52.1087 87.0306H53.8996C54.8151 87.0306 56.1844 86.4162 56.1844 84.6976C56.1844 82.979 54.8151 82.3646 53.8996 82.3646H52.1087V87.0306ZM47.0693 87.0306H47.6194V83.1557H47.6355L50.3379 87.0306H51.0366V82.3646H50.4825V86.2395H50.4704L47.768 82.3646H47.0693V87.0306ZM45.1178 85.3682H43.2145L44.1822 83.0754H44.1942L45.1138 85.3682H45.1178ZM41.8934 87.0306H42.5198L43.0016 85.8822H45.3346L45.8084 87.0306H46.4549L44.4713 82.3646H43.9493L41.8934 87.0306ZM38.9621 82.8786H39.7411C40.2832 82.8786 40.8654 82.975 40.8654 83.6496C40.8654 84.4205 40.0703 84.4205 39.456 84.4205H38.9621V82.8786ZM38.4079 87.0306H38.9621V84.9345H39.6728L40.9377 87.0306H41.6163L40.2952 84.8823C41.018 84.7699 41.4597 84.3282 41.4597 83.6496C41.4597 82.4971 40.504 82.3646 39.6046 82.3646H38.412V87.0306H38.4079ZM37.2475 84.4205H35.6212V84.9345H36.6974V86.364C36.356 86.5367 35.9143 86.6331 35.5369 86.6331C34.3885 86.6331 33.6054 85.8099 33.6054 84.6976C33.6054 83.5853 34.4166 82.7621 35.4847 82.7621C35.9585 82.7621 36.4404 82.9549 36.7536 83.2962L37.1712 82.8625C36.7295 82.4168 36.1392 82.2522 35.5248 82.2522C34.1275 82.2522 33.0152 83.232 33.0152 84.7016C33.0152 86.1713 34.0552 87.151 35.5088 87.151C36.1151 87.151 36.7214 87.0105 37.2515 86.7174V84.4246L37.2475 84.4205ZM30.3087 82.3646H29.7546V85.1714C29.7546 85.9223 29.4775 86.6331 28.55 86.6331C27.6224 86.6331 27.3453 85.9223 27.3453 85.1714V82.3646H26.7912V85.2517C26.7912 86.2676 27.265 87.147 28.55 87.147C29.8349 87.147 30.3087 86.2636 30.3087 85.2517V82.3646ZM22.3983 82.8786H23.4503C24.5184 82.8786 25.3296 83.4207 25.3296 84.6976C25.3296 85.9745 24.5184 86.5166 23.4503 86.5166H22.3983V82.8786ZM21.8441 87.0306H23.635C24.5506 87.0306 25.9198 86.4162 25.9198 84.6976C25.9198 82.979 24.5506 82.3646 23.635 82.3646H21.8441V87.0306Z" fill="#1D1D1B"/>
<path d="M160.591 69.5071C160.109 69.0493 159.458 68.8646 158.808 68.8646C157.655 68.8646 156.515 69.4629 156.515 70.7439C156.515 72.9684 159.466 72.1854 159.466 73.5466C159.466 74.1168 158.884 74.3979 158.378 74.3979C157.872 74.3979 157.422 74.161 157.149 73.7474L156.314 74.5545C156.824 75.1609 157.579 75.3978 158.354 75.3978C159.575 75.3978 160.631 74.7473 160.631 73.4101C160.631 71.1976 157.679 71.9083 157.679 70.6595C157.679 70.0893 158.189 69.8604 158.699 69.8604C159.129 69.8604 159.551 70.0211 159.787 70.3503L160.595 69.4991L160.591 69.5071ZM151.407 75.2452H155.688V74.2453H152.515V72.5588H155.374V71.555H152.515V70.0291H155.531V69.0252H151.407V75.2452ZM150.564 69.8484C149.95 69.1377 149.227 68.8646 148.384 68.8646C146.468 68.8646 145.099 70.1656 145.099 72.1613C145.099 74.157 146.468 75.4018 148.384 75.4018C149.299 75.4018 150.138 75.0685 150.704 74.2935L149.789 73.643C149.375 74.169 148.894 74.3979 148.392 74.3979C147.111 74.3979 146.255 73.4141 146.255 72.089C146.255 70.8483 147.107 69.8645 148.392 69.8645C148.821 69.8645 149.243 69.997 149.701 70.4788L150.56 69.8444L150.564 69.8484ZM138.481 75.2452H139.586V70.4748H139.606L142.682 75.2452H144.087V69.0252H142.979V73.647L142.963 73.6671H142.979L142.963 73.647L139.947 69.0252H138.481V75.2452ZM133.667 72.872L134.643 70.3423L135.598 72.872H133.663H133.667ZM132.723 75.2452L133.285 73.8197H135.984L136.562 75.2452H137.827L135.145 69.0252H134.189L131.482 75.2452H132.723ZM127.796 69.9729H128.752C129.322 69.9729 130.009 70.0612 130.009 70.8001C130.009 71.6072 129.278 71.6634 128.656 71.6634H127.796V69.9729ZM126.688 75.2452H127.796V72.611H128.603L130.045 75.2452H131.378L129.728 72.4946C130.647 72.3621 131.169 71.7035 131.169 70.8081C131.169 69.4107 130.045 69.0252 128.848 69.0252H126.688V75.2452ZM125.371 69.0252H124.263V72.9242C124.263 73.5386 123.929 74.3457 122.865 74.3457C121.801 74.3457 121.468 73.5386 121.468 72.9242V69.0252H120.36V72.9604C120.36 74.4622 121.44 75.4018 122.865 75.4018C124.291 75.4018 125.371 74.4622 125.371 72.9604V69.0252ZM119.247 69.5071C118.765 69.0493 118.115 68.8646 117.46 68.8646C116.308 68.8646 115.168 69.4629 115.168 70.7439C115.168 72.9684 118.119 72.1854 118.119 73.5466C118.119 74.1168 117.537 74.3979 117.031 74.3979C116.525 74.3979 116.071 74.161 115.798 73.7474L114.963 74.5545C115.473 75.1609 116.228 75.3978 116.999 75.3978C118.219 75.3978 119.275 74.7473 119.275 73.4101C119.275 71.1976 116.324 71.9083 116.324 70.6595C116.324 70.0893 116.834 69.8604 117.344 69.8604C117.774 69.8604 118.195 70.0211 118.432 70.3503L119.239 69.4991L119.247 69.5071ZM114.248 69.5071C113.766 69.0493 113.116 68.8646 112.465 68.8646C111.313 68.8646 110.172 69.4629 110.172 70.7439C110.172 72.9684 113.124 72.1854 113.124 73.5466C113.124 74.1168 112.546 74.3979 112.036 74.3979C111.526 74.3979 111.076 74.161 110.807 73.7474L109.972 74.5545C110.482 75.1609 111.236 75.3978 112.011 75.3978C113.232 75.3978 114.288 74.7473 114.288 73.4101C114.288 71.1976 111.333 71.9083 111.333 70.6595C111.333 70.0893 111.843 69.8604 112.353 69.8604C112.782 69.8604 113.204 70.0211 113.441 70.3503L114.248 69.4991V69.5071ZM105.575 72.872L106.55 70.3423L107.506 72.872H105.575ZM103.394 75.2452H104.631L105.193 73.8197H107.892L108.474 75.2452H109.739L107.06 69.0252H106.105L103.398 75.2452H103.394ZM98.7644 75.2452H103.045V74.2453H99.8727V72.5588H102.732V71.555H99.8727V70.0291H102.888V69.0252H98.7684V75.2452H98.7644ZM94.3795 69.9729H95.3392C95.9094 69.9729 96.5961 70.0612 96.5961 70.8001C96.5961 71.6072 95.8653 71.6634 95.2429 71.6634H94.3795V69.9729ZM93.2713 75.2452H94.3795V72.611H95.1907L96.6322 75.2452H97.9694L96.315 72.4946C97.2386 72.3621 97.7565 71.7035 97.7565 70.8081C97.7565 69.4107 96.6322 69.0252 95.4356 69.0252H93.2753V75.2452H93.2713ZM86.192 75.2452H90.4725V74.2453H87.3003V72.5588H90.1553V71.555H87.3003V70.0291H90.3159V69.0252H86.192V75.2452ZM80.6707 74.2413V70.0251H81.6826C83.0358 70.0251 84.0196 70.6234 84.0196 72.1332C84.0196 73.643 82.8873 74.2413 81.4979 74.2413H80.6707ZM79.5665 75.2452H81.8874C83.3812 75.2452 85.1841 74.2614 85.1841 72.1332C85.1841 70.005 83.6542 69.0252 82.0239 69.0252H79.5705V75.2452H79.5665ZM74.0814 75.2452H75.1896V70.0291H77.097V69.0252H72.178V70.0291H74.0854V75.2452H74.0814ZM67.4839 75.2452H71.7644V74.2453H68.5922V72.5588H71.4472V71.555H68.5922V70.0291H71.6038V69.0252H67.4839V75.2452ZM64.5848 69.5071C64.0989 69.0493 63.4524 68.8646 62.8019 68.8646C61.6495 68.8646 60.5091 69.4629 60.5091 70.7439C60.5091 72.9684 63.4604 72.1854 63.4604 73.5466C63.4604 74.1168 62.8822 74.3979 62.3723 74.3979C61.8623 74.3979 61.4166 74.161 61.1395 73.7474L60.3043 74.5545C60.8142 75.1609 61.5692 75.3978 62.3441 75.3978C63.5648 75.3978 64.6209 74.7473 64.6209 73.4101C64.6209 71.1976 61.6695 71.9083 61.6695 70.6595C61.6695 70.0893 62.1795 69.8604 62.6895 69.8604C63.1191 69.8604 63.5408 70.0211 63.7777 70.3503L64.5848 69.4991V69.5071ZM55.4014 75.2452H59.6819V74.2453H56.5097V72.5588H59.3647V71.555H56.5097V70.0291H59.5253V69.0252H55.4054V75.2452H55.4014ZM54.5582 69.8484C53.9438 69.1377 53.221 68.8646 52.3778 68.8646C50.4624 68.8646 49.0891 70.1656 49.0891 72.1613C49.0891 74.157 50.4584 75.4018 52.3778 75.4018C53.2933 75.4018 54.1325 75.0685 54.6947 74.2935L53.7832 73.643C53.3696 74.169 52.8877 74.3979 52.3858 74.3979C51.1008 74.3979 50.2496 73.4141 50.2496 72.089C50.2496 70.8483 51.1008 69.8645 52.3858 69.8645C52.8154 69.8645 53.2371 69.997 53.6948 70.4788L54.5541 69.8444L54.5582 69.8484ZM42.4756 75.2452H43.5839V70.4748H43.5999L46.6758 75.2452H48.0812V69.0252H46.9729V73.647L46.9529 73.6671H46.9729L46.9529 73.647L43.9413 69.0252H42.4756V75.2452ZM37.6611 72.872L38.6368 70.3423L39.5965 72.872H37.6611ZM35.4807 75.2452H36.7174L37.2796 73.8197H39.978L40.5602 75.2452H41.8251L39.1468 69.0252H38.1871L35.4807 75.2452ZM31.7905 69.9729H32.7461C33.3163 69.9729 34.003 70.0612 34.003 70.8001C34.003 71.6072 33.2762 71.6634 32.6498 71.6634H31.7905V69.9729ZM30.6822 75.2452H31.7905V72.611H32.6016L34.0431 75.2452H35.3803L33.7259 72.4946C34.6495 72.3621 35.1675 71.7035 35.1675 70.8081C35.1675 69.4107 34.0431 69.0252 32.8465 69.0252H30.6822V75.2452ZM29.3651 69.0252H28.2568V72.9242C28.2568 73.5386 27.9236 74.3457 26.8595 74.3457C25.7954 74.3457 25.4621 73.5386 25.4621 72.9242V69.0252H24.3538V72.9604C24.3538 74.4622 25.434 75.4018 26.8554 75.4018C28.2769 75.4018 29.3611 74.4622 29.3611 72.9604V69.0252H29.3651ZM23.2415 69.5071C22.7557 69.0493 22.1092 68.8646 21.4587 68.8646C20.3062 68.8646 19.1658 69.4629 19.1658 70.7439C19.1658 72.9684 22.1172 72.1854 22.1172 73.5466C22.1172 74.1168 21.539 74.3979 21.029 74.3979C20.519 74.3979 20.0733 74.161 19.8003 73.7474L18.9651 74.5545C19.475 75.1609 20.2299 75.3978 21.0049 75.3978C22.2256 75.3978 23.2817 74.7473 23.2817 73.4101C23.2817 71.1976 20.3303 71.9083 20.3303 70.6595C20.3303 70.0893 20.8403 69.8604 21.3502 69.8604C21.7799 69.8604 22.2015 70.0211 22.4384 70.3503L23.2496 69.4991L23.2415 69.5071ZM18.2423 69.5071C17.7564 69.0493 17.1099 68.8646 16.4594 68.8646C15.307 68.8646 14.1666 69.4629 14.1666 70.7439C14.1666 72.9684 17.1179 72.1854 17.1179 73.5466C17.1179 74.1168 16.5357 74.3979 16.0297 74.3979C15.5238 74.3979 15.0741 74.161 14.801 73.7474L13.9658 74.5545C14.4758 75.1609 15.2307 75.3978 16.0057 75.3978C17.2264 75.3978 18.2824 74.7473 18.2824 73.4101C18.2824 71.1976 15.3311 71.9083 15.3311 70.6595C15.3311 70.0893 15.841 69.8604 16.351 69.8604C16.7806 69.8604 17.2023 70.0211 17.4392 70.3503L18.2463 69.4991L18.2423 69.5071ZM9.56886 72.872L10.5446 70.3423L11.5003 72.872H9.56886ZM7.38846 75.2452H8.62924L9.1914 73.8197H11.8898L12.472 75.2452H13.7369L11.0546 69.0252H10.0989L7.39248 75.2452H7.38846ZM1.10827 74.2413V70.0251H2.12017C3.47338 70.0251 4.45717 70.6234 4.45717 72.1332C4.45717 73.643 3.32481 74.2413 1.93546 74.2413H1.10827ZM0 75.2452H2.32094C3.81469 75.2452 5.61764 74.2614 5.61764 72.1332C5.61764 70.005 4.08775 69.0252 2.45345 69.0252H0V75.2452Z" fill="#1D1D1B"/>
<path d="M8.51681 69.0212H7.57719L6.66969 71.3422H7.62136L8.51681 69.0212Z" fill="#1D1D1B"/>
<path d="M102.017 67.1821H101.077L100.495 68.6478H101.447L102.017 67.1821Z" fill="#1D1D1B"/>
</svg>
