<?xml version="1.0" encoding="UTF-8" standalone="no"?>
<!-- Created with Inkscape (http://www.inkscape.org/) -->

<svg
   version="1.1"
   id="svg1"
   width="302.09332"
   height="88.866669"
   viewBox="0 0 302.09332 88.866669"
   xmlns="http://www.w3.org/2000/svg"
   xmlns:svg="http://www.w3.org/2000/svg">
  <defs
     id="defs1" />
  <g
     id="g1">
    <path
       id="path1"
       d="m 1006.96,368.391 c -7.741,-5.278 -16.03,-9.043 -24.577,-11.426 23.277,-10.664 48.957,-10.41 68.877,3.219 33.04,22.597 37.62,73.379 10.25,113.402 -19.38,28.316 -49.56,43.648 -77.272,42.184 17.422,-5.254 33.212,-16.25 44.272,-32.422 25.79,-37.696 16.14,-89.16 -21.55,-114.957"
       style="fill:#4c96b6;fill-opacity:1;fill-rule:nonzero;stroke:none"
       transform="matrix(0.13333333,0,0,-0.13333333,0,88.866667)" />
    <path
       id="path2"
       d="m 1183.28,366.965 c 7.72,-5.293 16.02,-9.082 24.57,-11.449 -23.27,-10.664 -48.98,-10.371 -68.88,3.261 -33.03,22.618 -37.58,73.379 -10.18,113.403 19.4,28.297 49.59,43.609 77.3,42.144 -17.42,-5.254 -33.22,-16.25 -44.3,-32.422 -25.81,-37.656 -16.19,-89.121 21.49,-114.937"
       style="fill:#b4b3b3;fill-opacity:1;fill-rule:nonzero;stroke:none"
       transform="matrix(0.13333333,0,0,-0.13333333,0,88.866667)" />
    <path
       id="path3"
       d="m 1297.16,374.598 c 6.54,-7.633 13.58,-13.106 20.81,-16.524 -19.72,-15.41 -41.48,-15 -58.34,4.692 -27.98,32.695 -31.84,106.05 -8.63,163.867 16.44,40.879 42.01,63.008 65.48,60.898 -14.75,-7.597 -28.14,-23.476 -37.52,-46.84 -21.87,-54.429 -13.72,-128.789 18.2,-166.093"
       style="fill:#4c96b6;fill-opacity:1;fill-rule:nonzero;stroke:none"
       transform="matrix(0.13333333,0,0,-0.13333333,0,88.866667)" />
    <path
       id="path4"
       d="m 971.242,380.242 c 4.043,-10.855 8.789,-18.828 13.973,-24.043 -17.637,-19.219 -34.629,-16.875 -45.059,11.114 -17.312,46.488 -9.98,145.976 16.367,222.21 18.653,53.926 41.817,81.739 59.917,76.954 -12.63,-9.043 -25.374,-29.395 -36.018,-60.215 -24.817,-71.797 -28.926,-172.992 -9.18,-226.02"
       style="fill:#4c96b6;fill-opacity:1;fill-rule:nonzero;stroke:none"
       transform="matrix(0.13333333,0,0,-0.13333333,0,88.866667)" />
    <path
       id="path5"
       d="M 32.1484,166.609 H 0 v 86.938 h 28.1953 c 8.4258,0 13.0352,-1.449 17.3906,-5.41 4.211,-3.949 6.8477,-9.867 6.8477,-15.942 0,-9.336 -5.6758,-16.851 -14.8945,-20.015 11.5937,-2.231 18.1757,-10.395 18.1757,-22.383 0,-13.828 -9.4843,-23.188 -23.5664,-23.188 z m 5.2657,74.692 c -2.2383,2.359 -5,3.14 -11.7188,3.14 H 10.8008 v -28.164 h 14.1015 c 6.1915,0 8.9571,0.903 11.8555,3.813 2.6289,2.637 4.211,6.719 4.211,11.187 0,4.219 -1.3204,7.778 -3.5547,10.024 z M 25.6953,206.395 H 10.8008 v -30.704 h 14.8945 c 7.8985,0 10.9258,0.801 13.9531,3.301 2.7735,2.363 4.6094,6.977 4.6094,11.606 0,10.132 -6.7187,15.797 -18.5625,15.797"
       style="fill:#4c96b6;fill-opacity:1;fill-rule:nonzero;stroke:none"
       transform="matrix(0.13333333,0,0,-0.13333333,0,88.866667)" />
    <path
       id="path6"
       d="m 131.828,166.609 -8.957,25.688 H 87.707 L 78.75,166.609 H 67.1563 l 32.414,89.438 h 11.5817 l 32.266,-89.438 z M 105.363,241.965 91.1328,202.18 h 28.3122 l -14.082,39.785"
       style="fill:#4c96b6;fill-opacity:1;fill-rule:nonzero;stroke:none"
       transform="matrix(0.13333333,0,0,-0.13333333,0,88.866667)" />
    <path
       id="path7"
       d="m 219.238,166.609 -43.855,67.832 c -0.403,0.664 -1.055,1.719 -1.719,3.032 -0.527,0.918 -0.918,1.441 -1.055,1.968 -0.519,0.942 -0.793,1.582 -1.32,3.301 V 167.41 h -10.801 v 86.914 h 14.102 l 43.066,-66.25 c 0.391,-0.523 0.793,-1.308 1.184,-2.105 0.527,-1.313 0.664,-1.449 1.582,-3.949 0.137,-0.254 0.262,-0.782 0.527,-1.305 v 73.609 h 10.809 v -87.715 h -12.52"
       style="fill:#4c96b6;fill-opacity:1;fill-rule:nonzero;stroke:none"
       transform="matrix(0.13333333,0,0,-0.13333333,0,88.866667)" />
    <path
       id="path8"
       d="m 299.953,166.824 c 1.707,-2.226 2.363,-2.89 4.336,-5 2.508,-2.5 4.883,-4.605 7.109,-6.328 4.618,-3.531 7.516,-5.113 15.418,-8.555 l -6.062,-8.296 c -8.566,4.492 -11.848,6.597 -17.258,10.796 -6.055,4.747 -9.336,8.164 -14.609,15.024 l -1.844,2.246 c -5.402,0.918 -6.984,1.305 -10.02,2.223 -16.457,5.8 -28.046,23.457 -28.046,42.953 0,26.074 18.3,45.039 43.718,45.039 25.293,0 43.594,-18.965 43.594,-45.18 0,-22.906 -14.355,-40.699 -36.336,-44.922 z m -7.258,80.61 c -17.519,0 -32,-16.055 -32,-35.547 0,-19.629 14.356,-35.703 32,-35.703 17.532,0 31.875,16.074 31.875,35.703 0,19.492 -14.343,35.547 -31.875,35.547"
       style="fill:#4c96b6;fill-opacity:1;fill-rule:nonzero;stroke:none"
       transform="matrix(0.13333333,0,0,-0.13333333,0,88.866667)" />
    <path
       id="path9"
       d="m 412.207,172.703 c -6.445,-5.269 -14.48,-8.023 -23.828,-8.023 -9.356,0 -17.52,2.754 -23.973,8.023 -7.246,5.938 -10.148,12.91 -10.148,24.238 v 57.153 h 10.801 v -53.852 c 0,-10.801 0.8,-13.828 5.011,-18.433 4.344,-4.883 10.664,-7.524 18.172,-7.524 7.512,0 13.828,2.641 18.176,7.524 4.207,4.605 5,7.632 5,18.433 v 53.852 h 10.801 v -57.153 c 0,-11.582 -2.766,-18.3 -10.012,-24.238"
       style="fill:#4c96b6;fill-opacity:1;fill-rule:nonzero;stroke:none"
       transform="matrix(0.13333333,0,0,-0.13333333,0,88.866667)" />
    <path
       id="path10"
       d="m 443.977,166.609 v 86.938 h 48.867 v -9.106 h -38.067 v -28.964 h 31.485 v -9.082 h -31.485 v -30.704 h 39.246 v -9.082 h -50.046"
       style="fill:#4c96b6;fill-opacity:1;fill-rule:nonzero;stroke:none"
       transform="matrix(0.13333333,0,0,-0.13333333,0,88.866667)" />
    <path
       id="path11"
       d="m 614.699,240.383 c -6.594,4.59 -12.922,6.582 -21.347,6.582 -18.438,0 -31.614,-14.238 -31.614,-34.121 0,-21.86 13.313,-36.211 33.723,-36.211 7.371,0 13.035,1.172 20.019,4.082 l 3.028,-8.442 c -5.274,-2.363 -7.375,-3.164 -11.719,-4.214 -4.348,-1.055 -7.902,-1.45 -11.992,-1.45 -26.211,0 -44.777,18.829 -44.777,45.571 0,25.425 18.828,44.668 43.722,44.668 5.664,0 11.199,-0.942 16.336,-2.914 3.828,-1.305 5.664,-2.364 10.012,-5.387 l -5.391,-8.164"
       style="fill:#4c96b6;fill-opacity:1;fill-rule:nonzero;stroke:none"
       transform="matrix(0.13333333,0,0,-0.13333333,0,88.866667)" />
    <path
       id="path12"
       d="m 634.922,166.609 v 86.938 h 48.859 v -9.106 h -38.058 v -28.964 h 31.476 v -9.082 h -31.476 v -30.704 h 39.25 v -9.082 h -50.051"
       style="fill:#4c96b6;fill-opacity:1;fill-rule:nonzero;stroke:none"
       transform="matrix(0.13333333,0,0,-0.13333333,0,88.866667)" />
    <path
       id="path13"
       d="m 763.574,165.652 -43.855,67.832 c -0.403,0.649 -1.055,1.7 -1.719,3.032 -0.527,0.918 -0.918,1.445 -1.055,1.968 -0.527,0.918 -0.793,1.567 -1.32,3.301 v -75.351 h -10.789 v 86.933 h 14.09 l 43.066,-66.25 c 0.391,-0.523 0.793,-1.328 1.184,-2.105 0.527,-1.328 0.664,-1.449 1.582,-3.965 0.137,-0.258 0.262,-0.781 0.527,-1.313 v 73.633 h 10.801 v -87.715 h -12.512"
       style="fill:#4c96b6;fill-opacity:1;fill-rule:nonzero;stroke:none"
       transform="matrix(0.13333333,0,0,-0.13333333,0,88.866667)" />
    <path
       id="path14"
       d="m 831.25,244.441 v -77.832 h -10.801 v 77.832 h -28.972 v 9.106 h 68.75 v -9.106 H 831.25"
       style="fill:#4c96b6;fill-opacity:1;fill-rule:nonzero;stroke:none"
       transform="matrix(0.13333333,0,0,-0.13333333,0,88.866667)" />
    <path
       id="path15"
       d="m 923.605,166.609 -23.976,37.286 h -11.59 v -37.286 h -10.793 v 86.938 h 26.477 c 10.527,0 15.535,-1.582 20.535,-6.469 4.211,-4.062 6.847,-10.39 6.847,-16.988 0,-6.836 -2.753,-13.442 -7.636,-18.031 -3.555,-3.551 -6.711,-5.133 -13.164,-6.598 l 25.672,-38.852 z m -8.828,75.356 c -2.636,2.105 -4.863,2.476 -12.636,2.476 h -14.102 v -31.464 h 14.102 c 11.453,0 17.382,5.785 17.382,16.996 0,5.523 -1.582,9.468 -4.746,11.992"
       style="fill:#4c96b6;fill-opacity:1;fill-rule:nonzero;stroke:none"
       transform="matrix(0.13333333,0,0,-0.13333333,0,88.866667)" />
    <path
       id="path16"
       d="m 1012.27,166.609 -8.96,25.688 h -35.165 l -8.965,-25.688 h -11.582 l 32.394,89.438 h 11.582 l 32.276,-89.438 z m -26.477,75.356 -14.23,-39.785 h 28.32 l -14.09,39.785"
       style="fill:#4c96b6;fill-opacity:1;fill-rule:nonzero;stroke:none"
       transform="matrix(0.13333333,0,0,-0.13333333,0,88.866667)" />
    <path
       id="path17"
       d="m 1038.94,166.609 v 86.938 h 10.81 v -77.856 h 38.85 v -9.082 h -49.66"
       style="fill:#4c96b6;fill-opacity:1;fill-rule:nonzero;stroke:none"
       transform="matrix(0.13333333,0,0,-0.13333333,0,88.866667)" />
    <path
       id="path18"
       d="m 1104.43,166.609 v 86.938 h 48.87 v -9.106 h -38.07 v -28.964 h 31.47 v -9.082 h -31.47 v -30.704 h 39.25 v -9.082 h -50.05"
       style="fill:#4c96b6;fill-opacity:1;fill-rule:nonzero;stroke:none"
       transform="matrix(0.13333333,0,0,-0.13333333,0,88.866667)" />
    <path
       id="path19"
       d="m 1277.66,179.246 c -7.9,-9.082 -16.98,-12.637 -32.13,-12.637 h -28.85 v 86.938 h 28.99 c 25.41,0 43.72,-18.051 43.72,-43.07 0,-11.329 -4.22,-22.657 -11.73,-31.231 z m -33.71,65.195 h -16.46 v -68.75 h 16.46 c 11.47,0 17.91,2.247 23.45,7.911 6.32,6.718 10.66,17.519 10.66,26.996 0,19.375 -14.48,33.843 -34.11,33.843"
       style="fill:#4c96b6;fill-opacity:1;fill-rule:nonzero;stroke:none"
       transform="matrix(0.13333333,0,0,-0.13333333,0,88.866667)" />
    <path
       id="path20"
       d="m 1364.45,172.703 c -6.46,-5.269 -14.48,-8.023 -23.84,-8.023 -9.35,0 -17.51,2.754 -23.96,8.023 -7.26,5.938 -10.15,12.91 -10.15,24.238 v 57.168 h 10.8 v -53.867 c 0,-10.801 0.79,-13.828 5.01,-18.433 4.35,-4.883 10.67,-7.524 18.17,-7.524 7.51,0 13.82,2.641 18.19,7.524 4.2,4.605 4.99,7.632 4.99,18.433 v 53.867 h 10.81 v -57.168 c 0,-11.582 -2.78,-18.3 -10.02,-24.238"
       style="fill:#4c96b6;fill-opacity:1;fill-rule:nonzero;stroke:none"
       transform="matrix(0.13333333,0,0,-0.13333333,0,88.866667)" />
    <path
       id="path21"
       d="m 1439.97,166.609 v 86.938 h 10.81 v -77.856 h 38.84 v -9.082 h -49.65"
       style="fill:#4c96b6;fill-opacity:1;fill-rule:nonzero;stroke:none"
       transform="matrix(0.13333333,0,0,-0.13333333,0,88.866667)" />
    <path
       id="path22"
       d="m 1558.32,172.703 c -6.45,-5.269 -14.49,-8.023 -23.84,-8.023 -9.35,0 -17.52,2.754 -23.98,8.023 -7.23,5.938 -10.13,12.91 -10.13,24.238 v 57.168 h 10.81 v -53.867 c 0,-10.801 0.79,-13.828 5,-18.433 4.34,-4.883 10.65,-7.524 18.16,-7.524 7.52,0 13.84,2.641 18.18,7.524 4.21,4.605 5,7.632 5,18.433 v 53.867 h 10.81 v -57.168 c 0,-11.582 -2.77,-18.3 -10.01,-24.238"
       style="fill:#4c96b6;fill-opacity:1;fill-rule:nonzero;stroke:none"
       transform="matrix(0.13333333,0,0,-0.13333333,0,88.866667)" />
    <path
       id="path23"
       d="m 1643.59,166.609 -23.98,35.43 -24.22,-35.43 h -12.51 l 30.43,44.399 -29,42.539 h 12.39 l 23.05,-33.457 22.78,33.457 h 12.26 l -29.11,-42.68 30.29,-44.258 h -12.38"
       style="fill:#4c96b6;fill-opacity:1;fill-rule:nonzero;stroke:none"
       transform="matrix(0.13333333,0,0,-0.13333333,0,88.866667)" />
    <path
       id="path24"
       d="m 1672.87,166.609 v 86.938 h 48.86 v -9.106 h -38.06 v -28.964 h 31.48 v -9.082 h -31.48 v -30.704 h 39.25 v -9.082 h -50.05"
       style="fill:#4c96b6;fill-opacity:1;fill-rule:nonzero;stroke:none"
       transform="matrix(0.13333333,0,0,-0.13333333,0,88.866667)" />
    <path
       id="path25"
       d="m 1819.24,166.609 v 76.133 c -0.92,-4.472 -1.45,-5.918 -3.29,-10.664 l -25.69,-65.469 h -9.86 l -23.98,63.75 c -1.98,4.746 -2.37,6.196 -3.43,11.606 v -75.356 h -9.87 v 86.938 H 1758 l 26.48,-69.555 c 1.18,-3.554 1.31,-4.082 1.71,-6.582 0.52,3.418 0.79,4.223 1.58,6.582 l 27.39,69.555 h 14.88 v -86.938 h -10.8"
       style="fill:#4c96b6;fill-opacity:1;fill-rule:nonzero;stroke:none"
       transform="matrix(0.13333333,0,0,-0.13333333,0,88.866667)" />
    <path
       id="path26"
       d="m 1891.48,166.609 h -32.14 v 86.938 h 28.19 c 8.43,0 13.03,-1.449 17.38,-5.41 4.22,-3.949 6.85,-9.867 6.85,-15.942 0,-9.336 -5.66,-16.851 -14.89,-20.015 11.6,-2.231 18.17,-10.395 18.17,-22.383 0,-13.828 -9.47,-23.188 -23.56,-23.188 z m 5.27,74.692 c -2.23,2.359 -5.01,3.14 -11.73,3.14 h -14.88 v -28.164 h 14.09 c 6.19,0 8.96,0.903 11.86,3.813 2.63,2.637 4.21,6.719 4.21,11.187 0,4.219 -1.31,7.778 -3.55,10.024 z m -11.73,-34.906 h -14.88 v -30.704 h 14.88 c 7.91,0 10.94,0.801 13.97,3.301 2.76,2.363 4.61,6.977 4.61,11.606 0,10.132 -6.73,15.797 -18.58,15.797"
       style="fill:#4c96b6;fill-opacity:1;fill-rule:nonzero;stroke:none"
       transform="matrix(0.13333333,0,0,-0.13333333,0,88.866667)" />
    <path
       id="path27"
       d="m 1972.91,165.652 c -25.29,0 -43.73,18.965 -43.73,45.176 0,26.074 18.44,45.039 43.73,45.039 25.28,0 43.6,-18.965 43.6,-45.039 0,-26.211 -18.32,-45.176 -43.6,-45.176 z m 0,80.727 c -17.52,0 -31.88,-16.059 -31.88,-35.551 0,-19.629 14.36,-35.699 31.88,-35.699 17.38,0 31.73,16.07 31.73,35.699 0,19.492 -14.35,35.551 -31.73,35.551"
       style="fill:#4c96b6;fill-opacity:1;fill-rule:nonzero;stroke:none"
       transform="matrix(0.13333333,0,0,-0.13333333,0,88.866667)" />
    <path
       id="path28"
       d="m 2092.7,172.703 c -6.45,-5.269 -14.49,-8.023 -23.85,-8.023 -9.34,0 -17.5,2.754 -23.96,8.023 -7.24,5.938 -10.14,12.91 -10.14,24.238 v 57.168 h 10.8 v -53.867 c 0,-10.801 0.79,-13.828 5.01,-18.433 4.34,-4.883 10.66,-7.524 18.18,-7.524 7.5,0 13.82,2.641 18.17,7.524 4.21,4.605 5,7.632 5,18.433 v 53.867 h 10.8 v -57.168 c 0,-11.582 -2.76,-18.3 -10.01,-24.238"
       style="fill:#4c96b6;fill-opacity:1;fill-rule:nonzero;stroke:none"
       transform="matrix(0.13333333,0,0,-0.13333333,0,88.866667)" />
    <path
       id="path29"
       d="m 2170.99,166.609 -23.96,37.286 h -11.6 v -37.286 h -10.8 v 86.938 h 26.48 c 10.55,0 15.54,-1.582 20.55,-6.469 4.21,-4.062 6.85,-10.39 6.85,-16.988 0,-6.836 -2.78,-13.442 -7.65,-18.031 -3.55,-3.551 -6.71,-5.133 -13.16,-6.598 l 25.67,-38.852 z m -8.82,75.356 c -2.62,2.105 -4.88,2.476 -12.64,2.476 h -14.1 v -31.464 h 14.1 c 11.45,0 17.38,5.785 17.38,16.996 0,5.523 -1.57,9.468 -4.74,11.992"
       style="fill:#4c96b6;fill-opacity:1;fill-rule:nonzero;stroke:none"
       transform="matrix(0.13333333,0,0,-0.13333333,0,88.866667)" />
    <path
       id="path30"
       d="m 2259.35,169.52 c -5.93,-1.856 -14.63,-2.911 -21.86,-2.911 -26.22,0 -46.37,19.629 -46.37,45.317 0,25.816 19.5,44.785 45.96,44.785 6.21,0 13.44,-0.805 18.05,-1.977 3.82,-1.05 5.79,-1.992 10.54,-4.605 l -4.08,-8.969 c -2.11,1.176 -3.56,1.856 -4.61,2.387 -5.01,2.105 -11.86,3.418 -18.84,3.418 -12.25,0 -20.15,-3.305 -26.87,-11.074 -5.4,-6.332 -8.56,-14.614 -8.56,-23.188 0,-20.937 16.07,-36.348 37.79,-36.348 4.36,0 7.39,0.391 14.37,1.836 v 28.989 h 10.8 v -35.547 c -2.76,-1.059 -4.87,-1.742 -6.32,-2.113"
       style="fill:#4c96b6;fill-opacity:1;fill-rule:nonzero;stroke:none"
       transform="matrix(0.13333333,0,0,-0.13333333,0,88.866667)" />
    <path
       id="path31"
       d="M 856.559,63.9063 H 891.75 V 55.9844 H 865.559 V 37.6289 h 23.847 V 29.707 H 865.559 V 9.00391 H 891.75 V 1.08594 H 856.559 V 63.9063"
       style="fill:#b4b3b3;fill-opacity:1;fill-rule:nonzero;stroke:none"
       transform="matrix(0.13333333,0,0,-0.13333333,0,88.866667)" />
    <path
       id="path32"
       d="M 955.016,27.0898 C 955.016,9.45313 946.105,0 930.625,0 915.148,0 906.234,9.45313 906.234,27.0898 v 36.8165 h 9 V 28.2617 c 0,-12.0625 3.782,-20.33982 15.391,-20.33982 11.613,0 15.391,8.27732 15.391,20.33982 v 35.6446 h 9 V 27.0898"
       style="fill:#b4b3b3;fill-opacity:1;fill-rule:nonzero;stroke:none"
       transform="matrix(0.13333333,0,0,-0.13333333,0,88.866667)" />
    <path
       id="path33"
       d="m 970.586,63.9063 h 15.391 c 12.418,0 24.393,-1.9805 24.393,-17.0118 0,-7.6484 -5.67,-13.0468 -12.968,-14.3047 v -0.1875 c 2.798,-1.0742 4.148,-2.4296 6.128,-6.3007 l 11.88,-25.01566 h -10.26 l -9.638,21.77346 c -2.785,6.125 -5.754,6.125 -10.528,6.125 h -5.398 V 1.08594 h -9 z m 9,-27.004 h 7.652 c 8.547,0 13.592,3.7813 13.592,9.8165 0,5.664 -4.326,9.2656 -12.607,9.2656 h -8.637 V 36.9023"
       style="fill:#b4b3b3;fill-opacity:1;fill-rule:nonzero;stroke:none"
       transform="matrix(0.13333333,0,0,-0.13333333,0,88.866667)" />
    <path
       id="path34"
       d="m 1053.12,64.9805 c 19.08,0 30.24,-13.8594 30.24,-32.4922 C 1083.36,13.418 1072.29,0 1053.12,0 c -19.17,0 -30.24,13.418 -30.24,32.4883 0,18.6328 11.16,32.4922 30.24,32.4922 z m 0,-57.05862 c 14.49,0 20.7,12.05862 20.7,24.56642 0,12.7851 -6.84,24.668 -20.7,24.5703 -13.86,0.0977 -20.7,-11.7852 -20.7,-24.5703 0,-12.5078 6.21,-24.56642 20.7,-24.56642"
       style="fill:#b4b3b3;fill-opacity:1;fill-rule:nonzero;stroke:none"
       transform="matrix(0.13333333,0,0,-0.13333333,0,88.866667)" />
    <path
       id="path35"
       d="m 1124.67,54.4531 c -4.59,1.7969 -7.11,2.6055 -11.79,2.6055 -5.04,0 -10.98,-1.793 -10.98,-8.3672 0,-12.0586 27,-9.2656 27,-29.9687 C 1128.9,5.3125 1118.55,0 1105.95,0 c -4.41,0 -8.73,1.26172 -12.87,2.61719 l 0.9,8.36721 c 3.06,-1.25784 8.46,-3.06252 13.05,-3.06252 5.13,0 12.33,2.87892 12.33,10.26172 0,14.043 -27,10.1641 -27,29.6992 0,11.1602 8.82,17.0977 20.16,17.0977 4.14,0 9.09,-0.7149 13.41,-2.2461 l -1.26,-8.2813"
       style="fill:#b4b3b3;fill-opacity:1;fill-rule:nonzero;stroke:none"
       transform="matrix(0.13333333,0,0,-0.13333333,0,88.866667)" />
    <path
       id="path36"
       d="m 1158.69,27.3633 -24.57,36.543 h 10.53 l 18.72,-28.1758 18.27,28.1758 h 10.53 l -24.48,-36.543 V 1.08594 h -9 V 27.3633"
       style="fill:#b4b3b3;fill-opacity:1;fill-rule:nonzero;stroke:none"
       transform="matrix(0.13333333,0,0,-0.13333333,0,88.866667)" />
    <path
       id="path37"
       d="m 1229.7,54.4531 c -4.59,1.7969 -7.11,2.6055 -11.79,2.6055 -5.04,0 -10.98,-1.793 -10.98,-8.3672 0,-12.0586 27,-9.2656 27,-29.9687 C 1233.93,5.3125 1223.58,0 1210.98,0 c -4.41,0 -8.73,1.26172 -12.87,2.61719 l 0.9,8.36721 c 3.06,-1.25784 8.46,-3.06252 13.05,-3.06252 5.13,0 12.33,2.87892 12.33,10.26172 0,14.043 -27,10.1641 -27,29.6992 0,11.1602 8.82,17.0977 20.16,17.0977 4.14,0 9.09,-0.7149 13.41,-2.2461 l -1.26,-8.2813"
       style="fill:#b4b3b3;fill-opacity:1;fill-rule:nonzero;stroke:none"
       transform="matrix(0.13333333,0,0,-0.13333333,0,88.866667)" />
    <path
       id="path38"
       d="m 1258.68,55.9844 h -19.53 v 7.9219 h 48.06 v -7.9219 h -19.53 V 1.08594 h -9 V 55.9844"
       style="fill:#b4b3b3;fill-opacity:1;fill-rule:nonzero;stroke:none"
       transform="matrix(0.13333333,0,0,-0.13333333,0,88.866667)" />
    <path
       id="path39"
       d="m 1296.66,63.9063 h 35.19 v -7.9219 h -26.19 V 37.6289 h 23.85 V 29.707 h -23.85 V 9.00391 h 26.19 V 1.08594 h -35.19 z m 22.5,4.5898 h -6.03 l -11.8,12.957 h 9.82 l 8.01,-12.957"
       style="fill:#b4b3b3;fill-opacity:1;fill-rule:nonzero;stroke:none"
       transform="matrix(0.13333333,0,0,-0.13333333,0,88.866667)" />
    <path
       id="path40"
       d="m 1346.33,63.9063 h 14.86 l 19.7,-52.1954 19.36,52.1954 h 14.85 V 1.08594 h -9 V 55.4492 h -0.18 L 1385.13,1.08594 h -8.83 l -20.78,54.36326 h -0.18 V 1.08594 h -9.01 V 63.9063"
       style="fill:#b4b3b3;fill-opacity:1;fill-rule:nonzero;stroke:none"
       transform="matrix(0.13333333,0,0,-0.13333333,0,88.866667)" />
    <path
       id="path41"
       d="m 1431.66,63.9063 h 35.19 v -7.9219 h -26.19 V 37.6289 h 23.85 V 29.707 h -23.85 V 9.00391 h 26.19 V 1.08594 h -35.19 V 63.9063"
       style="fill:#b4b3b3;fill-opacity:1;fill-rule:nonzero;stroke:none"
       transform="matrix(0.13333333,0,0,-0.13333333,0,88.866667)" />
  </g>
</svg>
