<svg width="73" height="56" viewBox="0 0 73 56" fill="none" xmlns="http://www.w3.org/2000/svg">
<path d="M11.3602 38.3082C10.8202 37.4382 11.7102 36.6282 12.5602 37.0582C13.1502 37.3482 12.8202 38.4282 13.8502 38.7782C15.6702 39.3982 16.4602 37.4782 15.7502 36.0282C15.0402 34.5882 13.1302 34.2282 11.6802 34.3482C7.63022 34.6782 6.47022 39.1182 9.63022 41.5282C10.3702 42.0882 12.5702 43.1782 12.8802 43.8982C13.3302 44.9482 12.1902 45.8582 11.2602 45.2882C10.3402 44.7282 11.1002 43.1582 9.70022 42.8182C7.83022 42.3682 7.21022 44.2882 7.72022 45.7582C8.57022 48.1982 12.3002 48.4582 14.3202 47.5382C16.6602 46.4682 17.2202 43.0782 15.4402 41.2782C14.5302 40.3582 11.8902 39.1782 11.3602 38.3182" fill="white"/>
<path d="M24.3702 45.0982H21.1102V42.2582H23.9802C24.1802 42.2582 24.6802 41.9682 24.8302 41.7982C25.2702 41.2782 25.1802 40.2682 24.6102 39.8682C24.4602 39.7682 23.9302 39.5882 23.7602 39.5882H21.1202V37.2582H24.2102C24.5902 37.2582 25.1902 36.8982 25.3702 36.5382C25.8402 35.5682 25.2902 34.6982 24.2602 34.5382C23.1202 34.3682 20.3102 34.3682 19.1702 34.5382C17.8702 34.7282 17.7102 35.7882 17.6602 36.8882C17.5302 39.6082 17.5602 42.9182 17.7202 45.6282C17.7502 46.0882 17.6702 46.5082 17.8602 46.9582C18.0802 47.4782 18.6902 47.7682 19.2202 47.8082C20.8302 47.9482 22.6402 47.6982 24.2702 47.8082C26.0402 47.6482 25.9602 45.2782 24.3802 45.0882" fill="white"/>
<path d="M52.4402 39.6382C52.3102 39.8382 51.9402 40.0482 51.7202 40.0482H50.8402V37.2682H51.6602C51.8202 37.2682 52.1902 37.3982 52.3102 37.5182C52.6702 37.8882 52.7002 39.2082 52.4402 39.6282M54.3502 41.3882C55.9602 40.8482 56.1102 39.0482 55.9402 37.5882C55.6202 34.7982 54.0002 34.5782 51.5502 34.4882C49.8902 34.4282 47.3802 34.1282 47.3802 36.4482C47.5202 39.5582 47.2002 42.8282 47.3802 45.9282C47.4202 46.6482 47.5502 47.4182 48.2702 47.7582C49.4302 48.3082 50.7002 47.6682 50.8402 46.3782V42.8282H51.8902C52.0902 42.8282 52.3902 43.2082 52.4602 43.3982C52.8802 44.5982 52.0402 47.5982 53.8502 47.9082C55.1402 48.1282 56.0102 47.6082 56.0702 46.2682C56.1002 45.4982 56.0102 43.5482 55.8102 42.8282C55.6202 42.1282 55.0502 41.5882 54.3602 41.3782" fill="white"/>
<path d="M32.4802 43.7882C32.3402 44.4082 32.5302 45.1082 31.6802 45.2582C31.0102 45.3682 30.5402 45.0882 30.3802 44.4282C30.1002 43.3082 30.1802 40.3082 30.2502 39.0482C30.2702 38.5682 30.3202 37.7782 30.6502 37.4082C31.0102 37.0082 31.9702 36.9482 32.2902 37.4082C32.7902 38.1582 32.1302 39.3982 33.4402 39.7682C34.5802 40.0882 35.5902 39.5082 35.7002 38.2982C35.9602 35.4282 34.1802 34.4382 31.5902 34.2982L31.1502 34.3182C28.3502 34.3982 26.9802 35.7482 26.7902 38.5282C26.6702 40.3482 26.5802 43.8982 27.1102 45.5782C28.2902 49.3282 36.4802 48.7682 35.7402 44.0382C35.4402 42.0782 32.8402 42.1482 32.4802 43.7682" fill="white"/>
<path d="M64.1402 45.0982H60.9102L60.8802 42.2582H63.7502C63.7502 42.2582 64.2402 42.0582 64.3102 42.0182C65.1702 41.4682 64.9902 40.0082 63.9802 39.6982C63.8902 39.6682 63.5302 39.5882 63.4702 39.5882H60.8902V37.2582H63.9302C64.0002 37.2582 64.4502 37.1182 64.5402 37.0782C65.6902 36.5482 65.4602 34.8082 64.1302 34.5682C63.0402 34.3682 60.8302 34.4182 59.6702 34.4882C58.4002 34.5582 57.5402 34.8682 57.4302 36.2782C57.6202 39.5182 57.1802 43.0582 57.4302 46.2682C57.5002 47.0982 57.9902 47.6982 58.8402 47.8082C60.4402 48.0282 62.4502 47.6782 64.1002 47.8082C64.9602 47.6482 65.4502 47.0582 65.3002 46.1682C65.2202 45.7082 64.6302 45.0982 64.1602 45.0982" fill="white"/>
<path d="M45.6802 36.0482C45.5002 33.7882 42.4602 33.8582 42.2702 35.9382C42.0302 38.4982 42.4902 41.4182 42.2702 43.9982C42.2202 44.6482 41.9902 45.2382 41.2302 45.2182C40.6602 45.1982 40.3502 44.8182 40.2902 44.2782C40.1302 41.6382 40.4802 38.7882 40.2902 36.1682C40.2102 35.0282 39.5702 34.2382 38.3402 34.3982C37.5202 34.5082 36.9702 35.1482 36.8802 35.9482C37.0002 38.6882 36.7202 41.5682 36.8802 44.2882C37.0102 46.6182 38.2002 47.7282 40.4902 47.9982C42.7902 48.2682 45.1602 47.5482 45.6102 45.0082C45.5702 42.1382 45.9102 38.9082 45.6802 36.0582" fill="white"/>
<path d="M65.9402 50.3582C46.5202 50.5282 27.0702 50.3782 7.63022 50.4382C6.49022 50.4082 5.56022 49.6182 5.29022 48.5182C5.13022 43.8282 5.27022 39.1082 5.22022 34.3982C5.30022 33.1382 6.05022 32.1782 7.31022 31.9482L65.5002 31.9282C66.7402 32.0182 67.7102 32.9882 67.7902 34.2282V48.0182C67.7602 49.1382 67.0102 50.0882 65.9302 50.3582M5.19022 7.5982C5.44022 6.6482 6.20022 5.9482 7.18022 5.8382C11.0602 5.9282 14.9602 5.7382 18.8302 5.7982C23.2502 5.8682 26.4902 9.6782 25.3402 14.0682C25.1102 14.9382 24.6402 15.6682 24.1802 16.4182C24.3802 16.7282 24.6002 17.0282 24.7802 17.3482C26.9902 21.4382 24.3802 26.3482 19.8402 26.9282H7.18022C6.19022 26.8182 5.44022 26.1482 5.19022 25.1782C5.05022 19.3282 5.05022 13.4282 5.19022 7.5882M29.7302 7.9082C29.8202 6.8482 30.6202 6.0382 31.6402 5.8482C35.7502 5.9182 40.1402 5.5382 44.2302 5.7782C45.8402 5.8682 46.9002 6.8482 46.7502 8.5382C46.6702 9.4682 45.7802 10.6582 44.7902 10.6582H34.6902L34.6002 10.7482V13.9582H42.7402C43.8502 13.9582 44.7602 15.2082 44.8102 16.2582C44.8602 17.4082 43.9902 18.8382 42.7402 18.8382H34.6002V22.0682H44.4402C47.3402 22.0682 47.5702 26.6982 44.6702 26.9482H31.7902C30.7002 26.8182 29.8202 25.9982 29.7202 24.8782V7.9082H29.7302ZM50.6102 8.1982C50.7002 6.8482 51.4802 5.9382 52.8502 5.7882H65.4502C67.3502 5.8682 68.2802 7.9182 67.4302 9.5282C67.1302 10.1082 66.2802 10.7282 65.6202 10.7282H55.5502V13.9082C55.6602 13.8882 55.7702 13.9582 55.8702 13.9582C58.3902 13.9882 61.3302 13.6782 63.8002 13.9682C66.6202 14.2982 66.3602 18.8982 63.4702 18.8982H55.5602V22.0782H65.6902C65.8602 22.0782 66.4302 22.3082 66.6102 22.4082C68.3702 23.4082 68.0402 26.4282 66.0102 26.9282C61.6502 27.1182 57.2502 26.9682 52.8802 27.0082C51.5102 26.8882 50.6602 25.9082 50.6302 24.5482V8.1982H50.6102ZM67.0102 1.1082C66.6502 1.0282 66.2802 1.0082 65.9302 0.908203H6.93022C3.44022 1.1782 0.470225 4.1382 0.230225 7.6282V48.6482C0.500225 52.1982 3.40022 55.0382 6.93022 55.3682H65.9302C66.2802 55.2782 66.6502 55.2482 67.0102 55.1682C70.1202 54.4482 72.4302 51.6582 72.6302 48.4782V7.7982C72.4302 4.6182 70.1202 1.8282 67.0102 1.1082Z" fill="white"/>
<path d="M10.4102 22.0682C13.2102 21.9982 16.0202 22.1482 18.8102 22.1282C20.0802 22.1282 21.0702 21.0582 20.5202 19.7882C20.3402 19.3782 19.7202 18.8382 19.2602 18.8382H10.0702L9.99022 18.9182V22.0382C9.99022 22.1782 10.3202 22.0682 10.4102 22.0682Z" fill="white"/>
<path d="M19.8102 13.7582C21.1102 13.1082 20.8702 11.1682 19.5102 10.7582C16.3902 10.7282 13.2402 10.6782 10.1102 10.6882C10.0402 10.6882 10.0402 10.6882 9.99022 10.7482V13.9482H19.2702C19.3302 13.9482 19.7302 13.7982 19.8102 13.7482" fill="white"/>
</svg>
