<svg width="269" height="46" viewBox="0 0 269 46" fill="none" xmlns="http://www.w3.org/2000/svg">
<path d="M21.7 6.07355C22.92 6.07355 23.9 5.08355 23.9 3.87355C23.9 2.66355 22.91 1.67355 21.7 1.67355C9.74 1.67355 0 11.4136 0 23.3736C0 35.3336 9.74 45.0836 21.7 45.0836C22.92 45.0836 23.9 44.0936 23.9 42.8836C23.9 41.6736 22.91 40.6836 21.7 40.6836C12.16 40.6836 4.4 32.9236 4.4 23.3836C4.4 13.8436 12.16 6.07355 21.7 6.07355Z" fill="white"/>
<path d="M35.02 30.3036L40.35 11.2536L45.68 30.3036H35.01H35.02ZM42.47 2.50355C42.2 1.55355 41.34 0.893555 40.35 0.893555C39.36 0.893555 38.5 1.55355 38.23 2.50355L27.09 42.2936C26.76 43.4636 27.44 44.6736 28.61 45.0036C29.78 45.3336 31 44.6536 31.32 43.4836L33.77 34.7136H46.9L49.36 43.4836C49.63 44.4536 50.52 45.0936 51.48 45.0936C51.68 45.0936 51.88 45.0636 52.07 45.0136C53.24 44.6836 53.92 43.4736 53.6 42.3036L42.47 2.50355Z" fill="white"/>
<path d="M64.93 30.3036L70.26 11.2536L75.59 30.3036H64.92H64.93ZM72.38 2.50355C72.11 1.55355 71.25 0.893555 70.26 0.893555C69.27 0.893555 68.41 1.55355 68.14 2.50355L57 42.2936C56.67 43.4636 57.35 44.6736 58.52 45.0036C59.69 45.3336 60.91 44.6536 61.23 43.4836L63.68 34.7136H76.81L79.27 43.4836C79.54 44.4536 80.43 45.0936 81.39 45.0936C81.59 45.0936 81.79 45.0636 81.98 45.0136C83.15 44.6836 83.83 43.4736 83.51 42.3036L72.38 2.50355Z" fill="white"/>
<path d="M97.88 24.7136C98.46 25.3036 99.16 25.7636 99.96 26.1036C100.76 26.4436 101.63 26.6136 102.57 26.6136C103.19 26.6136 103.75 26.5636 104.25 26.4636C104.75 26.3636 105.21 26.2036 105.63 26.0036C106.05 25.8036 106.43 25.5636 106.79 25.2836C107.14 25.0036 107.48 24.6936 107.81 24.3336L106.03 22.5336C105.53 22.9936 105.03 23.3636 104.53 23.6236C104.03 23.8936 103.41 24.0236 102.68 24.0236C102.13 24.0236 101.63 23.9136 101.18 23.7036C100.73 23.4936 100.34 23.2036 100.02 22.8436C99.7 22.4836 99.45 22.0536 99.26 21.5736C99.08 21.0836 98.99 20.5736 98.99 20.0236V19.9836C98.99 19.4336 99.08 18.9236 99.26 18.4436C99.44 17.9636 99.7 17.5436 100.02 17.1836C100.35 16.8136 100.74 16.5336 101.2 16.3236C101.65 16.1136 102.15 16.0136 102.68 16.0136C103.32 16.0136 103.9 16.1436 104.42 16.3936C104.94 16.6536 105.44 17.0036 105.94 17.4536L107.73 15.3936C107.44 15.1036 107.12 14.8336 106.78 14.5936C106.44 14.3536 106.07 14.1436 105.67 13.9736C105.27 13.8036 104.82 13.6736 104.33 13.5736C103.84 13.4736 103.29 13.4236 102.7 13.4236C101.72 13.4236 100.82 13.5936 100.01 13.9436C99.2 14.2936 98.5 14.7636 97.91 15.3636C97.32 15.9636 96.87 16.6636 96.54 17.4636C96.21 18.2536 96.05 19.1136 96.05 20.0236V20.0636C96.05 20.9736 96.21 21.8336 96.54 22.6336C96.87 23.4336 97.32 24.1336 97.91 24.7236" fill="white"/>
<path d="M120.45 20.0536C120.45 20.6036 120.35 21.1136 120.17 21.5936C119.98 22.0736 119.72 22.4936 119.39 22.8636C119.06 23.2336 118.65 23.5136 118.18 23.7236C117.71 23.9336 117.19 24.0336 116.63 24.0336C116.07 24.0336 115.54 23.9236 115.07 23.7136C114.6 23.5036 114.2 23.2136 113.85 22.8536C113.5 22.4836 113.24 22.0636 113.05 21.5736C112.86 21.0836 112.77 20.5736 112.77 20.0236V19.9836C112.77 19.4336 112.86 18.9236 113.05 18.4436C113.24 17.9636 113.5 17.5436 113.83 17.1736C114.16 16.8036 114.56 16.5236 115.03 16.3136C115.5 16.1036 116.02 16.0036 116.59 16.0036C117.16 16.0036 117.66 16.1136 118.14 16.3236C118.61 16.5336 119.02 16.8236 119.37 17.1936C119.72 17.5536 119.98 17.9836 120.17 18.4636C120.36 18.9536 120.45 19.4636 120.45 20.0136V20.0536ZM123.38 19.9836C123.38 19.0736 123.21 18.2236 122.88 17.4236C122.55 16.6236 122.08 15.9336 121.48 15.3436C120.88 14.7536 120.16 14.2836 119.34 13.9436C118.51 13.5936 117.61 13.4236 116.63 13.4236C115.65 13.4236 114.74 13.5936 113.91 13.9436C113.08 14.2936 112.36 14.7636 111.76 15.3636C111.16 15.9636 110.69 16.6636 110.35 17.4536C110.01 18.2536 109.84 19.1036 109.84 20.0136V20.0536C109.84 20.9636 110.01 21.8136 110.34 22.6136C110.67 23.4136 111.14 24.1036 111.74 24.6936C112.34 25.2836 113.05 25.7536 113.88 26.0936C114.71 26.4436 115.61 26.6136 116.59 26.6136C117.57 26.6136 118.48 26.4436 119.31 26.0936C120.14 25.7436 120.86 25.2736 121.46 24.6736C122.06 24.0736 122.53 23.3736 122.87 22.5836C123.21 21.7836 123.38 20.9336 123.38 20.0236V19.9836Z" fill="white"/>
<path d="M132.98 19.0336L129.63 13.6436H126.61V26.3936H129.38V18.1236L132.93 23.5136H133L136.59 18.0736V26.3936H139.36V13.6436H136.33L132.98 19.0336Z" fill="white"/>
<path d="M156.99 26.3936V13.6436H153.96L150.61 19.0336L147.26 13.6436H144.24V26.3936H147.01V18.1236L150.56 23.5136H150.63L154.22 18.0736V26.3936H156.99Z" fill="white"/>
<path d="M163.7 13.6436H160.9V26.3936H163.7V13.6436Z" fill="white"/>
<path d="M175.06 20.1036C174.71 19.8036 174.29 19.5536 173.78 19.3436C173.28 19.1336 172.7 18.9436 172.06 18.7736C171.51 18.6336 171.06 18.5036 170.7 18.3936C170.34 18.2836 170.06 18.1636 169.85 18.0436C169.64 17.9236 169.5 17.7836 169.42 17.6336C169.34 17.4836 169.3 17.3036 169.3 17.0936V17.0536C169.3 16.7436 169.44 16.4736 169.71 16.2636C169.98 16.0536 170.39 15.9436 170.94 15.9436C171.49 15.9436 172.03 16.0536 172.58 16.2836C173.13 16.5036 173.68 16.8136 174.26 17.2036L175.72 15.0936C175.07 14.5736 174.34 14.1736 173.56 13.8936C172.78 13.6136 171.92 13.4736 170.98 13.4736C170.32 13.4736 169.72 13.5636 169.18 13.7436C168.64 13.9236 168.17 14.1836 167.78 14.5236C167.39 14.8636 167.08 15.2636 166.87 15.7336C166.65 16.2036 166.55 16.7236 166.55 17.3136V17.3536C166.55 17.9836 166.65 18.5136 166.85 18.9336C167.05 19.3536 167.33 19.7136 167.7 20.0036C168.07 20.2836 168.51 20.5236 169.03 20.7236C169.55 20.9136 170.14 21.0936 170.78 21.2536C171.32 21.3836 171.75 21.5136 172.08 21.6336C172.42 21.7536 172.68 21.8736 172.87 21.9936C173.06 22.1136 173.19 22.2436 173.25 22.3836C173.32 22.5236 173.35 22.6836 173.35 22.8636V22.9036C173.35 23.2836 173.19 23.5736 172.87 23.7836C172.55 23.9936 172.1 24.1036 171.51 24.1036C170.78 24.1036 170.11 23.9636 169.5 23.6836C168.89 23.4036 168.29 23.0236 167.71 22.5536L166.05 24.5336C166.81 25.2236 167.66 25.7336 168.6 26.0736C169.53 26.4036 170.49 26.5736 171.46 26.5736C172.15 26.5736 172.78 26.4836 173.35 26.3136C173.92 26.1336 174.41 25.8836 174.82 25.5536C175.23 25.2236 175.55 24.8036 175.78 24.3136C176.01 23.8236 176.12 23.2636 176.12 22.6336V22.5936C176.12 22.0336 176.03 21.5536 175.86 21.1536C175.68 20.7536 175.42 20.4036 175.07 20.1036" fill="white"/>
<path d="M184.52 23.7836C184.2 23.9936 183.75 24.1036 183.16 24.1036C182.43 24.1036 181.76 23.9636 181.15 23.6836C180.54 23.4036 179.94 23.0236 179.36 22.5536L177.7 24.5436C178.46 25.2336 179.32 25.7436 180.25 26.0836C181.18 26.4236 182.14 26.5836 183.11 26.5836C183.8 26.5836 184.43 26.4936 185 26.3236C185.57 26.1436 186.06 25.8936 186.47 25.5636C186.88 25.2336 187.2 24.8136 187.43 24.3236C187.66 23.8336 187.77 23.2736 187.77 22.6436V22.6036C187.77 22.0436 187.68 21.5636 187.5 21.1636C187.32 20.7636 187.06 20.4136 186.72 20.1136C186.37 19.8136 185.95 19.5636 185.44 19.3536C184.93 19.1436 184.36 18.9536 183.71 18.7836C183.16 18.6336 182.71 18.5136 182.35 18.4036C181.99 18.2936 181.71 18.1736 181.5 18.0536C181.29 17.9336 181.15 17.7936 181.07 17.6436C180.99 17.4936 180.95 17.3136 180.95 17.1036V17.0636C180.95 16.7436 181.09 16.4836 181.36 16.2736C181.63 16.0636 182.04 15.9536 182.59 15.9536C183.14 15.9536 183.68 16.0636 184.23 16.2936C184.78 16.5236 185.33 16.8236 185.91 17.2136L187.37 15.1036C186.72 14.5836 185.99 14.1836 185.21 13.9036C184.43 13.6236 183.57 13.4836 182.63 13.4836C181.97 13.4836 181.37 13.5736 180.83 13.7536C180.29 13.9336 179.82 14.1936 179.43 14.5336C179.04 14.8736 178.73 15.2736 178.52 15.7436C178.3 16.2136 178.2 16.7336 178.2 17.3236V17.3636C178.2 17.9936 178.3 18.5236 178.5 18.9436C178.7 19.3636 178.98 19.7236 179.35 20.0136C179.72 20.3036 180.16 20.5436 180.68 20.7336C181.2 20.9236 181.79 21.1036 182.43 21.2636C182.96 21.3936 183.4 21.5236 183.73 21.6436C184.07 21.7636 184.33 21.8836 184.52 22.0036C184.71 22.1236 184.84 22.2536 184.9 22.3936C184.97 22.5336 185 22.6936 185 22.8736V22.9136C185 23.2936 184.84 23.5836 184.52 23.7936" fill="white"/>
<path d="M195.11 16.9236L196.8 21.0636H193.41L195.1 16.9236H195.11ZM197.81 23.5336L198.98 26.3936H201.91L196.45 13.5536H193.86L188.4 26.3936H191.26L192.43 23.5336H197.82H197.81Z" fill="white"/>
<path d="M206.68 16.1736H209.47C210.16 16.1736 210.7 16.3236 211.09 16.6336C211.48 16.9336 211.67 17.3936 211.67 18.0036V18.0436C211.67 18.5936 211.48 19.0236 211.11 19.3536C210.74 19.6836 210.21 19.8436 209.52 19.8436H206.68V16.1736ZM206.68 22.3136H208.88L211.61 26.3936H214.89L211.78 21.8436C212.59 21.5436 213.25 21.0636 213.76 20.4136C214.26 19.7636 214.52 18.9236 214.52 17.8936V17.8536C214.52 16.6436 214.16 15.6636 213.43 14.9336C212.57 14.0736 211.33 13.6436 209.72 13.6436H203.89V26.3936H206.69V22.3136H206.68Z" fill="white"/>
<path d="M219.6 13.6436H216.8V26.3936H219.6V13.6436Z" fill="white"/>
<path d="M225.64 21.0536L227.33 16.9236L229.02 21.0536H225.63H225.64ZM226.07 13.5536L220.61 26.3936H223.47L224.64 23.5336H230.03L231.2 26.3936H234.13L228.67 13.5536H226.07Z" fill="white"/>
<path d="M237.6 26.3936H240.41V16.2336H244.29V13.6436H233.72V16.2336H237.6V26.3936Z" fill="white"/>
<path d="M101.25 39.8436L102.94 35.7136L104.63 39.8436H101.24H101.25ZM101.69 32.3436L96.23 45.1836H99.09L100.26 42.3236H105.65L106.82 45.1836H109.75L104.28 32.3436H101.69Z" fill="white"/>
<path d="M119.08 39.7336C119.08 40.7536 118.84 41.5136 118.35 42.0336C117.86 42.5436 117.19 42.7936 116.33 42.7936C115.47 42.7936 114.79 42.5336 114.31 42.0036C113.82 41.4736 113.58 40.6936 113.58 39.6436V32.4336H110.77V39.7236C110.77 41.6036 111.26 43.0236 112.25 43.9636C113.23 44.9136 114.58 45.3836 116.29 45.3836C117.14 45.3836 117.91 45.2636 118.6 45.0236C119.29 44.7836 119.88 44.4336 120.37 43.9536C120.86 43.4736 121.23 42.8736 121.49 42.1636C121.75 41.4436 121.88 40.6036 121.88 39.6336V32.4436H119.07V39.7436L119.08 39.7336Z" fill="white"/>
<path d="M135.08 32.4336H131.89L129.19 36.5736L126.52 32.4336H123.24L127.5 38.7036L123.06 45.1836H126.24L129.12 40.8136L131.98 45.1836H135.26L130.81 38.6636L135.08 32.4336Z" fill="white"/>
<path d="M145.29 39.8436L146.98 35.7136L148.67 39.8436H145.28H145.29ZM145.73 32.3436L140.27 45.1836H143.13L144.3 42.3236H149.69L150.86 45.1836H153.79L148.33 32.3436H145.73Z" fill="white"/>
<path d="M163.55 38.8936C163.2 38.5936 162.78 38.3436 162.27 38.1236C161.77 37.9136 161.19 37.7236 160.55 37.5536C160 37.4036 159.55 37.2836 159.19 37.1736C158.83 37.0636 158.55 36.9436 158.34 36.8236C158.13 36.7036 157.99 36.5636 157.91 36.4136C157.83 36.2636 157.79 36.0836 157.79 35.8736V35.8336C157.79 35.5236 157.93 35.2536 158.2 35.0436C158.47 34.8336 158.88 34.7236 159.43 34.7236C159.98 34.7236 160.52 34.8336 161.07 35.0636C161.62 35.2836 162.17 35.5936 162.75 35.9836L164.21 33.8736C163.56 33.3536 162.83 32.9536 162.05 32.6736C161.27 32.3936 160.41 32.2536 159.47 32.2536C158.81 32.2536 158.21 32.3436 157.67 32.5236C157.13 32.7036 156.66 32.9636 156.27 33.3036C155.88 33.6436 155.57 34.0436 155.36 34.5136C155.14 34.9836 155.04 35.5036 155.04 36.0936V36.1336C155.04 36.7636 155.14 37.2936 155.34 37.7136C155.54 38.1436 155.82 38.4936 156.19 38.7836C156.56 39.0636 157 39.3136 157.52 39.5036C158.04 39.7036 158.63 39.8736 159.27 40.0336C159.81 40.1636 160.24 40.2936 160.57 40.4136C160.91 40.5336 161.17 40.6536 161.36 40.7736C161.55 40.8936 161.68 41.0236 161.74 41.1636C161.81 41.3036 161.84 41.4636 161.84 41.6436V41.6836C161.84 42.0636 161.68 42.3536 161.36 42.5636C161.04 42.7736 160.59 42.8836 160 42.8836C159.27 42.8836 158.6 42.7436 157.99 42.4636C157.38 42.1836 156.78 41.8036 156.2 41.3336L154.54 43.3236C155.3 44.0136 156.15 44.5236 157.09 44.8636C158.02 45.1936 158.98 45.3636 159.95 45.3636C160.64 45.3636 161.27 45.2736 161.84 45.1036C162.41 44.9236 162.9 44.6736 163.31 44.3436C163.72 44.0136 164.04 43.5936 164.27 43.1036C164.5 42.6136 164.61 42.0536 164.61 41.4236V41.3836C164.61 40.8236 164.52 40.3436 164.35 39.9436C164.17 39.5436 163.91 39.1936 163.56 38.8936" fill="white"/>
<path d="M174.84 38.8936C174.49 38.5936 174.07 38.3436 173.56 38.1236C173.06 37.9136 172.48 37.7236 171.84 37.5536C171.29 37.4036 170.84 37.2836 170.48 37.1736C170.12 37.0636 169.84 36.9436 169.63 36.8236C169.42 36.7036 169.28 36.5636 169.2 36.4136C169.12 36.2636 169.08 36.0836 169.08 35.8736V35.8336C169.08 35.5236 169.22 35.2536 169.49 35.0436C169.76 34.8336 170.17 34.7236 170.72 34.7236C171.27 34.7236 171.81 34.8336 172.36 35.0636C172.91 35.2836 173.46 35.5936 174.04 35.9836L175.5 33.8736C174.85 33.3536 174.12 32.9536 173.34 32.6736C172.56 32.3936 171.7 32.2536 170.76 32.2536C170.1 32.2536 169.5 32.3436 168.96 32.5236C168.42 32.7036 167.95 32.9636 167.56 33.3036C167.17 33.6436 166.86 34.0436 166.65 34.5136C166.43 34.9836 166.33 35.5036 166.33 36.0936V36.1336C166.33 36.7636 166.43 37.2936 166.63 37.7136C166.83 38.1436 167.11 38.4936 167.48 38.7836C167.85 39.0636 168.29 39.3136 168.81 39.5036C169.33 39.7036 169.92 39.8736 170.56 40.0336C171.1 40.1636 171.53 40.2936 171.86 40.4136C172.2 40.5336 172.46 40.6536 172.65 40.7736C172.84 40.8936 172.97 41.0236 173.03 41.1636C173.1 41.3036 173.13 41.4636 173.13 41.6436V41.6836C173.13 42.0636 172.97 42.3536 172.65 42.5636C172.33 42.7736 171.88 42.8836 171.29 42.8836C170.56 42.8836 169.89 42.7436 169.28 42.4636C168.67 42.1836 168.07 41.8036 167.49 41.3336L165.83 43.3236C166.59 44.0136 167.44 44.5236 168.38 44.8636C169.31 45.1936 170.27 45.3636 171.24 45.3636C171.93 45.3636 172.56 45.2736 173.13 45.1036C173.7 44.9236 174.19 44.6736 174.6 44.3436C175.01 44.0136 175.33 43.5936 175.56 43.1036C175.79 42.6136 175.9 42.0536 175.9 41.4236V41.3836C175.9 40.8236 175.81 40.3436 175.64 39.9436C175.46 39.5436 175.2 39.1936 174.85 38.8936" fill="white"/>
<path d="M186.08 39.7336C186.08 40.7536 185.84 41.5136 185.35 42.0336C184.86 42.5436 184.19 42.7936 183.33 42.7936C182.47 42.7936 181.79 42.5336 181.31 42.0036C180.82 41.4736 180.58 40.6936 180.58 39.6436V32.4336H177.78V39.7236C177.78 41.6036 178.27 43.0236 179.26 43.9636C180.24 44.9136 181.59 45.3836 183.3 45.3836C184.15 45.3836 184.92 45.2636 185.61 45.0236C186.3 44.7836 186.89 44.4336 187.38 43.9536C187.87 43.4736 188.24 42.8736 188.5 42.1636C188.76 41.4436 188.89 40.6036 188.89 39.6336V32.4436H186.09V39.7436L186.08 39.7336Z" fill="white"/>
<path d="M199.9 36.8236C199.9 37.3736 199.72 37.8036 199.34 38.1336C198.97 38.4636 198.44 38.6236 197.75 38.6236H194.91V34.9636H197.7C198.39 34.9636 198.93 35.1136 199.32 35.4236C199.71 35.7236 199.9 36.1836 199.9 36.7936V36.8336V36.8236ZM201.99 39.2036C202.49 38.5536 202.75 37.7136 202.75 36.6836V36.6436C202.75 35.4336 202.39 34.4536 201.66 33.7336C200.8 32.8736 199.56 32.4436 197.94 32.4436H192.11V45.1936H194.91V41.1136H197.11L199.84 45.1936H203.12L200.01 40.6436C200.82 40.3436 201.48 39.8636 201.99 39.2136" fill="white"/>
<path d="M208.84 39.8436L210.53 35.7136L212.22 39.8436H208.83H208.84ZM209.28 32.3436L203.82 45.1836H206.68L207.85 42.3236H213.24L214.41 45.1836H217.34L211.88 32.3436H209.28Z" fill="white"/>
<path d="M227.86 40.2836L221.88 32.4336H219.3V45.1836H222.07V37.0836L228.24 45.1836H230.63V32.4336H227.86V40.2836Z" fill="white"/>
<path d="M241.6 42.4136C241.1 42.6836 240.48 42.8136 239.75 42.8136C239.2 42.8136 238.7 42.7036 238.25 42.4936C237.79 42.2836 237.41 41.9936 237.08 41.6336C236.76 41.2736 236.51 40.8436 236.32 40.3536C236.14 39.8636 236.05 39.3536 236.05 38.8036V38.7636C236.05 38.2136 236.14 37.7036 236.32 37.2236C236.5 36.7436 236.76 36.3236 237.08 35.9536C237.41 35.5936 237.8 35.3036 238.26 35.0936C238.71 34.8836 239.21 34.7836 239.74 34.7836C240.38 34.7836 240.96 34.9136 241.48 35.1636C242 35.4136 242.5 35.7736 243 36.2236L244.79 34.1636C244.5 33.8736 244.18 33.6036 243.84 33.3636C243.5 33.1236 243.13 32.9136 242.73 32.7436C242.33 32.5736 241.88 32.4436 241.39 32.3436C240.9 32.2436 240.35 32.1936 239.76 32.1936C238.78 32.1936 237.88 32.3636 237.06 32.7136C236.25 33.0636 235.55 33.5336 234.96 34.1336C234.38 34.7336 233.92 35.4336 233.59 36.2236C233.26 37.0236 233.1 37.8736 233.1 38.7836V38.8236C233.1 39.7336 233.26 40.5936 233.59 41.3936C233.92 42.1936 234.37 42.8936 234.96 43.4836C235.54 44.0736 236.24 44.5336 237.04 44.8736C237.84 45.2136 238.71 45.3836 239.64 45.3836C240.26 45.3836 240.82 45.3336 241.32 45.2336C241.82 45.1336 242.28 44.9736 242.7 44.7836C243.12 44.5836 243.5 44.3436 243.86 44.0636C244.21 43.7836 244.55 43.4736 244.88 43.1136L243.1 41.3136C242.6 41.7736 242.1 42.1436 241.6 42.4036" fill="white"/>
<path d="M249.9 40.0136H255.91V37.5136H249.9V34.9336H256.73V32.4336H247.13V45.1836H256.82V42.6836H249.9V40.0136Z" fill="white"/>
<path d="M268.28 39.9436C268.1 39.5436 267.84 39.1936 267.49 38.8936C267.14 38.5936 266.72 38.3436 266.21 38.1236C265.7 37.9136 265.13 37.7236 264.48 37.5536C263.93 37.4036 263.48 37.2836 263.12 37.1736C262.76 37.0636 262.48 36.9536 262.27 36.8236C262.06 36.7036 261.92 36.5636 261.84 36.4136C261.76 36.2636 261.72 36.0836 261.72 35.8736V35.8336C261.72 35.5136 261.86 35.2536 262.13 35.0436C262.4 34.8336 262.81 34.7236 263.36 34.7236C263.91 34.7236 264.45 34.8336 265 35.0636C265.55 35.2936 266.11 35.5936 266.68 35.9836L268.14 33.8736C267.48 33.3536 266.76 32.9536 265.98 32.6736C265.2 32.3936 264.34 32.2536 263.4 32.2536C262.74 32.2536 262.14 32.3436 261.6 32.5236C261.06 32.7036 260.59 32.9636 260.2 33.3036C259.81 33.6436 259.5 34.0436 259.29 34.5136C259.07 34.9836 258.96 35.5036 258.96 36.0936V36.1336C258.96 36.7636 259.06 37.2936 259.26 37.7236C259.46 38.1536 259.74 38.5036 260.11 38.7936C260.48 39.0836 260.92 39.3236 261.44 39.5136C261.96 39.7036 262.55 39.8836 263.19 40.0436C263.73 40.1736 264.16 40.3036 264.5 40.4236C264.84 40.5436 265.1 40.6636 265.29 40.7836C265.48 40.9036 265.61 41.0336 265.67 41.1736C265.74 41.3136 265.77 41.4736 265.77 41.6536V41.6936C265.77 42.0736 265.61 42.3636 265.29 42.5736C264.97 42.7836 264.52 42.8936 263.93 42.8936C263.2 42.8936 262.53 42.7536 261.92 42.4736C261.31 42.1936 260.71 41.8136 260.13 41.3436L258.47 43.3336C259.23 44.0236 260.08 44.5336 261.02 44.8736C261.96 45.2136 262.91 45.3736 263.88 45.3736C264.57 45.3736 265.2 45.2836 265.77 45.1136C266.34 44.9336 266.83 44.6836 267.24 44.3536C267.65 44.0236 267.97 43.6036 268.2 43.1136C268.43 42.6236 268.54 42.0636 268.54 41.4336V41.3936C268.54 40.8336 268.45 40.3536 268.27 39.9536" fill="white"/>
</svg>
