<svg width="591" height="98" viewBox="0 0 591 98" fill="none" xmlns="http://www.w3.org/2000/svg">
<path d="M232.713 90.4403L235.518 96.8057H240.582L228.232 68.8342H223.169L210.819 96.8057H215.883L218.688 90.4403H232.713ZM220.619 86.0754L225.719 74.5449L230.819 86.0754H220.619ZM248.16 84.2931V68.7978H243.424V84.475C243.424 88.5125 244.517 91.6042 246.739 93.7867C248.961 95.9691 251.803 97.0603 255.263 97.0603C258.724 97.0603 261.566 95.9691 263.788 93.7867C266.01 91.6042 267.103 88.5125 267.103 84.475V68.7978H262.367V84.2931C262.367 86.8393 261.711 88.8762 260.436 90.3675C259.161 91.8589 257.413 92.6227 255.227 92.6227C253.041 92.6227 251.292 91.8589 250.017 90.3675C248.742 88.8762 248.087 86.8393 248.087 84.2931H248.16ZM297.048 96.8057L287.431 82.438L296.356 68.8342H290.491L284.225 78.2914H284.006L277.741 68.8342H271.875L280.801 82.438L271.183 96.8057H277.085L283.97 86.2937H284.189L291.074 96.8057H297.048ZM330.491 90.4403L333.296 96.8057H338.36L326.01 68.8342H320.946L308.596 96.8057H313.66L316.465 90.4403H330.491ZM318.396 86.0754L323.496 74.5449L328.596 86.0754H318.396ZM354.899 73.2354C356.319 73.7083 357.449 74.3266 358.25 75.0905L360.764 71.5258C359.489 70.471 357.959 69.6344 356.21 69.0524C354.462 68.4704 352.677 68.1795 350.891 68.1795C348.123 68.1795 345.791 68.8706 343.897 70.2891C342.003 71.6713 341.055 73.6719 341.055 76.2545C341.055 78.837 341.893 80.7648 343.533 82.0015C344.371 82.6563 345.318 83.2019 346.374 83.6384C347.431 84.0385 348.997 84.5113 351.074 84.9842C353.114 85.4934 354.571 86.039 355.409 86.621C356.247 87.203 356.684 88.076 356.684 89.1308C356.684 90.1857 356.247 91.095 355.336 91.7134C354.425 92.3681 353.223 92.6955 351.693 92.6955C348.633 92.6955 345.718 91.4588 342.877 89.0217L339.926 92.5863C343.314 95.6054 347.212 97.0967 351.584 97.0967C354.571 97.0967 357.012 96.3329 358.833 94.8052C360.691 93.2775 361.602 91.3133 361.602 88.8762C361.602 86.4392 360.873 84.5841 359.416 83.3474C357.959 82.1107 355.809 81.1286 352.931 80.4375C350.054 79.7464 348.196 79.0916 347.285 78.5096C346.374 77.9277 345.973 77.0547 345.973 75.8907C345.973 74.7268 346.411 73.9265 347.285 73.3445C348.159 72.7989 349.289 72.5079 350.673 72.5079C352.057 72.5079 353.442 72.7626 354.862 73.2354H354.899ZM380.145 73.2354C381.565 73.7083 382.695 74.3266 383.496 75.0905L386.01 71.5258C384.735 70.471 383.205 69.6344 381.456 69.0524C379.707 68.4704 377.922 68.1795 376.137 68.1795C373.369 68.1795 371.037 68.8706 369.143 70.2891C367.248 71.6713 366.338 73.6719 366.338 76.2545C366.338 78.837 367.176 80.7648 368.815 82.0015C369.653 82.6563 370.6 83.2019 371.656 83.6384C372.713 84.0385 374.279 84.5113 376.356 84.9842C378.396 85.4934 379.853 86.039 380.691 86.621C381.529 87.203 381.966 88.076 381.966 89.1308C381.966 90.1857 381.529 91.095 380.618 91.7134C379.707 92.3681 378.505 92.6955 376.975 92.6955C373.915 92.6955 371.001 91.4588 368.159 89.0217L365.208 92.5863C368.596 95.6054 372.494 97.0967 376.866 97.0967C379.853 97.0967 382.294 96.3329 384.115 94.8052C385.973 93.2775 386.884 91.3133 386.884 88.8762C386.884 86.4392 386.155 84.5841 384.698 83.3474C383.241 82.1107 381.092 81.1286 378.214 80.4375C375.336 79.7464 373.478 79.0916 372.567 78.5096C371.656 77.9277 371.256 77.0547 371.256 75.8907C371.256 74.7268 371.693 73.9265 372.567 73.3445C373.441 72.7989 374.571 72.5079 375.955 72.5079C377.339 72.5079 378.724 72.7626 380.145 73.2354ZM397.084 84.2931V68.7978H392.349V84.475C392.349 88.5125 393.478 91.6042 395.664 93.7867C397.886 95.9691 400.727 97.0603 404.188 97.0603C407.649 97.0603 410.527 95.9691 412.713 93.7867C414.935 91.6042 416.028 88.5125 416.028 84.475V68.7978H411.292V84.2931C411.292 86.8393 410.636 88.8762 409.361 90.3675C408.086 91.8589 406.338 92.6227 404.152 92.6227C401.966 92.6227 400.217 91.8589 398.942 90.3675C397.667 88.8762 397.012 86.8393 397.012 84.2931H397.084ZM443.095 70.9802C441.237 69.5253 438.177 68.8342 433.915 68.8342H423.496V96.8057H428.232V87.3849H434.461L441.164 96.8057H447.175L439.853 86.6574C443.897 85.4571 445.9 82.5471 445.9 77.9277C445.9 74.7631 444.99 72.4352 443.132 71.0166L443.095 70.9802ZM434.133 83.0928H428.232V73.0899H434.243C436.793 73.0899 438.541 73.4173 439.525 74.1084C440.509 74.7995 441.019 76.0362 441.019 77.8549C441.019 79.6736 440.545 81.0194 439.562 81.8197C438.614 82.6563 436.793 83.0564 434.097 83.0564L434.133 83.0928ZM470.673 90.4403L473.478 96.8057H478.541L466.192 68.8342H461.128L448.778 96.8057H453.842L456.647 90.4403H470.673ZM458.578 86.0754L463.678 74.5449L468.778 86.0754H458.578ZM503.386 89.7128L487.102 68.8342H482.366V96.8057H487.102V76.4L502.986 96.8057H508.122V68.8342H503.386V89.7128ZM521.893 89.6401C519.998 87.7486 519.015 85.3479 519.015 82.5108C519.015 79.6736 519.962 77.3457 521.893 75.4906C523.823 73.6719 526.191 72.7626 529.033 72.7626C530.636 72.7626 532.02 73.0172 533.222 73.5264C534.425 74.0356 535.663 74.9086 537.011 76.2181L540.035 72.9444C537.12 69.7435 533.514 68.1431 529.142 68.1431C524.771 68.1431 521.201 69.5253 518.359 72.2897C515.518 75.0541 514.097 78.546 514.097 82.6926C514.097 86.8393 515.481 90.2948 518.286 93.0228C521.091 95.7509 524.589 97.0967 528.814 97.0967C533.04 97.0967 536.647 95.4599 539.598 92.1862L536.538 89.0581C535.263 90.2584 534.024 91.1314 532.858 91.677C531.692 92.2226 530.272 92.5136 528.669 92.5136C526.046 92.5136 523.787 91.5679 521.893 89.6401ZM545.39 68.8342V96.8057H565.536V92.3681H550.089V84.8751H563.532V80.6557H550.089V73.2354H565.026V68.7978H545.354L545.39 68.8342ZM584.26 73.2354C585.681 73.7083 586.811 74.3266 587.612 75.0905L590.126 71.5258C588.851 70.471 587.321 69.6344 585.572 69.0524C583.823 68.4704 582.038 68.1795 580.253 68.1795C577.485 68.1795 575.153 68.8706 573.259 70.2891C571.364 71.6713 570.417 73.6719 570.417 76.2545C570.417 78.837 571.255 80.7648 572.894 82.0015C573.732 82.6563 574.679 83.2019 575.736 83.6384C576.792 84.0385 578.359 84.5113 580.435 84.9842C582.475 85.4934 583.933 86.039 584.771 86.621C585.608 87.2394 586.046 88.076 586.046 89.1308C586.046 90.1857 585.608 91.095 584.698 91.7134C583.823 92.3681 582.585 92.6955 581.091 92.6955C578.031 92.6955 575.117 91.4588 572.275 89.0217L569.324 92.5863C572.712 95.6054 576.61 97.0967 580.982 97.0967C583.969 97.0967 586.41 96.3329 588.231 94.8052C590.053 93.2775 591 91.3133 591 88.8762C591 86.4392 590.271 84.5841 588.814 83.3474C587.357 82.1107 585.208 81.1286 582.33 80.4375C579.452 79.7464 577.594 79.0916 576.683 78.5096C575.809 77.8913 575.372 77.0547 575.372 75.8907C575.372 74.7268 575.809 73.9265 576.683 73.3445C577.557 72.7989 578.687 72.5079 580.071 72.5079C581.455 72.5079 582.84 72.7626 584.26 73.2354Z" fill="#696869"/>
<path d="M220.728 48.5739C218.834 46.6825 217.85 44.2818 217.85 41.4446C217.85 38.6075 218.797 36.2795 220.728 34.4608C222.659 32.6421 225.027 31.7328 227.868 31.7328C229.471 31.7328 230.855 31.9874 232.058 32.4966C233.26 33.0059 234.498 33.9152 235.846 35.1883L238.833 31.9146C235.919 28.7137 232.313 27.1133 227.941 27.1133C223.569 27.1133 219.999 28.4955 217.158 31.2599C214.316 34.0243 212.896 37.5162 212.896 41.6629C212.896 45.8095 214.28 49.265 217.085 51.9931C219.89 54.7211 223.387 56.0669 227.613 56.0669C231.839 56.0669 235.446 54.4301 238.396 51.1565L235.336 48.0283C234.061 49.2286 232.823 50.1016 231.657 50.6472C230.491 51.1928 229.07 51.4838 227.467 51.4838C224.844 51.4838 222.586 50.5381 220.691 48.6103L220.728 48.5739ZM266.447 41.5537C266.447 44.3545 265.5 46.7552 263.569 48.7194C261.675 50.6836 259.307 51.6657 256.538 51.6657C253.77 51.6657 251.402 50.6836 249.507 48.7194C247.613 46.7552 246.629 44.3545 246.629 41.5537C246.629 38.7529 247.577 36.3523 249.507 34.3881C251.402 32.4239 253.77 31.4418 256.538 31.4418C259.307 31.4418 261.675 32.4239 263.569 34.3881C265.464 36.3523 266.447 38.7529 266.447 41.5537ZM271.292 41.5537C271.292 37.4435 269.872 33.988 267.03 31.2235C264.189 28.4591 260.691 27.0769 256.538 27.0769C252.385 27.0769 248.888 28.4591 246.047 31.2235C243.205 33.988 241.784 37.4071 241.784 41.5537C241.784 45.7004 243.205 49.1195 246.047 51.8839C248.888 54.6483 252.385 56.0306 256.538 56.0306C260.691 56.0306 264.189 54.6483 267.03 51.8839C269.872 49.1195 271.292 45.664 271.292 41.5537ZM282.003 33.8788L291.73 53.2661H294.389L304.152 33.8788V55.7396H308.888V27.768H301.566L293.114 45.3366L284.662 27.768H277.303V55.7396H282.039V33.8788H282.003ZM321.383 33.8788L331.11 53.2661H333.769L343.533 33.8788V55.7396H348.268V27.768H340.946L332.494 45.3366L324.043 27.768H316.684V55.7396H321.42V33.8788H321.383ZM356.064 55.7032H360.8V27.7316H356.064V55.7032ZM381.237 32.1693C382.658 32.6421 383.788 33.2605 384.589 34.0243L387.103 30.4597C385.828 29.4049 384.298 28.5683 382.549 27.9863C380.8 27.4043 379.015 27.1133 377.23 27.1133C374.462 27.1133 372.13 27.8044 370.236 29.223C368.341 30.6416 367.394 32.6058 367.394 35.1883C367.394 37.7709 368.232 39.6987 369.871 40.9354C370.709 41.5901 371.656 42.1357 372.713 42.5722C373.769 42.9723 375.336 43.4452 377.412 43.918C379.452 44.4273 380.91 44.9729 381.747 45.5549C382.585 46.1369 383.023 47.0098 383.023 48.0647C383.023 49.1195 382.585 50.0289 381.675 50.6836C380.8 51.3383 379.562 51.6657 378.068 51.6657C375.008 51.6657 372.094 50.429 369.252 47.9919L366.301 51.5566C369.689 54.5756 373.587 56.0669 377.959 56.0669C380.946 56.0669 383.387 55.3031 385.208 53.7754C387.066 52.2477 387.977 50.2835 387.977 47.8464C387.977 45.4094 387.248 43.5543 385.791 42.3176C384.334 41.0809 382.185 40.0988 379.307 39.4077C376.429 38.7166 374.571 38.0618 373.697 37.4799C372.822 36.8979 372.385 36.0249 372.385 34.8973C372.385 33.7697 372.822 32.9331 373.697 32.3511C374.571 31.7692 375.7 31.5145 377.084 31.5145C378.469 31.5145 379.853 31.7692 381.274 32.242L381.237 32.1693ZM406.483 32.1693C407.904 32.6421 409.033 33.2605 409.835 34.0243L412.348 30.4597C411.073 29.4049 409.543 28.5683 407.795 27.9863C406.046 27.4043 404.261 27.1133 402.476 27.1133C399.707 27.1133 397.376 27.8044 395.481 29.223C393.587 30.6416 392.676 32.6058 392.676 35.1883C392.676 37.7709 393.514 39.6987 395.154 40.9354C395.992 41.5901 396.939 42.1357 397.995 42.5722C399.052 42.9723 400.618 43.4452 402.695 43.918C404.735 44.4273 406.192 44.9729 407.03 45.5549C407.868 46.1369 408.305 47.0098 408.305 48.0647C408.305 49.1195 407.868 50.0289 406.957 50.6836C406.046 51.3383 404.844 51.6657 403.35 51.6657C400.29 51.6657 397.376 50.429 394.534 47.9919L391.583 51.5566C394.971 54.5756 398.869 56.0669 403.241 56.0669C406.228 56.0669 408.669 55.3031 410.491 53.7754C412.348 52.2477 413.259 50.2835 413.259 47.8464C413.259 45.4094 412.531 43.5543 411.073 42.3176C409.616 41.0809 407.467 40.0988 404.589 39.4077C401.711 38.7166 399.853 38.0618 398.979 37.4799C398.104 36.8979 397.667 36.0249 397.667 34.8973C397.667 33.7697 398.104 32.9331 398.979 32.3511C399.853 31.8055 400.982 31.5145 402.367 31.5145C403.751 31.5145 405.135 31.7692 406.556 32.242L406.483 32.1693ZM436.756 49.3741L439.562 55.7396H444.625L432.276 27.768H427.212L414.862 55.7396H419.926L422.731 49.3741H436.756ZM424.662 45.0093L429.762 33.4787L434.862 45.0093H424.662ZM468.086 29.9141C466.228 28.4591 463.168 27.768 458.906 27.768H448.487V55.7396H453.223V46.3551H459.452L466.155 55.7396H472.166L464.844 45.5912C468.887 44.3909 470.891 41.481 470.891 36.8615C470.891 33.697 469.98 31.369 468.122 29.9505L468.086 29.9141ZM459.124 42.0266H453.223V32.0238H459.234C461.784 32.0238 463.532 32.3511 464.516 33.0422C465.499 33.7333 466.009 34.9701 466.009 36.7888C466.009 38.6074 465.536 39.9533 464.552 40.7535C463.605 41.5901 461.784 41.9902 459.088 41.9902L459.124 42.0266ZM477.667 55.7032H482.403V27.7316H477.667V55.7032ZM508.159 49.3741L510.964 55.7396H516.028L503.678 27.768H498.614L486.264 55.7396H491.328L494.133 49.3741H508.159ZM496.064 45.0093L501.164 33.4787L506.264 45.0093H496.064ZM536.793 32.0601V27.7316H515.08V32.0601H523.569V55.7032H528.304V32.0601H536.793Z" fill="#696869"/>
<path d="M172.823 74.5813H136.466C133.661 74.5813 131.402 72.3261 131.402 69.5253C131.402 66.7245 133.661 64.4693 136.466 64.4693H172.823C175.628 64.4693 177.887 66.7245 177.887 69.5253C177.887 72.3261 175.628 74.5813 172.823 74.5813Z" fill="#434244"/>
<path d="M129.981 96.8057C129.544 96.8057 129.071 96.733 128.597 96.6239C125.901 95.86 124.335 93.0592 125.1 90.3675L149.508 3.83398C150.273 1.14231 153.078 -0.421767 155.774 0.342085C158.469 1.10594 160.036 3.90673 159.271 6.5984L134.863 93.132C134.244 95.3508 132.204 96.8057 129.981 96.8057Z" fill="#019BD7"/>
<path d="M179.526 96.8057C177.304 96.8057 175.264 95.3508 174.644 93.132L150.236 6.5984C149.471 3.90673 151.038 1.10594 153.734 0.342085C156.429 -0.421767 159.234 1.14231 160 3.83398L184.407 90.3675C185.172 93.0592 183.606 95.86 180.91 96.6239C180.437 96.7694 179.999 96.8057 179.526 96.8057Z" fill="#434244"/>
<path d="M107.249 74.5813H70.8923C68.0872 74.5813 65.8286 72.3261 65.8286 69.5253C65.8286 66.7245 68.0872 64.4693 70.8923 64.4693H107.249C110.054 64.4693 112.313 66.7245 112.313 69.5253C112.313 72.3261 110.054 74.5813 107.249 74.5813Z" fill="#A6A8AA"/>
<path d="M64.4443 96.8057C64.0071 96.8057 63.5335 96.733 63.0599 96.6239C60.3641 95.86 58.7976 93.0592 59.5627 90.3675L83.9706 3.83398C84.7356 1.14231 87.5043 -0.421767 90.2365 0.342085C92.9323 1.10594 94.4988 3.90673 93.7338 6.5984L69.3258 93.132C68.7065 95.3508 66.6665 96.8057 64.4443 96.8057Z" fill="#434244"/>
<path d="M113.952 96.8057C111.73 96.8057 109.69 95.3508 109.071 93.132L84.6628 6.5984C83.8977 3.90673 85.4642 1.10594 88.16 0.342085C90.8558 -0.421767 93.6609 1.14231 94.4259 3.83398L118.834 90.3675C119.599 93.0592 118.032 95.86 115.337 96.5875C114.863 96.733 114.426 96.7694 113.952 96.7694V96.8057Z" fill="#434244"/>
<path d="M47.5044 96.8057C21.3114 96.8057 0 75.527 0 49.3741C0 46.5733 2.25865 44.3182 5.06374 44.3182C7.86883 44.3182 10.1275 46.5733 10.1275 49.3741C10.1275 69.9618 26.8852 86.6938 47.5044 86.6938C50.3095 86.6938 52.5681 88.949 52.5681 91.7497C52.5681 94.5505 50.3095 96.8057 47.5044 96.8057Z" fill="#EB2441"/>
<path d="M5.06374 54.4301C2.25865 54.4301 0 52.1749 0 49.3741C0 23.2213 21.3114 1.94254 47.5044 1.94254C50.3095 1.94254 52.5681 4.19772 52.5681 6.99851C52.5681 9.7993 50.3095 12.0545 47.5044 12.0545C26.8852 12.0545 10.1275 28.7865 10.1275 49.3741C10.1275 52.1749 7.86883 54.4301 5.06374 54.4301Z" fill="#434244"/>
</svg>
