<svg width="89" height="54" viewBox="0 0 89 54" fill="none" xmlns="http://www.w3.org/2000/svg">
<path d="M85.4202 13.0283L88.1002 3.01834C83.2502 1.41834 78.0602 0.54834 72.6802 0.54834C56.5902 0.54834 42.3102 8.28834 33.3502 20.2483C42.5002 13.5183 53.8102 9.52834 66.0402 9.52834C72.8602 9.52834 79.3902 10.7683 85.4202 13.0283Z" fill="white"/>
<path d="M18.9902 45.1483C17.9402 47.2083 15.7202 48.4883 13.2002 48.4883C9.25023 48.4883 6.45022 45.5583 6.45022 41.6483C6.45022 37.7383 9.25023 34.8083 13.2002 34.8083C15.8002 34.8083 17.8802 36.0283 18.8902 38.1483L23.4802 35.5183C21.6302 31.8583 17.7002 29.5883 13.2402 29.5883C6.74022 29.5883 0.980225 34.1083 0.980225 41.6583C0.980225 49.2083 6.74022 53.7283 13.2402 53.7283C17.6302 53.7283 21.5902 51.4383 23.5702 47.7583L18.9902 45.1683V45.1483Z" fill="white"/>
<path d="M43.3702 34.1783C42.0002 31.3483 38.6002 29.5783 34.7202 29.5783C30.3702 29.5783 26.0102 32.0083 26.0102 36.4683C26.0102 44.7383 38.3402 43.0783 38.3402 46.7683C38.3402 47.9083 37.2302 48.9283 34.8902 48.9283C30.6802 48.9283 29.7102 45.4983 29.7102 45.4983L25.2302 48.5183C26.4402 51.3883 29.9302 53.7083 34.7602 53.7083C39.3002 53.7083 43.9002 51.1983 43.9002 46.4283C43.9002 38.3983 31.5702 40.3583 31.5702 36.4783C31.5702 35.0083 33.0602 34.3183 34.7202 34.3183C36.7302 34.3183 38.1202 35.2683 38.9802 37.0883L43.3602 34.1883L43.3702 34.1783Z" fill="white"/>
<path d="M63.7802 34.1783C62.4102 31.3483 59.0102 29.5783 55.1302 29.5783C50.7802 29.5783 46.4202 32.0083 46.4202 36.4683C46.4202 44.7383 58.8802 42.9483 58.8802 46.6383C58.8802 47.9683 57.6402 48.9283 55.3102 48.9283C51.1002 48.9283 50.1302 45.4983 50.1302 45.4983L45.6502 48.5183C46.8602 51.3883 50.3502 53.7083 55.1802 53.7083C59.7202 53.7083 64.4402 51.1983 64.4402 46.4283C64.4402 38.3983 51.9802 40.3583 51.9802 36.4783C51.9802 35.1483 53.4702 34.3183 55.1302 34.3183C57.1402 34.3183 58.5302 35.2683 59.3902 37.0883L63.7702 34.1883L63.7802 34.1783Z" fill="white"/>
<path d="M74.7702 30.1683V29.3483C74.7702 26.6683 76.0302 25.3483 79.0502 25.3483H82.1302L83.3802 20.6883C82.3502 20.5383 80.9502 20.3883 79.3002 20.3883C73.2202 20.3883 69.4602 23.2983 69.4602 29.2183V30.1583H66.0402V35.2883H69.4602V53.1183H74.7702V35.2883H79.4602L80.8402 30.1583H74.7802L74.7702 30.1683Z" fill="white"/>
</svg>
