<svg width="138" height="84" viewBox="0 0 138 84" fill="none" xmlns="http://www.w3.org/2000/svg">
<path d="M132.991 19.6037L137.215 3.91497C129.579 1.4024 121.416 0.0361328 112.931 0.0361328C87.597 0.0361328 65.1102 12.1718 51.0114 30.9187C65.4204 20.3609 83.2203 14.1175 102.486 14.1175C113.224 14.1175 123.498 16.0591 132.991 19.6037Z" fill="#0084A6"/>
<path d="M28.3844 69.9567C26.7273 73.1883 23.2344 75.1975 19.2742 75.1975C13.0533 75.1975 8.64268 70.5996 8.64268 64.4747C8.64268 58.3498 13.0533 53.7476 19.2742 53.7476C23.3704 53.7476 26.638 55.6553 28.24 58.98L35.4679 54.8558C32.5529 49.1201 26.3746 45.5585 19.3422 45.5585C9.10585 45.5627 0.0338135 52.6563 0.0338135 64.4747C0.0338135 76.2931 9.1101 83.3866 19.3422 83.3866C26.2556 83.3866 32.4849 79.7997 35.6038 74.0258L28.3844 69.9567Z" fill="#00707A"/>
<path d="M66.7802 52.7663C64.6258 48.3291 59.2804 45.5627 53.1615 45.5627C46.3118 45.5627 39.4536 49.3781 39.4536 56.3575C39.4536 69.3264 58.8682 66.725 58.8682 72.5031C58.8682 74.2923 57.1218 75.8955 53.442 75.8955C46.809 75.8955 45.2835 70.5192 45.2835 70.5192L38.2298 75.2483C40.1292 79.7489 45.6234 83.3866 53.238 83.3866C60.3851 83.3866 67.6215 79.457 67.6215 71.9743C67.6215 59.3903 48.2069 62.457 48.2069 56.3744C48.2069 54.0691 50.5525 52.9862 53.1658 52.9862C56.3229 52.9862 58.5197 54.4709 59.8795 57.3219L66.7802 52.7663Z" fill="#00707A"/>
<path d="M98.9083 52.7663C96.754 48.3291 91.4085 45.567 85.2939 45.567C78.4442 45.567 71.586 49.3823 71.586 56.3575C71.586 69.3264 91.2003 66.5177 91.2003 72.2958C91.2003 74.3769 89.2542 75.8955 85.5744 75.8955C78.9414 75.8955 77.4159 70.5192 77.4159 70.5192L70.3622 75.2483C72.2616 79.7489 77.7558 83.3866 85.3704 83.3866C92.5176 83.3866 99.9536 79.457 99.9536 71.9743C99.9536 59.3903 80.3394 62.457 80.3394 56.3744C80.3394 54.2848 82.6849 52.9862 85.2982 52.9862C88.4553 52.9862 90.6479 54.4709 92.0119 57.3219L98.9126 52.7663H98.9083Z" fill="#00707A"/>
<path d="M116.211 45.2032C116.211 40.9986 118.2 38.9344 122.942 38.9344H127.79L129.758 31.6294C128.139 31.3883 125.925 31.1599 123.337 31.1599C113.759 31.1599 107.849 35.7112 107.849 45.0044V46.4848H102.461V54.5301H107.849V82.473H116.211V54.5301H123.588L125.755 46.4848H116.211V45.2032Z" fill="#00707A"/>
</svg>
