<svg width="290" height="68" viewBox="0 0 290 68" fill="none" xmlns="http://www.w3.org/2000/svg">
<path d="M66.9763 13.8859V0.196687H53.4222L40.1143 13.5125V15.0141L49.982 16.19V27.0667H53.7956L66.9763 13.8859Z" fill="white"/>
<path d="M16.9944 40.2554H13.3158L0 53.5712V67.1174H13.6813L26.862 53.9446V50.2581L17.9398 42.7819L16.9944 41.9874V40.2554Z" fill="white"/>
<path d="M66.9207 67.1492V53.595L53.6049 40.2872H49.982V41.9874L40.0587 50.3137V53.9684L53.2394 67.1492H66.9207Z" fill="white"/>
<path d="M26.862 15.03V13.4887L13.5542 0.172852H0V13.8541L13.1808 27.0349H16.9944V16.182L19.3302 15.9119L26.862 15.03Z" fill="white"/>
<path d="M28.8801 43.2109C28.8801 44.0134 29.3965 44.6251 30.1354 44.6251C30.8743 44.6251 31.3827 44.0134 31.3827 43.2109C31.3827 42.4085 30.8663 41.7967 30.1354 41.7967C29.4044 41.7967 28.8801 42.4005 28.8801 43.2109ZM28.8801 37.9195C28.8801 38.722 29.3965 39.3338 30.1354 39.3338C30.8743 39.3338 31.3827 38.722 31.3827 37.9195C31.3827 37.1171 30.8663 36.5053 30.1354 36.5053C29.4044 36.5053 28.8801 37.1092 28.8801 37.9195ZM28.8801 32.6202C28.8801 33.4227 29.3965 34.0344 30.1354 34.0344C30.8743 34.0344 31.3827 33.4227 31.3827 32.6202C31.3827 31.8178 30.8663 31.206 30.1354 31.206C29.4044 31.206 28.8801 31.8098 28.8801 32.6202ZM24.272 37.9195C24.272 38.722 24.7884 39.3338 25.5273 39.3338C26.2662 39.3338 26.7746 38.722 26.7746 37.9195C26.7746 37.1171 26.2582 36.5053 25.5273 36.5053C24.7963 36.5053 24.272 37.1092 24.272 37.9195ZM20.7206 32.6202C20.7206 33.4227 21.237 34.0344 21.9759 34.0344C22.7148 34.0344 23.2232 33.4227 23.2232 32.6202C23.2232 31.8178 22.7068 31.206 21.9759 31.206C21.2449 31.206 20.7206 31.8098 20.7206 32.6202ZM20.9112 27.3289C20.9112 28.1313 21.4277 28.7431 22.1665 28.7431C22.9054 28.7431 23.4139 28.1313 23.4139 27.3289C23.4139 26.5264 22.8975 25.9147 22.1665 25.9147C21.4356 25.9147 20.9112 26.5185 20.9112 27.3289ZM23.4377 22.0375C23.4377 21.2271 22.9213 20.6233 22.1904 20.6233C21.4594 20.6233 20.9351 21.2271 20.9351 22.0375C20.9351 22.8479 21.4515 23.4517 22.1904 23.4517C22.9293 23.4517 23.4377 22.8399 23.4377 22.0375ZM26.0596 31.214C25.3207 31.214 24.8043 31.8178 24.8043 32.6282C24.8043 33.4386 25.3207 34.0424 26.0596 34.0424C26.7985 34.0424 27.307 33.4306 27.307 32.6282C27.307 31.8257 26.7905 31.214 26.0596 31.214ZM28.0538 22.0375C28.0538 21.2271 27.5374 20.6233 26.8064 20.6233C26.0755 20.6233 25.5511 21.2271 25.5511 22.0375C25.5511 22.8479 26.0675 23.4517 26.8064 23.4517C27.5453 23.4517 28.0538 22.8399 28.0538 22.0375ZM31.3907 27.3289C31.3907 26.5185 30.8743 25.9147 30.1433 25.9147C29.4124 25.9147 28.888 26.5185 28.888 27.3289C28.888 28.1392 29.4044 28.7431 30.1433 28.7431C30.8822 28.7431 31.3907 28.1313 31.3907 27.3289ZM32.0978 27.3289C32.0978 28.4729 31.2397 29.331 30.1195 29.331C28.9992 29.331 28.1809 28.4809 28.1809 27.3289C28.1809 26.1768 29.039 25.3188 30.1592 25.3188C31.2795 25.3188 32.0978 26.1689 32.0978 27.3289ZM31.9389 23.9681H31.2795V20.091H31.9389V23.9681ZM30.2466 23.9681H29.5872V20.091H30.2466V23.9681ZM28.7609 22.0375C28.7609 23.1816 27.9028 24.0396 26.7826 24.0396C25.6623 24.0396 24.844 23.1895 24.844 22.0375C24.844 20.8855 25.7021 20.0353 26.8223 20.0353C27.9426 20.0353 28.7688 20.8855 28.7688 22.0375M25.8212 25.3903H26.4807V29.2674H25.8212V25.3903ZM26.0675 30.6181C27.1878 30.6181 28.0141 31.4682 28.0141 32.6202C28.0141 33.7723 27.156 34.6224 26.0358 34.6224C24.9155 34.6224 24.0972 33.7723 24.0972 32.6202C24.0972 31.4682 24.9552 30.6181 26.0755 30.6181M24.1528 22.0375C24.1528 23.1816 23.2947 24.0396 22.1745 24.0396C21.0542 24.0396 20.228 23.1895 20.228 22.0375C20.228 20.8855 21.086 20.0353 22.2063 20.0353C23.3265 20.0353 24.1528 20.8855 24.1528 22.0375ZM20.2041 27.3289C20.2041 26.1768 21.0622 25.3188 22.1824 25.3188C23.3027 25.3188 24.121 26.1689 24.121 27.3289C24.121 28.4888 23.263 29.331 22.1427 29.331C21.0225 29.331 20.2041 28.4809 20.2041 27.3289ZM20.0135 32.6202C20.0135 31.4682 20.8715 30.6181 21.9918 30.6181C23.112 30.6181 23.9303 31.4682 23.9303 32.6202C23.9303 33.7723 23.0723 34.6224 21.952 34.6224C20.8318 34.6224 20.0135 33.7723 20.0135 32.6202ZM20.3869 35.973H21.0463V39.8502H20.3869V35.973ZM22.0553 35.973H22.7148V39.8502H22.0553V35.973ZM23.5649 37.9195C23.5649 36.7675 24.4229 35.9174 25.5432 35.9174C26.6634 35.9174 27.4818 36.7675 27.4818 37.9195C27.4818 39.0716 26.6237 39.9217 25.5034 39.9217C24.3832 39.9217 23.5569 39.0716 23.5569 37.9195M26.5601 41.2644H27.2196V45.1415H26.5601V41.2644ZM28.173 32.6202C28.173 31.4682 29.031 30.6181 30.1513 30.6181C31.2715 30.6181 32.0978 31.4682 32.0978 32.6202C32.0978 33.7723 31.2397 34.6224 30.1195 34.6224C28.9992 34.6224 28.173 33.7723 28.173 32.6202ZM28.173 37.9195C28.173 36.7675 29.031 35.9174 30.1513 35.9174C31.2715 35.9174 32.0978 36.7675 32.0978 37.9195C32.0978 39.0716 31.2397 39.9217 30.1195 39.9217C28.9992 39.9217 28.173 39.0716 28.173 37.9195ZM28.173 43.2109C28.173 42.0589 29.031 41.2088 30.1513 41.2088C31.2715 41.2088 32.0978 42.0589 32.0978 43.2109C32.0978 44.3629 31.2397 45.213 30.1195 45.213C28.9992 45.213 28.173 44.3629 28.173 43.2109ZM33.0274 51.9663V16.9606L19.64 18.5337V40.748L33.0274 51.9663Z" fill="white"/>
<path d="M33.9808 16.9527L47.3363 18.5337V40.748L33.9808 51.9504V16.9527Z" fill="white"/>
<path d="M85.941 63.4866V45.0224H90.2234V59.5856H97.6361V63.4866H85.941Z" fill="white"/>
<path d="M109.395 63.7885C104.429 63.7885 101.664 61.1189 101.664 55.9785V45.0224H105.947V55.6766C105.947 58.2985 107.059 59.8795 109.498 59.8795C111.937 59.8795 113.026 58.2905 113.026 55.6766V45.0224H117.308V55.9785C117.308 61.1189 114.36 63.7885 109.395 63.7885Z" fill="white"/>
<path d="M134.588 63.4866L130.886 57.4166L127.136 63.4866H122.091L128.169 54.469L122.091 45.0224H127.207L130.934 51.1162L134.692 45.0224H139.705L133.627 54.0399L139.705 63.4866H134.588Z" fill="white"/>
<path d="M144.718 63.4866V45.0224H156.405V48.9551H149.001V52.2523H155.746V55.9785H149.001V59.5856H156.405V63.4866H144.718Z" fill="white"/>
<path d="M177.714 63.4866L177.483 54.4213L172.375 60.8965H171.922L166.758 54.4213L166.583 63.4866H162.451L163.309 44.8953L163.881 44.8476L172.248 55.3985L180.407 44.8476L180.987 44.8953L181.869 63.4866H177.714Z" fill="white"/>
<path d="M193.937 55.5733C193.286 55.5733 192.754 55.5972 192.325 55.6448V59.9272C192.928 59.9749 193.254 60.0066 194.112 60.0066C196.281 60.0066 197.314 59.1724 197.314 57.79C197.314 56.4076 196.21 55.5733 193.937 55.5733ZM194.263 48.5738C193.485 48.5738 192.928 48.6532 192.325 48.7486V52.6019C192.801 52.6496 193.127 52.6813 193.914 52.6813C195.979 52.6813 197.012 51.9266 197.012 50.5918C197.012 49.4875 196.083 48.5738 194.263 48.5738ZM193.683 63.6613C192.07 63.6613 189.981 63.5104 188.161 63.28V45.2448C189.496 45.0462 191.816 44.8396 193.326 44.8396C198.689 44.8396 201.414 47.2311 201.414 49.8053C201.414 51.7438 200.333 53.0548 198.244 53.9128C200.762 54.6676 201.946 56.1295 201.946 58.2428C201.946 61.111 199.221 63.6613 193.683 63.6613Z" fill="white"/>
<path d="M216.485 48.55C213.562 48.55 211.599 50.9414 211.599 54.2703C211.599 57.5993 213.562 59.9908 216.485 59.9908C219.409 59.9908 221.372 57.5755 221.372 54.2703C221.372 50.9652 219.409 48.55 216.485 48.55ZM216.406 63.7885C210.685 63.7885 207.039 59.6809 207.039 54.2703C207.039 48.8598 210.868 44.7205 216.589 44.7205C222.309 44.7205 225.956 48.828 225.956 54.2703C225.956 59.7127 222.102 63.7885 216.406 63.7885Z" fill="white"/>
<path d="M239.407 63.7885C234.449 63.7885 231.676 61.1189 231.676 55.9785V45.0224H235.959V55.6766C235.959 58.2985 237.063 59.8795 239.51 59.8795C241.957 59.8795 243.038 58.2905 243.038 55.6766V45.0224H247.32V55.9785C247.32 61.1189 244.372 63.7885 239.407 63.7885Z" fill="white"/>
<path d="M259.587 48.7247C258.935 48.7247 258.53 48.7486 257.926 48.8519V53.9367C258.483 53.9843 258.785 54.0161 259.285 54.0161C261.327 54.0161 262.638 53.0309 262.638 51.1718C262.638 49.6384 261.43 48.7247 259.587 48.7247ZM263.393 63.4866L260.246 57.4642C259.992 57.4881 259.77 57.4881 259.515 57.4881C258.888 57.4881 258.538 57.4642 257.926 57.4404V63.4866H253.644V45.1972C255.209 45.0224 256.917 44.8953 259.086 44.8953C264.831 44.8953 267.095 47.6363 267.095 51.0129C267.095 53.2057 265.911 55.1681 263.925 56.3519L268.255 63.4786H263.393V63.4866Z" fill="white"/>
<path d="M288.856 53.1104V61.9293C286.814 63.1131 284.645 63.7964 281.849 63.7964C276.43 63.7964 272.148 59.9192 272.148 54.2783C272.148 48.6373 276.478 44.7284 282.071 44.7284C284.487 44.7284 286.433 45.3561 288.268 46.3174L286.481 49.7655C285.17 49.0823 283.756 48.7327 282.349 48.7327C278.671 48.7327 276.708 51.0208 276.708 54.2703C276.708 57.7979 279.076 59.9908 282.103 59.9908C283.462 59.9908 284.145 59.8398 284.82 59.4902V56.7651H281.118V53.1104H288.856Z" fill="white"/>
<path d="M92.1223 32.0244C91.6853 32.0244 91.2086 31.9926 90.7001 31.9211C90.1916 31.8496 89.6831 31.6986 89.1747 31.4682C88.6662 31.2378 88.1815 30.9121 87.7128 30.491C87.244 30.0699 86.8388 29.5137 86.4813 28.8225C86.1238 28.1313 85.8378 27.2812 85.6312 26.2722C85.4167 25.2632 85.3134 24.0555 85.3134 22.6572V12.7339C85.3134 11.3276 85.4246 10.12 85.6391 9.11892C85.8616 8.11785 86.1476 7.27568 86.5131 6.59241C86.8706 5.90914 87.2917 5.36094 87.7605 4.95574C88.2292 4.55055 88.7139 4.24069 89.2223 4.02618C89.7229 3.81166 90.2234 3.6766 90.7239 3.60509C91.2245 3.54153 91.6853 3.50975 92.1064 3.50975C93.2187 3.50975 94.1562 3.66865 94.903 3.97851C95.6498 4.28836 96.2537 4.71739 96.7065 5.25765C97.1594 5.79791 97.4851 6.43351 97.6758 7.14856C97.8665 7.87156 97.9618 8.63428 97.9618 9.44467C97.9618 10.0485 97.9301 10.6046 97.8744 11.1131C97.8109 11.6216 97.7235 12.1857 97.6043 12.7975H94.1562V11.3674C94.1562 9.82603 93.9893 8.674 93.6477 7.90334C93.3061 7.14062 92.8135 6.75131 92.154 6.75131C91.7647 6.75131 91.4152 6.83076 91.1212 6.98172C90.8272 7.13267 90.5809 7.39486 90.3823 7.76033C90.1837 8.1258 90.0327 8.61044 89.9294 9.21426C89.8262 9.81808 89.7705 10.5649 89.7705 11.4627V24.2541C89.7705 25.1281 89.8103 25.859 89.8897 26.439C89.9692 27.019 90.1042 27.4798 90.2949 27.8373C90.4776 28.1869 90.7239 28.4332 91.0259 28.5842C91.3278 28.7351 91.6932 28.8066 92.1143 28.8066C92.3844 28.8066 92.6466 28.7431 92.9009 28.6159C93.1551 28.4888 93.3696 28.2902 93.5682 28.028C93.7589 27.7579 93.9099 27.4242 94.0291 27.0111C94.1482 26.6059 94.2038 26.1212 94.2038 25.5571V22.8161H98.089V25.4062C98.089 27.6626 97.5725 29.3231 96.5476 30.3956C95.5227 31.4682 94.045 32.0085 92.1143 32.0164" fill="white"/>
<path d="M105.446 22.4427L99.7971 3.75605H104.079L107.512 17.1593H107.71L111.103 3.75605H115.369L109.697 22.4427V31.7781H105.446V22.4427Z" fill="white"/>
<path d="M123.894 28.8225C124.466 28.8225 124.983 28.751 125.444 28.6001C125.904 28.457 126.31 28.2266 126.643 27.9088C126.977 27.599 127.231 27.2017 127.414 26.7171C127.597 26.2324 127.684 25.6684 127.684 25.0089V22.824C127.684 22.1646 127.621 21.5846 127.485 21.0761C127.35 20.5677 127.136 20.1386 126.834 19.797C126.532 19.4554 126.143 19.1932 125.658 19.0104C125.173 18.8277 124.586 18.7403 123.886 18.7403H122.671V28.8146H123.886L123.894 28.8225ZM123.505 15.753C124.069 15.753 124.593 15.6815 125.062 15.5464C125.531 15.4114 125.936 15.1968 126.27 14.9029C126.604 14.6169 126.858 14.2355 127.041 13.7747C127.223 13.3139 127.311 12.7498 127.311 12.0904V10.9463C127.311 10.2868 127.247 9.7148 127.112 9.20632C126.977 8.70578 126.762 8.27675 126.461 7.92717C126.159 7.57759 125.769 7.31541 125.277 7.13267C124.792 6.94994 124.196 6.86254 123.497 6.86254H122.679V15.753H123.505ZM118.516 3.75605H122.814C123.449 3.75605 124.101 3.77988 124.784 3.81961C125.459 3.86728 126.119 3.95467 126.77 4.09768C127.414 4.24069 128.026 4.44726 128.606 4.72534C129.186 5.00341 129.686 5.37683 130.123 5.84558C130.552 6.31434 130.902 6.90227 131.156 7.59348C131.41 8.2847 131.545 9.11892 131.545 10.0962V11.4548C131.545 12.2016 131.434 12.8849 131.228 13.5046C131.013 14.1322 130.735 14.6804 130.385 15.1571C130.036 15.6338 129.639 16.0311 129.186 16.3409C128.741 16.6508 128.28 16.8653 127.811 16.9686V17.1036C129.202 17.3579 130.25 18.0173 130.949 19.0819C131.657 20.1466 132.006 21.5131 132.006 23.1736V24.6037C132.006 25.6207 131.895 26.5026 131.672 27.2574C131.45 28.0042 131.132 28.6477 130.727 29.18C130.322 29.7124 129.845 30.1414 129.281 30.483C128.725 30.8247 128.113 31.0868 127.446 31.2775C126.778 31.4682 126.071 31.6033 125.316 31.6748C124.562 31.7463 123.783 31.7781 122.989 31.7781H118.531V3.75605H118.516Z" fill="white"/>
<path d="M136.36 3.75605H146.744V7.10884H140.611V15.4908H145.354V18.8357H140.611V28.4332H146.911V31.7781H136.36V3.75605Z" fill="white"/>
<path d="M155.46 18.2239C156.199 18.2239 156.834 18.1444 157.351 17.9776C157.867 17.8107 158.28 17.5406 158.598 17.1513C158.916 16.762 159.146 16.2456 159.289 15.61C159.432 14.9744 159.504 14.1799 159.504 13.2424V11.0257C159.504 10.3027 159.44 9.68302 159.305 9.15865C159.17 8.63428 158.956 8.20525 158.638 7.86361C158.328 7.52198 157.915 7.27568 157.398 7.10884C156.882 6.94199 156.238 6.86254 155.46 6.86254H154.816V18.2318H155.46V18.2239ZM155.261 3.75605C155.786 3.75605 156.366 3.77988 156.993 3.81961C157.621 3.86728 158.248 3.97056 158.876 4.13741C159.504 4.30425 160.108 4.55849 160.696 4.90013C161.283 5.24176 161.8 5.70257 162.253 6.29845C162.706 6.88638 163.071 7.62526 163.341 8.52305C163.611 9.41289 163.746 10.4934 163.746 11.7646V12.4717C163.746 14.601 163.445 16.3409 162.825 17.6836C162.213 19.0263 161.307 19.9877 160.116 20.5756L164.612 31.7781H160.116L156.389 21.2986H154.8V31.7781H150.637V3.75605H155.261Z" fill="white"/>
<path d="M167.433 26.0974C167.433 25.4936 167.473 24.9454 167.544 24.4289C167.616 23.9205 167.719 23.3722 167.862 22.7843H171.159V24.1429C171.159 24.8977 171.207 25.5651 171.294 26.1451C171.39 26.725 171.54 27.2176 171.755 27.6149C171.969 28.0121 172.256 28.314 172.605 28.5206C172.963 28.7192 173.392 28.8225 173.908 28.8225C174.718 28.8225 175.338 28.6001 175.759 28.1551C176.188 27.7102 176.395 27.0667 176.395 26.2086C176.395 25.7716 176.363 25.3664 176.307 25.001C176.252 24.6355 176.141 24.27 175.998 23.9125C175.855 23.555 175.648 23.1736 175.402 22.7764C175.148 22.3791 174.83 21.9342 174.432 21.4416L169.999 16.1741C169.213 15.1651 168.601 14.156 168.18 13.1311C167.751 12.1062 167.544 11.0178 167.544 9.85781C167.544 8.92824 167.687 8.07813 167.981 7.29952C168.267 6.52091 168.688 5.85353 169.236 5.28943C169.785 4.72534 170.46 4.28836 171.262 3.97851C172.065 3.66865 172.979 3.50975 173.995 3.50975C175.235 3.50975 176.26 3.68454 177.086 4.03412C177.912 4.3837 178.572 4.84451 179.064 5.41655C179.557 5.98859 179.899 6.62419 180.105 7.32335C180.312 8.03046 180.407 8.73756 180.407 9.45261C180.407 10.0564 180.359 10.6126 180.264 11.1211C180.169 11.6295 180.065 12.1857 179.946 12.8054H176.665V11.4786C176.665 9.99287 176.45 8.84879 176.021 8.06224C175.592 7.26774 174.901 6.87049 173.94 6.87049C173.137 6.87049 172.542 7.09295 172.152 7.53787C171.755 7.98279 171.564 8.57072 171.564 9.31755C171.564 9.70685 171.596 10.0644 171.652 10.3822C171.715 10.7 171.795 10.9939 171.914 11.2641C172.033 11.5342 172.168 11.7884 172.327 12.0427C172.494 12.2969 172.677 12.5591 172.883 12.8292L177.817 18.8039C178.715 19.9718 179.406 21.1 179.883 22.1726C180.359 23.2531 180.606 24.3892 180.606 25.5889C180.606 26.582 180.447 27.4798 180.137 28.2823C179.827 29.0847 179.382 29.76 178.802 30.3162C178.222 30.8723 177.523 31.3014 176.705 31.6033C175.886 31.9052 174.957 32.0561 173.932 32.0561C172.661 32.0561 171.612 31.8893 170.778 31.5477C169.944 31.206 169.276 30.7611 168.776 30.2049C168.275 29.6488 167.925 29.0132 167.727 28.3061C167.528 27.599 167.425 26.868 167.425 26.1212" fill="white"/>
<path d="M184.864 3.75605H195.248V7.10884H189.115V15.4908H193.858V18.8357H189.115V28.4332H195.415V31.7781H184.864V3.75605Z" fill="white"/>
<path d="M205.188 32.0244C204.751 32.0244 204.274 31.9926 203.765 31.9211C203.257 31.8496 202.748 31.6986 202.24 31.4682C201.731 31.2378 201.247 30.9121 200.778 30.491C200.309 30.0699 199.904 29.5137 199.547 28.8225C199.189 28.1313 198.903 27.2812 198.696 26.2722C198.482 25.2632 198.379 24.0555 198.379 22.6572V12.7339C198.379 11.3276 198.49 10.12 198.704 9.11892C198.927 8.11785 199.213 7.27568 199.578 6.59241C199.936 5.90914 200.357 5.36094 200.826 4.95574C201.294 4.55055 201.779 4.24069 202.288 4.02618C202.788 3.81166 203.289 3.6766 203.789 3.60509C204.29 3.54153 204.751 3.50975 205.172 3.50975C206.284 3.50975 207.221 3.66865 207.968 3.97851C208.715 4.28836 209.319 4.71739 209.772 5.25765C210.225 5.79791 210.55 6.43351 210.741 7.14856C210.932 7.87156 211.027 8.63428 211.027 9.44467C211.027 10.0485 210.995 10.6046 210.94 11.1131C210.876 11.6216 210.789 12.1857 210.67 12.7975H207.221V11.3674C207.221 9.82603 207.055 8.674 206.713 7.90334C206.371 7.14062 205.879 6.75131 205.219 6.75131C204.83 6.75131 204.48 6.83076 204.186 6.98172C203.893 7.13267 203.646 7.39486 203.448 7.76033C203.249 8.1258 203.106 8.61044 202.995 9.21426C202.891 9.81808 202.836 10.5649 202.836 11.4627V24.2541C202.836 25.1281 202.876 25.859 202.955 26.439C203.034 27.019 203.17 27.4798 203.36 27.8373C203.543 28.1869 203.789 28.4332 204.091 28.5842C204.393 28.7351 204.759 28.8066 205.18 28.8066C205.45 28.8066 205.712 28.7431 205.966 28.6159C206.22 28.4888 206.435 28.2902 206.634 28.028C206.824 27.7579 206.975 27.4242 207.094 27.0111C207.214 26.6059 207.269 26.1212 207.269 25.5571V22.8161H211.154V25.4062C211.154 27.6626 210.638 29.3231 209.613 30.3956C208.588 31.4682 207.11 32.0085 205.18 32.0164" fill="white"/>
<path d="M215.079 3.75605H219.361V24.2939C219.361 25.1678 219.401 25.8988 219.496 26.4787C219.584 27.0587 219.727 27.5195 219.918 27.8691C220.108 28.2108 220.355 28.457 220.656 28.608C220.958 28.759 221.316 28.8305 221.729 28.8305C222.142 28.8305 222.508 28.759 222.817 28.608C223.127 28.465 223.39 28.2108 223.588 27.8691C223.787 27.5275 223.946 27.0667 224.049 26.4787C224.152 25.8988 224.208 25.1758 224.208 24.2939V3.75605H228.443V23.1577C228.443 24.5243 228.331 25.6922 228.117 26.6694C227.894 27.6467 227.608 28.457 227.251 29.1165C226.893 29.7759 226.48 30.2923 226.011 30.6737C225.543 31.0551 225.066 31.349 224.565 31.5477C224.065 31.7463 223.572 31.8734 223.08 31.929C222.587 31.9846 222.142 32.0085 221.737 32.0085C221.332 32.0085 220.887 31.9846 220.402 31.929C219.918 31.8734 219.425 31.7463 218.932 31.5477C218.44 31.3411 217.963 31.0551 217.502 30.6737C217.041 30.2923 216.636 29.768 216.271 29.1165C215.913 28.457 215.619 27.6467 215.405 26.6774C215.19 25.7081 215.087 24.5402 215.087 23.1577V3.75605H215.079Z" fill="white"/>
<path d="M238.604 18.2239C239.343 18.2239 239.979 18.1444 240.495 17.9776C241.012 17.8107 241.425 17.5406 241.742 17.1513C242.06 16.762 242.291 16.2456 242.434 15.61C242.577 14.9744 242.648 14.1799 242.648 13.2424V11.0257C242.648 10.3027 242.585 9.68302 242.45 9.15865C242.315 8.63428 242.1 8.20525 241.782 7.86361C241.472 7.52198 241.059 7.27568 240.543 7.10884C240.026 6.94199 239.383 6.86254 238.604 6.86254H237.961V18.2318H238.604V18.2239ZM238.406 3.75605C238.93 3.75605 239.51 3.77988 240.138 3.81961C240.765 3.86728 241.393 3.97056 242.021 4.13741C242.648 4.30425 243.252 4.55849 243.84 4.90013C244.428 5.24176 244.944 5.70257 245.397 6.29845C245.85 6.88638 246.216 7.62526 246.486 8.52305C246.756 9.41289 246.891 10.4934 246.891 11.7646V12.4717C246.891 14.601 246.589 16.3409 245.969 17.6836C245.357 19.0263 244.452 19.9877 243.26 20.5756L247.757 31.7781H243.26L239.534 21.2986H237.945V31.7781H233.782V3.75605H238.406Z" fill="white"/>
<path d="M255.908 3.75605H251.658V31.7701H255.908V3.75605Z" fill="white"/>
<path d="M263.965 7.10884H259.452V3.75605H272.704V7.10884H268.215V31.7781H263.965V7.10884Z" fill="white"/>
<path d="M279.577 22.4427L273.936 3.75605H278.218L281.642 17.1593H281.841L285.233 3.75605H289.5L283.827 22.4427V31.7781H279.577V22.4427Z" fill="white"/>
</svg>
