<svg width="355" height="83" viewBox="0 0 355 83" fill="none" xmlns="http://www.w3.org/2000/svg">
<path d="M82.2818 17.0936V0.343644H65.7018L49.4018 16.6436V18.4836L61.4918 19.9136V33.2236H66.1518L82.2818 17.0936Z" fill="#1B9DD9"/>
<path d="M21.1118 49.3736H16.6018L0.311768 65.6636V82.2536H17.0618L33.1918 66.1236V61.6136L22.2718 52.4636L21.1118 51.4936V49.3736Z" fill="#1B9DD9"/>
<path d="M82.2218 82.2836V65.7036L65.9218 49.4036H61.4918V51.4936L60.3318 52.4636L49.3418 61.6836V66.1536L65.4718 82.2836H82.2218Z" fill="#E20E18"/>
<path d="M33.1918 18.4936V16.6036L16.8918 0.313644H0.311768V17.0636L16.4418 33.1936H21.1118V19.9136L23.9718 19.5736L33.1918 18.4936Z" fill="#E20E18"/>
<path d="M35.6618 52.9836C35.6618 53.9636 36.2918 54.7136 37.1918 54.7136C38.0918 54.7136 38.7218 53.9636 38.7218 52.9836C38.7218 52.0036 38.0918 51.2536 37.1918 51.2536C36.2918 51.2536 35.6618 51.9936 35.6618 52.9836ZM35.6618 46.5136C35.6618 47.4936 36.2918 48.2436 37.1918 48.2436C38.0918 48.2436 38.7218 47.5036 38.7218 46.5136C38.7218 45.5236 38.0918 44.7836 37.1918 44.7836C36.2918 44.7836 35.6618 45.5236 35.6618 46.5136ZM35.6618 40.0336C35.6618 41.0136 36.2918 41.7636 37.1918 41.7636C38.0918 41.7636 38.7218 41.0236 38.7218 40.0336C38.7218 39.0436 38.0918 38.3036 37.1918 38.3036C36.2918 38.3036 35.6618 39.0436 35.6618 40.0336ZM30.0218 46.5136C30.0218 47.4936 30.6518 48.2436 31.5518 48.2436C32.4518 48.2436 33.0818 47.5036 33.0818 46.5136C33.0818 45.5236 32.4518 44.7836 31.5518 44.7836C30.6518 44.7836 30.0218 45.5236 30.0218 46.5136ZM25.6718 40.0336C25.6718 41.0136 26.3018 41.7636 27.2018 41.7636C28.1018 41.7636 28.7318 41.0236 28.7318 40.0336C28.7318 39.0436 28.1018 38.3036 27.2018 38.3036C26.3018 38.3036 25.6718 39.0436 25.6718 40.0336ZM25.9018 33.5536C25.9018 34.5336 26.5318 35.2836 27.4318 35.2836C28.3318 35.2836 28.9618 34.5436 28.9618 33.5536C28.9618 32.5636 28.3318 31.8236 27.4318 31.8236C26.5318 31.8236 25.9018 32.5636 25.9018 33.5536ZM29.0018 27.0736C29.0018 26.0836 28.3718 25.3436 27.4718 25.3436C26.5718 25.3436 25.9418 26.0836 25.9418 27.0736C25.9418 28.0636 26.5718 28.8036 27.4718 28.8036C28.3718 28.8036 29.0018 28.0536 29.0018 27.0736ZM32.2018 38.3036C31.2918 38.3036 30.6718 39.0436 30.6718 40.0336C30.6718 41.0236 31.3018 41.7636 32.2018 41.7636C33.1018 41.7636 33.7318 41.0236 33.7318 40.0336C33.7318 39.0436 33.1018 38.3036 32.2018 38.3036ZM34.6418 27.0736C34.6418 26.0836 34.0118 25.3436 33.1118 25.3436C32.2118 25.3436 31.5818 26.0836 31.5818 27.0736C31.5818 28.0636 32.2118 28.8036 33.1118 28.8036C34.0118 28.8036 34.6418 28.0536 34.6418 27.0736ZM38.7318 33.5536C38.7318 32.5636 38.1018 31.8236 37.2018 31.8236C36.3018 31.8236 35.6718 32.5636 35.6718 33.5536C35.6718 34.5436 36.3018 35.2836 37.2018 35.2836C38.1018 35.2836 38.7318 34.5436 38.7318 33.5536ZM39.5918 33.5536C39.5918 34.9536 38.5418 36.0036 37.1718 36.0036C35.8018 36.0036 34.7918 34.9636 34.7918 33.5536C34.7918 32.1436 35.8418 31.0936 37.2118 31.0936C38.5818 31.0936 39.5918 32.1336 39.5918 33.5536ZM39.4018 29.4436H38.5918V24.6936H39.4018V29.4436ZM37.3318 29.4436H36.5218V24.6936H37.3318V29.4436ZM35.5118 27.0736C35.5118 28.4836 34.4618 29.5236 33.0918 29.5236C31.7218 29.5236 30.7118 28.4836 30.7118 27.0736C30.7118 25.6636 31.7618 24.6236 33.1318 24.6236C34.5018 24.6236 35.5118 25.6636 35.5118 27.0736ZM31.9118 31.1736H32.7218V35.9236H31.9118V31.1736ZM32.2218 37.5736C33.5918 37.5736 34.6018 38.6136 34.6018 40.0336C34.6018 41.4536 33.5518 42.4836 32.1818 42.4836C30.8118 42.4836 29.8018 41.4436 29.8018 40.0336C29.8018 38.6236 30.8518 37.5736 32.2218 37.5736ZM29.8718 27.0736C29.8718 28.4836 28.8218 29.5236 27.4518 29.5236C26.0818 29.5236 25.0718 28.4836 25.0718 27.0736C25.0718 25.6636 26.1218 24.6236 27.4918 24.6236C28.8618 24.6236 29.8718 25.6636 29.8718 27.0736ZM25.0418 33.5536C25.0418 32.1436 26.0918 31.0936 27.4618 31.0936C28.8318 31.0936 29.8418 32.1336 29.8418 33.5536C29.8418 34.9736 28.7918 36.0036 27.4218 36.0036C26.0518 36.0036 25.0418 34.9636 25.0418 33.5536ZM24.8018 40.0336C24.8018 38.6236 25.8518 37.5736 27.2218 37.5736C28.5918 37.5736 29.6018 38.6136 29.6018 40.0336C29.6018 41.4536 28.5518 42.4836 27.1818 42.4836C25.8118 42.4836 24.8018 41.4436 24.8018 40.0336ZM25.2618 44.1336H26.0718V48.8836H25.2618V44.1336ZM27.3018 44.1336H28.1118V48.8836H27.3018V44.1336ZM29.1518 46.5136C29.1518 45.1036 30.2018 44.0636 31.5718 44.0636C32.9418 44.0636 33.9518 45.1036 33.9518 46.5136C33.9518 47.9236 32.9018 48.9636 31.5318 48.9636C30.1618 48.9636 29.1518 47.9236 29.1518 46.5136ZM32.8218 50.6136H33.6318V55.3636H32.8218V50.6136ZM34.7918 40.0336C34.7918 38.6236 35.8418 37.5736 37.2118 37.5736C38.5818 37.5736 39.5918 38.6136 39.5918 40.0336C39.5918 41.4536 38.5418 42.4836 37.1718 42.4836C35.8018 42.4836 34.7918 41.4436 34.7918 40.0336ZM34.7918 46.5136C34.7918 45.1036 35.8418 44.0636 37.2118 44.0636C38.5818 44.0636 39.5918 45.1036 39.5918 46.5136C39.5918 47.9236 38.5418 48.9636 37.1718 48.9636C35.8018 48.9636 34.7918 47.9236 34.7918 46.5136ZM34.7918 52.9836C34.7918 51.5736 35.8418 50.5336 37.2118 50.5336C38.5818 50.5336 39.5918 51.5736 39.5918 52.9836C39.5918 54.3936 38.5418 55.4336 37.1718 55.4336C35.8018 55.4336 34.7918 54.3936 34.7918 52.9836ZM40.7318 63.7036V20.8636L24.3418 22.7836V49.9736L40.7318 63.7036Z" fill="#1B9DD9"/>
<path d="M41.9018 20.8436L58.2518 22.7836V49.9736L41.9018 63.6836V20.8436Z" fill="#E20E18"/>
<path d="M105.502 77.8036V55.2036H110.742V73.0236H119.812V77.8036H105.502Z" fill="#010101"/>
<path d="M134.212 78.1736C128.142 78.1736 124.742 74.9036 124.742 68.6136V55.2036H129.982V68.2436C129.982 71.4536 131.342 73.3936 134.332 73.3936C137.322 73.3936 138.652 71.4536 138.652 68.2436V55.2036H143.892V68.6136C143.892 74.9036 140.282 78.1736 134.212 78.1736Z" fill="#010101"/>
<path d="M165.042 77.8036L160.512 70.3736L155.912 77.8036H149.742L157.182 66.7636L149.742 55.2036H156.002L160.572 62.6636L165.162 55.2036H171.302L163.862 66.2436L171.302 77.8036H165.042Z" fill="#010101"/>
<path d="M177.432 77.8036V55.2036H191.742V60.0136H182.672V64.0536H190.942V68.6236H182.672V73.0236H191.742V77.8036H177.432Z" fill="#010101"/>
<path d="M217.822 77.8036L217.542 66.7036L211.282 74.6336H210.732L204.412 66.7036L204.192 77.8036H199.142L200.192 55.0536L200.902 54.9936L211.132 67.9136L221.122 54.9936L221.832 55.0536L222.912 77.8036H217.822Z" fill="#010101"/>
<path d="M237.682 68.1236C236.882 68.1236 236.232 68.1536 235.712 68.2136V73.4536C236.452 73.5136 236.852 73.5436 237.902 73.5436C240.552 73.5436 241.812 72.5236 241.812 70.8336C241.812 69.1436 240.452 68.1236 237.682 68.1236ZM238.082 59.5536C237.122 59.5536 236.442 59.6436 235.712 59.7636V64.4836C236.302 64.5436 236.702 64.5736 237.652 64.5736C240.182 64.5736 241.442 63.6436 241.442 62.0136C241.442 60.6536 240.302 59.5436 238.082 59.5436M237.372 78.0236C235.402 78.0236 232.842 77.8436 230.622 77.5636V55.4936C232.262 55.2436 235.092 55.0036 236.942 55.0036C243.512 55.0036 246.842 57.9336 246.842 61.0736C246.842 63.4436 245.522 65.0536 242.962 66.1036C246.042 67.0236 247.492 68.8136 247.492 71.4036C247.492 74.9136 244.162 78.0336 237.382 78.0336" fill="#010101"/>
<path d="M265.272 59.5236C261.692 59.5236 259.292 62.4536 259.292 66.5236C259.292 70.5936 261.702 73.5236 265.272 73.5236C268.842 73.5236 271.252 70.5636 271.252 66.5236C271.252 62.4836 268.852 59.5236 265.272 59.5236ZM265.182 78.1736C258.182 78.1736 253.712 73.1436 253.712 66.5236C253.712 59.9036 258.402 54.8436 265.392 54.8436C272.382 54.8436 276.862 59.8736 276.862 66.5236C276.862 73.1736 272.142 78.1736 265.182 78.1736Z" fill="#010101"/>
<path d="M293.332 78.1736C287.262 78.1736 283.872 74.9036 283.872 68.6136V55.2036H289.112V68.2436C289.112 71.4536 290.472 73.3936 293.462 73.3936C296.452 73.3936 297.782 71.4536 297.782 68.2436V55.2036H303.022V68.6136C303.022 74.9036 299.412 78.1736 293.342 78.1736" fill="#010101"/>
<path d="M318.032 59.7436C317.232 59.7436 316.742 59.7736 315.992 59.8936V66.1236C316.672 66.1836 317.042 66.2136 317.662 66.2136C320.162 66.2136 321.762 65.0136 321.762 62.7336C321.762 60.8536 320.282 59.7436 318.032 59.7436ZM322.682 77.8036L318.832 70.4336C318.522 70.4636 318.242 70.4636 317.942 70.4636C317.172 70.4636 316.742 70.4336 316.002 70.4036V77.8036H310.762V55.4236C312.672 55.2036 314.772 55.0536 317.422 55.0536C324.452 55.0536 327.222 58.4136 327.222 62.5436C327.222 65.2236 325.772 67.6336 323.342 69.0836L328.642 77.8036H322.682Z" fill="#010101"/>
<path d="M353.852 65.1036V75.8936C351.352 77.3436 348.702 78.1736 345.282 78.1736C338.652 78.1736 333.412 73.4236 333.412 66.5236C333.412 59.6236 338.712 54.8436 345.562 54.8436C348.522 54.8436 350.892 55.6136 353.152 56.7836L350.962 61.0036C349.362 60.1736 347.632 59.7436 345.902 59.7436C341.402 59.7436 338.992 62.5436 338.992 66.5236C338.992 70.8436 341.892 73.5236 345.592 73.5236C347.252 73.5236 348.092 73.3436 348.922 72.9136V69.5836H344.392V65.1136H353.862L353.852 65.1036Z" fill="#010101"/>
<path d="M113.072 39.2936C112.532 39.2936 111.952 39.2536 111.332 39.1636C110.712 39.0736 110.092 38.8936 109.462 38.6136C108.842 38.3336 108.242 37.9336 107.672 37.4236C107.102 36.9036 106.602 36.2236 106.162 35.3836C105.722 34.5436 105.382 33.5036 105.122 32.2636C104.862 31.0236 104.732 29.5536 104.732 27.8336V15.6836C104.732 13.9536 104.862 12.4836 105.132 11.2536C105.402 10.0236 105.752 8.99364 106.192 8.16364C106.632 7.32364 107.142 6.66364 107.722 6.16364C108.292 5.67364 108.892 5.29364 109.512 5.03364C110.132 4.77364 110.742 4.60364 111.352 4.52364C111.962 4.44364 112.522 4.40364 113.052 4.40364C114.422 4.40364 115.562 4.59364 116.472 4.97364C117.392 5.35364 118.122 5.87364 118.682 6.54364C119.242 7.20364 119.632 7.97364 119.872 8.86364C120.102 9.74364 120.222 10.6836 120.222 11.6736C120.222 12.4136 120.182 13.0936 120.112 13.7136C120.042 14.3336 119.932 15.0236 119.782 15.7736H115.562V14.0236C115.562 12.1336 115.352 10.7236 114.942 9.78364C114.522 8.84365 113.922 8.37364 113.112 8.37364C112.632 8.37364 112.212 8.47364 111.852 8.65364C111.492 8.84364 111.192 9.15364 110.952 9.60364C110.712 10.0536 110.532 10.6436 110.402 11.3836C110.272 12.1236 110.212 13.0336 110.212 14.1336V29.7936C110.212 30.8636 110.262 31.7536 110.362 32.4636C110.462 33.1736 110.622 33.7436 110.852 34.1736C111.082 34.6036 111.382 34.9036 111.742 35.0836C112.112 35.2636 112.552 35.3536 113.082 35.3536C113.412 35.3536 113.732 35.2736 114.042 35.1236C114.352 34.9736 114.622 34.7236 114.852 34.4036C115.082 34.0736 115.272 33.6636 115.412 33.1636C115.552 32.6636 115.622 32.0736 115.622 31.3836V28.0336H120.382V31.2036C120.382 33.9636 119.752 35.9936 118.492 37.3036C117.232 38.6136 115.422 39.2736 113.072 39.2936Z" fill="#1B9DD9"/>
<path d="M129.372 27.5736L122.462 4.70364H127.702L131.902 21.1036H132.142L136.292 4.70364H141.512L134.572 27.5736V38.9936H129.372V27.5736Z" fill="#1B9DD9"/>
<path d="M151.952 35.3836C152.652 35.3836 153.282 35.2936 153.852 35.1136C154.422 34.9336 154.912 34.6536 155.312 34.2736C155.722 33.8936 156.032 33.4036 156.252 32.8136C156.472 32.2236 156.582 31.5236 156.582 30.7236V28.0536C156.582 27.2536 156.502 26.5336 156.342 25.9136C156.182 25.2936 155.922 24.7736 155.552 24.3436C155.182 23.9236 154.702 23.6036 154.112 23.3836C153.522 23.1636 152.802 23.0536 151.942 23.0536H150.462V35.3836H151.952ZM151.472 19.3836C152.162 19.3836 152.802 19.3036 153.382 19.1336C153.962 18.9636 154.452 18.7036 154.862 18.3536C155.272 18.0036 155.582 17.5336 155.812 16.9636C156.032 16.3936 156.142 15.7136 156.142 14.9036V13.5036C156.142 12.7036 156.062 11.9936 155.902 11.3736C155.742 10.7636 155.482 10.2336 155.112 9.80364C154.742 9.37364 154.262 9.05365 153.672 8.83364C153.072 8.61364 152.352 8.50364 151.492 8.50364H150.492V19.3836H151.492H151.472ZM150.632 4.70364C151.412 4.70364 152.212 4.73364 153.042 4.78364C153.872 4.83364 154.682 4.95364 155.472 5.12364C156.262 5.29364 157.012 5.55364 157.722 5.89364C158.432 6.23364 159.052 6.69364 159.582 7.27364C160.112 7.85364 160.532 8.56364 160.842 9.41364C161.152 10.2636 161.312 11.2836 161.312 12.4736V14.1436C161.312 15.0536 161.182 15.8936 160.922 16.6536C160.662 17.4136 160.312 18.0936 159.892 18.6736C159.462 19.2536 158.972 19.7336 158.422 20.1236C157.872 20.5036 157.312 20.7636 156.732 20.8936V21.0536C158.432 21.3636 159.712 22.1636 160.572 23.4736C161.432 24.7736 161.872 26.4436 161.872 28.4836V30.2336C161.872 31.4836 161.732 32.5636 161.462 33.4736C161.182 34.3936 160.802 35.1736 160.302 35.8236C159.812 36.4736 159.222 37.0036 158.532 37.4236C157.852 37.8436 157.102 38.1636 156.282 38.3936C155.462 38.6236 154.592 38.7936 153.672 38.8736C152.752 38.9636 151.802 39.0036 150.822 39.0036H145.362V4.70364H150.632Z" fill="#1B9DD9"/>
<path d="M167.212 4.70364H179.922V8.79364H172.412V19.0536H178.212V23.1536H172.412V34.8936H180.122V38.9936H167.212V4.70364Z" fill="#1B9DD9"/>
<path d="M190.582 22.4136C191.492 22.4136 192.262 22.3136 192.892 22.1136C193.522 21.9136 194.032 21.5736 194.412 21.1036C194.802 20.6336 195.082 20.0036 195.252 19.2136C195.422 18.4336 195.512 17.4636 195.512 16.3136V13.6036C195.512 12.7236 195.432 11.9636 195.272 11.3136C195.112 10.6736 194.842 10.1436 194.462 9.72364C194.082 9.30364 193.572 9.00364 192.942 8.80364C192.312 8.60364 191.522 8.50364 190.572 8.50364H189.792V22.4136H190.582ZM184.702 4.70364H190.342C190.982 4.70364 191.692 4.73364 192.462 4.78364C193.232 4.83364 194.002 4.97364 194.772 5.17364C195.542 5.38364 196.282 5.69364 197.002 6.10364C197.722 6.51364 198.352 7.08364 198.912 7.81364C199.472 8.53364 199.912 9.44364 200.252 10.5336C200.582 11.6236 200.752 12.9436 200.752 14.4936V15.3536C200.752 17.9636 200.382 20.0936 199.632 21.7336C198.882 23.3736 197.782 24.5536 196.322 25.2736L201.822 38.9836H196.322L191.762 26.1536H189.812V38.9836H184.712V4.70364H184.702Z" fill="#1B9DD9"/>
<path d="M205.232 32.0436C205.232 31.3036 205.272 30.6336 205.362 30.0036C205.452 29.3836 205.582 28.7136 205.752 27.9836H209.792V29.6536C209.792 30.5736 209.852 31.3936 209.962 32.1036C210.072 32.8136 210.262 33.4136 210.522 33.9036C210.782 34.3936 211.132 34.7636 211.562 35.0036C211.992 35.2536 212.532 35.3736 213.162 35.3736C214.152 35.3736 214.912 35.1036 215.432 34.5636C215.952 34.0236 216.212 33.2236 216.212 32.1836C216.212 31.6536 216.172 31.1536 216.102 30.7036C216.032 30.2536 215.902 29.8136 215.722 29.3636C215.542 28.9236 215.302 28.4536 214.992 27.9636C214.682 27.4736 214.292 26.9336 213.812 26.3236L208.392 19.8836C207.432 18.6536 206.682 17.4136 206.162 16.1536C205.642 14.9036 205.382 13.5636 205.382 12.1436C205.382 11.0036 205.562 9.96364 205.912 9.01364C206.262 8.06364 206.782 7.24364 207.452 6.55364C208.122 5.86364 208.942 5.33364 209.932 4.94364C210.912 4.56364 212.032 4.37364 213.272 4.37364C214.782 4.37364 216.042 4.58364 217.052 5.01364C218.062 5.44364 218.872 6.00364 219.472 6.70364C220.072 7.40364 220.502 8.17364 220.742 9.04364C220.992 9.90364 221.112 10.7736 221.112 11.6436C221.112 12.3836 221.052 13.0636 220.942 13.6836C220.832 14.3036 220.702 14.9936 220.552 15.7436H216.532V14.1136C216.532 12.2936 216.272 10.8936 215.752 9.92364C215.232 8.95364 214.382 8.46364 213.202 8.46364C212.222 8.46364 211.492 8.73364 211.012 9.27364C210.532 9.81364 210.292 10.5436 210.292 11.4536C210.292 11.9336 210.332 12.3736 210.402 12.7536C210.472 13.1436 210.582 13.4936 210.722 13.8236C210.862 14.1536 211.032 14.4736 211.232 14.7736C211.432 15.0836 211.662 15.4036 211.912 15.7336L217.952 23.0436C219.052 24.4736 219.892 25.8536 220.482 27.1736C221.072 28.4936 221.362 29.8836 221.362 31.3636C221.362 32.5836 221.172 33.6836 220.792 34.6536C220.412 35.6336 219.862 36.4636 219.152 37.1436C218.442 37.8236 217.582 38.3536 216.582 38.7236C215.582 39.0936 214.442 39.2736 213.192 39.2736C211.642 39.2736 210.352 39.0636 209.332 38.6536C208.312 38.2336 207.492 37.6936 206.882 37.0036C206.272 36.3236 205.842 35.5436 205.602 34.6736C205.352 33.8036 205.232 32.9136 205.232 32.0036" fill="#1B9DD9"/>
<path d="M226.582 4.70364H239.292V8.79364H231.782V19.0536H237.582V23.1536H231.782V34.8936H239.492V38.9936H226.582V4.70364Z" fill="#1B9DD9"/>
<path d="M251.452 39.2936C250.912 39.2936 250.332 39.2536 249.712 39.1636C249.092 39.0736 248.472 38.8936 247.842 38.6136C247.222 38.3336 246.622 37.9336 246.052 37.4236C245.482 36.9036 244.982 36.2236 244.542 35.3836C244.102 34.5436 243.762 33.5036 243.502 32.2636C243.242 31.0236 243.112 29.5536 243.112 27.8336V15.6836C243.112 13.9536 243.242 12.4836 243.512 11.2536C243.782 10.0236 244.132 8.99364 244.572 8.16364C245.012 7.32364 245.522 6.66364 246.102 6.16364C246.672 5.67364 247.272 5.29364 247.892 5.03364C248.512 4.77364 249.122 4.60364 249.732 4.52364C250.342 4.44364 250.902 4.40364 251.432 4.40364C252.802 4.40364 253.942 4.59364 254.852 4.97364C255.772 5.35364 256.502 5.87364 257.062 6.54364C257.622 7.20364 258.012 7.97364 258.242 8.86364C258.472 9.74364 258.592 10.6836 258.592 11.6736C258.592 12.4136 258.552 13.0936 258.482 13.7136C258.412 14.3336 258.302 15.0236 258.152 15.7736H253.932V14.0236C253.932 12.1336 253.722 10.7236 253.312 9.78364C252.892 8.84365 252.292 8.37364 251.482 8.37364C251.002 8.37364 250.582 8.47364 250.222 8.65364C249.862 8.84364 249.562 9.15364 249.312 9.60364C249.072 10.0536 248.892 10.6436 248.762 11.3836C248.632 12.1236 248.572 13.0336 248.572 14.1336V29.7936C248.572 30.8636 248.622 31.7536 248.722 32.4636C248.822 33.1736 248.982 33.7436 249.212 34.1736C249.442 34.6036 249.742 34.9036 250.102 35.0836C250.472 35.2636 250.912 35.3536 251.442 35.3536C251.772 35.3536 252.092 35.2736 252.402 35.1236C252.712 34.9736 252.982 34.7236 253.212 34.4036C253.442 34.0736 253.632 33.6636 253.772 33.1636C253.912 32.6636 253.982 32.0736 253.982 31.3836V28.0336H258.742V31.2036C258.742 33.9636 258.112 35.9936 256.852 37.3036C255.592 38.6136 253.782 39.2736 251.432 39.2936" fill="#1B9DD9"/>
<path d="M268.802 4.70364V29.8436C268.802 30.9136 268.852 31.8036 268.962 32.5136C269.072 33.2236 269.242 33.7836 269.472 34.2136C269.702 34.6336 270.002 34.9336 270.372 35.1136C270.742 35.2936 271.182 35.3836 271.682 35.3836C272.182 35.3836 272.632 35.2936 273.022 35.1136C273.402 34.9336 273.722 34.6336 273.962 34.2136C274.212 33.7936 274.402 33.2236 274.522 32.5136C274.652 31.8036 274.712 30.9136 274.712 29.8436V4.70364H279.892V28.4536C279.892 30.1236 279.762 31.5536 279.492 32.7536C279.222 33.9436 278.872 34.9436 278.432 35.7436C277.992 36.5436 277.482 37.1836 276.912 37.6536C276.342 38.1236 275.752 38.4836 275.142 38.7236C274.532 38.9736 273.922 39.1236 273.322 39.1936C272.722 39.2636 272.172 39.2936 271.672 39.2936C271.172 39.2936 270.632 39.2636 270.032 39.1936C269.432 39.1236 268.842 38.9736 268.232 38.7236C267.632 38.4736 267.052 38.1136 266.482 37.6536C265.922 37.1836 265.422 36.5536 264.972 35.7436C264.532 34.9436 264.182 33.9436 263.912 32.7636C263.652 31.5736 263.522 30.1436 263.522 28.4536V4.70364H268.802Z" fill="#1B9DD9"/>
<path d="M292.352 22.4136C293.262 22.4136 294.032 22.3136 294.662 22.1136C295.292 21.9136 295.802 21.5736 296.182 21.1036C296.572 20.6336 296.852 20.0036 297.022 19.2136C297.192 18.4336 297.282 17.4636 297.282 16.3136V13.6036C297.282 12.7236 297.202 11.9636 297.042 11.3136C296.882 10.6736 296.612 10.1436 296.232 9.72364C295.852 9.30364 295.342 9.00364 294.712 8.80364C294.082 8.60364 293.292 8.50364 292.342 8.50364H291.562V22.4136H292.352ZM286.462 4.70364H292.102C292.742 4.70364 293.452 4.73364 294.222 4.78364C294.992 4.83364 295.762 4.97364 296.532 5.17364C297.302 5.38364 298.042 5.69364 298.762 6.10364C299.482 6.51364 300.112 7.08364 300.672 7.81364C301.232 8.53364 301.672 9.44364 302.012 10.5336C302.342 11.6236 302.512 12.9436 302.512 14.4936V15.3536C302.512 17.9636 302.142 20.0936 301.392 21.7336C300.642 23.3736 299.542 24.5536 298.082 25.2736L303.582 38.9836H298.082L293.522 26.1536H291.572V38.9836H286.472V4.70364H286.462Z" fill="#1B9DD9"/>
<path d="M313.532 4.70364H308.332V38.9936H313.532V4.70364Z" fill="#1B9DD9"/>
<path d="M323.382 8.79364H317.862V4.70364H334.092V8.79364H328.592V38.9936H323.382V8.79364Z" fill="#1B9DD9"/>
<path d="M342.502 27.5736L335.592 4.70364H340.832L345.032 21.1036H345.272L349.422 4.70364H354.642L347.702 27.5736V38.9936H342.502V27.5736Z" fill="#1B9DD9"/>
</svg>
