<svg width="187" height="67" viewBox="0 0 187 67" fill="none" xmlns="http://www.w3.org/2000/svg">
<path d="M78.1019 14.1881V16.0054H81.2034V18.3998H78.1019V22.6699H75.2746V11.7911H81.5219V14.1855H78.1031L78.1019 14.1881Z" fill="#06557F"/>
<path d="M86.5564 22.6712H83.7291V11.7924H86.5564V22.6712Z" fill="#06557F"/>
<path d="M88.7636 11.7924H91.5909L96.771 18.444H96.7996V11.7924H99.6269V22.6712H96.7996L91.6195 16.0054H91.5909V22.6712H88.7636V11.7924Z" fill="#06557F"/>
<path d="M104.605 20.7812L103.855 22.6712H100.854L105.038 11.7924H108.126L112.223 22.6712H109.207L108.5 20.7812H104.604H104.605ZM106.581 15.1539H106.553L105.384 18.6169H107.736L106.581 15.1539Z" fill="#06557F"/>
<path d="M113.463 11.7924H116.29L121.47 18.444H121.499V11.7924H124.326V22.6712H121.499L116.319 16.0054H116.29V22.6712H113.463V11.7924Z" fill="#06557F"/>
<path d="M133.79 15.5335C133.241 14.7939 132.351 14.3961 131.433 14.3961C129.788 14.3961 128.68 15.657 128.68 17.2598C128.68 18.8625 129.803 20.0688 131.474 20.0688C132.352 20.0688 133.228 19.6438 133.79 18.973V22.1929C132.899 22.4672 132.256 22.6725 131.42 22.6725C129.981 22.6725 128.611 22.124 127.542 21.1517C126.405 20.1247 125.885 18.7819 125.885 17.2468C125.885 15.8351 126.419 14.4793 127.406 13.4654C128.42 12.4241 129.886 11.7937 131.338 11.7937C132.201 11.7937 132.995 11.9861 133.791 12.3149V15.5348L133.79 15.5335Z" fill="#06557F"/>
<path d="M138.825 16.0054H142.014V18.3998H138.825V20.2755H142.187V22.6699H135.998V11.7911H142.187V14.1855H138.825V16.0054Z" fill="#06557F"/>
<path d="M155.836 21.7041C154.782 22.4204 153.49 22.9689 152.21 22.9689C150.384 22.9689 148.81 21.8731 148.81 19.9337C148.81 18.3452 149.751 17.573 151.086 16.9829L151.339 16.8711L151.115 16.5617C150.778 16.0977 150.355 15.592 150.355 14.7211C150.355 12.8947 151.944 11.8119 153.644 11.8119C155.344 11.8119 156.96 12.8804 156.96 14.6925C156.96 16.0132 156.089 16.6878 154.992 17.2364L156.327 18.6416C156.847 18.1775 157.326 17.7004 157.718 17.1376L159.278 18.6273L157.943 20.0611L157.817 20.1871L160.192 22.6881H156.748L155.835 21.7041H155.836ZM152.659 18.262C152.209 18.5428 151.661 18.9366 151.661 19.5268C151.661 20.1585 152.294 20.4965 152.855 20.4965C153.375 20.4965 153.895 20.3132 154.331 20.0611L152.658 18.262H152.659ZM154.782 14.6639C154.782 14.1296 154.416 13.6798 153.853 13.6798C153.362 13.6798 152.968 14.0308 152.968 14.5508C152.968 15.0707 153.46 15.5764 153.798 15.956C154.276 15.6895 154.782 15.2397 154.782 14.6626V14.6639Z" fill="#06557F"/>
<path d="M79.6019 39.102H76.7747V30.6188H74.4374V28.2244H81.9392V30.6188H79.6019V39.102Z" fill="#06557F"/>
<path d="M86.975 32.4361H90.1636V34.8305H86.975V36.7063H90.3365V39.1007H84.1477V28.2218H90.3365V30.6162H86.975V32.4361Z" fill="#06557F"/>
<path d="M99.8232 31.9837C99.2733 31.2402 98.3777 30.8411 97.456 30.8411C95.8052 30.8411 94.6899 32.1072 94.6899 33.7178C94.6899 35.3284 95.8182 36.5386 97.4977 36.5386C98.379 36.5386 99.259 36.1122 99.8232 35.4376V38.6717C98.9288 38.9473 98.2815 39.154 97.4431 39.154C95.9976 39.154 94.6223 38.6041 93.5486 37.6266C92.4059 36.5945 91.8834 35.2465 91.8834 33.7048C91.8834 32.2879 92.4202 30.9256 93.4108 29.9065C94.4286 28.8601 95.9014 28.227 97.3599 28.227C98.2269 28.227 99.025 28.4194 99.8232 28.7496V31.9837Z" fill="#06557F"/>
<path d="M108.941 32.4218V28.2231H111.768V39.102H108.941V34.6433H104.858V39.102H102.03V28.2231H104.858V32.4218H108.941Z" fill="#06557F"/>
<path d="M113.975 28.2244H116.802L121.983 34.876H122.011V28.2244H124.838V39.1033H122.011L116.831 32.4374H116.802V39.1033H113.975V28.2244Z" fill="#06557F"/>
<path d="M137.727 33.4955C137.727 36.8102 135.349 39.1475 132.062 39.1475C128.775 39.1475 126.397 36.8102 126.397 33.4955C126.397 30.3978 129.114 28.2244 132.062 28.2244C135.01 28.2244 137.727 30.3978 137.727 33.4955ZM129.168 33.5085C129.168 35.2751 130.472 36.5659 132.062 36.5659C133.652 36.5659 134.956 35.2751 134.956 33.5085C134.956 32.0955 133.652 30.8047 132.062 30.8047C130.472 30.8047 129.168 32.0955 129.168 33.5085Z" fill="#06557F"/>
<path d="M142.113 36.7076H145.503V39.102H139.284V28.2231H142.111V36.7063L142.113 36.7076Z" fill="#06557F"/>
<path d="M158.398 33.4981C158.398 36.8154 156.019 39.1527 152.729 39.1527C149.439 39.1527 147.06 36.8141 147.06 33.4981C147.06 30.3991 149.778 28.2244 152.729 28.2244C155.68 28.2244 158.398 30.3991 158.398 33.4981ZM149.834 33.5124C149.834 35.279 151.139 36.5711 152.729 36.5711C154.319 36.5711 155.624 35.2803 155.624 33.5124C155.624 32.0981 154.319 30.8073 152.729 30.8073C151.139 30.8073 149.834 32.0981 149.834 33.5124Z" fill="#06557F"/>
<path d="M170.644 33.0678C170.617 34.5562 170.509 35.8275 169.603 37.1001C168.602 38.4936 167.099 39.102 165.395 39.102C162.188 39.102 159.957 36.9233 159.957 33.7165C159.957 30.5096 162.203 28.2231 165.49 28.2231C167.587 28.2231 169.21 29.1707 170.091 31.0777L167.574 32.1332C167.209 31.1596 166.438 30.5096 165.368 30.5096C163.622 30.5096 162.716 32.1735 162.716 33.7295C162.716 35.2855 163.664 36.922 165.408 36.922C166.559 36.922 167.437 36.3267 167.547 35.149H165.382V33.0652H170.646L170.644 33.0678Z" fill="#06557F"/>
<path d="M171.227 28.2244H174.617L176.651 31.1817L178.685 28.2244H182.076L178.064 33.8803V39.1033H175.237V33.8803L171.227 28.2244Z" fill="#06557F"/>
<path d="M78.1019 53.1383H81.492V55.5327H75.2733V44.6538H78.1006V53.137L78.1019 53.1383Z" fill="#06557F"/>
<path d="M92.5424 44.6551V50.6139C92.5424 51.9775 92.4852 53.3255 91.4024 54.3524C90.4938 55.2233 89.0652 55.5327 87.7952 55.5327C86.5252 55.5327 85.0966 55.2233 84.188 54.3524C83.1065 53.3268 83.048 51.9775 83.048 50.6139V44.6551H85.8753V50.2343C85.8753 51.6109 85.9766 53.1149 87.7939 53.1149C89.6112 53.1149 89.7125 51.6109 89.7125 50.2343V44.6551H92.5424Z" fill="#06557F"/>
<path d="M94.0906 44.6551H97.5678L99.2265 47.4681L100.885 44.6551H104.362L100.885 49.7195L104.911 55.534H101.507L99.2265 51.9853L96.7307 55.534H93.312L97.5678 49.7195L94.0906 44.6551Z" fill="#06557F"/>
<path d="M109.375 48.8681H112.563V51.2625H109.375V53.1383H112.736V55.5327H106.548V44.6538H112.736V47.0483H109.375V48.8681Z" fill="#06557F"/>
<path d="M116.791 44.6551H119.575L121.782 50.4696L124.12 44.6551H126.933L128.577 55.534H125.75L124.957 49.2724H124.928L122.317 55.534H121.191L118.695 49.2724H118.667L117.758 55.534H114.945L116.792 44.6551H116.791Z" fill="#06557F"/>
<path d="M130.785 55.534V44.6551H134.826C136.758 44.6551 138.057 45.4052 138.057 47.4824C138.057 48.4638 137.74 49.2568 136.86 49.7039V49.7325C138.418 49.934 139.081 50.9883 139.081 52.5026C139.081 54.7827 137.134 55.5327 135.143 55.5327H130.785V55.534ZM133.613 48.9253H133.93C134.68 48.9253 135.46 48.7953 135.46 47.8724C135.46 46.8767 134.58 46.8195 133.816 46.8195H133.614V48.9253H133.613ZM133.973 53.3697C134.81 53.3697 136.223 53.4126 136.223 52.2154C136.223 50.9025 134.823 51.0324 133.9 51.0324H133.611V53.3697H133.973Z" fill="#06557F"/>
<path d="M151.922 49.9054C151.922 53.2072 149.555 55.534 146.28 55.534C143.006 55.534 140.639 53.2072 140.639 49.9054C140.639 46.8208 143.345 44.6551 146.28 44.6551C149.215 44.6551 151.922 46.8195 151.922 49.9054ZM143.398 49.9184C143.398 51.6772 144.697 52.9628 146.28 52.9628C147.864 52.9628 149.162 51.6772 149.162 49.9184C149.162 48.5119 147.864 47.2263 146.28 47.2263C144.697 47.2263 143.398 48.5119 143.398 49.9184Z" fill="#06557F"/>
<path d="M163.624 44.6551V50.6139C163.624 51.9775 163.566 53.3255 162.484 54.3524C161.575 55.2233 160.146 55.5327 158.876 55.5327C157.606 55.5327 156.178 55.2233 155.269 54.3524C154.188 53.3268 154.129 51.9775 154.129 50.6139V44.6551H156.956V50.2343C156.956 51.6109 157.058 53.1149 158.875 53.1149C160.692 53.1149 160.794 51.6109 160.794 50.2343V44.6551H163.624Z" fill="#06557F"/>
<path d="M171.357 55.534L168.688 51.3496H168.659V55.534H165.832V44.6551H170.059C172.209 44.6551 173.839 45.6795 173.839 48.0024C173.839 49.5025 173.002 50.8011 171.459 51.0753L174.878 55.534H171.357ZM168.658 49.5324H168.932C169.855 49.5324 170.894 49.3595 170.894 48.1766C170.894 46.9937 169.855 46.8208 168.932 46.8208H168.658V49.5337V49.5324Z" fill="#06557F"/>
<path d="M186.174 49.4947C186.147 50.9947 186.038 52.2764 185.124 53.5581C184.115 54.962 182.601 55.5769 180.884 55.5769C177.652 55.5769 175.402 53.3814 175.402 50.1498C175.402 46.9183 177.665 44.6135 180.98 44.6135C183.093 44.6135 184.73 45.5677 185.617 47.4902L183.08 48.5535C182.713 47.5721 181.935 46.917 180.858 46.917C179.099 46.917 178.185 48.5938 178.185 50.1628C178.185 51.7318 179.139 53.3814 180.899 53.3814C182.059 53.3814 182.944 52.7808 183.053 51.5953H180.872V49.496H186.177L186.174 49.4947Z" fill="#06557F"/>
<path d="M41.4213 38.0335C37.5411 32.8885 29.6312 28.7925 22.9081 29.3033C26.6103 30.9854 29.496 33.1887 31.6643 35.704C35.213 34.4145 38.3665 35.2166 41.4213 38.0335Z" fill="#06557F"/>
<path d="M46.3869 23.3342C46.4896 15.7623 40.7376 2.79579 26.2827 0.805644C31.26 4.04109 33.6401 8.68043 33.6401 8.68043C33.6401 8.68043 28.9839 2.43832 20.3915 0.793945C13.9271 1.64668 7.54723 5.2214 3.65404 11.548C7.78512 9.33818 11.3273 8.91571 13.9063 8.81302C7.75262 10.4652 3.42005 14.3207 0.90995 17.989C-0.837115 24.5691 0.787759 30.9594 3.16267 35.0437C4.29749 29.8337 6.6698 26.4098 8.84063 24.1115C5.85867 29.7908 5.78197 35.1308 6.6906 39.7675C12.0865 45.3025 15.6222 44.5135 21.139 48.4391C27.4149 52.9056 30.5996 60.2175 30.6737 66.574C39.6339 57.5852 40.7337 37.4017 22.9081 29.302C32.9382 28.5403 45.6122 38.0335 43.5999 45.9654C44.8101 47.1756 46.786 49.1515 46.786 49.1515L59.4951 36.4424L46.3856 23.3329L46.3869 23.3342ZM48.4889 31.1986C48.1392 31.5483 47.5659 31.5483 47.2163 31.1986L43.2204 27.2027C42.8707 26.853 42.8707 26.2798 43.2204 25.9301L43.2646 25.8859C43.6142 25.5362 44.1875 25.5362 44.5372 25.8859L48.5331 29.8818C48.8827 30.2315 48.8827 30.8047 48.5331 31.1544L48.4889 31.1986Z" fill="url(#paint0_linear_213_277)"/>
<defs>
<linearGradient id="paint0_linear_213_277" x1="10.4174" y1="45.3675" x2="44.5918" y2="11.1931" gradientUnits="userSpaceOnUse">
<stop stop-color="#12B7FF"/>
<stop offset="1" stop-color="#00FFCE"/>
</linearGradient>
</defs>
</svg>
