<svg width="181" height="36" viewBox="0 0 181 36" fill="none" xmlns="http://www.w3.org/2000/svg">
<path d="M4.27219 4.55961H0.343994V0.942383H4.27219V4.55961ZM4.27219 20.2994H0.343994V5.8029H4.27219V20.2994ZM16.9597 14.9871L20.0119 16.9368C18.6273 19.1693 16.4229 20.6385 13.258 20.6385C8.76481 20.6385 5.59997 17.3041 5.59997 13.0937C5.59997 8.88326 8.76481 5.52009 13.258 5.52009C16.451 5.52009 18.6836 7.04619 20.0401 9.30688L16.9597 11.2284C16.2252 10.0133 15.1796 9.10915 13.3994 9.10915C11.1106 9.10915 9.55633 10.7197 9.55633 13.0937C9.55633 15.4676 11.1106 17.1064 13.3994 17.1064C15.1796 17.1064 16.2252 16.2022 16.9597 14.9871ZM26.9917 5.8029H30.5521V9.30688H26.9917V15.1279C26.9917 16.4275 27.5849 16.9362 28.9133 16.9362H30.5521V20.2988H28.6305C24.7874 20.2988 23.0636 18.5749 23.0636 15.325V9.30568H20.9724V5.8017H23.0636V2.07243H26.9917V5.8029ZM35.9782 20.2994H32.0218V0.942383H35.9782V20.2994ZM51.2374 20.2994H47.3661V18.8583C46.3769 19.9039 44.9077 20.554 43.1557 20.554C39.765 20.554 37.5606 18.2088 37.5606 14.7043V5.8029H41.4601V14.026C41.4601 15.7498 42.4493 16.9368 44.1444 16.9368C46.0378 16.9368 47.3374 15.7217 47.3374 13.715V5.8029H51.2368V20.2994H51.2374ZM61.9477 12.8678L66.6668 20.3H61.9758L59.4323 15.92L56.8607 20.3H52.283L56.9458 12.9247L52.3962 5.8035H57.059L59.4893 9.92942L61.8914 5.8035H66.4691L61.9477 12.8684V12.8678ZM81.9548 17.1908C80.5419 19.3101 78.3094 20.6385 75.0882 20.6385C70.4536 20.6385 67.4583 17.3886 67.4583 13.0937C67.4583 8.79878 70.5668 5.52009 75.1164 5.52009C79.6659 5.52009 82.4635 8.68494 82.4635 12.8953C82.4635 13.4604 82.4071 14.195 82.4071 14.28H71.3296C71.7532 16.1171 73.1379 17.3035 75.1727 17.3035C76.9247 17.3035 78.1961 16.5407 79.0158 15.3819L81.9548 17.1902V17.1908ZM75.0882 8.74186C73.2511 8.74186 71.9797 9.7311 71.471 11.3698H78.5071C78.0835 9.61785 76.67 8.74186 75.0876 8.74186H75.0882ZM87.6913 5.8029V7.24392C88.4259 6.48117 89.7542 5.54825 91.704 5.54825C93.3427 5.54825 94.8125 6.14143 95.858 7.52613C96.9887 6.33916 98.5142 5.54825 100.605 5.54825C104.137 5.54825 106.257 7.86526 106.257 11.3129V20.2994H102.357V11.963C102.357 10.2955 101.453 9.16547 99.927 9.16547C98.1751 9.16547 96.9881 10.3524 96.9881 12.3022V20.2994H93.1168V11.963C93.1168 10.2955 92.2127 9.16547 90.6866 9.16547C88.9346 9.16547 87.7476 10.3524 87.7476 12.3022V20.2994H83.8194V5.8029H87.6913ZM116.007 20.4971C114.368 20.4971 112.785 20.0166 111.768 19.2256V20.2994H107.84V0.942383H111.768V6.9617C112.785 6.17019 114.368 5.66209 116.007 5.66209C119.963 5.66209 123.325 8.94018 123.325 13.1224C123.325 17.3047 119.963 20.4977 116.007 20.4977V20.4971ZM115.667 17.0213C117.815 17.0213 119.482 15.2974 119.482 13.1218C119.482 10.9462 117.815 9.2224 115.667 9.2224C113.52 9.2224 111.711 10.9744 111.711 13.1218C111.711 15.2693 113.407 17.0213 115.667 17.0213ZM132.171 5.52009C136.636 5.52009 139.97 8.8545 139.97 13.0937C139.97 17.3328 136.636 20.6385 132.171 20.6385C127.705 20.6385 124.399 17.3322 124.399 13.0937C124.399 8.8551 127.734 5.52009 132.171 5.52009ZM132.171 9.08099C129.966 9.08099 128.271 10.7767 128.271 13.0937C128.271 15.4107 129.882 17.1345 132.086 17.1345C134.29 17.1345 136.071 15.4107 136.071 13.0937C136.071 10.7767 134.375 9.08099 132.171 9.08099H132.171ZM154.918 20.2994H151.047V18.8583C150.058 19.9039 148.589 20.554 146.837 20.554C143.446 20.554 141.241 18.2088 141.241 14.7043V5.8029H145.141V14.026C145.141 15.7498 146.13 16.9368 147.825 16.9368C149.719 16.9368 151.018 15.7217 151.018 13.715V5.8029H154.918V20.2994H154.918ZM160.457 20.2994H156.501V5.8029H160.429V7.78078C161.39 6.4524 162.831 5.60457 164.639 5.60457V9.56093C161.757 9.56093 160.457 11.1715 160.457 13.6869V20.2994ZM172.354 9.10915C170.291 9.10915 168.624 10.833 168.624 12.9241C168.624 15.0152 170.292 16.7391 172.354 16.7391C174.587 16.7391 176.254 15.0716 176.254 12.9241C176.254 10.7767 174.558 9.10915 172.354 9.10915ZM172.325 25.6123C169.076 25.6123 166.815 24.369 165.318 22.2215L168.143 20.3C169.019 21.5151 170.404 22.3066 172.269 22.3066C174.699 22.3066 176.197 21.2892 176.197 19.2262V18.8308C175.152 19.7068 173.711 20.1592 172.015 20.1592C168.144 20.1592 164.809 17.0225 164.809 12.8965C164.809 8.77062 168.144 5.57761 172.015 5.57761C173.937 5.57761 175.35 6.19955 176.197 6.87722V5.8035H180.097V18.8871C180.097 22.617 177.327 25.6129 172.325 25.6129V25.6123Z" fill="#427FEB"/>
<path d="M21.4907 35.8779H20.1216V31.0809H18.3193V29.8263H23.293V31.0809H21.4907V35.8779ZM30.3561 35.8779V33.5106H27.794V35.8779H26.4249V29.8263H27.794V32.2559H30.3561V29.8263H31.7252V35.8779H30.3561ZM35.0956 35.8779V29.8263H39.5217V31.063H36.4647V32.2026H39.2916V33.4039H36.4647V34.6406H39.5301V35.8773H35.095L35.0956 35.8779ZM47.1372 35.8779V29.8263H49.6106C51.4747 29.8263 52.694 31.1516 52.694 32.8209C52.694 34.4902 51.422 35.8779 49.5399 35.8779H47.1372ZM49.5399 31.0809H48.5064V34.6233H49.5843C50.5651 34.6233 51.3159 33.8635 51.3159 32.8389C51.3159 31.8143 50.5651 31.0809 49.5399 31.0809ZM57.2921 35.8779H55.923V29.8263H57.2921V35.8779ZM66.8382 32.8389C66.8382 34.6502 65.5835 36.0014 63.7728 36.0014C61.8554 36.0014 60.5127 34.5969 60.5127 32.8473C60.5127 31.0977 61.8111 29.7022 63.7728 29.7022C64.9034 29.7022 65.7782 30.1618 66.3259 30.9479L65.3186 31.8047C64.9124 31.2924 64.4085 30.9833 63.7728 30.9833C62.7212 30.9833 61.9087 31.7604 61.9087 32.8827C61.9087 33.9426 62.6685 34.7293 63.7374 34.7293C64.5499 34.7293 65.0802 34.3231 65.3097 33.6778H63.7021V32.4854H66.8382V32.8389ZM71.4183 35.8779H70.0491V29.8263H71.4183V35.8779ZM77.7132 35.8779H76.3441V31.0809H74.5418V29.8263H79.5155V31.0809H77.7132V35.8779ZM86.0483 33.625L85.2622 31.2577L84.4761 33.625H86.0483ZM86.7991 35.8779L86.4546 34.8354H84.0782L83.7337 35.8779H82.3293L84.4671 29.8263H86.1454L88.2743 35.8779H86.7991ZM91.3271 35.8779V29.8263H92.6962V34.6233H95.5057V35.8779H91.3271ZM106.531 33.625L105.745 31.2577L104.959 33.625H106.531ZM107.282 35.8779L106.937 34.8354H104.561L104.217 35.8779H102.812L104.95 29.8263H106.628L108.757 35.8779H107.282ZM111.809 35.8779V29.8263H113.178V34.6233H115.988V35.8779H111.809ZM119.244 35.8779V29.8263H120.613V34.6233H123.423V35.8779H119.244ZM128.047 35.8779H126.678V29.8263H128.047V35.8779ZM134.81 33.625L134.024 31.2577L133.238 33.625H134.81ZM135.561 35.8779L135.216 34.8354H132.84L132.495 35.8779H131.091L133.229 29.8263H134.907L137.036 35.8779H135.561ZM143.843 35.8779L141.405 32.0438V35.8779H140.089V29.8263H141.582L144.02 33.6694V29.8263H145.336V35.8779H143.843ZM151.763 30.9749C150.738 30.9749 149.961 31.7964 149.961 32.8389C149.961 33.8815 150.738 34.7209 151.807 34.7209C152.55 34.7209 153.115 34.3321 153.459 33.7401L154.528 34.4825C153.945 35.4363 153.053 36.002 151.825 36.002C149.961 36.002 148.565 34.6149 148.565 32.8395C148.565 31.0642 149.952 29.7034 151.789 29.7034C152.982 29.7034 153.927 30.1983 154.502 31.214L153.415 31.9647C153.061 31.3817 152.532 30.9755 151.763 30.9755V30.9749ZM157.686 35.8779V29.8263H162.113V31.063H159.056V32.2026H161.882V33.4039H159.056V34.6406H162.121V35.8773H157.686L157.686 35.8779Z" fill="#0D0001"/>
</svg>
