<svg width="189" height="51" viewBox="0 0 189 51" fill="none" xmlns="http://www.w3.org/2000/svg">
<path d="M50.7396 25.4764C50.7396 11.7164 39.5896 0.566406 25.8296 0.566406C12.0696 0.566406 0.919556 11.7164 0.919556 25.4764C0.919556 39.2364 12.0696 50.3864 25.8296 50.3864C39.5896 50.3864 50.7396 39.2364 50.7396 25.4764ZM15.2596 32.7464H12.4696V18.8364H15.2596V32.7464ZM27.4296 32.7464H19.2396V18.8364H22.0296V30.5464H27.4296V32.7464ZM36.6596 25.8364V25.8764C37.4196 25.9364 37.8596 26.6964 38.1296 27.3064L40.3596 32.7464H37.2496L35.5796 28.4064C35.1796 27.3664 34.8196 26.9764 33.6496 26.9764H32.7496V32.7564H29.9596V18.8464H32.9696C35.9596 18.8464 39.5196 18.7464 39.5196 22.6164C39.5196 24.2464 38.4196 25.6064 36.6496 25.8464L36.6596 25.8364ZM36.6196 22.8464C36.6196 21.1764 35.0696 21.0364 33.6696 21.0364H32.7496V24.7864H33.6696C35.0396 24.7864 36.6196 24.5864 36.6196 22.8564V22.8464Z" fill="#ED2939"/>
<path d="M64.5796 47.8864H67.5096C70.7795 47.8864 72.7996 46.1664 72.7996 42.8364C72.7996 39.7764 70.4496 37.9564 67.5096 37.9564H64.5796V47.8864ZM65.9996 39.2064H67.6596C69.7096 39.2064 71.2896 40.5764 71.2896 42.8964C71.2896 45.4564 69.9396 46.6364 67.4896 46.6364H65.9996V39.2064ZM74.8696 47.8864H80.4296V46.6364H76.2896V43.3664H80.0596V42.1164H76.2896V39.2164H80.4296V37.9664H74.8696V47.8964V47.8864ZM86.2896 47.8864H87.7096V43.4764H88.5596C89.3096 43.4764 89.7796 43.4764 90.2296 44.4464L91.7496 47.8864H93.3696L91.4896 43.9264C91.1796 43.3164 90.9596 43.1064 90.5196 42.9264V42.8964C91.6696 42.6964 92.5696 41.8464 92.5696 40.6364C92.5696 38.2564 90.6796 37.9464 88.7096 37.9464H86.2796V47.8764L86.2896 47.8864ZM87.7096 39.2064H89.0796C90.3896 39.2064 91.0696 39.7764 91.0696 40.6764C91.0696 41.6264 90.2696 42.2264 88.9196 42.2264H87.7096V39.2064ZM94.9996 47.8864H100.56V46.6364H96.4196V43.3664H100.19V42.1164H96.4196V39.2164H100.56V37.9664H94.9996V47.8964V47.8864ZM97.6296 37.2264L99.4896 35.1764H97.9396L96.6696 37.2264H97.6296ZM110.35 38.2864C109.53 38.0064 108.89 37.7864 107.43 37.7864C104.4 37.7864 102.18 39.8164 102.18 42.8764C102.18 45.9364 104.27 48.0564 107.42 48.0564C108.97 48.0564 109.91 47.7964 110.45 47.6164V42.4564H106.94V43.6264H109.03V46.6464C108.68 46.7164 108.42 46.8164 107.44 46.8164C105.38 46.8164 103.7 45.2664 103.7 42.9264C103.7 40.5864 105.22 39.0364 107.52 39.0364C108.8 39.0364 109.55 39.2664 110.25 39.7164L110.36 38.2764L110.35 38.2864ZM119.14 37.9564V43.5964C119.14 45.5064 118.54 46.8164 116.71 46.8164C114.88 46.8164 114.28 45.5064 114.28 43.5964V37.9564H112.86V43.7764C112.86 46.5664 114.27 48.0564 116.72 48.0564C119.17 48.0564 120.57 46.5664 120.57 43.7764V37.9564H119.14ZM122.95 47.8864H128.53V46.6364H124.38V37.9564H122.96V47.8864H122.95ZM128.84 47.8864H130.33L131.34 45.3864H136.21L137.22 47.8864H138.77L134.57 37.9564H133.08L128.84 47.8864ZM135.76 44.2164H131.8L133.78 39.2864L135.76 44.2164ZM140.99 47.8864H142.41V39.2064H145.5V37.9564H137.9V39.2064H140.99V47.8864ZM146.79 47.8864H148.21V37.9564H146.79V47.8864ZM151.59 42.9264C151.59 40.9064 152.67 39.0264 154.86 39.0364C157.05 39.0264 158.13 40.8964 158.13 42.9264C158.13 44.9564 157.15 46.8164 154.86 46.8164C152.57 46.8164 151.59 44.9064 151.59 42.9264ZM150.09 42.9264C150.09 45.9464 151.84 48.0664 154.87 48.0664C157.9 48.0664 159.65 45.9464 159.65 42.9264C159.65 39.9064 157.89 37.7864 154.87 37.7864C151.85 37.7864 150.09 39.9764 150.09 42.9264ZM161.51 47.8864H162.93V39.7164H162.96L167.46 47.8864H169.28V37.9564H167.86V45.9564H167.83L163.45 37.9564H161.52V47.8864H161.51Z" fill="black"/>
<path d="M64.6496 30.8164H70.2296V29.5664H66.0796V20.8864H64.6596V30.8164H64.6496ZM77.9396 20.8764V26.5164C77.9396 28.4264 77.3396 29.7364 75.5096 29.7364C73.6796 29.7364 73.0796 28.4264 73.0796 26.5164V20.8764H71.6596V26.6964C71.6596 29.4864 73.0696 30.9764 75.5196 30.9764C77.9696 30.9764 79.3796 29.4864 79.3796 26.6964V20.8764H77.9396ZM82.3196 30.8164L85.1496 26.6064L88.0796 30.8164H89.8696L86.1996 25.6264L89.5396 20.8864H87.9196L85.2896 24.6964L82.6396 20.8864H80.9296L84.2596 25.6564L80.5996 30.8164H82.3196ZM91.1896 30.8164H96.7496V29.5664H92.6096V26.2964H96.3796V25.0464H92.6096V22.1464H96.7496V20.8964H91.1896V30.8264V30.8164ZM100.32 30.8164V22.2164H100.35L103.64 30.8164H105.03L108.32 22.2164H108.35V30.8164H109.77V20.8864H107.42L104.36 29.1364L101.24 20.8864H98.8896V30.8164H100.32ZM112.09 30.8164H114.74C116.76 30.8164 118.53 30.3064 118.53 28.1664C118.53 26.7664 117.58 25.8864 116.23 25.7764V25.7464C117.48 25.4364 118.28 24.7464 118.28 23.3864C118.28 21.5464 116.86 20.8864 114.79 20.8864H112.1V30.8164H112.09ZM113.51 26.2864H114.44C115.66 26.2864 117.02 26.4964 117.02 28.0364C117.02 29.3764 115.87 29.6464 114.58 29.6464H113.51V26.2864ZM113.51 22.0464H115C115.83 22.0464 116.84 22.3464 116.84 23.5264C116.84 24.9964 115.67 25.1164 114.29 25.1164H113.51V22.0364V22.0464ZM121.72 25.8464C121.72 23.8264 122.8 21.9464 124.99 21.9564C127.18 21.9464 128.26 23.8164 128.26 25.8464C128.26 27.8764 127.28 29.7364 124.99 29.7364C122.7 29.7364 121.72 27.8264 121.72 25.8464ZM120.22 25.8464C120.22 28.8664 121.97 30.9864 125 30.9864C128.03 30.9864 129.78 28.8664 129.78 25.8464C129.78 22.8264 128.02 20.7064 125 20.7064C121.98 20.7064 120.22 22.8964 120.22 25.8464ZM137.96 20.8764V26.5164C137.96 28.4264 137.36 29.7364 135.53 29.7364C133.7 29.7364 133.1 28.4264 133.1 26.5164V20.8764H131.68V26.6964C131.68 29.4864 133.09 30.9764 135.54 30.9764C137.99 30.9764 139.4 29.4864 139.4 26.6964V20.8764H137.96ZM141.71 30.8164H143.13V26.4064H143.98C144.74 26.4064 145.2 26.4064 145.65 27.3764L147.17 30.8164H148.79L146.91 26.8564C146.6 26.2464 146.38 26.0364 145.94 25.8564V25.8264C147.09 25.6264 147.99 24.7764 147.99 23.5664C147.99 21.1864 146.1 20.8764 144.14 20.8764H141.71V30.8164ZM143.13 22.1264H144.5C145.81 22.1264 146.49 22.6964 146.49 23.5964C146.49 24.5464 145.69 25.1464 144.34 25.1464H143.13V22.1264ZM158 21.2064C157.17 20.9264 156.53 20.7064 155.08 20.7064C152.05 20.7064 149.83 22.7364 149.83 25.7964C149.83 28.8564 151.92 30.9764 155.07 30.9764C156.62 30.9764 157.56 30.7164 158.1 30.5364V25.3764H154.59V26.5464H156.68V29.5664C156.32 29.6364 156.07 29.7364 155.08 29.7364C153.02 29.7364 151.34 28.1864 151.34 25.8464C151.34 23.5064 152.86 21.9564 155.16 21.9564C156.44 21.9564 157.19 22.1864 157.89 22.6364L158 21.1964V21.2064ZM160.55 30.8164H166.11V29.5664H161.97V26.2964H165.74V25.0464H161.97V22.1464H166.11V20.8964H160.55V30.8264V30.8164ZM169.24 25.8464C169.24 23.8264 170.32 21.9464 172.51 21.9564C174.7 21.9464 175.78 23.8164 175.78 25.8464C175.78 27.8764 174.8 29.7364 172.51 29.7364C170.22 29.7364 169.24 27.8264 169.24 25.8464ZM167.73 25.8464C167.73 28.8664 169.48 30.9864 172.51 30.9864C175.54 30.9864 177.29 28.8664 177.29 25.8464C177.29 22.8264 175.53 20.7064 172.51 20.7064C169.49 20.7064 167.73 22.8964 167.73 25.8464ZM179.17 30.8164H180.59V20.8864H179.17V30.8164ZM187.7 21.0664C187.02 20.8264 186.23 20.7064 185.58 20.7064C183.79 20.7064 182.39 21.6464 182.39 23.4064C182.39 26.4964 186.66 25.8864 186.66 28.1064C186.66 29.2764 185.52 29.7264 184.71 29.7264C183.98 29.7264 183.13 29.4464 182.65 29.2464L182.51 30.5664C183.16 30.7764 183.85 30.9764 184.54 30.9764C186.53 30.9764 188.17 30.1364 188.17 28.0164C188.17 24.7464 183.9 25.1864 183.9 23.2764C183.9 22.2364 184.84 21.9564 185.64 21.9564C186.38 21.9564 186.78 22.0864 187.5 22.3664L187.7 21.0564V21.0664Z" fill="black"/>
<path d="M64.6596 13.7364H66.0796V3.80641H64.6596V13.7364ZM68.4596 13.7364H69.8796V5.56641H69.9096L74.4096 13.7364H76.2296V3.80641H74.8096V11.8064H74.7796L70.3996 3.80641H68.4696V13.7364H68.4596ZM83.3196 3.98641C82.6396 3.74641 81.8596 3.62641 81.1996 3.62641C79.4096 3.62641 78.0096 4.56641 78.0096 6.32641C78.0096 9.41641 82.2796 8.80641 82.2796 11.0264C82.2796 12.1964 81.1396 12.6464 80.3296 12.6464C79.5996 12.6464 78.7496 12.3664 78.2696 12.1664L78.1296 13.4864C78.7796 13.6964 79.4696 13.8964 80.1596 13.8964C82.1496 13.8964 83.7896 13.0564 83.7896 10.9364C83.7896 7.66641 79.5196 8.10641 79.5196 6.19641C79.5196 5.15641 80.4595 4.87641 81.2596 4.87641C81.9995 4.87641 82.3996 5.00641 83.1196 5.28641L83.3196 3.97641V3.98641ZM87.5596 13.7364H88.9796V5.05641H92.0696V3.80641H84.4696V5.05641H87.5596V13.7364ZM93.3496 13.7364H94.7696V3.80641H93.3496V13.7364ZM99.1396 13.7364H100.56V5.05641H103.65V3.80641H96.0496V5.05641H99.1396V13.7364ZM111.24 3.80641V9.44641C111.24 11.3564 110.64 12.6664 108.81 12.6664C106.98 12.6664 106.38 11.3564 106.38 9.44641V3.80641H104.96V9.62641C104.96 12.4164 106.37 13.9064 108.82 13.9064C111.27 13.9064 112.68 12.4164 112.68 9.62641V3.80641H111.24ZM117.04 13.7364H118.46V5.05641H121.55V3.80641H113.95V5.05641H117.04V13.7364Z" fill="black"/>
</svg>
