<svg width="53" height="53" viewBox="0 0 53 53" fill="none" xmlns="http://www.w3.org/2000/svg">
<path d="M52.9802 26.1382C52.9802 11.7682 41.3302 0.118164 26.9602 0.118164C12.5902 0.118164 0.940186 11.7682 0.940186 26.1382C0.940186 40.5082 12.5902 52.1582 26.9602 52.1582C41.3302 52.1582 52.9802 40.5082 52.9802 26.1382ZM15.9202 33.7282H13.0102V19.1982H15.9202V33.7282ZM28.6402 33.7282H20.0902V19.1982H23.0002V31.4382H28.6402V33.7282ZM38.2702 26.5082V26.5482C39.0602 26.6082 39.5202 27.3982 39.8102 28.0482L42.1402 33.7282H38.8902L37.1402 29.1882C36.7202 28.1082 36.3502 27.6882 35.1202 27.6882H34.1802V33.7182H31.2702V19.1882H34.4102C37.5302 19.1882 41.2602 19.0882 41.2602 23.1182C41.2602 24.8282 40.1202 26.2382 38.2602 26.4882M38.2302 23.3882C38.2302 21.6382 36.6102 21.4882 35.1502 21.4882H34.1902V25.3982H35.1502C36.5902 25.3982 38.2302 25.1882 38.2302 23.3782" fill="white"/>
</svg>
