<svg width="287" height="93" viewBox="0 0 287 93" fill="none" xmlns="http://www.w3.org/2000/svg">
<path d="M244.408 3.63866H79.7074C92.2255 13.6188 100.278 28.9801 100.278 46.2307C100.278 63.4812 92.2446 78.8617 79.7074 88.8227H244.408C267.937 88.8227 287 69.7593 287 46.2307C287 22.702 267.937 3.63866 244.408 3.63866Z" fill="#009EE3"/>
<path d="M0 46.2307C0 29.8579 8.73976 14.7256 22.918 6.53919C37.0963 -1.64718 54.5758 -1.64718 68.7541 6.53919C82.9323 14.7256 91.6721 29.8579 91.6721 46.2307C91.6721 62.6034 82.9323 77.7358 68.7541 85.9222C54.5758 94.1085 37.0963 94.1085 22.918 85.9222C8.73976 77.7358 0 62.6034 0 46.2307ZM73.8682 66.1528C77.8755 60.5425 80.2226 53.6728 80.2226 46.2498C80.2226 27.2627 64.8231 11.8632 45.836 11.8632C38.413 11.8632 31.5242 14.2103 25.933 18.2176L73.8682 66.1528ZM65.7581 74.2628L17.823 26.3277C13.8157 31.9379 11.4686 38.8076 11.4686 46.2307C11.4686 65.2177 26.8681 80.6173 45.8551 80.6173C53.2782 80.6173 60.167 78.2701 65.7581 74.2628Z" fill="#E30512"/>
<path d="M248.034 65.2559C247.08 66.5535 245.171 67.6603 243.32 67.6603C241.221 67.6603 239.809 66.8779 239.809 64.0537V54.1881H238.244V64.3972C238.244 67.6794 239.847 69.0533 242.805 69.0533C244.904 69.0533 246.831 67.8893 248.034 66.5535V68.6907H249.598V54.169H248.034V65.2559Z" fill="white"/>
<path d="M133.157 35.8689C132.642 37.4337 131.077 38.7885 129.131 38.7885C126.364 38.7885 124.418 36.5559 124.418 33.7698C124.418 30.9838 126.364 28.7512 129.131 28.7512C131.077 28.7512 132.642 30.106 133.157 31.6708L138.386 29.2282C137.184 26.4613 134.531 23.389 129.131 23.389C123.005 23.389 118.254 27.568 118.254 33.7508C118.254 39.9335 123.005 44.1125 129.131 44.1125C134.531 44.1125 137.222 40.9258 138.386 38.2542L133.157 35.8498V35.8689Z" fill="white"/>
<path d="M145.943 43.769H152.011V35.8117L159.453 23.7134H152.64L148.977 30.4877L145.237 23.7134H138.424L145.943 35.8117V43.769Z" fill="white"/>
<path d="M178.764 38.3305C178.764 35.7544 177.104 33.7698 174.948 33.4264C176.894 33.0065 178.364 31.3273 178.364 28.8275C178.364 26.4803 176.551 23.7134 172.41 23.7134H160.235V43.769H172.83C176.856 43.769 178.745 41.1166 178.745 38.3305H178.764ZM166.323 28.6557H171.017C171.647 28.6557 172.219 29.1901 172.219 29.8961C172.219 30.6022 171.647 31.1937 171.017 31.1937H166.323V28.6557ZM171.189 38.8458H166.323V36.117H171.189C172.066 36.117 172.601 36.7849 172.601 37.4909C172.601 38.197 172.066 38.8458 171.189 38.8458Z" fill="white"/>
<path d="M196.702 38.7313H187.561V36.1742H196.492V31.1174H187.561V28.7702H196.702V23.7134H181.493V43.769H196.702V38.7313Z" fill="white"/>
<path d="M209.182 37.3383L211.949 43.769H218.857L215.212 36.6704C216.815 35.888 218.818 34.0561 218.818 30.6022C218.818 26.8429 216.3 23.7134 211.605 23.7134H200.9V43.769H206.968V37.3383H209.182ZM206.987 28.7702H210.689C211.72 28.7702 212.674 29.4381 212.674 30.5067C212.674 31.5754 211.72 32.2814 210.689 32.2814H206.987V28.7702Z" fill="white"/>
<path d="M119.323 68.7098H125.41V61.115H134.321V56.0581H125.41V53.711H134.531V48.6542H119.323V68.7098Z" fill="white"/>
<path d="M154.74 55.5429C154.74 51.7837 152.221 48.6542 147.526 48.6542H136.821V68.7098H142.889V62.279H145.084L147.851 68.7098H154.759L151.114 61.6111C152.698 60.8288 154.72 58.9968 154.72 55.5429H154.74ZM146.591 57.2222H142.889V53.711H146.591C147.622 53.711 148.576 54.3789 148.576 55.4475C148.576 56.5161 147.622 57.2222 146.591 57.2222Z" fill="white"/>
<path d="M162.735 48.6542L155.331 68.7098H161.915L162.697 66.1337H170.387L171.17 68.7098H177.753L170.349 48.6542H162.716H162.735ZM164.262 61.0768L166.552 54.0163L168.842 61.0768H164.262Z" fill="white"/>
<path d="M191.053 60.2563C191.053 62.1836 190.061 63.7102 187.6 63.7102C185.138 63.7102 184.107 62.1836 184.107 60.2563V48.6542H177.944V60.4662C177.944 65.4276 180.825 69.0724 187.6 69.0724C194.374 69.0724 197.217 65.4276 197.217 60.4471V48.6732H191.053V60.2754V60.2563Z" fill="white"/>
<path d="M209.716 48.6542H200.766V68.7098H209.754C216.032 68.7098 220.727 65.0651 220.727 58.6724C220.727 52.2798 216.032 48.6542 209.716 48.6542ZM209.716 63.424H206.835V53.9591H209.754C212.998 53.9591 214.563 55.9818 214.563 58.6724C214.563 61.1913 212.75 63.424 209.716 63.424Z" fill="white"/>
<path d="M224.238 66.3627C223.513 66.3627 222.921 66.9733 222.921 67.6603C222.921 68.3472 223.532 69.0151 224.238 69.0151C224.944 69.0151 225.593 68.3854 225.593 67.6603C225.593 66.9351 224.963 66.3627 224.238 66.3627Z" fill="white"/>
<path d="M231.852 48.6732H230.287V68.7289H231.852V48.6732Z" fill="white"/>
</svg>
