<svg width="284" height="88" viewBox="0 0 284 88" fill="none" xmlns="http://www.w3.org/2000/svg">
<path d="M0.25 59.8802H11.2232V61.0074H1.56679V68.7386H9.66704V69.8658H1.56679V78.8838H11.5325V80.0111H0.25V59.8702V59.8802Z" fill="#1D1D1B"/>
<path d="M15.8021 65.3568H16.8695L17.0191 67.6512H17.079C18.5753 66.1549 20.1016 64.9977 22.1167 64.9977C25.1393 64.9977 26.5459 66.8332 26.5459 70.624V80.031H25.2889V70.7736C25.2889 67.6612 24.2814 66.1249 21.8972 66.1249C20.1215 66.1249 18.8447 67.0726 17.0391 68.9381V80.031H15.7821V65.3668L15.8021 65.3568Z" fill="#1D1D1B"/>
<path d="M30.9252 76.3799C30.9252 73.1079 33.888 71.5816 40.432 70.8534C40.462 68.559 39.8534 66.115 36.9505 66.115C34.9354 66.115 33.2196 67.0926 32.242 67.7909L31.6634 66.8731C32.671 66.105 34.686 64.9777 37.0702 64.9777C40.5218 64.9777 41.689 67.5116 41.689 70.604V80.0111H40.6216L40.4719 78.0858H40.4121C38.9157 79.3128 37.1101 80.3802 35.1848 80.3802C32.8904 80.3802 30.9352 79.1532 30.9352 76.3799H30.9252ZM40.432 76.8987V71.831C34.287 72.5692 32.2121 73.9359 32.2121 76.3201C32.2121 78.4549 33.6785 79.2829 35.3943 79.2829C37.1101 79.2829 38.5765 78.4549 40.432 76.8987Z" fill="#1D1D1B"/>
<path d="M48.223 78.5546H48.1632L48.0135 80.0211H46.9761V58.0247H48.233V64.4391L48.1732 67.312C49.6695 66.0551 51.4751 64.9877 53.2408 64.9877C57.1812 64.9877 59.1364 67.9505 59.1364 72.4695C59.1364 77.4473 56.1138 80.3802 52.6622 80.3802C51.2556 80.3802 49.6396 79.642 48.233 78.5447L48.223 78.5546ZM57.7797 72.4695C57.7797 68.8284 56.4929 66.115 53.0413 66.115C51.5749 66.115 49.9588 66.9729 48.2131 68.559V77.3576C49.8291 78.7342 51.4851 79.2529 52.5824 79.2529C55.605 79.2529 57.7797 76.4697 57.7797 72.4695Z" fill="#1D1D1B"/>
<path d="M63.4958 78.1257V58.0147H64.7527V78.3053C64.7527 79.0035 65.0321 79.2529 65.451 79.2529C65.5707 79.2529 65.6904 79.2529 65.9398 79.1931L66.1493 80.1707C65.87 80.3203 65.5707 80.3802 65.2016 80.3802C64.1043 80.3802 63.4858 79.6719 63.4858 78.1157L63.4958 78.1257Z" fill="#1D1D1B"/>
<path d="M70.1895 60.5585C70.1895 59.8902 70.6783 59.4013 71.3167 59.4013C71.9552 59.4013 72.444 59.8902 72.444 60.5585C72.444 61.2867 71.9552 61.7756 71.3167 61.7756C70.6783 61.7756 70.1895 61.2867 70.1895 60.5585ZM70.6783 65.3568H71.9352V80.0211H70.6783V65.3568Z" fill="#1D1D1B"/>
<path d="M77.6114 65.3568H78.6788L78.8284 67.6512H78.8883C80.3846 66.1549 81.9109 64.9977 83.926 64.9977C86.9486 64.9977 88.3552 66.8332 88.3552 70.624V80.031H87.0982V70.7736C87.0982 67.6612 86.0907 66.1249 83.7065 66.1249C81.9308 66.1249 80.654 67.0726 78.8484 68.9381V80.031H77.5914V65.3668L77.6114 65.3568Z" fill="#1D1D1B"/>
<path d="M92.5549 83.0437C92.5549 81.7568 93.4128 80.45 94.7596 79.4724V79.3527C94.0214 78.9237 93.4727 78.1257 93.4727 77.0284C93.4727 75.6816 94.4204 74.7639 95.0588 74.305V74.1853C94.1411 73.3872 93.1934 71.9208 93.1934 70.1551C93.1934 67.1624 95.4878 64.9877 98.3309 64.9877C99.1289 64.9877 99.8272 65.1673 100.286 65.3568H105.234V66.4541H101.782C102.76 67.2821 103.428 68.5889 103.428 70.185C103.428 73.1777 101.194 75.3824 98.3209 75.3824C97.4929 75.3824 96.5452 75.133 95.8768 74.7439C95.2384 75.2627 94.6897 75.9011 94.6897 76.8787C94.6897 77.9461 95.2982 78.804 97.5029 78.804H100.655C103.957 78.804 105.483 79.8714 105.483 82.1658C105.483 84.6697 102.79 87.1138 98.5802 87.1138C94.8793 87.1138 92.5649 85.4977 92.5649 83.0537L92.5549 83.0437ZM104.167 82.2756C104.167 80.6595 103.009 80.0111 100.745 80.0111H97.5627C97.2834 80.0111 96.5253 79.9512 95.7571 79.7617C94.3506 80.7094 93.8019 81.8366 93.8019 82.904C93.8019 84.7695 95.5776 86.0464 98.69 86.0464C102.052 86.0464 104.157 84.1211 104.157 82.2556L104.167 82.2756ZM102.181 70.1451C102.181 67.6413 100.436 66.0551 98.3309 66.0551C96.226 66.0551 94.4802 67.6113 94.4802 70.1451C94.4802 72.679 96.2858 74.3349 98.3309 74.3349C100.376 74.3349 102.181 72.659 102.181 70.1451Z" fill="#1D1D1B"/>
<path d="M113.663 76.3799C113.663 73.1079 116.626 71.5816 123.17 70.8534C123.2 68.559 122.592 66.115 119.689 66.115C117.674 66.115 115.958 67.0926 114.98 67.7909L114.402 66.8731C115.409 66.105 117.424 64.9777 119.808 64.9777C123.26 64.9777 124.427 67.5116 124.427 70.604V80.0111H123.36L123.21 78.0858H123.15C121.654 79.3128 119.848 80.3802 117.923 80.3802C115.629 80.3802 113.673 79.1532 113.673 76.3799H113.663ZM123.17 76.8987V71.831C117.025 72.5692 114.95 73.9359 114.95 76.3201C114.95 78.4549 116.417 79.2829 118.133 79.2829C119.848 79.2829 121.315 78.4549 123.17 76.8987Z" fill="#1D1D1B"/>
<path d="M134.592 72.7189C134.592 67.9804 137.585 64.9877 141.097 64.9877C142.872 64.9877 144.059 65.6561 145.526 66.8232L145.466 64.0999V58.0147H146.723V80.0111H145.655L145.536 78.0858H145.446C144.249 79.3128 142.603 80.3802 140.648 80.3802C136.977 80.3802 134.592 77.6568 134.592 72.7089V72.7189ZM145.476 76.8089V68.0403C143.92 66.6337 142.603 66.115 141.136 66.115C138.174 66.115 135.909 69.0179 135.909 72.7189C135.909 76.6593 137.655 79.2529 140.797 79.2529C142.443 79.2529 143.91 78.395 145.476 76.8089Z" fill="#1D1D1B"/>
<path d="M151.92 60.5585C151.92 59.8902 152.409 59.4013 153.047 59.4013C153.686 59.4013 154.175 59.8902 154.175 60.5585C154.175 61.2867 153.686 61.7756 153.047 61.7756C152.409 61.7756 151.92 61.2867 151.92 60.5585ZM152.409 65.3568H153.666V80.0211H152.409V65.3568Z" fill="#1D1D1B"/>
<path d="M158.095 83.0437C158.095 81.7568 158.953 80.45 160.3 79.4724V79.3527C159.562 78.9237 159.013 78.1257 159.013 77.0284C159.013 75.6816 159.961 74.7639 160.599 74.305V74.1853C159.681 73.3872 158.734 71.9208 158.734 70.1551C158.734 67.1624 161.028 64.9877 163.871 64.9877C164.669 64.9877 165.367 65.1673 165.826 65.3568H170.774V66.4541H167.323C168.3 67.2821 168.969 68.5889 168.969 70.185C168.969 73.1777 166.734 75.3824 163.861 75.3824C163.033 75.3824 162.085 75.133 161.417 74.7439C160.779 75.2627 160.23 75.9011 160.23 76.8787C160.23 77.9461 160.838 78.804 163.043 78.804H166.185C169.487 78.804 171.014 79.8714 171.014 82.1658C171.014 84.6697 168.33 87.1138 164.11 87.1138C160.409 87.1138 158.095 85.4977 158.095 83.0537V83.0437ZM169.707 82.2756C169.707 80.6595 168.55 80.0111 166.285 80.0111H163.103C162.824 80.0111 162.065 79.9512 161.297 79.7617C159.891 80.7094 159.342 81.8366 159.342 82.904C159.342 84.7695 161.118 86.0464 164.23 86.0464C167.592 86.0464 169.697 84.1211 169.697 82.2556L169.707 82.2756ZM167.712 70.1451C167.712 67.6413 165.966 66.0551 163.861 66.0551C161.756 66.0551 160.01 67.6113 160.01 70.1451C160.01 72.679 161.816 74.3349 163.861 74.3349C165.906 74.3349 167.712 72.659 167.712 70.1451Z" fill="#1D1D1B"/>
<path d="M173.677 60.5585C173.677 59.8902 174.166 59.4013 174.804 59.4013C175.443 59.4013 175.932 59.8902 175.932 60.5585C175.932 61.2867 175.443 61.7756 174.804 61.7756C174.166 61.7756 173.677 61.2867 173.677 60.5585ZM174.166 65.3568H175.423V80.0211H174.166V65.3568Z" fill="#1D1D1B"/>
<path d="M181.428 76.0208V66.4841H179.134V65.4765L181.458 65.3568L181.608 60.4987H182.675V65.3568H186.955V66.4841H182.675V76.1106C182.675 78.006 183.134 79.2928 185.179 79.2928C185.728 79.2928 186.336 79.1731 187.045 78.834L187.444 79.7218C186.646 80.1507 185.768 80.3902 185.029 80.3902C182.216 80.3902 181.428 78.6145 181.428 76.0208Z" fill="#1D1D1B"/>
<path d="M188.83 76.3799C188.83 73.1079 191.793 71.5816 198.337 70.8534C198.367 68.559 197.758 66.115 194.856 66.115C192.84 66.115 191.125 67.0926 190.147 67.7909L189.568 66.8731C190.576 66.105 192.591 64.9777 194.975 64.9777C198.427 64.9777 199.584 67.5116 199.584 70.604V80.0111H198.517L198.367 78.0858H198.307C196.811 79.3128 195.005 80.3802 193.08 80.3802C190.785 80.3802 188.83 79.1532 188.83 76.3799ZM198.327 76.8987V71.831C192.182 72.5692 190.107 73.9359 190.107 76.3201C190.107 78.4549 191.574 79.2829 193.289 79.2829C195.005 79.2829 196.472 78.4549 198.327 76.8987Z" fill="#1D1D1B"/>
<path d="M204.871 78.1257V58.0147H206.128V78.3053C206.128 79.0035 206.407 79.2529 206.836 79.2529C206.956 79.2529 207.086 79.2529 207.325 79.1931L207.535 80.1707C207.255 80.3203 206.956 80.3802 206.587 80.3802C205.49 80.3802 204.871 79.6719 204.871 78.1157V78.1257Z" fill="#1D1D1B"/>
<path d="M216.054 65.3568H217.401L220.094 74.9534C220.463 76.3001 220.822 77.5172 221.102 78.8639H221.221C221.59 77.5172 221.93 76.3001 222.289 74.9534L224.982 65.3568H226.568L229.262 74.9534C229.631 76.3001 229.99 77.5172 230.329 78.8639H230.449C230.818 77.5172 231.147 76.3001 231.516 74.9534L234.14 65.3568H235.427L231.177 80.0211H229.501L226.907 70.7936C226.508 69.4169 226.199 68.0702 225.81 66.6038H225.69C225.321 68.0702 224.992 69.4469 224.503 70.8534L221.969 80.0211H220.413L216.074 65.3568H216.054Z" fill="#1D1D1B"/>
<path d="M237.741 72.7189C237.741 67.8308 240.794 64.9877 244.315 64.9877C247.836 64.9877 250.889 67.8308 250.889 72.7189C250.889 77.6069 247.836 80.3902 244.315 80.3902C240.794 80.3902 237.741 77.577 237.741 72.7189ZM249.572 72.7189C249.572 68.8084 247.308 66.115 244.315 66.115C241.322 66.115 239.058 68.8084 239.058 72.7189C239.058 76.6293 241.322 79.2529 244.315 79.2529C247.308 79.2529 249.572 76.6293 249.572 72.7189Z" fill="#1D1D1B"/>
<path d="M255.318 65.3568H256.385L256.535 68.1101H256.595C257.573 66.3045 259.009 64.9977 260.755 64.9977C261.274 64.9977 261.732 65.0575 262.191 65.3069L261.852 66.4043C261.453 66.2846 261.154 66.2247 260.595 66.2247C259.249 66.2247 257.692 67.2322 256.565 70.0155V80.041H255.308V65.3768L255.318 65.3568Z" fill="#1D1D1B"/>
<path d="M264.935 78.1257V58.0147H266.192V78.3053C266.192 79.0035 266.471 79.2529 266.9 79.2529C267.02 79.2529 267.149 79.2529 267.389 79.1931L267.598 80.1707C267.319 80.3203 267.02 80.3802 266.65 80.3802C265.553 80.3802 264.935 79.6719 264.935 78.1157V78.1257Z" fill="#1D1D1B"/>
<path d="M270.89 72.7189C270.89 67.9804 273.883 64.9877 277.394 64.9877C279.17 64.9877 280.357 65.6561 281.823 66.8232L281.764 64.0999V58.0147H283.021V80.0111H281.953L281.833 78.0858H281.744C280.547 79.3128 278.901 80.3802 276.945 80.3802C273.274 80.3802 270.89 77.6568 270.89 72.7089V72.7189ZM281.774 76.8089V68.0403C280.217 66.6337 278.901 66.115 277.434 66.115C274.471 66.115 272.207 69.0179 272.207 72.7189C272.207 76.6593 273.953 79.2529 277.095 79.2529C278.741 79.2529 280.207 78.395 281.774 76.8089Z" fill="#1D1D1B"/>
<path d="M0.25 1.303V39.4999H22.9147V33.7738H7.02348V1.303H0.25Z" fill="#1D1D1B"/>
<path d="M45.1605 40.2081C42.2376 40.2081 39.6938 39.6196 37.5092 38.4524C35.3245 37.2853 33.6486 35.4198 32.4615 32.8461C31.2744 30.2724 30.6758 26.9106 30.6758 22.7407V1.303H37.4493V23.2595C37.4493 26.0227 37.7685 28.2174 38.4169 29.8334C39.0554 31.4495 39.9632 32.5967 41.1303 33.275C42.2975 33.9534 43.6442 34.2926 45.1605 34.2926C46.6768 34.2926 48.0933 33.9534 49.2805 33.275C50.4676 32.5967 51.4053 31.4495 52.0836 29.8334C52.762 28.2174 53.1011 26.0327 53.1011 23.2595V1.303H59.5853V22.7407C59.5853 26.9106 59.0067 30.2724 57.8296 32.8461C56.6625 35.4198 54.9965 37.2853 52.8318 38.4524C50.6671 39.6196 48.1133 40.2081 45.1505 40.2081" fill="#1D1D1B"/>
<path d="M65.7802 39.4999L76.6437 19.8179L66.4785 1.303H74.0102L78.2199 9.77235C78.6888 10.6303 79.1476 11.538 79.5965 12.4857C80.0454 13.4434 80.5642 14.4809 81.1428 15.6081H81.3822C81.851 14.4809 82.29 13.4334 82.699 12.4857C83.108 11.5281 83.527 10.6303 83.9559 9.77235L87.9861 1.303H95.1686L85.0033 20.1072L95.8669 39.4999H88.3352L83.6666 30.5018C83.1579 29.4943 82.6591 28.4867 82.1802 27.4892C81.6914 26.4916 81.1627 25.4142 80.5742 24.2471H80.3347C79.826 25.4142 79.3471 26.4916 78.9082 27.4892C78.4593 28.4867 78.0004 29.4843 77.5316 30.5018L72.9727 39.4999H65.7802Z" fill="#1D1D1B"/>
<path d="M123.1 39.4999V7.02904H112.067V1.303H140.917V7.02904H129.884V39.4999H123.1Z" fill="#1D1D1B"/>
<path d="M156.18 19.1595H161.617C164.22 19.1595 166.215 18.6008 167.602 17.4935C168.989 16.3862 169.677 14.7602 169.677 12.6154C169.677 10.4706 168.989 8.90447 167.602 8.02661C166.215 7.14875 164.22 6.70982 161.617 6.70982H156.18V19.1595ZM149.406 39.4799V1.28305H162.315C164.958 1.28305 167.343 1.6322 169.467 2.33049C171.592 3.02879 173.268 4.20592 174.495 5.86188C175.722 7.51785 176.331 9.76237 176.331 12.6054C176.331 15.4485 175.642 17.8826 174.256 19.6682C172.869 21.4638 171.034 22.7407 168.739 23.5188L177.847 39.46H170.255L162.016 24.5064H156.17V39.46H149.396L149.406 39.4799Z" fill="#1D1D1B"/>
<path d="M199.514 40.1882C196.591 40.1882 194.047 39.5996 191.863 38.4325C189.678 37.2653 188.002 35.3999 186.815 32.8261C185.628 30.2524 185.029 26.8906 185.029 22.7208V1.28305H191.803V23.2395C191.803 26.0028 192.122 28.1974 192.771 29.8135C193.409 31.4295 194.317 32.5767 195.484 33.2551C196.651 33.9334 197.998 34.2726 199.514 34.2726C201.03 34.2726 202.447 33.9334 203.634 33.2551C204.821 32.5767 205.759 31.4295 206.437 29.8135C207.116 28.1974 207.455 26.0128 207.455 23.2395V1.28305H213.939V22.7208C213.939 26.8906 213.35 30.2524 212.183 32.8261C211.016 35.3999 209.35 37.2653 207.185 38.4325C205.021 39.5996 202.467 40.1882 199.504 40.1882" fill="#1D1D1B"/>
<path d="M234.619 40.1882C232.045 40.1882 229.571 39.6994 227.177 38.7317C224.783 37.7541 222.668 36.3775 220.842 34.5819L224.812 29.9631C226.179 31.25 227.735 32.2875 229.481 33.0855C231.237 33.8836 232.983 34.2826 234.738 34.2826C236.923 34.2826 238.569 33.8337 239.706 32.9359C240.833 32.0381 241.402 30.851 241.402 29.3746C241.402 27.7784 240.843 26.6312 239.736 25.9329C238.629 25.2346 237.212 24.5164 235.496 23.7682L230.239 21.4938C228.992 20.9451 227.775 20.2468 226.588 19.3889C225.401 18.531 224.423 17.4436 223.665 16.1169C222.907 14.7901 222.528 13.194 222.528 11.3286C222.528 9.30349 223.087 7.48792 224.194 5.87186C225.301 4.2558 226.828 2.96894 228.753 2.02125C230.678 1.06358 232.893 0.594727 235.387 0.594727C237.611 0.594727 239.746 1.03366 241.811 1.91152C243.876 2.78938 245.642 3.96651 247.128 5.44291L243.686 9.76237C242.479 8.75483 241.203 7.9468 239.856 7.36821C238.509 6.77965 237.023 6.49035 235.387 6.49035C233.591 6.49035 232.145 6.88938 231.037 7.68743C229.93 8.48549 229.371 9.58281 229.371 10.9894C229.371 11.967 229.651 12.775 230.219 13.4135C230.788 14.0519 231.536 14.6006 232.464 15.0495C233.402 15.4984 234.389 15.9373 235.447 16.3663L240.644 18.531C242.898 19.5086 244.754 20.7755 246.19 22.3517C247.627 23.9278 248.355 26.1025 248.355 28.8658C248.355 30.9308 247.806 32.8162 246.719 34.532C245.632 36.2478 244.066 37.6145 242.021 38.6519C239.975 39.6794 237.512 40.1982 234.629 40.1982" fill="#1D1D1B"/>
<path d="M254.171 1.303V7.02904H265.214V39.4999H271.987V7.02904H283.021V1.303H254.171Z" fill="#1D1D1B"/>
<path d="M123.1 39.4999H95.8569L84.9934 20.1072L95.1586 1.303H112.067V7.02904H123.1V39.4999Z" fill="url(#paint0_linear_213_97)"/>
<defs>
<linearGradient id="paint0_linear_213_97" x1="87.9162" y1="28.128" x2="125.764" y2="14.3516" gradientUnits="userSpaceOnUse">
<stop stop-color="#007BC4"/>
<stop offset="0.5" stop-color="#00B1EB"/>
<stop offset="0.6" stop-color="#23B6DB"/>
<stop offset="0.7" stop-color="#40BBCF"/>
<stop offset="0.8" stop-color="#55BEC6"/>
<stop offset="0.9" stop-color="#61C0C0"/>
<stop offset="1" stop-color="#66C1BF"/>
</linearGradient>
</defs>
</svg>
