<?xml version="1.0" encoding="utf-8"?>
<!-- Generator: Adobe Illustrator 27.2.0, SVG Export Plug-In . SVG Version: 6.00 Build 0)  -->
<svg version="1.1" id="Calque_1" xmlns="http://www.w3.org/2000/svg" xmlns:xlink="http://www.w3.org/1999/xlink" x="0px" y="0px"
	 viewBox="0 0 360.05 162.59" style="enable-background:new 0 0 360.05 162.59;" xml:space="preserve">
<style type="text/css">
	.st0{fill:none;}
	.st1{fill:url(#SVGID_1_);}
</style>
<rect class="st0" width="360.05" height="162.59"/>
<g>
</g>
<g>
</g>
<g>
</g>
<g>
</g>
<g>
</g>
<g>
</g>
<g>
	<polygon points="38.29,38.29 38.29,76.58 61.01,76.58 61.01,70.84 45.08,70.84 45.08,38.29 	"/>
	<path d="M83.31,77.28c-2.93,0-5.48-0.59-7.67-1.76c-2.19-1.17-3.87-3.04-5.06-5.62c-1.19-2.58-1.79-5.95-1.79-10.13V38.29h6.79
		V60.3c0,2.77,0.32,4.97,0.97,6.59c0.64,1.62,1.55,2.77,2.72,3.45c1.17,0.68,2.52,1.02,4.04,1.02c1.56,0,2.94-0.34,4.13-1.02
		c1.19-0.68,2.13-1.83,2.81-3.45c0.68-1.62,1.02-3.81,1.02-6.59V38.29h6.5v21.49c0,4.18-0.58,7.55-1.76,10.13
		c-1.17,2.58-2.84,4.45-5.01,5.62C88.84,76.7,86.27,77.28,83.31,77.28"/>
	<path d="M103.98,76.58l10.89-19.73l-10.19-18.56h7.55l4.22,8.49c0.47,0.86,0.93,1.77,1.38,2.72c0.45,0.96,0.97,2,1.55,3.13h0.24
		c0.47-1.13,0.91-2.18,1.32-3.13c0.41-0.96,0.83-1.86,1.26-2.72l4.04-8.49h7.2l-10.19,18.85l10.89,19.44h-7.55l-4.68-9.02
		c-0.51-1.01-1.01-2.02-1.49-3.02c-0.49-1-1.02-2.08-1.61-3.25h-0.24c-0.51,1.17-0.99,2.25-1.43,3.25c-0.45,1-0.91,2-1.38,3.02
		l-4.57,9.02H103.98z"/>
	<polygon points="161.44,76.58 161.44,44.03 150.38,44.03 150.38,38.29 179.3,38.29 179.3,44.03 168.24,44.03 168.24,76.58 	"/>
	<path d="M194.6,56.19h5.45c2.61,0,4.61-0.56,6-1.67c1.39-1.11,2.08-2.74,2.08-4.89c0-2.19-0.69-3.72-2.08-4.6
		c-1.39-0.88-3.39-1.32-6-1.32h-5.45V56.19z M187.81,76.56V38.27h12.94c2.65,0,5.04,0.35,7.17,1.05c2.13,0.7,3.81,1.88,5.04,3.54
		c1.23,1.66,1.84,3.91,1.84,6.76c0,2.93-0.69,5.29-2.08,7.08c-1.39,1.8-3.23,3.08-5.53,3.86l9.13,15.98h-7.61l-8.26-14.99h-5.86
		v14.99H187.81z"/>
	<path d="M238.04,77.26c-2.93,0-5.48-0.59-7.67-1.76c-2.19-1.17-3.87-3.04-5.06-5.62s-1.79-5.95-1.79-10.13V38.27h6.79v22.01
		c0,2.77,0.32,4.97,0.97,6.59c0.64,1.62,1.55,2.77,2.72,3.45c1.17,0.68,2.52,1.02,4.04,1.02c1.56,0,2.94-0.34,4.13-1.02
		c1.19-0.68,2.13-1.83,2.81-3.45c0.68-1.62,1.02-3.81,1.02-6.59V38.27h6.5v21.49c0,4.18-0.59,7.55-1.76,10.13
		c-1.17,2.58-2.84,4.45-5.01,5.62C243.57,76.68,241,77.26,238.04,77.26"/>
	<path d="M273.23,77.26c-2.58,0-5.06-0.49-7.46-1.46c-2.4-0.98-4.52-2.36-6.35-4.16l3.98-4.63c1.37,1.29,2.93,2.33,4.68,3.13
		c1.76,0.8,3.51,1.2,5.27,1.2c2.19,0,3.84-0.45,4.98-1.35c1.13-0.9,1.7-2.09,1.7-3.57c0-1.6-0.56-2.75-1.67-3.45
		c-1.11-0.7-2.53-1.42-4.25-2.17l-5.27-2.28c-1.25-0.55-2.47-1.25-3.66-2.11c-1.19-0.86-2.17-1.95-2.93-3.28
		c-0.76-1.33-1.14-2.93-1.14-4.8c0-2.03,0.56-3.85,1.67-5.47c1.11-1.62,2.64-2.91,4.57-3.86c1.93-0.96,4.15-1.43,6.65-1.43
		c2.23,0,4.37,0.44,6.44,1.32c2.07,0.88,3.84,2.06,5.33,3.54l-3.45,4.33c-1.21-1.01-2.49-1.82-3.84-2.4
		c-1.35-0.59-2.84-0.88-4.48-0.88c-1.8,0-3.25,0.4-4.36,1.2c-1.11,0.8-1.67,1.9-1.67,3.31c0,0.98,0.28,1.79,0.85,2.43
		c0.57,0.64,1.32,1.19,2.25,1.64c0.94,0.45,1.93,0.89,2.99,1.32l5.21,2.17c2.26,0.98,4.12,2.25,5.56,3.83
		c1.44,1.58,2.17,3.76,2.17,6.53c0,2.07-0.55,3.96-1.64,5.68c-1.09,1.72-2.66,3.09-4.71,4.13
		C278.59,76.75,276.12,77.26,273.23,77.26"/>
	<polygon points="292.83,38.29 292.83,44.03 303.9,44.03 303.9,76.58 310.69,76.58 310.69,44.03 321.75,44.03 321.75,38.29 	"/>
</g>
<linearGradient id="SVGID_1_" gradientUnits="userSpaceOnUse" x1="126.1676" y1="65.1761" x2="164.1151" y2="51.3644">
	<stop  offset="2.596391e-07" style="stop-color:#3333FF"/>
	<stop  offset="0.5" style="stop-color:#3399FF"/>
	<stop  offset="0.5999" style="stop-color:#57BDED"/>
	<stop  offset="0.7019" style="stop-color:#74DADF"/>
	<stop  offset="0.8035" style="stop-color:#88EED4"/>
	<stop  offset="0.9035" style="stop-color:#95FBCE"/>
	<stop  offset="1" style="stop-color:#99FFCC"/>
</linearGradient>
<polygon class="st1" points="161.44,76.58 134.13,76.58 123.24,57.14 133.43,38.29 150.38,38.29 150.38,44.03 161.44,44.03 "/>
<g>
	<path d="M38.29,97.01h11v1.13h-9.68v7.75h8.12v1.13h-8.12v9.04h9.99v1.13h-11.3V97.01z"/>
	<path d="M53.88,102.49h1.07l0.15,2.3h0.06c1.5-1.5,3.03-2.66,5.05-2.66c3.03,0,4.44,1.84,4.44,5.64v9.43h-1.26v-9.28
		c0-3.12-1.01-4.66-3.4-4.66c-1.78,0-3.06,0.95-4.87,2.82v11.12h-1.26V102.49z"/>
	<path d="M69.04,113.55c0-3.28,2.97-4.81,9.53-5.54c0.03-2.3-0.58-4.75-3.49-4.75c-2.02,0-3.74,0.98-4.72,1.68l-0.58-0.92
		c1.01-0.77,3.03-1.9,5.42-1.9c3.46,0,4.63,2.54,4.63,5.64v9.43h-1.07l-0.15-1.93h-0.06c-1.5,1.23-3.31,2.3-5.24,2.3
		C71,117.56,69.04,116.34,69.04,113.55z M78.57,114.07v-5.08c-6.16,0.74-8.24,2.11-8.24,4.5c0,2.14,1.47,2.97,3.19,2.97
		C75.2,116.46,76.7,115.63,78.57,114.07z"/>
	<path d="M86.38,115.73h-0.06l-0.15,1.47h-1.04V95.14h1.26v6.43l-0.06,2.88c1.5-1.26,3.31-2.33,5.08-2.33c3.95,0,5.91,2.97,5.91,7.5
		c0,4.99-3.03,7.93-6.49,7.93C89.41,117.56,87.79,116.83,86.38,115.73z M95.97,109.63c0-3.65-1.29-6.37-4.75-6.37
		c-1.47,0-3.09,0.86-4.84,2.45v8.82c1.62,1.38,3.28,1.9,4.38,1.9C93.79,116.43,95.97,113.64,95.97,109.63z"/>
	<path d="M101.69,115.3V95.14h1.26v20.34c0,0.7,0.28,0.95,0.7,0.95c0.12,0,0.24,0,0.49-0.06l0.21,0.98
		c-0.28,0.15-0.58,0.21-0.95,0.21C102.3,117.56,101.69,116.86,101.69,115.3z"/>
	<path d="M108.4,97.68c0-0.67,0.49-1.16,1.13-1.16c0.64,0,1.13,0.49,1.13,1.16c0,0.73-0.49,1.22-1.13,1.22
		C108.89,98.91,108.4,98.42,108.4,97.68z M108.89,102.49h1.26v14.7h-1.26V102.49z"/>
	<path d="M115.84,102.49h1.07l0.15,2.3h0.06c1.5-1.5,3.03-2.66,5.05-2.66c3.03,0,4.44,1.84,4.44,5.64v9.43h-1.26v-9.28
		c0-3.12-1.01-4.66-3.4-4.66c-1.78,0-3.06,0.95-4.87,2.82v11.12h-1.26V102.49z"/>
	<path d="M130.82,120.23c0-1.29,0.86-2.6,2.21-3.58v-0.12c-0.74-0.43-1.29-1.23-1.29-2.33c0-1.35,0.95-2.27,1.59-2.73v-0.12
		c-0.92-0.8-1.87-2.27-1.87-4.04c0-3,2.3-5.18,5.15-5.18c0.8,0,1.5,0.18,1.96,0.37h4.96v1.1h-3.46c0.98,0.83,1.65,2.14,1.65,3.74
		c0,3-2.24,5.21-5.12,5.21c-0.83,0-1.78-0.25-2.45-0.64c-0.64,0.52-1.19,1.16-1.19,2.14c0,1.07,0.61,1.93,2.82,1.93h3.16
		c3.31,0,4.84,1.07,4.84,3.37c0,2.51-2.7,4.96-6.92,4.96C133.15,124.3,130.82,122.68,130.82,120.23z M142.46,119.46
		c0-1.62-1.16-2.27-3.43-2.27h-3.19c-0.28,0-1.04-0.06-1.81-0.25c-1.41,0.95-1.96,2.08-1.96,3.15c0,1.87,1.78,3.15,4.9,3.15
		C140.34,123.26,142.46,121.33,142.46,119.46z M140.47,107.3c0-2.51-1.75-4.1-3.86-4.1c-2.11,0-3.86,1.56-3.86,4.1
		c0,2.51,1.81,4.2,3.86,4.2C138.66,111.5,140.47,109.81,140.47,107.3z"/>
	<path d="M151.98,113.55c0-3.28,2.97-4.81,9.53-5.54c0.03-2.3-0.58-4.75-3.49-4.75c-2.02,0-3.74,0.98-4.72,1.68l-0.58-0.92
		c1.01-0.77,3.03-1.9,5.42-1.9c3.46,0,4.63,2.54,4.63,5.64v9.43h-1.07l-0.15-1.93h-0.06c-1.5,1.23-3.31,2.3-5.24,2.3
		C153.94,117.56,151.98,116.34,151.98,113.55z M161.51,114.07v-5.08c-6.16,0.74-8.24,2.11-8.24,4.5c0,2.14,1.47,2.97,3.19,2.97
		C158.14,116.46,159.64,115.63,161.51,114.07z"/>
	<path d="M172.96,109.87c0-4.75,3-7.75,6.52-7.75c1.78,0,2.97,0.67,4.44,1.84l-0.06-2.73v-6.1h1.26v22.05h-1.07l-0.12-1.93h-0.09
		c-1.2,1.23-2.85,2.3-4.81,2.3C175.35,117.56,172.96,114.84,172.96,109.87z M183.87,113.98v-8.79c-1.56-1.41-2.88-1.93-4.35-1.93
		c-2.97,0-5.24,2.91-5.24,6.62c0,3.95,1.75,6.55,4.9,6.55C180.83,116.43,182.3,115.57,183.87,113.98z"/>
	<path d="M190.33,97.68c0-0.67,0.49-1.16,1.13-1.16c0.64,0,1.13,0.49,1.13,1.16c0,0.73-0.49,1.22-1.13,1.22
		C190.82,98.91,190.33,98.42,190.33,97.68z M190.82,102.49h1.26v14.7h-1.26V102.49z"/>
	<path d="M196.52,120.23c0-1.29,0.86-2.6,2.21-3.58v-0.12c-0.74-0.43-1.29-1.23-1.29-2.33c0-1.35,0.95-2.27,1.59-2.73v-0.12
		c-0.92-0.8-1.87-2.27-1.87-4.04c0-3,2.3-5.18,5.15-5.18c0.8,0,1.5,0.18,1.96,0.37h4.96v1.1h-3.46c0.98,0.83,1.65,2.14,1.65,3.74
		c0,3-2.24,5.21-5.12,5.21c-0.83,0-1.78-0.25-2.45-0.64c-0.64,0.52-1.19,1.16-1.19,2.14c0,1.07,0.61,1.93,2.82,1.93h3.15
		c3.31,0,4.84,1.07,4.84,3.37c0,2.51-2.69,4.96-6.92,4.96C198.84,124.3,196.52,122.68,196.52,120.23z M208.16,119.46
		c0-1.62-1.16-2.27-3.43-2.27h-3.19c-0.28,0-1.04-0.06-1.81-0.25c-1.41,0.95-1.96,2.08-1.96,3.15c0,1.87,1.78,3.15,4.9,3.15
		C206.04,123.26,208.16,121.33,208.16,119.46z M206.17,107.3c0-2.51-1.75-4.1-3.86-4.1c-2.11,0-3.86,1.56-3.86,4.1
		c0,2.51,1.81,4.2,3.86,4.2C204.36,111.5,206.17,109.81,206.17,107.3z"/>
	<path d="M212.14,97.68c0-0.67,0.49-1.16,1.13-1.16c0.64,0,1.13,0.49,1.13,1.16c0,0.73-0.49,1.22-1.13,1.22
		C212.63,98.91,212.14,98.42,212.14,97.68z M212.63,102.49h1.26v14.7h-1.26V102.49z"/>
	<path d="M219.92,113.18v-9.56h-2.3v-1.01l2.33-0.12l0.15-4.87h1.07v4.87h4.29v1.13h-4.29v9.65c0,1.9,0.46,3.19,2.51,3.19
		c0.55,0,1.16-0.12,1.87-0.46l0.4,0.89c-0.8,0.43-1.68,0.67-2.42,0.67C220.71,117.56,219.92,115.79,219.92,113.18z"/>
	<path d="M227.33,113.55c0-3.28,2.97-4.81,9.53-5.54c0.03-2.3-0.58-4.75-3.49-4.75c-2.02,0-3.74,0.98-4.72,1.68l-0.58-0.92
		c1.01-0.77,3.03-1.9,5.42-1.9c3.46,0,4.62,2.54,4.62,5.64v9.43h-1.07l-0.15-1.93h-0.06c-1.5,1.23-3.31,2.3-5.24,2.3
		C229.29,117.56,227.33,116.34,227.33,113.55z M236.85,114.07v-5.08c-6.16,0.74-8.24,2.11-8.24,4.5c0,2.14,1.47,2.97,3.19,2.97
		C233.49,116.46,234.99,115.63,236.85,114.07z"/>
	<path d="M243.41,115.3V95.14h1.26v20.34c0,0.7,0.28,0.95,0.71,0.95c0.12,0,0.25,0,0.49-0.06l0.21,0.98
		c-0.28,0.15-0.58,0.21-0.95,0.21C244.02,117.56,243.41,116.86,243.41,115.3z"/>
	<path d="M254.62,102.49h1.35l2.7,9.62c0.37,1.35,0.73,2.57,1.01,3.92h0.12c0.37-1.35,0.71-2.57,1.07-3.92l2.7-9.62h1.59l2.7,9.62
		c0.37,1.35,0.73,2.57,1.07,3.92h0.12c0.37-1.35,0.7-2.57,1.07-3.92l2.63-9.62h1.29l-4.26,14.7h-1.68l-2.6-9.25
		c-0.4-1.38-0.71-2.73-1.1-4.2h-0.12c-0.37,1.47-0.7,2.85-1.19,4.26l-2.54,9.19h-1.56L254.62,102.49z"/>
	<path d="M276.36,109.87c0-4.9,3.06-7.75,6.59-7.75c3.52,0,6.59,2.85,6.59,7.75c0,4.87-3.06,7.69-6.59,7.69
		C279.43,117.56,276.36,114.75,276.36,109.87z M288.22,109.87c0-3.92-2.27-6.62-5.27-6.62s-5.27,2.7-5.27,6.62s2.27,6.55,5.27,6.55
		S288.22,113.8,288.22,109.87z"/>
	<path d="M293.98,102.49h1.07l0.15,2.76h0.06c0.98-1.81,2.42-3.12,4.17-3.12c0.52,0,0.98,0.06,1.44,0.31l-0.34,1.1
		c-0.4-0.12-0.7-0.18-1.26-0.18c-1.35,0-2.91,1.01-4.04,3.8v10.05h-1.26V102.49z"/>
	<path d="M303.62,115.3V95.14h1.26v20.34c0,0.7,0.28,0.95,0.71,0.95c0.12,0,0.25,0,0.49-0.06l0.21,0.98
		c-0.28,0.15-0.58,0.21-0.95,0.21C304.23,117.56,303.62,116.86,303.62,115.3z"/>
	<path d="M309.59,109.87c0-4.75,3-7.75,6.52-7.75c1.78,0,2.97,0.67,4.44,1.84l-0.06-2.73v-6.1h1.26v22.05h-1.07l-0.12-1.93h-0.09
		c-1.2,1.23-2.85,2.3-4.81,2.3C311.98,117.56,309.59,114.84,309.59,109.87z M320.5,113.98v-8.79c-1.56-1.41-2.88-1.93-4.35-1.93
		c-2.97,0-5.24,2.91-5.24,6.62c0,3.95,1.75,6.55,4.9,6.55C317.47,116.43,318.94,115.57,320.5,113.98z"/>
</g>
</svg>
