<svg width="489" height="122" viewBox="0 0 489 122" fill="none" xmlns="http://www.w3.org/2000/svg">
<path d="M127.047 40.7399V27.5879H128.965V39.1224H133.851V40.7399H127.047Z" fill="white"/>
<path d="M136.886 40.7399V27.5879H144.047V29.0827H138.815V33.2325H143.824V34.6938H138.815V39.2005H144.047V40.7399H136.886Z" fill="white"/>
<path d="M159.04 40.9184C155.069 40.9184 152.291 38.6204 152.291 34.3926C152.291 30.4771 155.002 27.4095 159.497 27.4095C160.814 27.4095 162.074 27.5879 163.368 27.9895L163.089 29.7074C161.873 29.2501 160.657 28.9712 159.419 28.9712C156.708 28.9712 154.31 30.6891 154.31 34.1807C154.31 37.438 156.329 39.2675 159.319 39.2675C160.178 39.2675 161.037 39.1113 161.717 38.9105V34.0245H163.636V40.1152C162.219 40.6172 160.724 40.8961 159.029 40.8961L159.04 40.9184Z" fill="white"/>
<path d="M173.229 40.9407C168.979 40.9407 167.083 38.1296 167.083 34.2922C167.083 29.9194 170.095 27.3871 173.631 27.3871C177.502 27.3871 179.833 29.7632 179.833 34.0691C179.833 38.375 176.922 40.9519 173.229 40.9519V40.9407ZM173.464 29.027C171.166 29.027 169.135 30.8006 169.135 34.0914C169.135 36.9025 170.229 39.2786 173.363 39.2786C175.873 39.2786 177.792 37.5607 177.792 34.2699C177.792 30.9791 176.152 29.0381 173.464 29.0381V29.027Z" fill="white"/>
<path d="M188.891 40.9407C185.355 40.9407 183.459 39.2675 183.459 36.2332V27.5879H185.377V35.9544C185.377 38.2858 186.738 39.3455 189.047 39.3455C191.725 39.3455 192.695 37.8284 192.695 35.6532V27.5879H194.592V35.7536C194.592 38.5312 192.952 40.9407 188.902 40.9407H188.891Z" fill="white"/>
<path d="M204.453 40.7399H202.3L197.113 27.5879H199.266L202.255 35.4077C202.69 36.5233 203.07 37.6388 203.371 38.7208H203.393C203.75 37.6276 204.129 36.5456 204.531 35.5081L207.721 27.5879H209.718L204.453 40.7399Z" fill="white"/>
<path d="M212.295 40.7399V27.5879H219.457V29.0827H214.225V33.2325H219.233V34.6938H214.225V39.2005H219.457V40.7399H212.295Z" fill="white"/>
<path d="M230.355 40.7399L225.726 34.8946H225.648V40.7399H223.729V27.5879C224.51 27.5656 225.782 27.5322 227.321 27.5322C230.333 27.5322 231.995 28.7258 231.995 30.9233C231.995 33.2548 230.199 34.5934 227.767 34.7161C228.124 35.0731 228.526 35.5751 228.961 36.1105L232.776 40.7399H230.344H230.355ZM227.064 29.0047C226.429 29.0047 226.027 29.027 225.648 29.0827V33.5114C226.049 33.5337 226.607 33.5671 227.143 33.5671C228.883 33.5671 229.998 32.6301 229.998 31.1688C229.998 29.7074 228.86 29.0158 227.064 29.0158V29.0047Z" fill="white"/>
<path d="M245.047 40.7399L239.659 32.5185C239.079 31.6596 238.543 30.7002 238.142 29.8636H238.119C238.175 30.7449 238.22 31.76 238.22 33.2994L238.242 40.7399H236.368V27.5879H238.867L244.177 35.7089C244.734 36.5456 245.292 37.4826 245.772 38.3862H245.794C245.749 37.4715 245.694 35.932 245.694 33.7568L245.671 27.5879H247.568V40.7399H245.035H245.047Z" fill="white"/>
<path d="M252.666 40.7399V27.5879H259.827V29.0827H254.595V33.2325H259.604V34.6938H254.595V39.2005H259.827V40.7399H252.666Z" fill="white"/>
<path d="M277.687 40.7399L276.605 33.054C276.404 31.5369 276.304 30.4995 276.225 29.7967H276.203C276.047 30.3767 275.846 31.1911 275.545 32.05L272.533 40.7511H270.436L267.658 32.6078C267.335 31.6707 266.955 30.5887 266.822 29.7967H266.799C266.721 30.8118 266.621 31.8492 266.442 33.1098L265.461 40.7511H263.542L265.516 27.5991H267.893L270.804 36.0771C271.128 36.9918 271.406 37.8507 271.54 38.5758H271.563C271.763 37.6946 271.964 37.081 272.265 36.1775L275.3 27.5991H277.81L279.728 40.7511H277.709L277.687 40.7399Z" fill="white"/>
<path d="M284.179 40.7399V27.5879H291.341V29.0827H286.109V33.2325H291.118V34.6938H286.109V39.2005H291.341V40.7399H284.179Z" fill="white"/>
<path d="M304.292 40.7399L298.904 32.5185C298.324 31.6596 297.788 30.7002 297.387 29.8636H297.365C297.409 30.7449 297.465 31.76 297.465 33.2994L297.487 40.7399H295.613V27.5879H298.123L303.433 35.7089C303.991 36.5456 304.549 37.4826 305.028 38.3862H305.051C304.995 37.4715 304.95 35.932 304.95 33.7568L304.928 27.5879H306.824V40.7399H304.292Z" fill="white"/>
<path d="M315.481 29.1831V40.7399H313.562V29.1831H309.646V27.5879H319.463V29.1831H315.481Z" fill="white"/>
<path d="M130.605 67.6686C129.144 67.6686 128.051 67.624 127.036 67.624V54.472C128.118 54.472 129.847 54.4162 131.263 54.4162C135.636 54.4162 138.347 56.3349 138.347 60.8863C138.347 65.4376 135.056 67.6686 130.605 67.6686ZM130.962 55.9333C130.36 55.9333 129.601 55.9557 128.965 56.0114V66.0288C129.423 66.0511 130.259 66.1069 130.84 66.1069C134.075 66.1069 136.328 64.5117 136.328 61.0201C136.328 57.5285 134.532 55.9333 130.962 55.9333Z" fill="white"/>
<path d="M147.305 67.8248C143.768 67.8248 141.861 66.1515 141.861 63.1173V54.472H143.78V62.8496C143.78 65.181 145.141 66.2408 147.45 66.2408C150.127 66.2408 151.097 64.7237 151.097 62.5484V54.4832H152.994V62.6488C152.994 65.4264 151.354 67.836 147.305 67.836V67.8248Z" fill="white"/>
<path d="M168.678 67.8025C164.707 67.8025 161.929 65.5045 161.929 61.2767C161.929 57.3612 164.64 54.2935 169.135 54.2935C170.452 54.2935 171.712 54.472 173.006 54.8736L172.727 56.5915C171.511 56.1341 170.296 55.8553 169.057 55.8553C166.347 55.8553 163.948 57.5732 163.948 61.0647C163.948 64.3332 165.967 66.1515 168.957 66.1515C169.816 66.1515 170.675 65.9953 171.355 65.7946V60.9086H173.274V66.9993C171.857 67.5013 170.362 67.7802 168.667 67.7802L168.678 67.8025Z" fill="white"/>
<path d="M184.697 67.624L180.067 61.7787H179.989V67.624H178.071V54.472C178.852 54.4497 180.123 54.4162 181.663 54.4162C184.675 54.4162 186.337 55.6098 186.337 57.8074C186.337 60.1389 184.541 61.4775 182.109 61.6002C182.466 61.9572 182.867 62.4591 183.303 62.9946L187.118 67.624H184.686H184.697ZM181.406 55.8887C180.77 55.8887 180.369 55.911 179.989 55.9668V60.3954C180.391 60.4177 180.949 60.4512 181.484 60.4512C183.224 60.4512 184.34 59.5142 184.34 58.0528C184.34 56.5915 183.202 55.8999 181.406 55.8999V55.8887Z" fill="white"/>
<path d="M199.087 67.624L197.972 64.6902H191.825L190.687 67.624H188.769L193.956 54.472H196.109L201.218 67.624H199.087ZM195.696 58.7221C195.395 57.9413 195.116 57.1046 194.915 56.4688H194.893C194.714 57.1269 194.435 57.9301 194.134 58.7221L192.361 63.2512H197.447L195.707 58.7221H195.696Z" fill="white"/>
<path d="M212.975 67.624L207.587 59.4026C207.007 58.5437 206.472 57.5843 206.07 56.7477H206.048C206.104 57.6289 206.148 58.6441 206.148 60.1835L206.171 67.624H204.297V54.472H206.795L212.105 62.593C212.663 63.4296 213.221 64.3667 213.7 65.2703H213.723C213.667 64.3555 213.622 62.8161 213.622 60.6408L213.6 54.472H215.496V67.624H212.964H212.975Z" fill="white"/>
<path d="M224.153 67.6686C222.692 67.6686 221.598 67.624 220.583 67.624V54.472C221.665 54.472 223.394 54.4162 224.811 54.4162C229.184 54.4162 231.895 56.3349 231.895 60.8863C231.895 65.4376 228.604 67.6686 224.153 67.6686ZM224.51 55.9333C223.908 55.9333 223.149 55.9557 222.513 56.0114V66.0288C222.97 66.0511 223.807 66.1069 224.387 66.1069C227.622 66.1069 229.876 64.5117 229.876 61.0201C229.876 57.5285 228.08 55.9333 224.51 55.9333Z" fill="white"/>
<path d="M234.148 62.0799V60.5628H240.016V62.0799H234.148Z" fill="white"/>
<path d="M247.255 67.6686C245.783 67.6686 244.701 67.624 243.686 67.624V54.472C244.768 54.472 246.497 54.4162 247.914 54.4162C252.286 54.4162 254.997 56.3349 254.997 60.8863C254.997 65.4376 251.706 67.6686 247.255 67.6686ZM247.601 55.9333C246.999 55.9333 246.24 55.9557 245.604 56.0114V66.0288C246.062 66.0511 246.898 66.1069 247.478 66.1069C250.713 66.1069 252.967 64.5117 252.967 61.0201C252.967 57.5285 251.171 55.9333 247.601 55.9333Z" fill="white"/>
<path d="M263.944 67.8248C260.407 67.8248 258.5 66.1515 258.5 63.1173V54.472H260.418V62.8496C260.418 65.181 261.779 66.2408 264.089 66.2408C266.766 66.2408 267.725 64.7237 267.725 62.5484V54.4832H269.622V62.6488C269.622 65.4264 267.982 67.836 263.932 67.836L263.944 67.8248Z" fill="white"/>
<path d="M279.65 67.8025C275.5 67.8025 273.303 65.3707 273.303 61.3325C273.303 57.5397 275.378 54.327 280.186 54.327C281.167 54.327 282.283 54.4497 283.22 54.7063L283.041 56.4465C281.982 56.123 280.944 55.9445 279.929 55.9445C276.817 55.9445 275.355 58.2202 275.355 61.1317C275.355 64.3444 276.995 66.1181 280.107 66.1181C281.167 66.1181 282.305 65.8615 283.197 65.4376L283.354 67.1332C282.294 67.5682 281.056 67.8137 279.661 67.8137L279.65 67.8025Z" fill="white"/>
<path d="M295.992 67.624V61.656H288.909V67.624H286.99V54.472H288.909V60.0162H295.992V54.472H297.911V67.624H295.992Z" fill="white"/>
<path d="M302.953 67.624V54.472H310.115V55.9668H304.883V60.1166H309.892V61.5779H304.883V66.0846H310.115V67.624H302.953ZM305.831 52.9772L304.995 51.9175L308.286 49.1064L309.323 50.4227L305.831 52.9772Z" fill="white"/>
<path d="M323.312 67.6686C321.839 67.6686 320.757 67.624 319.742 67.624V54.472C320.824 54.472 322.553 54.4162 323.97 54.4162C328.343 54.4162 331.053 56.3349 331.053 60.8863C331.053 65.4376 327.763 67.6686 323.312 67.6686ZM323.669 55.9333C323.066 55.9333 322.308 55.9557 321.672 56.0114V66.0288C322.129 66.0511 322.966 66.1069 323.546 66.1069C326.781 66.1069 329.034 64.5117 329.034 61.0201C329.034 57.5285 327.238 55.9333 323.669 55.9333Z" fill="white"/>
<path d="M334.679 67.624V54.472H341.84V55.9668H336.609V60.1166H341.617V61.5779H336.609V66.0846H341.84V67.624H334.679Z" fill="white"/>
<path d="M351.467 67.624V54.472H353.386V66.0065H358.272V67.624H351.467Z" fill="white"/>
<path d="M366.393 67.8248C362.857 67.8248 360.96 66.1515 360.96 63.1173V54.472H362.879V62.8496C362.879 65.181 364.24 66.2408 366.549 66.2408C369.226 66.2408 370.197 64.7237 370.197 62.5484V54.4832H372.093V62.6488C372.093 65.4264 370.454 67.836 366.404 67.836L366.393 67.8248Z" fill="white"/>
<path d="M384.911 67.624L381.14 62.3364L377.347 67.624H374.971L380.058 61.0759L375.172 54.472H377.626L381.274 59.6369L385.022 54.472H387.276L382.423 60.9755L387.51 67.624H384.911Z" fill="white"/>
<path d="M390.756 67.624V54.472H397.918V55.9668H392.686V60.1166H397.695V61.5779H392.686V66.0846H397.918V67.624H390.756Z" fill="white"/>
<path d="M415.777 67.624L414.684 59.9381C414.483 58.421 414.383 57.3835 414.305 56.6696H414.282C414.126 57.2497 413.925 58.064 413.624 58.9229L410.612 67.624H408.515L405.737 59.4807C405.414 58.5437 405.035 57.4616 404.901 56.6696H404.879C404.8 57.6847 404.7 58.7221 404.522 59.9827L403.54 67.624H401.621L403.596 54.472H405.972L408.883 62.95C409.207 63.8647 409.486 64.7236 409.62 65.4487H409.642C409.843 64.5675 410.043 63.9539 410.345 63.0504L413.379 54.472H415.889L417.807 67.624H415.777Z" fill="white"/>
<path d="M425.839 67.6686C425.003 67.6686 423.664 67.6463 422.27 67.624V54.472C423.285 54.472 424.701 54.4162 426.442 54.4162C429.599 54.4162 430.87 55.7102 430.87 57.5732C430.87 58.9676 429.989 60.0719 428.494 60.6297V60.652C430.29 61.009 431.149 62.2249 431.149 63.6639C431.149 65.2033 430.234 67.6575 425.839 67.6575V67.6686ZM426.04 55.8553C425.404 55.8553 424.746 55.8553 424.188 55.8776V60.1277C424.69 60.15 425.203 60.15 425.382 60.15C427.557 60.15 428.873 59.3915 428.873 57.8186C428.873 56.6807 428.238 55.8441 426.04 55.8441V55.8553ZM425.438 61.4998C425.181 61.4998 424.556 61.4998 424.199 61.5221V66.0957C424.579 66.1738 425.136 66.2185 425.94 66.2185C428.171 66.2185 429.152 65.181 429.152 63.742C429.152 62.0018 427.557 61.4886 425.438 61.4886V61.4998Z" fill="white"/>
<path d="M440.241 67.8248C435.99 67.8248 434.094 65.0137 434.094 61.1763C434.094 56.8035 437.106 54.2712 440.642 54.2712C444.513 54.2712 446.833 56.6473 446.833 60.9532C446.833 65.2591 443.922 67.836 440.229 67.836L440.241 67.8248ZM440.464 55.911C438.166 55.911 436.135 57.6847 436.135 60.9643C436.135 63.7755 437.218 66.1515 440.363 66.1515C442.873 66.1515 444.792 64.4336 444.792 61.1428C444.792 57.852 443.152 55.911 440.464 55.911Z" fill="white"/>
<path d="M455.891 67.8248C452.355 67.8248 450.459 66.1515 450.459 63.1173V54.472H452.377V62.8496C452.377 65.181 453.738 66.2408 456.047 66.2408C458.725 66.2408 459.684 64.7237 459.684 62.5484V54.4832H461.581V62.6488C461.581 65.4264 459.941 67.836 455.891 67.836V67.8248Z" fill="white"/>
<path d="M473.171 67.624L468.541 61.7787H468.463V67.624H466.545V54.472C467.325 54.4497 468.597 54.4162 470.137 54.4162C473.148 54.4162 474.811 55.6098 474.811 57.8074C474.811 60.1389 473.015 61.4775 470.583 61.6002C470.94 61.9572 471.341 62.4591 471.776 62.9946L475.591 67.624H473.16H473.171ZM469.88 55.8887C469.244 55.8887 468.843 55.911 468.463 55.9668V60.3954C468.865 60.4177 469.423 60.4512 469.958 60.4512C471.698 60.4512 472.814 59.5142 472.814 58.0528C472.814 56.5915 471.676 55.8999 469.88 55.8999V55.8887Z" fill="white"/>
<path d="M484.404 67.8025C480.433 67.8025 477.655 65.5045 477.655 61.2767C477.655 57.3612 480.366 54.2935 484.861 54.2935C486.178 54.2935 487.438 54.472 488.732 54.8736L488.453 56.5915C487.237 56.1341 486.022 55.8553 484.783 55.8553C482.073 55.8553 479.674 57.5732 479.674 61.0647C479.674 64.3332 481.693 66.1515 484.683 66.1515C485.542 66.1515 486.401 65.9953 487.081 65.7946V60.9086H489V66.9993C487.583 67.5013 486.089 67.7802 484.393 67.7802L484.404 67.8025Z" fill="white"/>
<path d="M140.065 94.7646L138.894 86.6548C138.659 85.0596 138.559 84.0779 138.481 83.364H138.447C138.314 83.9106 138.113 84.6692 137.8 85.5616L134.722 94.7646H133.026L130.103 86.1528C129.769 85.1935 129.423 84.1672 129.267 83.364H129.244C129.189 84.4126 129.055 85.4724 128.899 86.811L127.939 94.7646H126.4L128.274 81.6126H130.159L133.16 90.5034C133.494 91.4627 133.762 92.3328 133.896 93.0579H133.93C134.119 92.1655 134.32 91.5743 134.655 90.6372L137.733 81.6126H139.686L141.638 94.7646H140.054H140.065Z" fill="white"/>
<path d="M145.386 83.3306C144.817 83.3306 144.371 82.9067 144.371 82.3377C144.371 81.7688 144.817 81.3449 145.386 81.3449C145.955 81.3449 146.401 81.7911 146.401 82.3377C146.401 82.8843 145.933 83.3306 145.386 83.3306ZM144.639 94.7646V85.0819H146.1V94.7646H144.639Z" fill="white"/>
<path d="M156.05 88.4843C156.05 86.9672 155.638 86.0859 154.243 86.0859C152.503 86.0859 151.276 87.8038 151.276 90.1018V94.7646H149.815V85.0819H151.254C151.254 85.7066 151.198 86.6437 151.097 87.2237L151.142 87.246C151.689 85.8405 152.916 84.8923 154.611 84.8923C156.831 84.8923 157.512 86.2978 157.512 88.0157V94.7758H156.05V88.4843Z" fill="white"/>
<path d="M161.951 83.3306C161.383 83.3306 160.936 82.9067 160.936 82.3377C160.936 81.7688 161.383 81.3449 161.951 81.3449C162.52 81.3449 162.967 81.7911 162.967 82.3377C162.967 82.8843 162.498 83.3306 161.951 83.3306ZM161.215 94.7646V85.0819H162.677V94.7646H161.215Z" fill="white"/>
<path d="M167.83 94.9431C167.105 94.9431 166.369 94.8651 165.789 94.7535L165.833 93.4037C166.458 93.5822 167.239 93.7161 167.998 93.7161C169.403 93.7161 170.374 93.0914 170.374 92.0762C170.374 89.7337 165.655 91.195 165.655 87.748C165.655 86.1305 166.982 84.9034 169.437 84.9034C170.039 84.9034 170.719 85.0038 171.322 85.1154L171.288 86.3871C170.641 86.1751 169.939 86.0524 169.28 86.0524C167.853 86.0524 167.161 86.6325 167.161 87.5918C167.161 89.9121 171.902 88.5847 171.902 91.8755C171.902 93.5934 170.385 94.932 167.853 94.932L167.83 94.9431Z" fill="white"/>
<path d="M177.758 94.9208C175.806 94.9208 175.248 94.0619 175.248 92.0539V86.2309H173.14V85.0819H175.248V81.8692L176.71 81.4565V85.0819H179.554V86.2309H176.71V91.4515C176.71 93.1918 177.022 93.638 178.171 93.638C178.662 93.638 179.164 93.5822 179.554 93.4595V94.7312C179.052 94.8427 178.361 94.9208 177.758 94.9208Z" fill="white"/>
<path d="M189.315 89.6221H182.845C182.745 92.5224 183.894 93.7384 186.058 93.7384C187.073 93.7384 188.144 93.4818 188.869 93.1137L189.003 94.3631C188.11 94.7312 187.017 94.9431 185.801 94.9431C182.879 94.9431 181.317 93.3591 181.317 89.9679C181.317 87.0676 182.879 84.9034 185.567 84.9034C188.255 84.9034 189.349 86.7552 189.349 88.897C189.349 89.0755 189.349 89.3209 189.304 89.6221H189.315ZM185.489 86.019C184.128 86.019 183.146 87.0118 182.912 88.5289H187.82C187.865 87.0229 186.961 86.019 185.478 86.019H185.489ZM186.002 83.4867L183.314 81.5234L184.128 80.5083L186.66 82.6724L186.002 83.4867Z" fill="white"/>
<path d="M196.856 86.3425C194.714 85.9967 193.699 87.6253 193.699 90.8826V94.7646H192.238V85.0819H193.677C193.677 85.7289 193.599 86.6771 193.465 87.5138L193.487 87.5361C193.878 86.1082 194.893 84.6692 196.912 84.9034L196.856 86.3425Z" fill="white"/>
<path d="M206.07 89.6221H199.6C199.5 92.5224 200.649 93.7384 202.813 93.7384C203.828 93.7384 204.899 93.4818 205.624 93.1137L205.758 94.3631C204.866 94.7312 203.772 94.9431 202.556 94.9431C199.634 94.9431 198.072 93.3591 198.072 89.9679C198.072 87.0676 199.634 84.9034 202.322 84.9034C205.011 84.9034 206.104 86.7552 206.104 88.897C206.104 89.0755 206.104 89.3209 206.059 89.6221H206.07ZM202.255 86.019C200.894 86.019 199.913 87.0118 199.678 88.5289H204.587C204.62 87.0229 203.728 86.019 202.244 86.019H202.255Z" fill="white"/>
<path d="M219.245 94.7646C219.245 94.1846 219.3 93.2475 219.423 92.6563L219.378 92.634C218.832 94.0173 217.605 94.932 216.043 94.932C213.645 94.932 212.473 93.1806 212.473 90.3472C212.473 86.9002 214.426 84.9481 217.449 84.9481C218.018 84.9481 218.575 84.9927 219.245 85.0485V80.5306H220.684V94.7535H219.245V94.7646ZM219.245 86.3425C218.586 86.1863 217.962 86.1082 217.337 86.1082C215.351 86.1082 214.024 87.313 214.024 90.2356C214.024 92.4221 214.76 93.7272 216.367 93.7272C218.296 93.7272 219.256 91.4627 219.256 89.756V86.3425H219.245Z" fill="white"/>
<path d="M231.493 89.6221H225.023C224.923 92.5224 226.072 93.7384 228.236 93.7384C229.251 93.7384 230.322 93.4818 231.047 93.1137L231.181 94.3631C230.288 94.7312 229.195 94.9431 227.979 94.9431C225.056 94.9431 223.495 93.3591 223.495 89.9679C223.495 87.0676 225.056 84.9034 227.745 84.9034C230.433 84.9034 231.527 86.7552 231.527 88.897C231.527 89.0755 231.527 89.3209 231.493 89.6221ZM227.667 86.019C226.306 86.019 225.324 87.0118 225.09 88.5289H229.998C230.043 87.0229 229.139 86.019 227.656 86.019H227.667Z" fill="white"/>
<path d="M238.822 94.7646V80.5417H240.283V94.7646H238.822Z" fill="white"/>
<path d="M243.005 84.5576C244.21 83.2301 244.232 82.3377 243.864 81.8246C243.373 81.1999 243.808 80.3186 244.589 80.3186C245.861 80.3186 246.419 82.5162 243.652 85.1154L243.005 84.5465V84.5576Z" fill="white"/>
<path d="M248.694 94.7646V81.6126H255.321V82.8174H250.2V87.3799H255.075V88.5847H250.2V93.5153H255.321V94.7646H248.694ZM251.45 80.5194L250.803 79.7051L253.335 77.541L254.138 78.5561L251.45 80.5194Z" fill="white"/>
<path d="M261.757 94.8874C259.593 94.8874 257.563 93.928 257.563 90.2691C257.563 87.0899 259.158 84.9481 262.315 84.9481C263.118 84.9481 263.91 85.0596 264.591 85.2827L264.434 86.5656C263.787 86.309 263.029 86.1417 262.215 86.1417C260.128 86.1417 259.102 87.6811 259.102 90.0237C259.102 92.0093 259.727 93.6491 262.069 93.6491C262.928 93.6491 263.865 93.4372 264.501 93.1025L264.635 94.3742C263.988 94.6308 262.94 94.8985 261.746 94.8985L261.757 94.8874Z" fill="white"/>
<path d="M270.257 94.9431C267.669 94.9431 265.985 93.3591 265.985 89.9679C265.985 87.2014 267.703 84.9034 270.603 84.9034C272.957 84.9034 274.887 86.2086 274.887 89.756C274.887 92.6452 273.113 94.9431 270.246 94.9431H270.257ZM270.469 86.1082C268.952 86.1082 267.502 87.2572 267.502 89.8452C267.502 92.4332 268.573 93.6826 270.469 93.6826C271.986 93.6826 273.37 92.5113 273.37 89.8452C273.37 87.5026 272.399 86.1082 270.469 86.1082Z" fill="white"/>
<path d="M283.9 94.7646V88.4843C283.9 86.9672 283.487 86.0859 282.093 86.0859C280.364 86.0859 279.126 87.8038 279.126 90.1018V94.7646H277.664V85.0819H279.103C279.103 85.7066 279.048 86.6437 278.947 87.2237L278.981 87.246C279.527 85.8405 280.754 84.8923 282.45 84.8923C284.67 84.8923 285.35 86.2978 285.35 88.0157V94.7758H283.889L283.9 94.7646Z" fill="white"/>
<path d="M292.378 94.9431C289.79 94.9431 288.106 93.3591 288.106 89.9679C288.106 87.2014 289.824 84.9034 292.724 84.9034C295.078 84.9034 297.008 86.2086 297.008 89.756C297.008 92.6452 295.234 94.9431 292.367 94.9431H292.378ZM292.59 86.1082C291.073 86.1082 289.623 87.2572 289.623 89.8452C289.623 92.4332 290.694 93.6826 292.59 93.6826C294.107 93.6826 295.49 92.5113 295.49 89.8452C295.49 87.5026 294.52 86.1082 292.59 86.1082Z" fill="white"/>
<path d="M312 94.7646V88.5066C312 87.0452 311.654 86.0859 310.249 86.0859C308.765 86.0859 307.348 87.6253 307.348 90.1352V94.7535H305.909V88.4731C305.909 87.1456 305.631 86.0747 304.158 86.0747C302.563 86.0747 301.258 87.748 301.258 90.1241V94.7423H299.796V85.0596H301.235C301.235 85.6843 301.191 86.599 301.079 87.2014L301.113 87.2237C301.659 85.7959 302.92 84.87 304.526 84.87C306.724 84.87 307.192 86.454 307.237 87.1903C307.583 86.2755 308.643 84.87 310.606 84.87C312.413 84.87 313.473 85.8405 313.473 88.0269V94.7535H312.011L312 94.7646Z" fill="white"/>
<path d="M317.901 83.3306C317.332 83.3306 316.886 82.9067 316.886 82.3377C316.886 81.7688 317.332 81.3449 317.901 81.3449C318.47 81.3449 318.916 81.7911 318.916 82.3377C318.916 82.8843 318.448 83.3306 317.901 83.3306ZM317.165 94.7646V85.0819H318.626V94.7646H317.165Z" fill="white"/>
<path d="M329.402 89.6221H322.932C322.832 92.5224 323.981 93.7384 326.145 93.7384C327.16 93.7384 328.231 93.4818 328.956 93.1137L329.09 94.3631C328.198 94.7312 327.104 94.9431 325.888 94.9431C322.966 94.9431 321.404 93.3591 321.404 89.9679C321.404 87.0676 322.966 84.9034 325.654 84.9034C328.343 84.9034 329.436 86.7552 329.436 88.897C329.436 89.0755 329.436 89.3209 329.402 89.6221ZM325.587 86.019C324.226 86.019 323.245 87.0118 323.01 88.5289H327.919C327.963 87.0229 327.06 86.019 325.576 86.019H325.587Z" fill="white"/>
<path d="M13.6317 78.6119C13.6317 78.6119 26.9287 89.4882 33.2983 79.5043C33.2983 79.5043 35.5182 75.9235 36.0537 72.1307C36.0537 72.1307 36.1429 68.6503 39.5676 66.7762C39.5676 66.7762 39.9468 71.7738 44.6097 73.8709C44.989 74.0383 45.346 74.2056 45.7364 74.1275C45.7364 74.1275 45.7475 73.8152 45.0894 73.4136C44.2862 72.9227 44.0966 73.1012 43.8846 72.9227C42.8137 72.008 41.5978 70.7586 41.5309 69.7435L44.7213 71.1044C44.7213 71.1044 46.8965 71.7738 47.1419 74.8749C47.1419 74.8749 47.4097 77.1506 48.6367 79.0916C48.6367 79.0916 41.1404 78.333 36.6337 86.666L36.0648 85.7289C36.0648 85.7289 35.9867 88.4396 34.3023 89.4101C34.3023 89.4101 33.9899 87.6699 32.8298 87.3799C32.8298 87.3799 32.629 90.2022 30.6211 91.3735C30.6211 91.3735 30.9557 89.6333 29.6171 88.8524C29.6171 88.8524 27.7765 92.7567 24.2403 92.6005C24.2403 92.6005 24.8984 91.2508 24.4299 89.3655C24.4299 89.3655 20.7933 92.8683 17.4914 91.4404C17.4914 91.4404 19.0196 90.2245 18.975 87.6142C18.975 87.6142 14.6691 90.046 10.6644 84.1226C10.6644 84.1226 11.7464 85.2269 15.2269 83.364C15.2269 83.364 13.0962 80.8541 13.5982 78.6007L13.6317 78.6119Z" fill="white"/>
<path d="M19.2762 20.0693C19.2762 20.0693 23.8052 20.9617 20.1686 28.9043C20.1686 28.9043 18.5177 35.14 22.0427 37.9511C22.0427 37.9511 22.5893 38.4754 23.0355 39.2898C23.0355 39.2898 18.5734 40.885 21.5965 49.0283C21.5965 49.0283 18.6627 48.1024 17.5472 46.1614C17.5472 46.1614 18.2834 45.8156 18.5957 44.3654C18.5957 44.3654 16.2531 45.3917 14.4125 42.9041L16.5543 41.4539C16.5543 41.4539 14.6691 41.3981 12.4715 38.3527L15.1153 37.293C15.1153 37.293 12.3265 36.8021 11.4006 33.991H13.8882C13.8882 33.991 11.7018 30.109 12.3265 27.9338C12.3265 27.9338 14.0221 29.4509 15.4277 29.5847C15.4277 29.5847 16.7886 27.6437 14.9257 25.4573C14.9257 25.4573 14.0221 23.7171 15.1376 21.2852C15.1376 21.2852 15.1599 21.698 16.7217 22.0215C16.7217 22.0215 18.3169 21.9992 19.2427 25.4461L19.5662 25.1226C19.5662 25.1226 18.0938 22.5012 19.2762 20.0693Z" fill="white"/>
<path d="M56.1665 67.5125L58.9776 67.267C58.9776 67.267 72.442 65.5045 72.23 47.8347C72.23 47.8347 71.8061 37.5272 64.2429 32.7082C63.6517 32.3289 62.5138 31.4811 61.2868 31.113C60.0374 30.7449 57.4494 30.176 55.3299 31.548C54.5267 32.0166 53.6789 33.1544 53.4335 33.9687C53.1769 34.7719 52.9092 37.0699 56.055 39.6802L57.2597 38.1965C57.2597 38.1965 55.0398 36.6237 55.698 34.9727C56.3673 33.3217 57.8621 33.4556 58.0183 33.4556C59.8254 33.3217 66.0054 33.7902 69.352 45.4474C69.352 45.4474 71.3376 54.5947 64.5552 61.6783C64.5552 61.6783 65.6708 57.3501 60.6844 49.9653C60.6844 49.9653 56.3004 43.7965 62.3353 36.1105L60.4166 34.8611C60.4166 34.8611 52.7419 43.908 59.0334 51.5828C59.0334 51.5828 63.9863 57.6066 61.9449 61.589C61.4875 62.4703 60.4836 63.5524 59.4015 63.8535C58.3083 64.1547 55.2183 64.8352 55.2183 64.8352L56.1888 67.5125H56.1665Z" fill="white"/>
<path d="M63.4062 31.2245C63.4062 31.2245 66.8086 27.019 77.116 25.937C77.116 25.937 77.7295 28.8373 72.0627 30.611C72.0627 30.611 72.3081 31.7042 77.2164 30.4771C77.2164 30.4771 75.2866 34.995 69.3631 32.8532C69.3631 32.8532 66.8755 31.9943 65.1241 32.6301L63.3951 31.2245H63.4062Z" fill="white"/>
<path d="M40.1699 12.2049C40.1699 12.2049 42.2113 13.1866 42.1221 16.9124L51.3028 20.259C51.3028 20.259 52.251 17.7714 55.8988 16.6001C55.8988 16.6001 55.5418 15.9754 53.11 16.3658C53.11 16.3658 52.6526 15.5515 51.2471 15.3395C51.2471 15.3395 50.7451 16.0311 51.3475 17.4478C51.3475 17.4478 50.02 18.1172 49.6853 18.4407C49.6853 18.4407 49.2726 17.4813 48.8152 16.7339C48.8152 16.7339 50.5443 16.2431 50.5554 14.8821C50.5554 14.8821 49.7857 15.2503 49.373 15.1276C49.373 15.1276 50.6893 13.3874 48.8487 11.9149C48.8487 11.9149 47.6216 12.7961 47.3874 14.5586C47.3874 14.5586 46.4503 13.8224 45.781 13.722C45.781 13.722 45.4129 14.581 45.9483 16.0981C45.9483 16.0981 45.491 16.8566 44.5428 16.9793C44.5428 16.9793 43.5165 16.5554 43.1595 15.2837L43.9069 15.2614C43.9069 15.2614 44.6432 14.8821 44.8663 14.4694C44.8663 14.4694 44.2862 14.0901 43.3603 14.1236L43.2934 13.8782L43.5053 13.8447C43.5053 13.8447 43.5723 11.569 40.1699 12.2049Z" fill="white"/>
<path d="M71.5272 93.8945C71.1033 92.9687 70.7464 91.8643 70.7464 91.8643L73.669 91.9201C70.9695 91.842 70.7798 87.1679 70.7798 87.1679C70.0882 83.2413 72.442 80.7649 72.442 80.7649C64.8341 80.9768 62.9712 76.2916 62.9712 76.2916C59.3904 72.8112 58.2079 64.534 58.2079 64.534C58.2079 64.534 58.0183 63.7755 57.7282 63.2735C57.4047 62.7157 57.2263 62.4591 56.4677 61.7006C55.3522 60.5739 51.3921 58.1198 50.8901 57.7628C48.6814 56.2011 47.5324 54.3939 47.5324 54.3939C46.2272 56.0449 44.4982 56.4688 44.4982 56.4688L44.2862 55.911C51.5483 51.3151 48.7037 44.2204 48.7037 44.2204C48.9826 42.7367 50.1315 40.7623 50.1315 40.7623C55.2518 33.9241 51.6821 24.1856 51.6821 24.1856C53.0988 21.8765 51.2582 21.5753 51.2582 21.5753C49.3841 21.1737 49.3061 22.055 49.3061 22.055L49.0383 22.0326L48.9268 21.7984L43.695 19.8797C41.9994 18.965 41.1404 19.1992 41.1404 19.1992C41.04 20.2032 41.3189 20.6717 41.3189 20.6717C41.7094 20.9729 42.189 20.8725 42.189 20.8725C44.0631 20.3482 44.9332 21.7872 44.9332 21.7872L44.6432 22.0661C44.1189 21.486 43.5834 21.5195 43.5834 21.5195C42.2671 21.3522 42.334 22.1553 42.334 22.1553C41.8767 22.78 41.6759 22.0438 41.6759 22.0438L41.5086 21.4079C40.0807 21.0956 40.3038 19.1658 40.3038 19.1658C37.8943 19.2996 35.6409 20.1028 35.6409 20.1028C34.8154 20.3817 35.0274 20.9729 35.0274 20.9729L35.7302 21.9657L35.3732 23.3936C34.5589 25.5354 36.8568 25.6135 36.8568 25.6135L40.0472 25.6469C42.5348 26.1489 40.8281 27.7664 40.8281 27.7664C40.8839 30.5218 39.3333 29.9305 39.3333 29.9305C37.1803 28.3019 36.0202 29.7521 36.0202 29.7521C35.362 31.1576 36.9461 31.1688 36.9461 31.1688C40.1365 31.2469 38.1397 33.5894 38.1397 33.5894C37.4034 35.3408 35.3063 35.0173 35.3063 35.0173C30.2529 34.5042 29.3605 36.9472 29.3605 36.9472C27.5422 38.8659 27.743 44.2873 27.743 44.2873C26.449 41.0634 27.9103 37.2484 27.9103 37.2484C23.3256 38.8659 24.9654 47.3996 24.9654 47.3996C22.8236 42.8148 24.2849 40.026 24.2849 40.026C20.1017 40.6061 21.3622 46.7191 21.3622 46.7191L22.9463 50.59L18.6627 52.8099C15.2046 54.7063 13.0628 52.9549 13.0628 52.9549C6.81584 47.1765 0 52.7095 0 52.7095C3.36888 55.0186 7.15049 53.9589 7.15049 53.9589C6.22461 55.3756 2.33144 57.1046 2.33144 57.1046C8.95764 59.715 10.8875 56.7031 10.8875 56.7031C11.7464 59.4026 10.274 60.9532 10.274 60.9532C12.8285 61.6337 15.9185 58.4656 15.9185 58.4656C15.6396 59.9492 14.5129 61.1763 14.5129 61.1763C16.8667 61.1317 19.4993 58.1421 19.4993 58.1421C19.6778 59.6257 18.685 60.7189 18.685 60.7189C21.8865 60.1723 23.7048 57.2831 23.7048 57.2831C23.8164 58.8895 22.8905 60.2281 22.8905 60.2281C24.7311 59.9938 26.0697 58.4879 26.0697 58.4879C22.5558 55.8106 23.4036 53.8473 23.4036 53.8473C24.4634 58.1198 28.1781 58.7668 28.1781 58.7668C31.1565 58.2425 32.986 53.3565 32.986 53.3565C35.3063 48.5151 38.1397 49.006 38.1397 49.006C34.7373 50.3334 34.4919 52.4752 34.4919 52.4752C33.2202 57.5955 31.3015 58.2759 31.3015 58.2759C31.9485 60.2281 36.1875 61.3102 36.1875 61.3102C37.2696 61.8344 38.8759 62.6822 39.6791 63.1061C46.5842 66.6423 47.1977 72.8893 47.1977 72.8893C48.2352 79.4932 53.4112 81.0326 53.4112 81.0326C63.5178 84.3457 62.7258 91.485 62.7258 91.485C62.2015 102.205 55.6757 106.199 55.6757 106.199L55.8542 106.232C57.7059 106.801 58.8326 106.11 58.8326 106.11C59.3904 107.671 58.8772 108.954 58.8772 108.954C64.2206 108.162 66.9425 102.35 66.9425 102.35C68.3703 104.168 70.4006 104.224 70.4006 104.224C68.9727 102.004 69.4078 97.3527 69.4078 97.3527L71.4603 98.6913L70.4452 96.2037L70.0659 94.6196C70.8356 95.4005 72.5089 96.0029 72.5089 96.0029C72.4197 95.5455 71.9288 94.8316 71.5049 93.9169L71.5272 93.8945ZM42.8472 22.5012C42.8472 22.5012 43.1707 22.1442 43.3157 22.5458L43.4161 22.702L43.2265 22.8024C43.2265 22.8024 43.0257 22.7577 42.6464 22.9808C42.6464 22.9808 42.2783 23.1816 42.044 22.7466L42.836 22.49L42.8472 22.5012ZM36.9461 57.2497L34.9828 57.9524L34.3469 57.774L34.5142 57.6066L35.3509 57.4505C37.7492 56.1007 38.8759 51.8952 38.8759 51.8952C40.5827 47.857 43.5165 47.5112 43.5165 47.5112L43.7842 47.857L43.3157 48.0466C40.3707 49.2179 40.0026 52.4418 40.0026 52.4418C39.8799 56.5692 36.9349 57.2385 36.9349 57.2385L36.9461 57.2497ZM39.7795 56.9039L39.4337 56.5134C42.2894 55.4425 43.0814 52.2744 43.0814 52.2744C44.1077 46.998 47.0192 46.9422 47.0192 46.9422L46.6511 47.4108C44.6878 48.1805 44.3308 51.7167 44.3308 51.7167C44.197 56.2234 39.7907 56.915 39.7907 56.915L39.7795 56.9039Z" fill="white"/>
<path d="M39.9691 66.5531C39.9691 66.5531 42.7356 65.1252 44.3197 68.2264L45.7029 70.6805C45.7029 70.6805 46.5396 71.9299 46.5953 72.2757C46.5953 72.2757 46.0487 71.0487 43.7842 70.357C43.7842 70.357 40.1922 69.0853 39.9691 66.5643V66.5531Z" fill="white"/>
<path d="M42.1667 17.6486L42.1556 18.1506L49.518 20.9729L50.4216 20.4932L42.1667 17.6486Z" fill="white"/>
<path d="M31.1231 21.3745C31.1231 21.3745 31.2904 27.1306 36.511 27.0525C36.511 27.0525 37.1022 26.3943 40.4265 28.1011L40.2034 28.8819C40.2034 28.8819 38.9875 27.5879 36.6226 28.0118C36.6226 28.0118 33.3429 29.2166 31.1342 27.4987C31.1342 27.4987 27.7319 24.6987 31.1119 21.3745H31.1231Z" fill="white"/>
<path d="M101.1 0.235352H98.8687V121.939H101.1V0.235352Z" fill="white"/>
</svg>
