<svg width="55" height="56" viewBox="0 0 55 56" fill="none" xmlns="http://www.w3.org/2000/svg">
<path d="M19.8302 44.3882C19.6802 44.1982 19.4802 44.0382 19.2402 43.9082C19.0002 43.7882 18.7602 43.7182 18.5102 43.7082C18.2702 43.6982 18.0302 43.7282 17.8202 43.8182C17.6102 43.9082 17.4002 44.0282 17.2202 44.1882C17.0402 44.3482 16.8902 44.5482 16.7702 44.7782V44.7982C16.6402 45.0282 16.5702 45.2682 16.5502 45.5082C16.5202 45.7482 16.5502 45.9882 16.6102 46.2182C16.6802 46.4482 16.7802 46.6582 16.9302 46.8582C17.0802 47.0482 17.2802 47.2082 17.5202 47.3382C17.7602 47.4582 18.0002 47.5282 18.2502 47.5382C18.4902 47.5382 18.7202 47.5082 18.9402 47.4282C19.1602 47.3482 19.3602 47.2282 19.5402 47.0582C19.7202 46.8882 19.8702 46.6982 19.9802 46.4682V46.4482C20.1102 46.2182 20.1802 45.9782 20.2002 45.7382C20.2302 45.4982 20.2002 45.2582 20.1502 45.0282C20.0902 44.7982 19.9802 44.5882 19.8302 44.3882Z" fill="white"/>
<path d="M46.2502 41.4982L43.0502 41.0682L44.1002 44.1182L42.7802 45.7282L37.2902 41.2382L38.5302 39.7282L41.6802 42.3082L40.6802 39.1482L40.7102 39.1182L43.9802 39.4682L40.8402 36.8982L42.0702 35.3982L47.5602 39.8882L46.2402 41.4982H46.2502ZM38.2702 48.5582L35.8602 46.8282L35.6102 49.7882L33.6102 50.7082L34.2102 45.5782L33.0802 43.1382L34.8702 42.3082L35.9802 44.7182L40.2902 47.6182L38.2602 48.5582H38.2702ZM30.0902 47.7982V47.8182C30.0802 48.3282 29.9702 48.8082 29.7702 49.2582C29.5702 49.6982 29.3002 50.0882 28.9602 50.4182C28.6202 50.7482 28.2202 50.9982 27.7602 51.1782C27.3002 51.3582 26.8002 51.4382 26.2602 51.4282C25.9002 51.4282 25.5602 51.3782 25.2702 51.2982C24.9702 51.2182 24.7002 51.1082 24.4602 50.9782C24.2202 50.8382 24.0002 50.6782 23.8002 50.4882C23.6002 50.2982 23.4302 50.0982 23.2802 49.8782L24.7902 48.7682C24.9902 49.0282 25.2002 49.2382 25.4402 49.3882C25.6802 49.5382 25.9702 49.6282 26.3202 49.6282C26.5702 49.6282 26.8002 49.5882 27.0102 49.4982C27.2202 49.4082 27.4002 49.2782 27.5502 49.1082C27.7002 48.9482 27.8202 48.7482 27.9102 48.5182C28.0002 48.2882 28.0502 48.0482 28.0602 47.7882V47.7682C28.0602 47.5082 28.0302 47.2582 27.9502 47.0182C27.8702 46.7782 27.7602 46.5782 27.6202 46.4082C27.4702 46.2382 27.3002 46.0982 27.1002 45.9982C26.9002 45.8982 26.6702 45.8382 26.4202 45.8382C26.2402 45.8382 26.0702 45.8482 25.9202 45.8882C25.7702 45.9282 25.6302 45.9782 25.5002 46.0582C25.3702 46.1382 25.2502 46.2182 25.1402 46.3182C25.0302 46.4182 24.9102 46.5382 24.8002 46.6582L23.3502 45.5682C23.5202 45.3382 23.7102 45.1382 23.9202 44.9482C24.1302 44.7582 24.3502 44.5982 24.6102 44.4582C24.8702 44.3182 25.1502 44.2182 25.4702 44.1482C25.7902 44.0782 26.1402 44.0382 26.5302 44.0482C27.0402 44.0582 27.5102 44.1682 27.9502 44.3582C28.3902 44.5482 28.7702 44.8182 29.0902 45.1482C29.4102 45.4882 29.6602 45.8782 29.8402 46.3282C30.0202 46.7782 30.1102 47.2682 30.0902 47.7982ZM22.1802 45.9382C22.1502 46.4282 22.0202 46.8882 21.7902 47.3482V47.3682C21.5502 47.8182 21.2502 48.1982 20.8702 48.5182C20.4902 48.8282 20.0802 49.0582 19.6202 49.1982C19.1602 49.3382 18.6802 49.3882 18.1802 49.3482C17.6802 49.3082 17.1802 49.1682 16.7002 48.9182C16.2102 48.6682 15.8002 48.3582 15.4802 47.9682C15.1502 47.5882 14.9102 47.1682 14.7602 46.7182C14.6102 46.2682 14.5502 45.8082 14.5802 45.3182C14.6102 44.8382 14.7402 44.3682 14.9702 43.9182V43.8982C15.2102 43.4482 15.5102 43.0682 15.8902 42.7482C16.2702 42.4382 16.6802 42.2082 17.1402 42.0682C17.6002 41.9282 18.0802 41.8782 18.5802 41.9182C19.0802 41.9582 19.5802 42.0982 20.0702 42.3482C20.5602 42.5982 20.9702 42.9082 21.2902 43.2982C21.6102 43.6882 21.8602 44.0982 22.0102 44.5482C22.1602 44.9982 22.2202 45.4582 22.1902 45.9482M9.60022 43.1882L10.8602 38.5982L7.85022 40.8382L6.69022 39.2882L12.3802 35.0482L13.4102 36.4282L12.1102 41.1882L15.2302 38.8582L16.3902 40.4082L10.7002 44.6482L9.60022 43.1782V43.1882ZM4.82022 34.0682L7.94022 30.4782L4.26022 31.1982L3.89022 29.2982L10.8502 27.9382L11.1802 29.6282L7.94022 33.3582L11.7602 32.6182L12.1302 34.5182L5.17022 35.8782L4.82022 34.0782V34.0682ZM5.30022 20.2182L6.93022 20.5782L6.11022 24.2482L7.16022 24.4782L7.90022 21.1582L9.41022 21.4982L8.67022 24.8182L9.77022 25.0682L10.6002 21.3482L12.2302 21.7082L10.9802 27.3182L4.06022 25.7782L5.30022 20.2182ZM7.88022 15.6782C7.99022 15.1982 8.20022 14.7382 8.52022 14.2982C8.73022 13.9982 8.95022 13.7482 9.18022 13.5482C9.41022 13.3482 9.65022 13.1882 9.90022 13.0582C10.1502 12.9382 10.4102 12.8382 10.6702 12.7882C10.9402 12.7282 11.2002 12.6982 11.4702 12.6982L11.5402 14.5682C11.2102 14.5882 10.9202 14.6482 10.6602 14.7582C10.4002 14.8682 10.1702 15.0682 9.97022 15.3482C9.83022 15.5482 9.73022 15.7682 9.69022 15.9882C9.65022 16.2182 9.66022 16.4382 9.71022 16.6582C9.76022 16.8782 9.86022 17.0882 9.99022 17.2882C10.1202 17.4882 10.3002 17.6682 10.5102 17.8182H10.5302C10.7402 17.9882 10.9702 18.0882 11.2102 18.1582C11.4502 18.2282 11.6802 18.2482 11.9002 18.2282C12.1202 18.2082 12.3402 18.1382 12.5302 18.0282C12.7302 17.9182 12.9002 17.7582 13.0502 17.5582C13.1602 17.4082 13.2402 17.2582 13.2902 17.1182C13.3502 16.9682 13.3802 16.8282 13.3902 16.6782C13.4002 16.5282 13.3902 16.3782 13.3702 16.2282C13.3502 16.0782 13.3202 15.9182 13.2802 15.7582L15.0002 15.1682C15.0902 15.4382 15.1602 15.7182 15.2002 15.9882C15.2402 16.2682 15.2502 16.5482 15.2202 16.8382C15.1902 17.1282 15.1202 17.4182 15.0002 17.7282C14.8802 18.0282 14.7102 18.3382 14.4802 18.6582C14.1902 19.0682 13.8402 19.4082 13.4302 19.6582C13.0202 19.9182 12.5902 20.0882 12.1302 20.1582C11.6702 20.2382 11.2102 20.2182 10.7302 20.1182C10.2502 20.0182 9.80022 19.8082 9.37022 19.5082H9.35022C8.93022 19.1982 8.59022 18.8382 8.34022 18.4282C8.08022 18.0082 7.92022 17.5782 7.83022 17.1082C7.74022 16.6382 7.76022 16.1682 7.87022 15.6882M17.6502 6.8382L18.5602 8.2982L16.7502 9.4282L19.5902 13.9882L17.9202 15.0282L15.0802 10.4682L13.2702 11.5982L12.3602 10.1382L17.6402 6.8382H17.6502ZM21.9002 5.5882L23.8302 12.4182L21.9302 12.9582L20.0002 6.1282L21.9002 5.5882ZM26.4302 4.9482L27.9002 9.4882L29.6602 5.0482L31.8202 5.1182L28.7102 12.1682L26.8902 12.1082L24.2402 4.8682L26.4402 4.9382L26.4302 4.9482ZM35.9802 6.6682L33.5902 13.3482L31.7302 12.6782L34.1202 5.9982L35.9802 6.6682ZM38.2702 7.5282L43.3202 11.1682L42.3102 12.5682L40.5802 11.3182L37.4402 15.6782L35.8502 14.5282L38.9902 10.1682L37.2602 8.9282L38.2702 7.5282ZM46.2002 14.7482L44.7702 17.3482L47.7402 17.2382L48.9002 19.1082L43.7302 19.1282L41.4402 20.5382L40.4002 18.8582L42.6602 17.4582L45.0202 12.8282L46.2002 14.7282V14.7482ZM39.0902 29.9282C38.2302 35.6482 33.2902 40.0382 27.3302 40.0382C20.7602 40.0382 15.4402 34.7082 15.4402 28.1482C15.4402 21.5882 20.7702 16.2482 27.3302 16.2482C33.2002 16.2482 38.0802 20.4982 39.0502 26.0982L54.2102 23.7682C52.1202 10.8082 40.8802 0.908203 27.3302 0.908203C12.2902 0.908203 0.10022 13.0982 0.10022 28.1382C0.10022 43.1782 12.2902 55.3682 27.3302 55.3682C40.9202 55.3682 52.1802 45.4182 54.2302 32.4082L39.0902 29.9182V29.9282Z" fill="white"/>
</svg>
