<?xml version="1.0" encoding="UTF-8"?>
<svg id="Layer_1" data-name="Layer 1" xmlns="http://www.w3.org/2000/svg" viewBox="0 0 681.39 397.8">
  <defs>
    <style>
      .cls-1 {
        fill: #1d1d1b;
      }

      .cls-2 {
        fill: #e30613;
      }

      .cls-3 {
        fill: #009fe3;
      }
    </style>
  </defs>
  <g>
    <g>
      <polygon class="cls-2" points="238.95 131.72 250.92 131.72 262.89 143.69 262.89 155.66 250.92 155.66 238.95 143.69 238.95 131.72"/>
      <polygon class="cls-3" points="298.8 131.72 286.83 131.72 274.86 143.69 274.86 155.66 286.83 155.66 298.8 143.69 298.8 131.72"/>
      <polygon class="cls-2" points="274.86 167.63 286.83 167.63 298.8 179.6 298.8 191.57 286.83 191.57 274.86 179.6 274.86 167.63"/>
      <polygon class="cls-3" points="262.89 167.63 250.92 167.63 238.95 179.6 238.95 191.57 250.92 191.57 262.89 179.6 262.89 167.63"/>
    </g>
    <g>
      <polygon class="cls-2" points="310.77 131.72 322.74 131.72 334.71 143.69 334.71 155.66 322.74 155.66 310.77 143.69 310.77 131.72"/>
      <polygon class="cls-3" points="370.62 131.72 358.65 131.72 346.68 143.69 346.68 155.66 358.65 155.66 370.62 143.69 370.62 131.72"/>
      <polygon class="cls-2" points="346.68 167.63 358.65 167.63 370.62 179.6 370.62 191.57 358.65 191.57 346.68 179.6 346.68 167.63"/>
      <polygon class="cls-3" points="334.71 167.63 322.74 167.63 310.77 179.6 310.77 191.57 322.74 191.57 334.71 179.6 334.71 167.63"/>
    </g>
    <g>
      <polygon class="cls-2" points="382.59 131.72 394.56 131.72 406.53 143.69 406.53 155.66 394.56 155.66 382.59 143.69 382.59 131.72"/>
      <polygon class="cls-3" points="442.44 131.72 430.47 131.72 418.5 143.69 418.5 155.66 430.47 155.66 442.44 143.69 442.44 131.72"/>
      <polygon class="cls-2" points="418.5 167.63 430.47 167.63 442.44 179.6 442.44 191.57 430.47 191.57 418.5 179.6 418.5 167.63"/>
      <polygon class="cls-3" points="406.53 167.63 394.56 167.63 382.59 179.6 382.59 191.57 394.56 191.57 406.53 179.6 406.53 167.63"/>
    </g>
  </g>
  <g>
    <g>
      <g>
        <polygon class="cls-1" points="131.73 231.7 131.73 209.54 136.87 209.54 136.87 227.02 145.76 227.02 145.76 231.7 131.73 231.7"/>
        <path class="cls-1" d="M159.87,232.07c-5.96,0-9.28-3.2-9.28-9.37v-13.15h5.14v12.79c0,3.14,1.33,5.05,4.26,5.05s4.23-1.91,4.23-5.05v-12.79h5.14v13.15c0,6.17-3.54,9.37-9.49,9.37"/>
        <polygon class="cls-1" points="202.94 231.7 202.94 209.54 216.97 209.54 216.97 214.26 208.08 214.26 208.08 218.22 216.19 218.22 216.19 222.69 208.08 222.69 208.08 227.02 216.97 227.02 216.97 231.7 202.94 231.7"/>
        <polygon class="cls-1" points="242.55 231.7 242.28 220.82 236.14 228.59 235.6 228.59 229.4 220.82 229.18 231.7 224.23 231.7 225.25 209.39 225.95 209.33 235.99 222 245.78 209.33 246.48 209.39 247.54 231.7 242.55 231.7"/>
        <g>
          <path class="cls-1" d="M262.02,222.21c-.79,0-1.42.03-1.93.09v5.14c.73.06,1.12.09,2.15.09,2.6,0,3.84-1,3.84-2.66s-1.33-2.66-4.05-2.66M262.41,213.8c-.94,0-1.6.09-2.33.21v4.63c.57.06.97.09,1.9.09,2.48,0,3.72-.91,3.72-2.51,0-1.33-1.12-2.42-3.3-2.42M261.71,231.91c-1.93,0-4.44-.18-6.62-.45v-21.65c1.6-.24,4.38-.48,6.2-.48,6.44,0,9.71,2.87,9.71,5.96,0,2.33-1.3,3.9-3.81,4.93,3.02.91,4.44,2.66,4.44,5.2,0,3.45-3.26,6.5-9.92,6.5"/>
          <path class="cls-1" d="M288.63,213.77c-3.51,0-5.87,2.87-5.87,6.86s2.36,6.86,5.87,6.86,5.87-2.9,5.87-6.86-2.36-6.86-5.87-6.86M288.54,232.07c-6.86,0-11.25-4.93-11.25-11.43s4.6-11.46,11.46-11.46,11.25,4.93,11.25,11.46-4.63,11.43-11.46,11.43"/>
          <path class="cls-1" d="M315.7,232.07c-5.96,0-9.28-3.2-9.28-9.37v-13.15h5.14v12.79c0,3.14,1.33,5.05,4.26,5.05s4.23-1.91,4.23-5.05v-12.79h5.14v13.15c0,6.17-3.54,9.37-9.49,9.37"/>
          <path class="cls-1" d="M340.36,213.98c-.79,0-1.27.03-2,.15v6.11c.67.06,1.03.09,1.63.09,2.45,0,4.02-1.18,4.02-3.42,0-1.84-1.45-2.93-3.66-2.93M344.92,231.7l-3.78-7.23c-.3.03-.57.03-.88.03-.76,0-1.18-.03-1.91-.06v7.26h-5.14v-21.95c1.87-.21,3.93-.36,6.53-.36,6.89,0,9.62,3.3,9.62,7.35,0,2.63-1.42,4.99-3.81,6.41l5.2,8.56h-5.84Z"/>
          <path class="cls-1" d="M375.49,219.25v10.58c-2.45,1.42-5.05,2.24-8.41,2.24-6.5,0-11.64-4.66-11.64-11.43s5.2-11.46,11.91-11.46c2.9,0,5.23.75,7.44,1.9l-2.15,4.14c-1.57-.82-3.26-1.24-4.96-1.24-4.41,0-6.77,2.75-6.77,6.65,0,4.23,2.84,6.86,6.47,6.86,1.63,0,2.45-.18,3.27-.6v-3.27h-4.44v-4.38h9.28Z"/>
        </g>
      </g>
      <path class="cls-1" d="M190.38,231.7l-4.44-7.29-4.51,7.29h-6.05l7.29-10.82-7.29-11.34h6.14l4.48,7.32,4.51-7.32h6.02l-7.29,10.82,7.29,11.34h-6.14Z"/>
    </g>
    <g>
      <path class="cls-1" d="M399.91,225.14c-.73,0-1.21-.03-1.9-.06v6.62h-5.14v-21.95c2.27-.24,4.32-.36,6.17-.36,6.41,0,9.86,3.42,9.86,7.89s-3.11,7.86-8.98,7.86ZM399.91,214.2c-.67,0-1.12.03-1.9.12v6.32c.73.03,1.06.06,1.54.06,2.72,0,4.08-1.18,4.08-3.33,0-1.78-1.18-3.17-3.72-3.17Z"/>
      <path class="cls-1" d="M426.54,231.7l-1.66-4.02h-7.65l-1.66,4.02h-5.23l10.43-22.35h.7l10.43,22.35h-5.35ZM421.06,218.43l-2.21,5.32h4.38l-2.18-5.32Z"/>
      <path class="cls-1" d="M441.36,231.88h-.6l-10.58-22.35h5.9l5.05,11.97,5.05-11.97h5.78l-10.58,22.35Z"/>
      <path class="cls-1" d="M457.07,231.7v-22.16h5.14v22.16h-5.14Z"/>
      <path class="cls-1" d="M470.07,231.7v-22.16h5.14v17.48h8.89v4.69h-14.03Z"/>
      <path class="cls-1" d="M489.63,231.7v-22.16h5.14v22.16h-5.14Z"/>
      <path class="cls-1" d="M512.67,232.07c-6.86,0-11.25-4.93-11.25-11.43s4.6-11.46,11.46-11.46,11.25,4.93,11.25,11.46-4.63,11.43-11.46,11.43ZM512.76,213.77c-3.51,0-5.87,2.87-5.87,6.86s2.36,6.86,5.87,6.86,5.87-2.9,5.87-6.86-2.36-6.86-5.87-6.86Z"/>
      <path class="cls-1" d="M549.14,232.13l-13.37-12v11.58h-5.14v-22.47l.7-.12,13.18,11.91v-11.49h5.14v22.5l-.51.09Z"/>
    </g>
  </g>
  <g>
    <path class="cls-1" d="M224.21,266.1v-16.44h10.41v3.5h-6.59v2.94h6.01v3.32h-6.01v3.21h6.59v3.48h-10.41Z"/>
    <path class="cls-1" d="M249.68,266.1l-3.3-5.41-3.34,5.41h-4.49l5.41-8.03-5.41-8.41h4.55l3.32,5.43,3.34-5.43h4.46l-5.41,8.03,5.41,8.41h-4.55Z"/>
    <path class="cls-1" d="M263.52,261.24c-.54,0-.9-.02-1.41-.04v4.91h-3.81v-16.28c1.68-.18,3.21-.27,4.58-.27,4.76,0,7.31,2.53,7.31,5.85s-2.31,5.83-6.66,5.83ZM263.52,253.12c-.49,0-.83.02-1.41.09v4.69c.54.02.79.04,1.14.04,2.02,0,3.03-.88,3.03-2.47,0-1.32-.88-2.36-2.76-2.36Z"/>
    <path class="cls-1" d="M282.41,266.37c-5.09,0-8.34-3.66-8.34-8.48s3.41-8.5,8.5-8.5,8.34,3.66,8.34,8.5-3.43,8.48-8.5,8.48ZM282.48,252.8c-2.6,0-4.35,2.13-4.35,5.09s1.75,5.09,4.35,5.09,4.35-2.15,4.35-5.09-1.75-5.09-4.35-5.09Z"/>
    <path class="cls-1" d="M301.35,266.1v-2.49c2.2-1.88,3.27-2.83,4.73-4.4,1.1-1.19,2.31-2.87,2.31-4.4,0-1.08-.65-2.15-2.47-2.15-1.3,0-2.24.54-3.16,1.14l-1.41-2.96c1.73-1.08,3.12-1.46,5.16-1.46,3.99,0,5.83,2.29,5.83,5.07,0,1.5-.9,3.23-2.18,4.82-.85,1.05-2,2.11-3.36,3.41h5.94v3.41h-11.39Z"/>
    <path class="cls-1" d="M323.58,266.37c-4.62,0-7.04-3.86-7.04-8.48s2.44-8.5,7.04-8.5,7.04,3.88,7.04,8.5-2.51,8.48-7.04,8.48ZM323.58,252.67c-1.75,0-2.87,1.73-2.87,5.23s1.12,5.23,2.87,5.23,2.87-1.73,2.87-5.23-1.12-5.23-2.87-5.23Z"/>
    <path class="cls-1" d="M333.97,266.1v-2.49c2.2-1.88,3.27-2.83,4.73-4.4,1.1-1.19,2.31-2.87,2.31-4.4,0-1.08-.65-2.15-2.47-2.15-1.3,0-2.24.54-3.16,1.14l-1.41-2.96c1.73-1.08,3.12-1.46,5.16-1.46,3.99,0,5.83,2.29,5.83,5.07,0,1.5-.9,3.23-2.18,4.82-.85,1.05-2,2.11-3.36,3.41h5.94v3.41h-11.39Z"/>
    <path class="cls-1" d="M353.86,266.37c-1.48,0-3.03-.27-4.42-.74l.65-3.16c1.08.43,2.26.7,3.48.7,2.22,0,3.48-.83,3.48-2.13,0-1.21-1.08-2.35-3.48-2.35-.79,0-2.33.13-3.21.43l-.25-.29v-9.15h10.23v3.41h-6.42v2.53c.65-.04,1.1-.07,1.41-.07,3.86,0,5.65,2.24,5.65,5.07,0,3.23-2.6,5.76-7.13,5.76Z"/>
    <path class="cls-1" d="M379.98,266.37c-5.09,0-8.34-3.66-8.34-8.48s3.41-8.5,8.5-8.5,8.34,3.66,8.34,8.5-3.43,8.48-8.5,8.48ZM380.05,252.8c-2.6,0-4.35,2.13-4.35,5.09s1.75,5.09,4.35,5.09,4.35-2.15,4.35-5.09-1.75-5.09-4.35-5.09Z"/>
    <path class="cls-1" d="M397.59,266.37c-1.86,0-4.1-.74-5.54-1.68l1.05-3.45c1.32.96,3.05,1.59,4.6,1.59,1.35,0,1.86-.63,1.86-1.44,0-.85-.43-1.44-2.94-2.44-2.89-1.17-3.9-2.85-3.9-4.82,0-2.4,1.95-4.73,5.79-4.73,1.79,0,3.63.63,4.6,1.28l-.96,3.41c-.94-.65-2.47-1.35-3.63-1.35-1.39,0-1.95.65-1.95,1.32,0,1.08.83,1.44,2.89,2.31,3.07,1.3,3.99,2.78,3.99,4.89,0,2.62-1.91,5.11-5.85,5.11Z"/>
    <path class="cls-1" d="M417.97,266.1l-1.23-2.98h-5.67l-1.23,2.98h-3.88l7.74-16.58h.52l7.74,16.58h-3.97ZM413.91,256.26l-1.64,3.95h3.25l-1.62-3.95Z"/>
    <path class="cls-1" d="M435.52,266.1l-6.03-7.69v7.69h-3.81v-16.44h3.81v7.16l5.76-7.16h4.51l-6.75,7.83,7.11,8.61h-4.6Z"/>
    <path class="cls-1" d="M455.23,266.1l-1.23-2.98h-5.67l-1.23,2.98h-3.88l7.74-16.58h.52l7.74,16.58h-3.97ZM451.17,256.26l-1.64,3.95h3.25l-1.62-3.95Z"/>
  </g>
</svg>