<svg width="171" height="44" viewBox="0 0 171 44" fill="none" xmlns="http://www.w3.org/2000/svg">
<path d="M163.527 28.3456H162.013V32.9757C162.013 33.8818 162.013 34.6638 162.243 35.1852C162.485 35.7252 162.969 35.9672 163.819 35.9672H164.073L161.218 40.9821L163.527 43.2909H171V35.8183L163.527 28.3456Z" fill="#009FE3"/>
<path d="M145.243 20.8729C145.224 20.8356 145.206 20.7984 145.187 20.7612L145.168 20.7239L139.458 14.8091V9.50868L139.638 9.55212C139.738 9.57695 142.028 10.1355 141.959 11.8299L141.897 13.3319L146.385 15.6904L146.521 15.5787C147.105 15.0884 147.85 14.5918 148.731 14.0891L149.072 13.8967L141.103 5.9275H133.63V13.4002L141.103 20.8729H145.243Z" fill="#E30613"/>
<path d="M7.25249 21.4004C6.53253 21.4004 6.05463 21.3694 5.3595 21.3384V27.9049H0.263916V6.13231C2.51069 5.89026 4.55264 5.77233 6.38358 5.77233C12.7453 5.77233 16.1589 9.16111 16.1589 13.5988C16.1589 18.0365 13.068 21.4004 7.25249 21.4004ZM7.25249 10.5452C6.5946 10.5452 6.14152 10.5762 5.3595 10.6631V16.9317C6.07945 16.9627 6.4084 16.9938 6.89251 16.9938C9.59236 16.9938 10.9392 15.8269 10.9392 13.6919C10.9392 11.923 9.77235 10.5452 7.25249 10.5452Z" fill="#1D1D1B"/>
<path d="M33.649 28.2711C26.8404 28.2711 22.4896 23.3803 22.4896 16.9317C22.4896 10.4831 27.0514 5.56131 33.86 5.56131C40.6686 5.56131 45.0194 10.4521 45.0194 16.9317C45.0194 23.4114 40.4327 28.2711 33.649 28.2711ZM33.7421 10.1231C30.2602 10.1231 27.9203 12.9719 27.9203 16.9317C27.9203 20.8915 30.2602 23.7403 33.7421 23.7403C37.2239 23.7403 39.5638 20.8605 39.5638 16.9317C39.5638 13.003 37.2239 10.1231 33.7421 10.1231Z" fill="#1D1D1B"/>
<path d="M52.6658 27.9111V5.9275H57.7676V23.2624H66.5871V27.9111H52.6658Z" fill="#1D1D1B"/>
<path d="M73.2778 5.9275H78.3796V27.9173H73.2778V5.9275Z" fill="#1D1D1B"/>
<path d="M98.2033 28.2711C91.0347 28.2711 86.175 23.4424 86.175 16.9317C86.175 10.421 91.0347 5.56131 98.2033 5.56131C100.754 5.56131 103.094 6.3123 105.074 7.47914L103.516 11.7989C101.896 10.8989 100.065 10.3279 98.2654 10.3279C94.1566 10.3279 91.6057 12.8478 91.6057 16.9255C91.6057 21.0032 94.1566 23.5231 98.2654 23.5231C100.065 23.5231 102.107 22.921 103.752 21.9032L105.279 26.2229C103.361 27.4829 100.717 28.2649 98.1971 28.2649L98.2033 28.2711Z" fill="#1D1D1B"/>
<path d="M112.243 27.9111V5.9275H126.158V10.6072H117.338V14.536H125.376V18.9737H117.338V23.2624H126.158V27.9111H112.243Z" fill="#1D1D1B"/>
<path d="M0.263916 34.2108H2.36173V41.3359H5.98636V43.2475H0.263916V34.2108Z" fill="#1D1D1B"/>
<path d="M12.3046 43.2413V34.2045H18.0209V36.1286H14.4024V37.7423H17.7043V39.567H14.4024V41.3297H18.0209V43.2413H12.3046Z" fill="#1D1D1B"/>
<path d="M13.2294 31.9888C12.7267 31.9888 12.3046 31.5668 12.3046 31.064C12.3046 30.5613 12.7267 30.1268 13.2294 30.1268C13.7321 30.1268 14.1666 30.5489 14.1666 31.064C14.1666 31.5792 13.7445 31.9888 13.2294 31.9888Z" fill="#1D1D1B"/>
<path d="M17.1023 31.9888C16.5996 31.9888 16.1775 31.5668 16.1775 31.064C16.1775 30.5613 16.5996 30.1268 17.1023 30.1268C17.605 30.1268 18.0271 30.5489 18.0271 31.064C18.0271 31.5792 17.6174 31.9888 17.1023 31.9888Z" fill="#1D1D1B"/>
<path d="M29.1182 36.1286V43.2413H27.0204V36.1286H24.3081V34.2045H31.8242V36.1286H29.112H29.1182Z" fill="#1D1D1B"/>
<path d="M40.923 41.3297H45.249V43.2413H37.5839L37.5218 43.0179L41.9968 36.1286H37.8446V34.2045H45.3359L45.398 34.4404L40.923 41.3297Z" fill="#1D1D1B"/>
<path d="M51.7286 34.2108H57.4449V36.1348H53.8203V37.7485H57.1221V39.5732H53.8203V41.3359H57.4449V43.2475H51.7286V34.2108Z" fill="#1D1D1B"/>
<path d="M67.1147 43.3282C66.3265 43.3282 65.3024 43.2537 64.4148 43.142V34.3163C65.0665 34.217 66.2023 34.1177 66.9409 34.1177C69.5663 34.1177 70.8945 35.2907 70.8945 36.5444C70.8945 37.494 70.3669 38.1333 69.3428 38.5553C70.5779 38.9277 71.1552 39.6415 71.1552 40.678C71.1552 42.0807 69.827 43.3282 67.1147 43.3282ZM67.394 35.9424C67.0092 35.9424 66.7423 35.9796 66.4444 36.0293V37.9161C66.6802 37.9409 66.8416 37.9533 67.2202 37.9533C68.2319 37.9533 68.7346 37.5809 68.7346 36.9292C68.7346 36.3893 68.2815 35.9424 67.394 35.9424ZM67.2326 39.3684C66.9099 39.3684 66.6554 39.3808 66.4444 39.4056V41.5035C66.7423 41.5283 66.8975 41.5407 67.3195 41.5407C68.3808 41.5407 68.8836 41.1311 68.8836 40.4545C68.8836 39.778 68.3436 39.3684 67.2326 39.3684Z" fill="#1D1D1B"/>
<path d="M81.5201 43.3902C79.0933 43.3902 77.7341 42.0869 77.7341 39.567V34.2045H79.8319V39.4181C79.8319 40.7028 80.3719 41.4786 81.5697 41.4786C82.7676 41.4786 83.2952 40.7028 83.2952 39.4181V34.2045H85.393V39.567C85.393 42.0807 83.9531 43.3902 81.5201 43.3902Z" fill="#1D1D1B"/>
<path d="M92.3505 34.2108H98.0668V36.1348H94.4421V37.7485H97.744V39.5732H94.4421V41.3359H98.0668V43.2475H92.3505V34.2108Z" fill="#1D1D1B"/>
<path d="M109.816 43.2413L108.277 40.2932C108.152 40.3056 108.041 40.3056 107.917 40.3056C107.606 40.3056 107.439 40.2932 107.141 40.2808V43.2413H105.043V34.2914C105.806 34.2045 106.644 34.1425 107.706 34.1425C110.517 34.1425 111.622 35.4831 111.622 37.1402C111.622 38.214 111.045 39.176 110.07 39.7532L112.193 43.2413H109.816ZM107.954 36.0169C107.631 36.0169 107.439 36.0293 107.141 36.0789V38.5678C107.414 38.5926 107.563 38.605 107.805 38.605C108.804 38.605 109.443 38.1271 109.443 37.2147C109.443 36.4637 108.854 36.0169 107.954 36.0169Z" fill="#1D1D1B"/>
<path d="M126.158 38.1643V42.4779C125.158 43.0551 124.097 43.3902 122.732 43.3902C120.081 43.3902 117.99 41.491 117.99 38.7291C117.99 35.9672 120.106 34.0556 122.843 34.0556C124.029 34.0556 124.972 34.3659 125.872 34.8314L124.997 36.5196C124.358 36.1844 123.669 36.0169 122.974 36.0169C121.174 36.0169 120.212 37.1402 120.212 38.7291C120.212 40.4545 121.372 41.5283 122.85 41.5283C123.514 41.5283 123.849 41.4538 124.178 41.28V39.9518H122.365V38.1643H126.158Z" fill="#1D1D1B"/>
<path d="M145.51 11.3706C145.714 11.3706 145.938 11.3334 146.18 11.2589C147.452 10.8493 148.005 10.7686 148.241 10.7686C148.377 10.7686 148.414 10.7934 148.421 10.8058C148.389 10.7624 147.713 9.87487 146.453 9.87487C146.366 9.87487 146.279 9.87487 146.186 9.88728C145.479 9.95555 144.982 10.1045 144.597 10.1045C144.188 10.1045 143.89 9.93693 143.579 9.3349C143.579 9.3349 143.952 11.3831 145.51 11.3831V11.3706Z" fill="#1D1D1B"/>
<path d="M150.878 4.75446L151.046 5.20754L151.524 5.28202L155.328 5.88405L155.85 5.96474L156.141 5.52407L157.985 2.75595L155.179 2.6132L154.677 1.52085L154.162 0.397461L153.317 1.30362L152.498 2.18495L151.189 1.83117L149.637 1.41534L150.196 2.91732L150.878 4.74205V4.75446ZM152.765 3.12214L153.926 1.87462L154.639 3.42005L156.495 3.51315L155.459 5.07099L151.654 4.46896L150.971 2.64423L152.765 3.12834V3.12214Z" fill="#1D1D1B"/>
<path d="M167.301 11.4389C166.705 10.6134 165.749 10.1231 164.731 10.1231C162.056 10.1231 159.878 12.3016 159.865 14.9829C159.865 15.7959 159.99 16.5904 160.238 17.3538C159.946 17.5834 159.704 17.8751 159.53 18.2165C159.226 18.8309 159.176 19.5261 159.394 20.1777C159.698 21.0901 160.691 21.5804 161.609 21.2763C161.777 21.2204 161.932 21.1273 162.056 21.0094C162.634 22.7286 162.491 24.6216 161.616 26.2912C159.667 26.2477 158.183 25.6892 157.215 24.634C155.763 23.0514 155.93 20.8418 155.93 20.8232V20.3826C157.004 19.284 157.929 17.993 158.506 16.5035C159.779 13.2264 159.735 11.1224 159.108 9.65764C159.319 8.83837 159.214 7.10674 159.189 6.74056L159.158 6.25645L158.686 6.36196C158.438 6.41782 157.315 6.69711 156.799 7.26811L149.054 6.04542L148.253 8.71424V8.78872C148.259 8.83837 148.334 9.999 149.463 10.4831C150.028 10.7252 150.413 10.5948 150.642 10.4459C150.996 10.21 151.17 9.78797 151.257 9.42179C151.406 9.60178 151.518 9.89969 151.437 10.39C151.226 11.6003 150.208 11.6251 150.078 11.6189H148.029L147.905 11.7927C147.744 12.0161 147.247 12.7919 147.545 13.3754C147.657 13.5926 147.912 13.8471 148.489 13.8471L148.619 13.8595C147.713 14.3684 146.962 14.8773 146.354 15.3801L142.171 13.183L142.226 11.8485C142.307 9.93073 139.806 9.32869 139.7 9.30386L139.191 9.18594V14.927L144.945 20.8915C144.982 20.9598 145.013 21.0218 145.05 21.0901L141.357 23.9637L140.544 23.4982C138.745 22.4307 137.236 23.6782 136.696 24.4851L136.454 24.8451L141.134 27.7249L147.62 25.4285C148.296 25.4471 149.091 25.7388 149.985 26.2974C149.265 26.7132 148.166 27.5387 147.229 29.0531C146.019 31.0082 147.136 32.8391 148.085 33.7328L146.366 36.3148H144.225C142.903 36.3148 142.369 37.8912 142.257 38.8222L142.202 39.2815H147.874L151.412 33.9811L151.381 33.8197C151.114 32.324 151.983 31.9143 152.827 31.5171L154.615 30.6606C154.615 30.6606 154.627 30.6606 154.627 30.6544L154.671 30.6358C155.192 31.2502 155.564 31.7281 155.719 31.9329V34.5397C155.695 36.0479 156.396 37.3389 157.743 38.2698C158.301 38.6546 158.86 38.9029 159.245 39.0457L158.525 40.318H156.402C155.08 40.318 154.546 41.8945 154.435 42.8255L154.379 43.2847H160.182L164.495 35.7003H163.782C162.851 35.7003 162.59 35.3838 162.454 35.0735C162.243 34.6018 162.243 33.8508 162.243 32.9694V27.0174C163.732 26.4836 164.93 25.4223 165.637 24.0072C166.364 22.5549 166.475 20.9101 165.96 19.3771C165.271 17.3351 163.043 16.2242 160.989 16.9069C160.97 16.9069 160.958 16.9193 160.939 16.9255C160.747 16.2924 160.654 15.6345 160.654 14.9642C160.654 12.7361 162.472 10.93 164.688 10.93C165.309 10.93 165.898 11.1782 166.333 11.6065L163.422 13.9836L163.434 14.1946C163.571 16.1745 165.042 16.789 165.799 16.8386L166.202 16.8634L166.271 16.1C166.668 16.7703 167.102 17.2296 167.133 17.2607L167.847 17.9992V13.2636C167.847 12.5933 167.642 11.9541 167.251 11.4141L167.301 11.4389ZM158.394 7.30535C158.413 7.69637 158.419 8.12462 158.407 8.50322C158.159 8.19289 157.879 7.9198 157.588 7.67154C157.786 7.5412 158.078 7.41086 158.388 7.30535H158.394ZM148.514 13.0278C148.352 13.0278 148.29 12.9968 148.284 13.003C148.259 12.9223 148.34 12.6864 148.47 12.4506H150.065C150.698 12.4692 151.983 12.0968 152.25 10.5328C152.504 9.06181 151.549 8.46598 151.002 8.35426L150.512 8.25496V8.75769C150.506 9.07422 150.4 9.60798 150.189 9.75074C150.102 9.80659 149.972 9.79418 149.792 9.7197C149.252 9.48385 149.122 8.97492 149.091 8.80113L149.643 6.97641L152.461 7.42328L152.895 9.13008L154.267 8.21151L153.162 7.52879L155.093 7.83291C154.987 8.71424 154.373 11.1162 150.878 12.7237C150.574 12.8664 150.282 13.003 149.997 13.1457L148.551 13.0278H148.514ZM144.504 17.9372C144.392 18.3468 144.361 18.7378 144.392 19.1226L140.029 14.5981V10.2907C140.6 10.5203 141.438 11.0045 141.407 11.8237L141.326 13.6795L145.708 15.9821C145.088 16.6214 144.69 17.2731 144.498 17.9372H144.504ZM141.246 26.8125L137.683 24.6154C138.118 24.181 139.018 23.5417 140.147 24.212L141.444 24.9568L145.497 21.8039C145.634 22.0149 145.77 22.2197 145.907 22.4245C146.447 23.2252 146.956 23.9886 147.117 24.7271L141.246 26.8063V26.8125ZM149.24 21.5928C148.942 21.6735 148.663 21.7418 148.414 21.7977C148.377 23.0762 148.042 23.9203 147.862 24.3175V24.3299C147.62 23.5169 147.105 22.7286 146.59 21.9652C145.733 20.6867 144.926 19.4826 145.299 18.1544C145.497 17.4593 146.006 16.7641 146.844 16.0566C146.664 16.9193 146.565 18.1854 146.869 19.8116C147.105 19.6378 147.353 19.464 147.62 19.2902C147.279 17.0372 147.769 15.6532 147.955 15.2249C148.315 14.9891 148.712 14.747 149.147 14.505C148.948 15.3615 148.812 16.6835 149.122 18.4089C149.37 18.2785 149.625 18.142 149.898 18.0117C149.556 15.8704 149.966 14.4925 150.177 13.965C150.506 13.7974 150.853 13.6298 151.22 13.4623C155.024 11.712 155.763 9.04319 155.906 7.95083L156.824 8.09359C158.45 9.37834 159.648 11.2775 157.743 16.1931C156.899 18.3778 155.204 20.1157 153.435 21.4315C153.535 20.9598 153.597 20.4694 153.609 19.9543C153.324 20.0971 153.038 20.2274 152.759 20.3515C152.709 21.0032 152.573 21.6115 152.349 22.1825C151.933 22.4493 151.524 22.6914 151.133 22.9148C151.263 22.4183 151.375 21.7914 151.387 21.0342C151.387 20.9908 151.387 20.9474 151.387 20.9039C151.102 21.0094 150.822 21.1025 150.556 21.1894C150.512 22.2818 150.251 23.0514 150.071 23.4796C149.625 23.7031 149.215 23.8893 148.855 24.0444C149.047 23.4796 149.246 22.6542 149.246 21.5742L149.24 21.5928ZM150.568 33.8073L147.458 38.4622H143.201C143.337 37.9347 143.641 37.1465 144.25 37.1465H146.832L149.209 33.5715L148.905 33.3356C148.812 33.2612 146.676 31.5544 147.955 29.4876C148.818 28.0911 149.836 27.3463 150.456 26.9925C150.655 27.9732 151.22 30.071 152.585 30.7413L152.504 30.7785C151.673 31.1695 150.295 31.815 150.568 33.8073ZM152.951 30.0027C152.12 29.6055 151.617 28.2897 151.362 27.2905C151.859 27.6939 152.374 28.1594 152.908 28.6931C153.349 29.1338 153.764 29.5807 154.137 29.9903C153.696 30.1703 153.305 30.1641 152.951 30.0027ZM163.149 36.4824L159.741 42.4655H155.39C155.527 41.9379 155.831 41.1497 156.439 41.1497H159.04L160.517 38.5367L159.983 38.4064C159.946 38.4002 156.532 37.5375 156.576 34.5521V31.6661L156.495 31.5543C156.309 31.3061 152.486 26.1857 149.035 24.8947C150.518 24.2679 152.976 23.0638 155.099 21.1832C155.111 21.9901 155.304 23.7713 156.601 25.1926C157.706 26.3967 159.338 27.0484 161.454 27.1229V33.0005C161.454 33.9625 161.454 34.7942 161.734 35.4272C161.988 36.0045 162.454 36.3582 163.142 36.4886L163.149 36.4824ZM161.287 17.6889C162.919 17.1427 164.694 18.0241 165.24 19.6502C165.687 20.9846 165.588 22.4059 164.961 23.6658C164.458 24.6775 163.664 25.4781 162.677 25.9933C163.633 23.6286 163.36 20.9722 161.889 18.8433C161.64 18.4834 161.429 18.0985 161.256 17.7013C161.262 17.7013 161.274 17.6951 161.28 17.6889H161.287ZM161.206 19.3088C161.361 19.5323 161.498 19.7681 161.622 20.004C161.659 20.0908 161.634 20.2026 161.622 20.2398C161.609 20.2833 161.591 20.3205 161.566 20.3577C161.516 20.4322 161.442 20.4881 161.355 20.5129C160.858 20.6743 160.325 20.4136 160.163 19.9233C160.014 19.4764 160.045 18.9985 160.256 18.5765C160.337 18.4213 160.436 18.2785 160.554 18.1482C160.741 18.5454 160.958 18.9364 161.212 19.3026L161.206 19.3088ZM167.065 15.7587C166.792 15.3056 166.531 14.7408 166.488 14.176L165.662 14.1636L165.501 15.9387C165.085 15.7897 164.464 15.3925 164.322 14.3622L166.848 12.3016C166.991 12.6057 167.065 12.9409 167.065 13.2823V15.7587Z" fill="#12100B"/>
</svg>
