<svg width="11" height="15" viewBox="0 0 11 15" fill="none" xmlns="http://www.w3.org/2000/svg">
<path d="M5.16064 7.58203H7.81689L2.16064 2.55078V10.2383L4.00439 8.11328C4.31689 7.76953 4.72314 7.58203 5.16064 7.58203ZM0.660645 12.3945V0.832031C0.660645 0.425781 0.973145 0.0820312 1.37939 0.0820312C1.53564 0.0820312 1.72314 0.175781 1.84814 0.269531L10.4106 7.89453C10.5669 8.01953 10.6606 8.20703 10.6606 8.39453C10.6606 8.80078 10.3481 9.11328 9.94189 9.11328H5.97314L7.81689 13.0508C8.00439 13.4258 7.84814 13.8945 7.47314 14.0508C7.09814 14.2383 6.62939 14.082 6.47314 13.707L4.59814 9.70703L1.84814 12.8633C1.72314 13.0195 1.53564 13.082 1.34814 13.082C0.941895 13.082 0.660645 12.8008 0.660645 12.3945Z" fill="#E30613"/>
</svg>
