<svg width="49" height="49" viewBox="0 0 49 49" fill="none" xmlns="http://www.w3.org/2000/svg">
<path d="M25.2544 0.650146L47.0981 12.9314C48.0356 13.4939 48.5981 14.4314 48.5981 15.4626C48.5981 17.0564 47.2856 18.3689 45.5981 18.3689H24.5981H3.50439C1.91064 18.3689 0.598145 17.0564 0.598145 15.4626C0.598145 14.4314 1.16064 13.4939 2.00439 12.9314L23.8481 0.650146C24.3169 0.368896 24.8794 0.368896 25.2544 0.650146ZM29.2856 15.3689H45.3169L24.5981 3.65015L3.78564 15.3689H19.8169C19.4419 14.7126 19.3481 13.9626 19.3481 13.1189C19.3481 10.3064 21.6919 7.8689 24.5981 7.8689C27.4106 7.8689 29.8481 10.3064 29.8481 13.1189C29.8481 13.9626 29.6606 14.7126 29.2856 15.3689ZM24.5981 10.8689C23.2856 10.8689 22.3481 11.9001 22.3481 13.1189C22.3481 14.4314 23.2856 15.3689 24.5981 15.3689C25.8169 15.3689 26.8481 14.4314 26.8481 13.1189C26.8481 11.9001 25.8169 10.8689 24.5981 10.8689ZM6.59814 33.3689V21.3689H9.59814V33.3689H17.0981V21.3689H20.0981V33.3689H29.0981V21.3689H32.0981V33.3689H39.5981V21.3689H42.5981V33.3689C43.3481 33.3689 44.0981 34.1189 44.0981 34.8689C44.0981 35.7126 43.3481 36.3689 42.5981 36.3689H6.59814C5.75439 36.3689 5.09814 35.7126 5.09814 34.8689C5.09814 34.1189 5.75439 33.3689 6.59814 33.3689ZM4.34814 39.3689H44.8481C45.5981 39.3689 46.3481 40.1189 46.3481 40.8689C46.3481 41.7126 45.5981 42.3689 44.8481 42.3689H4.34814C3.50439 42.3689 2.84814 41.7126 2.84814 40.8689C2.84814 40.1189 3.50439 39.3689 4.34814 39.3689ZM2.09814 45.3689H47.0981C47.8481 45.3689 48.5981 46.1189 48.5981 46.8689C48.5981 47.7126 47.8481 48.3689 47.0981 48.3689H2.09814C1.25439 48.3689 0.598145 47.7126 0.598145 46.8689C0.598145 46.1189 1.25439 45.3689 2.09814 45.3689Z" fill="#E30613"/>
</svg>
