<svg width="113" height="151" viewBox="0 0 113 151" fill="none" xmlns="http://www.w3.org/2000/svg">
<path d="M81.4024 2.23657C82.8672 1.0647 84.6251 0.185791 86.3829 0.185791C91.6563 0.185791 95.1719 5.7522 93.1212 10.4397L69.3907 65.8108H105.426C109.527 65.8108 112.75 69.0334 112.75 73.135C112.75 75.1858 111.871 77.2366 110.113 78.4084L31.3047 148.428C29.8399 149.6 28.0821 150.186 26.3243 150.186C21.0508 150.186 17.5352 144.912 19.586 140.225L43.3165 84.5608H6.98834C3.17975 84.5608 0.250061 81.6311 0.250061 77.8225C0.250061 75.7717 0.835999 74.0139 2.30084 72.842L81.4024 2.23657ZM86.3829 4.87329C85.7969 4.87329 85.211 5.16626 84.6251 5.7522L5.5235 76.3577C4.93756 76.6506 4.93756 77.2366 4.93756 77.8225C4.93756 78.9944 5.81647 79.8733 6.98834 79.8733H47.1251C47.711 79.8733 48.5899 80.4592 48.8829 81.0452C49.4688 81.6311 49.4688 82.51 49.1758 83.3889L23.9805 141.983C23.1016 143.74 24.5665 145.498 26.3243 145.498C26.9102 145.498 27.4962 145.498 28.0821 144.912L107.184 74.8928C107.477 74.5999 108.063 73.7209 108.063 73.135C108.063 71.6702 106.891 70.4983 105.426 70.4983H65.8751C64.9962 70.4983 64.1172 70.2053 63.8243 69.6194C63.2383 69.0334 63.2383 68.1545 63.5313 67.2756L88.7266 8.68188C89.6055 6.92407 88.1407 4.87329 86.3829 4.87329Z" fill="#E30613"/>
</svg>
