<svg width="61" height="49" viewBox="0 0 61 49" fill="none" xmlns="http://www.w3.org/2000/svg">
<path d="M6.59814 3.72461C4.91064 3.72461 3.59814 5.13086 3.59814 6.72461V42.7246C3.59814 44.4121 4.91064 45.7246 6.59814 45.7246H12.5981V39.7246C12.5981 36.4434 15.2231 33.7246 18.5981 33.7246C21.8794 33.7246 24.5981 36.4434 24.5981 39.7246V45.7246H30.5981C32.1919 45.7246 33.5981 44.4121 33.5981 42.7246C34.4419 43.3809 35.3794 43.9434 36.3169 44.4121C35.5669 46.9434 33.3169 48.7246 30.5981 48.7246H24.5981H21.5981H15.5981H12.5981H6.59814C3.22314 48.7246 0.598145 46.0996 0.598145 42.7246V6.72461C0.598145 3.44336 3.22314 0.724609 6.59814 0.724609H30.5981C33.8794 0.724609 36.5981 3.44336 36.5981 6.72461V17.0371C35.4731 17.5059 34.4419 18.0684 33.5981 18.7246V6.72461C33.5981 5.13086 32.1919 3.72461 30.5981 3.72461H6.59814ZM28.3481 21.7246C29.0044 21.7246 29.5669 22.0996 30.0356 22.5684C28.4419 24.9121 27.5981 27.7246 27.5981 30.7246H23.8481C22.5356 30.7246 21.5981 29.7871 21.5981 28.4746V23.9746C21.5981 22.7559 22.5356 21.7246 23.8481 21.7246H28.3481ZM21.5981 39.7246C21.5981 38.1309 20.1919 36.7246 18.5981 36.7246C16.9106 36.7246 15.5981 38.1309 15.5981 39.7246V45.7246H21.5981V39.7246ZM6.59814 11.9746C6.59814 10.7559 7.53564 9.72461 8.84814 9.72461H13.3481C14.5669 9.72461 15.5981 10.7559 15.5981 11.9746V16.4746C15.5981 17.7871 14.5669 18.7246 13.3481 18.7246H8.84814C7.53564 18.7246 6.59814 17.7871 6.59814 16.4746V11.9746ZM9.59814 12.7246V15.7246H12.5981V12.7246H9.59814ZM23.8481 9.72461H28.3481C29.5669 9.72461 30.5981 10.7559 30.5981 11.9746V16.4746C30.5981 17.7871 29.5669 18.7246 28.3481 18.7246H23.8481C22.5356 18.7246 21.5981 17.7871 21.5981 16.4746V11.9746C21.5981 10.7559 22.5356 9.72461 23.8481 9.72461ZM24.5981 15.7246H27.5981V12.7246H24.5981V15.7246ZM6.59814 23.9746C6.59814 22.7559 7.53564 21.7246 8.84814 21.7246H13.3481C14.5669 21.7246 15.5981 22.7559 15.5981 23.9746V28.4746C15.5981 29.7871 14.5669 30.7246 13.3481 30.7246H8.84814C7.53564 30.7246 6.59814 29.7871 6.59814 28.4746V23.9746ZM9.59814 24.7246V27.7246H12.5981V24.7246H9.59814ZM24.5981 27.7246H27.5981V24.7246H24.5981V27.7246ZM42.5981 21.8184C39.3169 21.8184 36.4106 23.5059 34.7231 26.3184C33.1294 29.0371 33.1294 32.5059 34.7231 35.3184C36.4106 38.0371 39.3169 39.8184 42.5981 39.8184C45.7856 39.8184 48.6919 38.0371 50.3794 35.3184C51.9731 32.5059 51.9731 29.0371 50.3794 26.3184C48.6919 23.5059 45.7856 21.8184 42.5981 21.8184ZM42.5981 42.8184C35.9419 42.8184 30.5981 37.3809 30.5981 30.8184C30.5981 24.1621 35.9419 18.8184 42.5981 18.8184C49.1606 18.8184 54.5981 24.1621 54.5981 30.8184C54.5981 33.5371 53.6606 36.0684 52.0669 38.1309L60.1294 46.1934C60.6919 46.7559 60.6919 47.7871 60.1294 48.3496C59.5669 48.9121 58.5356 48.9121 57.9731 48.3496L49.9106 40.2871C47.8481 41.8809 45.3169 42.8184 42.5981 42.8184Z" fill="#E30613"/>
</svg>
