<svg width="57" height="65" viewBox="0 0 57 65" fill="none" xmlns="http://www.w3.org/2000/svg">
<path d="M35.0344 4.28613C34.5344 4.28613 34.0344 4.41113 33.5344 4.53613L25.5344 7.03613C16.2844 9.91113 10.0344 18.4111 10.0344 28.0361V36.2861H11.0344C13.7844 36.2861 16.0344 38.5361 16.0344 41.2861V59.2861C16.0344 62.1611 13.7844 64.2861 11.0344 64.2861H5.03442C2.15942 64.2861 0.0344238 62.1611 0.0344238 59.2861V41.2861C0.0344238 38.5361 2.15942 36.2861 5.03442 36.2861H6.03442V28.0361C6.03442 16.6611 13.4094 6.53613 24.2844 3.16113L32.4094 0.786133C33.2844 0.536133 34.1594 0.286133 35.0344 0.286133C39.9094 0.286133 44.0344 4.41113 44.0344 9.28613V17.2861C44.0344 18.4111 43.0344 19.2861 42.0344 19.2861C40.9094 19.2861 40.0344 18.4111 40.0344 17.2861V9.28613C40.0344 6.53613 37.7844 4.28613 35.0344 4.28613ZM41.0344 22.5361C41.6594 22.2861 42.2844 22.2861 42.9094 22.5361C45.1594 23.6611 48.2844 25.9111 51.0344 29.2861C53.7844 32.5361 56.0344 36.9111 56.0344 42.2861C56.0344 46.5361 54.0344 52.4111 48.6594 56.7861L51.6594 61.2861C52.0344 61.7861 52.0344 62.6611 51.7844 63.2861C51.4094 63.9111 50.6594 64.2861 50.0344 64.2861H34.0344C33.2844 64.2861 32.5344 63.9111 32.1594 63.2861C31.9094 62.6611 31.9094 61.7861 32.2844 61.2861L35.2844 56.7861C29.9094 52.4111 28.0344 46.5361 28.0344 42.2861C28.0344 36.9111 30.2844 32.5361 32.9094 29.2861C35.6594 25.9111 38.9094 23.6611 41.0344 22.5361ZM32.0344 42.2861C32.0344 45.7861 33.6594 51.0361 39.0344 54.6611C40.0344 55.2861 40.2844 56.5361 39.6594 57.4111L37.6594 60.2861H46.2844L44.2844 57.4111C43.6594 56.5361 43.9094 55.2861 44.9094 54.6611C50.2844 51.0361 52.0344 45.7861 52.0344 42.2861C52.0344 38.1611 50.2844 34.5361 47.9094 31.7861C46.0344 29.4111 43.6594 27.6611 42.0344 26.6611C40.2844 27.6611 38.0344 29.4111 36.0344 31.7861C33.7844 34.5361 32.0344 38.1611 32.0344 42.2861ZM11.0344 40.2861H5.03442C4.40942 40.2861 4.03442 40.7861 4.03442 41.2861V59.2861C4.03442 59.9111 4.40942 60.2861 5.03442 60.2861H11.0344C11.5344 60.2861 12.0344 59.9111 12.0344 59.2861V41.2861C12.0344 40.7861 11.5344 40.2861 11.0344 40.2861ZM45.0344 36.2861C46.6594 36.2861 48.0344 37.6611 48.0344 39.2861C48.0344 41.0361 46.6594 42.2861 45.0344 42.2861C43.2844 42.2861 42.0344 41.0361 42.0344 39.2861C42.0344 37.6611 43.2844 36.2861 45.0344 36.2861Z" fill="white"/>
</svg>
