<svg width="151" height="151" viewBox="0 0 151 151" fill="none" xmlns="http://www.w3.org/2000/svg">
<path d="M84.5822 96.5725C88.9767 98.0374 93.9572 98.6233 98.9377 98.6233C124.719 98.6233 145.813 77.8225 145.813 51.7483C145.813 25.967 124.719 4.87329 98.9377 4.87329C72.8635 4.87329 52.0627 25.967 52.0627 51.7483C52.0627 57.0217 52.6486 61.7092 54.1135 66.1038C54.6994 67.8616 54.1135 69.6194 52.9416 70.7913L5.77362 118.252C5.18768 118.545 5.18768 119.131 5.18768 119.717V143.155C5.18768 144.619 6.06659 145.498 7.53143 145.498H30.9689C32.1408 145.498 33.3127 144.619 33.3127 143.155V131.436C33.3127 129.092 35.3635 126.748 38.0002 126.748H49.7189C50.8908 126.748 52.0627 125.869 52.0627 124.405V112.686C52.0627 110.342 54.1135 107.998 56.7502 107.998H68.4689C69.0549 107.998 69.6408 107.998 69.9338 107.412L79.8947 97.7444C81.0666 96.5725 82.8244 95.9866 84.5822 96.5725ZM98.9377 103.311C93.3713 103.311 88.0978 102.725 83.1174 100.967L73.4494 110.635C71.9846 112.1 70.2267 112.686 68.4689 112.686H61.4377H56.7502V117.373V124.405C56.7502 128.506 53.5275 131.436 49.7189 131.436H42.6877H38.0002V136.123V143.155C38.0002 147.256 34.7775 150.186 30.9689 150.186H7.53143C3.42987 150.186 0.500183 147.256 0.500183 143.155V119.717C0.500183 117.959 1.08612 116.201 2.55096 114.737L49.7189 67.5686C47.9611 62.5881 47.3752 57.3147 47.3752 51.7483C47.3752 23.3303 70.2267 0.185791 98.9377 0.185791C127.356 0.185791 150.5 23.3303 150.5 51.7483C150.5 80.4592 127.356 103.311 98.9377 103.311ZM108.313 30.6545C112.414 30.6545 116.223 32.9983 118.274 36.5139C120.324 40.3225 120.324 44.717 118.274 48.2327C116.223 52.0413 112.414 54.092 108.313 54.092C103.918 54.092 100.11 52.0413 98.0588 48.2327C96.008 44.717 96.008 40.3225 98.0588 36.5139C100.11 32.9983 103.918 30.6545 108.313 30.6545ZM115.344 42.3733C115.344 38.5647 112.121 35.342 108.313 35.342C104.211 35.342 101.281 38.5647 101.281 42.3733C101.281 46.4749 104.211 49.4045 108.313 49.4045C112.121 49.4045 115.344 46.4749 115.344 42.3733Z" fill="#E30613"/>
</svg>
