<svg width="49" height="49" viewBox="0 0 49 49" fill="none" xmlns="http://www.w3.org/2000/svg">
<path d="M45.5981 42.3308V18.3308H35.0981C32.5669 18.3308 30.5981 16.3621 30.5981 13.8308V3.33081H18.5981C16.9106 3.33081 15.5981 4.73706 15.5981 6.33081V12.3308C14.7544 12.3308 13.9106 12.4246 13.1606 12.7058C12.9731 12.7996 12.6919 12.9871 12.5981 12.9871V13.0808V6.33081C12.5981 3.04956 15.2231 0.330811 18.5981 0.330811H33.2231C34.3481 0.330811 35.5669 0.893311 36.4106 1.73706L47.1919 12.5183C48.0356 13.3621 48.5981 14.5808 48.5981 15.7058V42.3308C48.5981 45.7058 45.8794 48.3308 42.5981 48.3308H21.3169C21.5044 47.8621 21.5981 47.3933 21.5981 46.8308V45.3308H42.5981C44.1919 45.3308 45.5981 44.0183 45.5981 42.3308ZM45.5044 15.3308C45.4106 15.1433 45.3169 14.8621 45.1294 14.6746L34.2544 3.79956C34.0669 3.61206 33.7856 3.51831 33.5981 3.42456V13.8308C33.5981 14.6746 34.2544 15.3308 35.0981 15.3308H45.5044ZM23.9419 27.3308V27.4246C23.9419 27.4246 23.9419 27.6121 24.3169 28.3621C24.8794 29.7683 24.4106 31.4558 23.1919 32.3933C22.5356 32.8621 22.4419 33.0496 22.4419 33.0496C22.4419 33.1433 22.3481 33.3308 22.2544 34.0808C22.0669 35.6746 20.8481 36.8933 19.2544 37.0808C18.8794 37.0808 18.6919 37.1746 18.5981 37.1746V46.8308C18.5981 47.3933 18.2231 47.9558 17.7544 48.2371C17.2856 48.4246 16.7231 48.4246 16.2544 48.1433L12.5981 45.7058L8.84814 48.1433C8.47314 48.4246 7.81689 48.4246 7.34814 48.2371C6.87939 47.9558 6.59814 47.3933 6.59814 46.8308V37.1746C6.41064 37.1746 6.22314 37.0808 5.84814 37.0808C4.25439 36.7996 3.12939 35.6746 2.84814 34.0808C2.75439 33.2371 2.75439 33.1433 2.66064 33.0496C2.66064 33.0496 2.56689 32.8621 1.91064 32.3933C0.691895 31.4558 0.223145 29.7683 0.785645 28.3621C1.16064 27.6121 1.16064 27.4246 1.16064 27.3308C1.16064 27.3308 1.16064 27.1433 0.785645 26.3933C0.223145 24.9871 0.691895 23.2996 1.91064 22.3621C2.56689 21.8933 2.66064 21.7058 2.66064 21.7058C2.66064 21.6121 2.75439 21.4246 2.84814 20.6746C3.12939 19.0808 4.25439 17.8621 5.84814 17.6746C6.69189 17.5808 6.78564 17.4871 6.87939 17.4871C6.87939 17.4871 7.06689 17.3933 7.53564 16.7371C8.47314 15.5183 10.1606 15.0496 11.5669 15.6121C12.3169 15.9871 12.5044 15.9871 12.5981 15.9871C12.5981 15.9871 12.7856 15.9871 13.5356 15.6121C14.9419 15.0496 16.6294 15.5183 17.5669 16.7371C18.1294 17.3933 18.2231 17.4871 18.3169 17.4871C18.3169 17.4871 18.5044 17.5808 19.2544 17.6746C20.8481 17.8621 22.0669 19.0808 22.2544 20.6746C22.3481 21.4246 22.4419 21.6121 22.4419 21.7058C22.4419 21.7058 22.5356 21.8933 23.1919 22.3621C24.4106 23.2996 24.8794 24.9871 24.3169 26.3933C24.0356 27.1433 23.9419 27.3308 23.9419 27.3308ZM9.59814 44.1121L11.7544 42.6121C12.2231 42.3308 12.8794 42.3308 13.3481 42.6121L15.5981 44.1121V39.3308C14.8481 39.4246 14.1919 39.4246 13.5356 39.1433C12.7856 38.7683 12.5981 38.7683 12.5981 38.7683C12.5044 38.7683 12.3169 38.7683 11.5669 39.1433C10.9106 39.4246 10.2544 39.4246 9.59814 39.3308V44.1121ZM4.16064 27.3308C4.16064 28.1746 3.87939 28.8308 3.59814 29.4871C3.50439 29.6746 3.59814 29.8621 3.78564 30.0496C4.34814 30.5183 4.91064 30.8933 5.28564 31.5496C5.66064 32.2058 5.75439 32.9558 5.84814 33.7058C5.84814 33.8933 6.03564 34.0808 6.22314 34.0808C6.97314 34.1746 7.72314 34.2683 8.37939 34.6433C9.03564 35.0183 9.50439 35.5808 9.87939 36.1433C10.0669 36.3308 10.2544 36.4246 10.4419 36.3308C11.0981 36.0496 11.7544 35.7683 12.5981 35.7683C13.3481 35.7683 14.0044 36.0496 14.6606 36.3308C14.8481 36.4246 15.0356 36.3308 15.2231 36.1433C15.6919 35.5808 16.0669 35.0183 16.7231 34.6433C17.3794 34.2683 18.1294 34.1746 18.8794 34.0808C19.0669 34.0808 19.2544 33.8933 19.2544 33.7058C19.3481 32.9558 19.4419 32.2058 19.8169 31.5496C20.1919 30.8933 20.7544 30.4246 21.4106 30.0496C21.5044 29.8621 21.5981 29.6746 21.5044 29.4871C21.2231 28.8308 20.9419 28.1746 20.9419 27.3308C20.9419 26.5808 21.2231 25.9246 21.5044 25.2683C21.5981 25.0808 21.5044 24.8933 21.4106 24.7058C20.7544 24.2371 20.1919 23.8621 19.8169 23.2058C19.4419 22.5496 19.3481 21.7996 19.2544 21.0496C19.2544 20.8621 19.0669 20.6746 18.8794 20.6746C18.1294 20.5808 17.3794 20.4871 16.7231 20.1121C16.0669 19.7371 15.6919 19.1746 15.2231 18.5183C15.0356 18.4246 14.8481 18.3308 14.6606 18.4246C14.0044 18.7058 13.3481 18.9871 12.5981 18.9871C11.7544 18.9871 11.0981 18.7058 10.4419 18.4246C10.2544 18.3308 10.0669 18.4246 9.87939 18.5183C9.41064 19.1746 9.03564 19.7371 8.37939 20.1121C7.72314 20.4871 6.97314 20.5808 6.22314 20.6746C6.03564 20.6746 5.84814 20.8621 5.84814 21.0496C5.75439 21.7996 5.66064 22.5496 5.28564 23.2058C4.91064 23.8621 4.34814 24.2371 3.78564 24.7058C3.59814 24.8933 3.50439 25.0808 3.59814 25.2683C3.87939 25.9246 4.16064 26.5808 4.16064 27.3308Z" fill="#E30613"/>
</svg>
