<svg width="17" height="18" viewBox="0 0 17 18" fill="none" xmlns="http://www.w3.org/2000/svg">
<path d="M9.22766 1.03027C13.2277 1.03027 16.4777 4.28027 16.4777 8.28027C16.4777 8.71777 16.1339 9.03027 15.7277 9.03027C15.2902 9.03027 14.9777 8.71777 14.9777 8.28027C14.9777 5.12402 12.3839 2.53027 9.22766 2.53027C8.79016 2.53027 8.47766 2.21777 8.47766 1.78027C8.47766 1.37402 8.79016 1.03027 9.22766 1.03027ZM9.47766 7.03027C10.0089 7.03027 10.4777 7.49902 10.4777 8.03027C10.4777 8.59277 10.0089 9.03027 9.47766 9.03027C8.91516 9.03027 8.47766 8.59277 8.47766 8.03027C8.47766 7.49902 8.91516 7.03027 9.47766 7.03027ZM8.47766 4.78027C8.47766 4.37402 8.79016 4.03027 9.22766 4.03027C11.5714 4.03027 13.4777 5.93652 13.4777 8.28027C13.4777 8.71777 13.1339 9.03027 12.7277 9.03027C12.2902 9.03027 11.9777 8.71777 11.9777 8.28027C11.9777 6.78027 10.7277 5.53027 9.22766 5.53027C8.79016 5.53027 8.47766 5.21777 8.47766 4.78027ZM10.7589 9.99902C11.1027 9.56152 11.6964 9.43652 12.1964 9.65527L15.6964 11.1553C16.2589 11.374 16.5714 11.9678 16.4464 12.5615L15.6964 16.0615C15.5714 16.624 15.0402 17.0303 14.4777 17.0303C14.2589 17.0303 14.0714 17.0303 13.8839 17.0303C13.5714 17.0303 13.2589 16.999 12.9777 16.9678C5.94641 16.2178 0.477661 10.2803 0.477661 3.03027C0.477661 2.46777 0.883911 1.93652 1.44641 1.81152L4.94641 1.06152C5.54016 0.936523 6.13391 1.24902 6.35266 1.81152L7.85266 5.31152C8.07141 5.81152 7.94641 6.40527 7.50891 6.74902L6.22766 7.81152C7.07141 9.24902 8.25891 10.4365 9.69641 11.2803L10.7589 9.99902ZM14.9152 12.4365L11.7902 11.0928L10.8839 12.2178C10.4152 12.7803 9.60266 12.9365 8.94641 12.5615C7.29016 11.5928 5.91516 10.2178 4.94641 8.56152C4.57141 7.90527 4.72766 7.09277 5.29016 6.62402L6.41516 5.71777L5.07141 2.59277L1.97766 3.24902C2.07141 9.99902 7.50891 15.4365 14.2589 15.5303L14.9152 12.4365Z" fill="#E30613"/>
</svg>
