<svg width="152" height="152" viewBox="0 0 152 152" fill="none" xmlns="http://www.w3.org/2000/svg">
<path d="M87.5118 113.393C66.1251 103.139 48.5469 85.5608 38.293 64.1741C37.4141 62.1233 38.0001 59.7795 39.4649 58.3147L54.1133 46.5959C56.4571 44.5452 57.336 41.3225 56.1641 38.3928L44.4454 10.2678C42.9805 7.04517 39.4649 5.28735 35.9493 6.16626L10.168 13.1975C7.23834 14.0764 5.18756 17.0061 5.18756 19.9358C5.18756 89.9553 61.7305 146.498 131.75 146.498C134.68 146.498 137.609 144.448 138.488 141.518L145.52 115.737C146.398 112.221 144.641 108.705 141.418 107.24L113.293 95.5217C110.363 94.3499 107.141 95.2288 105.09 97.5725L93.3712 112.221C91.9063 113.686 89.5626 114.272 87.5118 113.393ZM101.574 94.6428C104.797 90.5413 110.363 89.3694 115.051 91.4202L143.176 103.139C148.742 105.19 151.379 111.342 149.914 116.908L142.883 142.69C141.418 147.67 137.023 151.186 131.75 151.186C59.0938 151.186 0.500061 92.592 0.500061 19.9358C0.500061 14.6624 4.01569 10.2678 8.99615 8.80298L34.7774 1.77173C40.3438 0.306885 46.4962 3.23657 48.5469 8.51001L60.2657 36.635C62.3165 41.3225 61.1446 46.8889 57.043 50.1116L42.6876 62.1233C52.3555 82.6311 69.0547 99.3303 89.5626 108.998L101.574 94.6428ZM99.5235 6.7522C100.402 5.87329 101.867 5.87329 102.746 6.7522L122.375 26.0881L141.711 6.7522C142.59 5.87329 144.055 5.87329 144.934 6.7522C145.813 7.6311 145.813 9.09595 144.934 9.97485L125.598 29.3108L144.934 48.9397C145.813 49.8186 145.813 51.2834 144.934 52.1624C144.055 53.0413 142.59 53.0413 141.711 52.1624L122.375 32.8264L102.746 52.1624C101.867 53.0413 100.402 53.0413 99.5235 52.1624C98.6446 51.2834 98.6446 49.8186 99.5235 48.9397L118.859 29.3108L99.5235 9.97485C98.6446 9.09595 98.6446 7.6311 99.5235 6.7522Z" fill="#E30613"/>
</svg>
