<svg width="43" height="49" viewBox="0 0 43 49" fill="none" xmlns="http://www.w3.org/2000/svg">
<path d="M22.1118 0.728027L35.6118 3.72803C36.7368 4.00928 37.5806 4.75928 37.8618 5.88428C38.2368 6.91553 37.8618 8.04053 37.1118 8.79053L36.5493 8.22803L37.1118 8.79053L35.0493 10.9468V11.0405C35.0493 12.5405 34.2993 14.0405 32.7993 14.7905C30.7368 15.9155 27.2681 17.1343 21.5493 17.1343C15.7368 17.1343 12.2681 15.9155 10.2056 14.7905C8.70557 14.0405 8.04932 12.5405 8.04932 11.0405V10.9468L5.89307 8.79053C5.14307 8.04053 4.86182 6.91553 5.14307 5.88428C5.42432 4.75928 6.26807 4.00928 7.39307 3.72803L20.8931 0.728027C21.2681 0.634277 21.7368 0.634277 22.2056 0.728027H22.1118ZM8.04932 6.63428L10.5806 9.25928C10.8618 9.54053 11.0493 9.91553 11.0493 10.2905V11.0405C11.0493 11.603 11.2368 11.978 11.6118 12.1655C12.7368 12.728 14.4243 13.478 17.0493 13.853C15.8306 12.0718 15.5493 9.91553 15.5493 8.50928C15.5493 7.85303 15.9243 7.29053 16.4868 7.10303L20.9868 5.32178C21.2681 5.13428 21.7368 5.13428 22.1118 5.32178L26.6118 7.10303C27.1743 7.29053 27.5493 7.85303 27.5493 8.50928C27.5493 9.91553 27.1743 12.0718 25.9556 13.853C28.5806 13.478 30.3618 12.728 31.3931 12.1655C31.7681 11.978 32.0493 11.603 32.0493 11.0405V10.2905C32.0493 9.91553 32.1431 9.54053 32.4243 9.25928L35.0493 6.63428L21.5493 3.63428L8.04932 6.63428ZM17.0493 35.1343C17.0493 34.3843 17.7056 33.6343 18.5493 33.6343H21.5493H24.5493C25.2993 33.6343 26.0493 34.3843 26.0493 35.1343C26.0493 35.978 25.2993 36.6343 24.5493 36.6343H23.8931L25.6743 40.103L30.4556 33.728C37.2056 34.0093 42.5493 39.5405 42.5493 46.2905C42.5493 47.603 41.4243 48.6343 40.1118 48.6343H23.0493H20.0493H2.89307C1.58057 48.6343 0.549316 47.603 0.549316 46.2905C0.549316 39.5405 5.79932 34.0093 12.5493 33.728L17.3306 40.103L19.1118 36.6343H18.5493C17.7056 36.6343 17.0493 35.978 17.0493 35.1343ZM21.5493 38.5093L19.3931 42.8218L19.6743 43.1968L21.5493 45.6343L23.4243 43.1968L23.6118 42.8218L21.5493 38.5093ZM17.7993 45.6343L11.1431 36.9155C7.01807 37.7593 3.83057 41.3218 3.54932 45.6343H17.7993ZM25.2993 45.6343H39.4556C39.1743 41.3218 36.0806 37.7593 31.8618 36.9155L25.2993 45.6343ZM9.54932 18.6343C9.54932 18.4468 9.54932 18.1655 9.54932 17.8843C10.3931 18.2593 11.3306 18.6343 12.5493 19.0093C12.6431 23.7905 16.6743 27.6343 21.5493 27.6343C26.3306 27.6343 30.3618 23.7905 30.4556 19.0093C31.6743 18.6343 32.6118 18.2593 33.4556 17.8843C33.4556 18.1655 33.5493 18.4468 33.5493 18.6343C33.5493 25.2905 28.1118 30.6343 21.5493 30.6343C14.8931 30.6343 9.54932 25.2905 9.54932 18.6343ZM21.5493 14.0405C23.4243 12.9155 24.1743 11.0405 24.4556 9.44678L21.5493 8.32178L18.5493 9.44678C18.8306 11.0405 19.5806 12.9155 21.5493 14.0405Z" fill="#E30613"/>
</svg>
