<svg width="49" height="43" viewBox="0 0 49 43" fill="none" xmlns="http://www.w3.org/2000/svg">
<path d="M15.1526 3.85522V9.85522H45.1526V6.85522C45.1526 5.26147 43.7463 3.85522 42.1526 3.85522H15.1526ZM12.1526 3.85522H6.15259C4.46509 3.85522 3.15259 5.26147 3.15259 6.85522V9.85522H12.1526V3.85522ZM3.15259 12.8552V36.8552C3.15259 38.5427 4.46509 39.8552 6.15259 39.8552H42.1526C43.7463 39.8552 45.1526 38.5427 45.1526 36.8552V12.8552H13.6526H3.15259ZM0.152588 6.85522C0.152588 3.57397 2.77759 0.855225 6.15259 0.855225H42.1526C45.4338 0.855225 48.1526 3.57397 48.1526 6.85522V36.8552C48.1526 40.2302 45.4338 42.8552 42.1526 42.8552H6.15259C2.77759 42.8552 0.152588 40.2302 0.152588 36.8552V6.85522Z" fill="#E30613"/>
</svg>
