<svg width="15" height="15" viewBox="0 0 15 15" fill="none" xmlns="http://www.w3.org/2000/svg">
<path d="M4.97766 2.44385H1.97766V5.44385H4.97766V2.44385ZM1.97766 0.943848H4.97766C5.79016 0.943848 6.47766 1.63135 6.47766 2.44385V5.44385C6.47766 6.2876 5.79016 6.94385 4.97766 6.94385H1.97766C1.13391 6.94385 0.477661 6.2876 0.477661 5.44385V2.44385C0.477661 1.63135 1.13391 0.943848 1.97766 0.943848ZM4.97766 10.4438H1.97766V13.4438H4.97766V10.4438ZM1.97766 8.94385H4.97766C5.79016 8.94385 6.47766 9.63135 6.47766 10.4438V13.4438C6.47766 14.2876 5.79016 14.9438 4.97766 14.9438H1.97766C1.13391 14.9438 0.477661 14.2876 0.477661 13.4438V10.4438C0.477661 9.63135 1.13391 8.94385 1.97766 8.94385ZM9.97766 2.44385V5.44385H12.9777V2.44385H9.97766ZM8.47766 2.44385C8.47766 1.63135 9.13391 0.943848 9.97766 0.943848H12.9777C13.7902 0.943848 14.4777 1.63135 14.4777 2.44385V5.44385C14.4777 6.2876 13.7902 6.94385 12.9777 6.94385H9.97766C9.13391 6.94385 8.47766 6.2876 8.47766 5.44385V2.44385ZM2.72766 3.69385C2.72766 3.44385 2.94641 3.19385 3.22766 3.19385H3.72766C3.97766 3.19385 4.22766 3.44385 4.22766 3.69385V4.19385C4.22766 4.4751 3.97766 4.69385 3.72766 4.69385H3.22766C2.94641 4.69385 2.72766 4.4751 2.72766 4.19385V3.69385ZM3.22766 11.1938H3.72766C3.97766 11.1938 4.22766 11.4438 4.22766 11.6938V12.1938C4.22766 12.4751 3.97766 12.6938 3.72766 12.6938H3.22766C2.94641 12.6938 2.72766 12.4751 2.72766 12.1938V11.6938C2.72766 11.4438 2.94641 11.1938 3.22766 11.1938ZM10.7277 3.69385C10.7277 3.44385 10.9464 3.19385 11.2277 3.19385H11.7277C11.9777 3.19385 12.2277 3.44385 12.2277 3.69385V4.19385C12.2277 4.4751 11.9777 4.69385 11.7277 4.69385H11.2277C10.9464 4.69385 10.7277 4.4751 10.7277 4.19385V3.69385ZM8.47766 9.44385C8.47766 9.19385 8.69641 8.94385 8.97766 8.94385H10.9777C11.2277 8.94385 11.4777 9.19385 11.4777 9.44385C11.4777 9.7251 11.6964 9.94385 11.9777 9.94385H12.9777C13.2277 9.94385 13.4777 9.7251 13.4777 9.44385C13.4777 9.19385 13.6964 8.94385 13.9777 8.94385C14.2277 8.94385 14.4777 9.19385 14.4777 9.44385V12.4438C14.4777 12.7251 14.2277 12.9438 13.9777 12.9438H11.9777C11.6964 12.9438 11.4777 12.7251 11.4777 12.4438C11.4777 12.1938 11.2277 11.9438 10.9777 11.9438C10.6964 11.9438 10.4777 12.1938 10.4777 12.4438V14.4438C10.4777 14.7251 10.2277 14.9438 9.97766 14.9438H8.97766C8.69641 14.9438 8.47766 14.7251 8.47766 14.4438V9.44385ZM11.9777 13.9438C12.2277 13.9438 12.4777 14.1938 12.4777 14.4438C12.4777 14.7251 12.2277 14.9438 11.9777 14.9438C11.6964 14.9438 11.4777 14.7251 11.4777 14.4438C11.4777 14.1938 11.6964 13.9438 11.9777 13.9438ZM13.9777 13.9438C14.2277 13.9438 14.4777 14.1938 14.4777 14.4438C14.4777 14.7251 14.2277 14.9438 13.9777 14.9438C13.6964 14.9438 13.4777 14.7251 13.4777 14.4438C13.4777 14.1938 13.6964 13.9438 13.9777 13.9438Z" fill="#E30613"/>
</svg>
