<svg width="62" height="65" viewBox="0 0 62 65" fill="none" xmlns="http://www.w3.org/2000/svg">
<path d="M29.4094 4.91357L7.28442 14.2886C5.90942 14.7886 4.90942 16.1636 5.03442 17.6636C5.03442 29.4136 9.90942 50.1636 29.4094 59.5386C30.4094 60.0386 31.5344 60.0386 32.5344 59.5386C52.0344 50.1636 56.9094 29.4136 57.0344 17.6636C57.0344 16.1636 56.0344 14.9136 54.6594 14.2886L32.5344 4.91357C31.5344 4.41357 30.4094 4.41357 29.4094 4.91357ZM34.1594 1.16357L56.1594 10.5386C58.9094 11.7886 61.0344 14.4136 61.0344 17.6636C60.9094 30.1636 55.7844 52.7886 34.2844 63.1636C32.1594 64.1636 29.7844 64.1636 27.6594 63.1636C6.15942 52.7886 1.03442 30.1636 1.03442 17.6636C0.909424 14.4136 3.03442 11.7886 5.78442 10.5386L27.9094 1.16357C29.9094 0.288574 32.1594 0.288574 34.1594 1.16357ZM31.0344 16.1636C32.0344 16.1636 33.0344 17.1636 33.0344 18.1636V34.1636C33.0344 35.2886 32.0344 36.1636 31.0344 36.1636C29.9094 36.1636 29.0344 35.2886 29.0344 34.1636V18.1636C29.0344 17.1636 29.9094 16.1636 31.0344 16.1636ZM34.0344 44.1636C34.0344 45.9136 32.6594 47.1636 31.0344 47.1636C29.2844 47.1636 28.0344 45.9136 28.0344 44.1636C28.0344 42.5386 29.2844 41.1636 31.0344 41.1636C32.6594 41.1636 34.0344 42.5386 34.0344 44.1636Z" fill="white"/>
</svg>
