<svg width="46" height="49" viewBox="0 0 46 49" fill="none" xmlns="http://www.w3.org/2000/svg">
<path d="M21.3794 3.63184L4.78564 10.6631C3.75439 11.0381 3.00439 12.0693 3.09814 13.1943C3.09814 22.0068 6.75439 37.5693 21.3794 44.6006C22.1294 44.9756 22.9731 44.9756 23.7231 44.6006C38.3481 37.5693 42.0044 22.0068 42.0981 13.1943C42.0981 12.0693 41.3481 11.1318 40.3169 10.6631L23.7231 3.63184C22.9731 3.25684 22.1294 3.25684 21.3794 3.63184ZM24.9419 0.819336L41.4419 7.85059C43.5044 8.78809 45.0981 10.7568 45.0981 13.1943C45.0044 22.5693 41.1606 39.5381 25.0356 47.3193C23.4419 48.0693 21.6606 48.0693 20.0669 47.3193C3.94189 39.5381 0.0981445 22.5693 0.0981445 13.1943C0.00439453 10.7568 1.59814 8.78809 3.66064 7.85059L20.2544 0.819336C21.7544 0.163086 23.4419 0.163086 24.9419 0.819336ZM32.6294 19.1943L20.6294 31.1943C20.0669 31.7568 19.0356 31.7568 18.4731 31.1943L12.4731 25.1943C11.9106 24.6318 11.9106 23.6006 12.4731 23.0381C13.0356 22.4756 14.0669 22.4756 14.6294 23.0381L19.5981 28.0068L30.4731 17.0381C31.0356 16.4756 32.0669 16.4756 32.6294 17.0381C33.1919 17.6006 33.1919 18.6318 32.6294 19.1943Z" fill="#E30613"/>
</svg>
