<svg width="189" height="132" viewBox="0 0 189 132" fill="none" xmlns="http://www.w3.org/2000/svg">
<path d="M13.6409 1.14673L37.0784 15.2092C37.9573 15.7952 38.5433 17.26 37.6644 18.4319C37.0784 19.3108 35.6136 19.8967 34.4417 19.0178L11.0042 4.95532C10.1253 4.36938 9.53937 2.90454 10.4183 1.73267C11.0042 0.85376 12.4691 0.267822 13.6409 1.14673ZM177.703 4.95532L154.266 19.0178C153.094 19.8967 151.629 19.3108 151.043 18.4319C150.164 17.26 150.75 15.7952 151.629 15.2092L175.067 1.14673C176.239 0.267822 177.703 0.560791 178.289 1.73267C179.168 2.90454 178.582 4.36938 177.703 4.95532ZM3.09406 47.4358H26.5316C27.7034 47.4358 28.8753 48.6077 28.8753 49.7795C28.8753 51.2444 27.7034 52.1233 26.5316 52.1233H3.09406C1.62921 52.1233 0.750305 51.2444 0.750305 49.7795C0.750305 48.6077 1.62921 47.4358 3.09406 47.4358ZM162.469 47.4358H185.907C187.078 47.4358 188.25 48.6077 188.25 49.7795C188.25 51.2444 187.078 52.1233 185.907 52.1233H162.469C161.004 52.1233 160.125 51.2444 160.125 49.7795C160.125 48.6077 161.004 47.4358 162.469 47.4358ZM144.891 84.9358H144.598H139.91L134.051 36.303C133.172 29.2717 127.02 23.9983 119.989 23.9983H68.7191C61.6878 23.9983 55.5355 29.2717 54.6566 36.303L48.7972 84.9358H44.1097L50.262 36.01C51.4339 26.342 59.3441 19.3108 68.7191 19.3108H119.989C129.364 19.3108 137.567 26.342 138.739 36.01L144.891 84.9358ZM65.4964 84.9358H60.5159L66.3753 40.1116C66.3753 38.9397 67.5472 38.0608 69.012 38.0608C70.1839 38.3538 71.0628 39.5256 70.7698 40.6975L65.4964 84.9358ZM146.063 98.9983H42.9378C37.6644 98.9983 33.5628 103.393 33.5628 108.373V117.748C33.5628 123.022 37.6644 127.123 42.9378 127.123H146.063C151.043 127.123 155.438 123.022 155.438 117.748V108.373C155.438 103.393 151.043 98.9983 146.063 98.9983ZM42.9378 94.3108H146.063C153.68 94.3108 160.125 100.756 160.125 108.373V117.748C160.125 125.658 153.68 131.811 146.063 131.811H42.9378C35.0276 131.811 28.8753 125.658 28.8753 117.748V108.373C28.8753 100.756 35.0276 94.3108 42.9378 94.3108Z" fill="white"/>
</svg>
