<svg width="17" height="17" viewBox="0 0 17 17" fill="none" xmlns="http://www.w3.org/2000/svg">
<path d="M6.97766 13.9438V14.4438L9.22766 12.7563C9.47766 12.5688 9.79016 12.4438 10.1339 12.4438H14.4777C14.7277 12.4438 14.9777 12.2251 14.9777 11.9438V2.94385C14.9777 2.69385 14.7277 2.44385 14.4777 2.44385H2.47766C2.19641 2.44385 1.97766 2.69385 1.97766 2.94385V11.9438C1.97766 12.2251 2.19641 12.4438 2.47766 12.4438H5.47766C6.29016 12.4438 6.97766 13.1313 6.97766 13.9438ZM6.94641 16.3501L6.79016 16.4438L6.25891 16.8501C6.10266 16.9751 5.91516 16.9751 5.72766 16.9126C5.57141 16.8188 5.47766 16.6626 5.47766 16.4438V15.7876V15.6001V15.5688V15.4438V13.9438H3.97766H2.47766C1.35266 13.9438 0.477661 13.0688 0.477661 11.9438V2.94385C0.477661 1.8501 1.35266 0.943848 2.47766 0.943848H14.4777C15.5714 0.943848 16.4777 1.8501 16.4777 2.94385V11.9438C16.4777 13.0688 15.5714 13.9438 14.4777 13.9438H10.1339L6.97766 16.3188L6.94641 16.3501ZM5.22766 5.44385H11.7277C12.1339 5.44385 12.4777 5.7876 12.4777 6.19385C12.4777 6.63135 12.1339 6.94385 11.7277 6.94385H5.22766C4.79016 6.94385 4.47766 6.63135 4.47766 6.19385C4.47766 5.7876 4.79016 5.44385 5.22766 5.44385ZM5.22766 8.44385H8.72766C9.13391 8.44385 9.47766 8.7876 9.47766 9.19385C9.47766 9.63135 9.13391 9.94385 8.72766 9.94385H5.22766C4.79016 9.94385 4.47766 9.63135 4.47766 9.19385C4.47766 8.7876 4.79016 8.44385 5.22766 8.44385Z" fill="#E30613"/>
</svg>
