<svg width="57" height="65" viewBox="0 0 57 65" fill="none" xmlns="http://www.w3.org/2000/svg">
<path d="M21.1592 4.91357C20.4092 5.78857 19.6592 7.03857 18.9092 8.91357C18.0342 10.7886 17.4092 12.7886 16.9092 14.7886C19.9092 15.6636 23.6592 16.1636 28.0342 16.1636C32.1592 16.1636 35.9092 15.5386 39.0342 14.6636C38.5342 12.6636 37.9092 10.6636 37.1592 8.91357C36.4092 7.03857 35.5342 5.78857 34.9092 4.91357C34.4092 4.41357 34.0342 4.28857 34.0342 4.16357C33.4092 4.16357 33.0342 4.28857 32.9092 4.28857C32.7842 4.41357 32.6592 4.41357 32.4092 4.53857V4.66357C31.9092 4.91357 30.2842 6.16357 28.0342 6.16357C25.6592 6.16357 24.0342 4.91357 23.5342 4.66357C23.5342 4.53857 23.5342 4.53857 23.5342 4.53857C23.2842 4.41357 23.1592 4.41357 23.0342 4.28857C22.9092 4.28857 22.6592 4.16357 22.0342 4.16357C21.9092 4.28857 21.6592 4.41357 21.1592 4.91357ZM34.0342 0.163574C38.2842 0.163574 41.1592 7.03857 42.7842 13.4136C42.9092 13.4136 43.0342 13.4136 43.1592 13.4136C45.0342 12.6636 46.4092 11.9136 47.4092 11.4136C47.9092 11.1636 48.2842 10.9136 48.5342 10.7886C48.6592 10.6636 48.7842 10.6636 48.7842 10.6636L48.9092 10.5386C49.1592 10.4136 49.5342 10.2886 50.0342 10.2886C51.0342 10.2886 52.0342 11.1636 52.0342 12.2886C52.0342 12.9136 51.6592 13.5386 51.0342 13.9136L50.9092 14.0386C50.9092 14.0386 50.7842 14.1636 50.6592 14.1636C50.2842 14.4136 49.9092 14.6636 49.2842 14.9136C48.1592 15.5386 46.6592 16.2886 44.5342 17.0386C40.5342 18.6636 34.7842 20.1636 28.0342 20.1636C20.6592 20.1636 14.9092 18.6636 11.0342 17.0386C9.03418 16.2886 7.53418 15.5386 6.40918 14.9136C5.90918 14.5386 5.53418 14.2886 5.28418 14.1636C5.15918 14.0386 5.03418 14.0386 4.90918 13.9136H4.78418V13.7886C4.28418 13.5386 4.03418 12.9136 4.03418 12.1636C4.03418 11.1636 4.90918 10.1636 6.03418 10.1636C6.40918 10.1636 6.90918 10.4136 7.15918 10.6636H7.28418L7.40918 10.7886C7.65918 10.9136 8.03418 11.1636 8.40918 11.4136C9.40918 11.9136 10.6592 12.6636 12.5342 13.4136C12.6592 13.4136 12.9092 13.5386 13.1592 13.6636C14.7842 7.16357 17.6592 0.163574 22.0342 0.163574C24.2842 0.163574 25.1592 0.913574 26.0342 1.41357C26.6592 1.91357 27.1592 2.16357 28.0342 2.16357C28.7842 2.16357 29.2842 1.91357 29.9092 1.41357C30.7842 0.913574 31.7842 0.163574 34.0342 0.163574ZM12.5342 28.1636C12.1592 26.9136 12.0342 25.5386 12.0342 24.1636C12.0342 23.4136 12.0342 22.5386 12.1592 21.7886C13.4092 22.1636 14.6592 22.5386 16.0342 22.9136C16.0342 23.2886 16.0342 23.7886 16.0342 24.1636C16.0342 30.7886 21.4092 36.1636 28.0342 36.1636C34.6592 36.1636 40.0342 30.7886 40.0342 24.1636C40.0342 23.6636 39.9092 23.2886 39.9092 22.7886C41.2842 22.4136 42.5342 22.0386 43.7842 21.6636C43.9092 22.5386 44.0342 23.2886 44.0342 24.2886C44.0342 25.6636 43.7842 26.9136 43.5342 28.2886H52.4092C53.2842 28.2886 54.0342 28.9136 54.0342 29.7886C54.0342 30.0386 53.9092 30.2886 53.7842 30.5386L48.0342 41.4136C52.9092 45.7886 56.0342 52.1636 56.0342 59.1636V60.1636C56.0342 62.4136 54.1592 64.1636 52.0342 64.1636H34.0342H33.9092H22.0342H21.9092H4.03418C1.78418 64.1636 0.0341797 62.4136 0.0341797 60.1636V59.1636C0.0341797 52.1636 3.03418 45.7886 7.90918 41.4136L2.15918 30.5386C2.03418 30.2886 2.03418 30.0386 2.03418 29.7886C2.03418 28.9136 2.65918 28.1636 3.53418 28.1636H12.5342ZM41.7842 32.1636C39.0342 37.0386 33.9092 40.1636 27.9092 40.1636C22.0342 40.1636 16.9092 37.0386 14.1592 32.1636H7.53418L11.4092 39.5386C12.2842 41.1636 11.9092 43.1636 10.5342 44.4136C6.53418 48.0386 4.03418 53.2886 4.03418 59.1636V60.1636H19.2842L16.0342 48.7886C15.7842 47.6636 16.4092 46.5386 17.4092 46.2886C18.5342 46.0386 19.6592 46.6636 19.9092 47.6636L22.4092 56.5386L25.1592 48.1636H24.0342C22.9092 48.1636 22.0342 47.2886 22.0342 46.1636C22.0342 45.1636 22.9092 44.1636 24.0342 44.1636H28.0342H32.0342C33.0342 44.1636 34.0342 45.1636 34.0342 46.1636C34.0342 47.2886 33.0342 48.1636 32.0342 48.1636H30.7842L33.5342 56.5386L36.0342 47.6636C36.4092 46.6636 37.5342 46.0386 38.5342 46.2886C39.6592 46.5386 40.1592 47.6636 39.9092 48.7886L36.6592 60.1636H52.0342V59.1636C52.0342 53.2886 49.4092 48.0386 45.4092 44.4136C44.0342 43.1636 43.6592 41.1636 44.5342 39.5386L48.4092 32.1636H41.7842ZM30.5342 60.1636L28.0342 52.5386L25.4092 60.1636H30.5342ZM18.0342 23.2886C19.2842 23.5386 20.5342 23.6636 22.0342 23.9136V24.9136C22.0342 25.7886 22.6592 26.5386 23.5342 26.5386C24.2842 26.5386 24.9092 26.1636 25.0342 25.4136L25.5342 24.1636C26.2842 24.1636 27.1592 24.1636 28.0342 24.1636C28.7842 24.1636 29.6592 24.1636 30.4092 24.1636L30.9092 25.4136C31.1592 26.1636 31.6592 26.5386 32.4092 26.5386C33.2842 26.5386 34.0342 25.7886 34.0342 24.9136V23.7886C35.4092 23.6636 36.6592 23.4136 38.0342 23.1636V24.9136C38.0342 28.0386 35.5342 30.5386 32.4092 30.5386C30.6592 30.5386 29.0342 29.7886 28.0342 28.4136C26.9092 29.7886 25.2842 30.5386 23.5342 30.5386C20.5342 30.5386 18.0342 28.0386 18.0342 24.9136V23.2886Z" fill="white"/>
</svg>
